<svg xmlns="http://www.w3.org/2000/svg" width="590" height="600" viewBox="0 0 590 600"><title>bubbles</title><rect x="141.41" y="497.34" width="6.68" height="30.97" fill="#fff"/><path d="M378.07,586.45a8.21,8.21,0,0,1-7.82,5.69h-248a8.2,8.2,0,0,1-7.79-5.69,8.34,8.34,0,0,1,.07-5.4l15.63-42.55a8.13,8.13,0,0,1,7.72-5.4H346.71a8.32,8.32,0,0,1,7.24,4.25l.75,1.36,22.78,41.18A8.18,8.18,0,0,1,378.07,586.45Z" fill="#dddae4"/><path d="M269.92,555.29c-6-3-16.88-2.51-23.54-2.51h-.19c-6.56,0-17.56-.48-23.54,2.51-6.46,3.18-2.22,10.22,4,10.42,6.47.29,13,.29,19.59.19,6.56.1,13.12.1,19.58-.19C272.14,565.51,276.29,558.47,269.92,555.29Z" fill="#fff"/><path d="M378.07,586.45a8.21,8.21,0,0,1-7.82,5.69h-248a8.2,8.2,0,0,1-7.79-5.69Z" fill="#979699"/><path d="M366.55,497.52V538A139.9,139.9,0,0,0,337,542c-9,2.13-18.71-2-22.39-10.51-.86-2.12-1.73-4.25-2.6-6.46-3.67-8.49,2.51-19.11,14.47-22.1A179.06,179.06,0,0,1,366.55,497.52Z" fill="#99776b"/><path d="M521.36,294.17a259.36,259.36,0,0,1-97.69,203.05H99.3a259.36,259.36,0,0,1-97.69-203C1.61,150.65,118,34.3,261.48,34.3S521.36,150.65,521.36,294.17Z" fill="#fff"/><path d="M157.33,425.12H96.74a109.32,109.32,0,0,1-4.57,13.22h69.75C159.81,433.61,158.76,429.32,157.33,425.12Z" fill="#fff"/><path d="M198.44,287.21a12.86,12.86,0,0,1-12.25-10.71,11,11,0,0,1-.1-4l-3.28-.77-.87-.19-1.15-.29-.68-.19-.48-.1-.77-.19-3.09-.68-1.25-.29-2.13-.48-1.15-.29-.49-.1-.48-.09-.67-.2L168,268.3l-1.45-.29-2.32-.58-1.35-.29-1.73-.38-1.84-.39-1.35-.29-.19-.1h-.1l-.58-.09-.48-.1-.38-.1-.49-2.6L68,278.33,69,284l-1.25.77-1.45,1-.58.39-.48.28-.48.29-1.07.68-1.83,1.16-1.06.67L58.08,291l-.68.38-.38.29-.58.39-1.06.68-.77.48L51.71,295A12.54,12.54,0,0,1,53,298.78a13.12,13.12,0,0,1-2.22,9.75,12.82,12.82,0,0,1-8.39,5.3l-1.64.29a12.73,12.73,0,0,1-3.28.19l2.7,15.54-4.92.86,1,5.41c.1.48.19,1,.29,1.44s.19.87.29,1.35c.29,1.35.58,2.61.87,3.86s.58,2.32,1,3.47c.2.58.39,1.16.58,1.74l.29.87.58,1.74c.1.19.19.48.29.67s.1.39.19.58,0,.29.1.39a56.94,56.94,0,0,0,2.8,6.56c.19.38.38.67.58,1.06a76.35,76.35,0,0,0,3.76,6.85,9,9,0,0,0,.77,1.25,80.85,80.85,0,0,0,7.72,10.32c.29.29.48.58.77.87a86.41,86.41,0,0,0,43.59,26,125.26,125.26,0,0,1-3,16.74c-.38,1.36-.77,2.8-1.16,4.25-.09.39-.19.77-.29,1.16l1.64.29a156.42,156.42,0,0,0,56.05.77l4.25-.77c-.2-.49-.29-1-.49-1.45s-.29-.87-.38-1.35c-.29-1-.58-1.93-.77-2.9a126.93,126.93,0,0,1-3.12-18,87.12,87.12,0,0,0,11.32-4,10.36,10.36,0,0,0,1.83-.77,86.24,86.24,0,0,0,43.22-45.34c.09-.39.29-.68.38-1.06A79.21,79.21,0,0,0,214,340.36c.1-.48.19-1,.29-1.45a67.69,67.69,0,0,0,1.25-7.71c0-.39.1-.78.1-1.16a57.84,57.84,0,0,0,.48-7.14V319Z" fill="#7a645d"/><path d="M491.8,497.5h-289v-9A152.67,152.67,0,0,0,232.68,469a176.56,176.56,0,0,0,35.4-40,204.92,204.92,0,0,0,23-47.85c1.06-3.18,2-6.36,3-9.54.68-2.41,1.35-4.92,2-7.44q2.6-10.62,4.24-21.7t2.22-22.57c.1-1.26.1-2.61.19-3.86v-1.64c0-.07,0-.12,0-.19H392c0,.77,0,1.54.06,2.31,0,1.16.09,2.23.09,3.38.4,7.67,1.11,15.22,2.19,22.6a211.83,211.83,0,0,0,4.28,21.67c.38,1.64.87,3.39,1.35,5,.2.77.49,1.64.67,2.41.39,1.44.78,2.8,1.26,4.24.09.38.29.87.38,1.26A206.53,206.53,0,0,0,422,421.59a184.08,184.08,0,0,0,34.34,42.53c1.35,1.26,2.7,2.51,4.16,3.68a160.29,160.29,0,0,0,21,15.14c1,.58,1.93,1.15,2.81,1.64A14.68,14.68,0,0,1,491.8,497.5Z" fill="#3c2c6a"/><path d="M343.72,334.19c0,5.78-8.78,5.78-8.68,0C334.94,328.4,343.72,328.4,343.72,334.19Z" fill="#1d1533"/><path d="M342.56,333.12c0,5.79-8.78,5.79-8.68,0C333.78,327.24,342.56,327.24,342.56,333.12Z" fill="#fff"/><path d="M343.72,410.2c0,5.79-8.78,5.79-8.68,0C334.94,404.41,343.72,404.41,343.72,410.2Z" fill="#1d1533"/><path d="M342.56,409.14c0,5.79-8.78,5.79-8.68,0C333.78,403.35,342.56,403.35,342.56,409.14Z" fill="#fff"/><path d="M343.72,486.32c0,5.78-8.78,5.78-8.68,0C334.94,480.53,343.72,480.53,343.72,486.32Z" fill="#1d1533"/><path d="M342.56,485.16c0,5.79-8.78,5.79-8.68,0C333.78,479.37,342.56,479.37,342.56,485.16Z" fill="#fff"/><path d="M368.22,193.63c0,26.24-40.9,26.24-40.51,0C327.32,167.49,368.22,167.49,368.22,193.63Z" fill="#7a5c63"/><path d="M293.36,382.42c-1.06,3.38,1.26,6.08,4.63,7.23,4.44,1.45,9.55-.28,11.87-3.76l37.43-62.7-44.18-8Z" fill="#1d1533"/><path d="M401.31,382.42l-9.74-67.24-44.19,8,37.43,62.7c2.22,3.48,7.34,5.21,11.87,3.76C400.06,388.5,402.37,385.8,401.31,382.42Z" fill="#1d1533"/><path d="M288,361.2l15.24-47.08,44.09,9.74L302,368.91a9.08,9.08,0,0,1-11.77,1C287.38,367.85,286,364.48,288,361.2Z" fill="#4a3585"/><path d="M404.3,369.88a3.82,3.82,0,0,1-1.06.67,7.11,7.11,0,0,1-2.7.87c-.29,0-.58.1-.87.1h-1.45a8.9,8.9,0,0,1-5.69-2.61l-44.08-43.79h0l-.68-.58-.48-.48-.1-.1-.09-.1h.19l.29-.09h.19l15.44-3.38h.09l.48-.1h.1l27.49-6.07.1.19.68,2,14.56,44.85C408.45,364.48,407.19,367.85,404.3,369.88Z" fill="#4a3585"/><rect x="346.81" y="323.19" width="0.96" height="174.32"/><path d="M363.88,538H475.59c9,0,16.21-8,16.21-17.83l-.05-23.27-127.87-3.47Z" fill="#3c2c6a"/><path d="M363.88,538H475.59a16.19,16.19,0,0,0,16.21-16.21V497.5H363.88Z" fill="#4a3585"/><path d="M210.11,492.2v5.21H44a8.69,8.69,0,0,1,1.14-4.33,8.34,8.34,0,0,1,3.11-3.1,91.15,91.15,0,0,0,12.83-9c.78-.68,1.64-1.35,2.42-2a102.05,102.05,0,0,0,17.93-20.94c2.42-3.66,4.64-7.34,6.66-11.09a90,90,0,0,0,5.67-12.73l3.62.77a159.14,159.14,0,0,0,56.91.78l6.18-1a121.28,121.28,0,0,0,9.33,18.88,104.43,104.43,0,0,0,22.09,26.53A90.65,90.65,0,0,0,210.11,492.2Z" fill="#118669"/><path d="M113.26,344.89c3.09,17.56-24.6,22.38-27.59,4.83C82.58,332.45,110.08,326.85,113.26,344.89Z" fill="#fff"/><path d="M174.42,336.21c3.09,17.85-24.7,22.67-27.59,4.83C143.55,323.19,171.33,318.37,174.42,336.21Z" fill="#fff"/><path d="M109.3,343.16c1.45,8.58-11.77,10.9-13.31,2.31S107.76,334.57,109.3,343.16Z"/><path d="M168.63,333.7c1.45,8.59-11.77,10.9-13.31,2.32S167.18,325.12,168.63,333.7Z"/><path d="M164.1,370.84c1.44,8.59-11.77,10.9-13.32,2.32S162.55,362.26,164.1,370.84Z"/><path d="M143.45,348.08c2.61,14.85-20.54,18.9-23,3.95C117.7,337.27,140.85,333.22,143.45,348.08Z" fill="#99776b"/><path d="M37.38,352.05c10.85-10.68,27.44,5.64,16.58,16.23S26.53,362.64,37.38,352.05Z" fill="#453835"/><path d="M58.57,357.53A14.81,14.81,0,0,0,53,349.6a12.86,12.86,0,0,0-1.31-.81,13.12,13.12,0,0,0-2.93-1.21,12,12,0,0,0-9.3,1.11,13.89,13.89,0,0,0-2.38,1.7l-.66.62c-.15.14-.28.28-.41.41-.35.36-.66.72-1,1.09a11.79,11.79,0,0,0-2.59,8,13.17,13.17,0,0,0,3.88,8.43A13.83,13.83,0,0,0,45,373.13c.34,0,.67.05,1,.05A11.87,11.87,0,0,0,51.24,372,13.66,13.66,0,0,0,55,369.32C58.39,366,59.67,361.79,58.57,357.53ZM45.23,370.25a11.12,11.12,0,0,1-6.88-3.37c-3.23-3.31-4.58-8.52-.7-13a9.23,9.23,0,0,1,.74-.8h0l.35-.32a10,10,0,0,1,1.38-1.09l.28-.18a9.3,9.3,0,0,1,5-1.46,9.9,9.9,0,0,1,2.56.34c.26.07.51.16.76.25a11.87,11.87,0,0,1,3,1.67,11.11,11.11,0,0,1,4,6,9.12,9.12,0,0,1-2.8,9,11.06,11.06,0,0,1-3.4,2.3A9.14,9.14,0,0,1,45.23,370.25Z"/><path d="M36.66,326.37C53.55,318.46,66.18,344,49.3,351.94S19.88,334.38,36.66,326.37Z" fill="#453835"/><path d="M56.56,331.89c-.24-.43-.5-.86-.77-1.27s-.55-.79-.85-1.17a16.45,16.45,0,0,0-3.52-3.35A14.45,14.45,0,0,0,39.11,324a17.92,17.92,0,0,0-3.06,1.11h0c-.45.21-.88.43-1.29.67s-.83.51-1.22.78c-7,4.82-7.44,12.92-4.58,19a17.06,17.06,0,0,0,6.07,7c.42.27.84.52,1.28.75s.9.43,1.37.62a13.72,13.72,0,0,0,4,.94,11.5,11.5,0,0,0,1.31.07,16.49,16.49,0,0,0,7-1.64,19.24,19.24,0,0,0,1.8-1,13.81,13.81,0,0,0,1.25-.86,10.72,10.72,0,0,0,1.13-.91,13.68,13.68,0,0,0,4.57-9.2A16.67,16.67,0,0,0,56.56,331.89Zm-.78,9.17a10.9,10.9,0,0,1-4.14,7.73,11.48,11.48,0,0,1-1.31.94,14.82,14.82,0,0,1-1.63.88h0a12.68,12.68,0,0,1-8.2,1.12l-.35-.08a10.46,10.46,0,0,1-1.69-.56,13.27,13.27,0,0,1-1.41-.71,14.12,14.12,0,0,1-5.48-6.13c-2.4-5.07-2-11.52,3.7-15.41a11.87,11.87,0,0,1,1.25-.76c.25-.15.51-.28.78-.41l.59-.26a14.94,14.94,0,0,1,1.74-.6,11.67,11.67,0,0,1,10.16,1.66,13.07,13.07,0,0,1,2.39,2.13,14.16,14.16,0,0,1,1,1.21,10,10,0,0,1,.8,1.27A13.75,13.75,0,0,1,55.78,341.06Z"/><path d="M46.12,301.68c20.26-1.35,23,29.61,2.7,31S25.86,303,46.12,301.68Z" fill="#453835"/><path d="M64.14,316.42c0-.28,0-.57-.08-.85-.06-.49-.12-1-.22-1.47s-.2-1-.33-1.44a16.49,16.49,0,0,0-10.37-11.54,17.13,17.13,0,0,0-5.73-.94c-.45,0-.92,0-1.39.05s-.84.07-1.25.12-1,.15-1.43.25-1,.22-1.42.35a14.92,14.92,0,0,0-9.4,7.89,18.81,18.81,0,0,0,1,17.69c.12.19.24.38.37.57s.3.42.46.63a12,12,0,0,0,.91,1.12,14,14,0,0,0,1.61,1.57,16,16,0,0,0,10.59,3.72c.48,0,1,0,1.47-.05a18.78,18.78,0,0,0,5-1c.47-.17.93-.35,1.36-.55s.87-.42,1.28-.65C62.21,328.6,64.52,322.25,64.14,316.42ZM40,329.16a11.88,11.88,0,0,1-2.15-1.74,12,12,0,0,1-1-1.13c-.21-.27-.4-.54-.59-.81l-.26-.4a15.83,15.83,0,0,1-.91-15,12.08,12.08,0,0,1,7.41-6.31,12.49,12.49,0,0,1,1.4-.37q.69-.15,1.44-.24l.85-.08a14.76,14.76,0,0,1,6.56.94,13.49,13.49,0,0,1,7.88,9.1,14.1,14.1,0,0,1,.33,1.43c.1.49.17,1,.22,1.46,0,.19,0,.38,0,.56.34,5-1.57,10.2-6.3,12.84a11.57,11.57,0,0,1-1.32.65,14.7,14.7,0,0,1-1.46.51,17,17,0,0,1-3.45.59A14,14,0,0,1,40,329.16Z"/><path d="M63.39,282.48c20.45,5.88,12,37.24-8.4,31.45S42.93,276.6,63.39,282.48Z" fill="#453835"/><path d="M68.86,283.35a19,19,0,0,0-5.08-2.26c-.49-.14-1-.27-1.47-.37s-1-.18-1.43-.25-1-.1-1.45-.13a15.49,15.49,0,0,0-12,4.41A19.66,19.66,0,0,0,41.92,301q.09.74.24,1.44c.05.25.11.5.17.74a5.27,5.27,0,0,0,.19.68,16.11,16.11,0,0,0,5.07,7.88,18.55,18.55,0,0,0,7,3.63,19.38,19.38,0,0,0,5.34.78c.43,0,.85,0,1.26-.05s1-.1,1.43-.17,1-.19,1.43-.31c6.09-1.62,10.2-6.75,11.78-12.29.15-.54.29-1.09.4-1.65s.17-1,.23-1.47.09-1,.11-1.47A16.92,16.92,0,0,0,68.86,283.35Zm4.85,15c0,.5-.06,1-.12,1.48a13.29,13.29,0,0,1-.24,1.45c-.09.42-.18.82-.3,1.22-1.29,4.53-4.61,8.75-9.54,10.17a9.46,9.46,0,0,1-1.42.33,11.12,11.12,0,0,1-1.44.17,16.05,16.05,0,0,1-5.26-.62,15.69,15.69,0,0,1-5.61-2.82,13.13,13.13,0,0,1-4.42-6.52c-.09-.25-.16-.51-.23-.77s-.1-.43-.13-.64a11.37,11.37,0,0,1-.23-1.44,16.63,16.63,0,0,1,4.7-13.52,12.73,12.73,0,0,1,9-3.63H59a14.07,14.07,0,0,1,1.43.13,14.27,14.27,0,0,1,1.43.25c.37.08.72.17,1.09.28a16.44,16.44,0,0,1,3.78,1.57A13.85,13.85,0,0,1,73.71,298.34Z"/><path d="M85.09,269.75c17.85,11.48.77,39.16-17.07,27.68S67.15,258.27,85.09,269.75Z" fill="#453835"/><path d="M91.62,274.23a18.29,18.29,0,0,0-5.75-5.7,17.44,17.44,0,0,0-1.65-.95,14.17,14.17,0,0,0-1.31-.63,12.62,12.62,0,0,0-1.36-.52c-8.23-2.81-15.61,1.47-19.45,7.46a19.64,19.64,0,0,0-2.67,6.45c-.11.47-.19,1-.26,1.44s-.11,1-.14,1.43a16.94,16.94,0,0,0,.91,6.56,17.5,17.5,0,0,0,7.29,8.88,19,19,0,0,0,6.12,2.62c.48.11,1,.18,1.42.24a12.14,12.14,0,0,0,1.47.12h.45c6.06,0,11.25-3.66,14.28-8.36a20.62,20.62,0,0,0,1.65-3.16c.19-.45.35-.91.51-1.37s.29-.92.4-1.39a18.43,18.43,0,0,0,.55-4.44A16.22,16.22,0,0,0,91.62,274.23Zm-.77,11.93a14.25,14.25,0,0,1-.39,1.46A12.09,12.09,0,0,1,90,289a16.22,16.22,0,0,1-1.42,2.71c-2.53,4-6.88,7-12,7a11.72,11.72,0,0,1-1.44-.09,14.32,14.32,0,0,1-1.43-.26,15.59,15.59,0,0,1-4.91-2.12,14.47,14.47,0,0,1-6.36-8,13.3,13.3,0,0,1-.55-4.59,14.15,14.15,0,0,1,.14-1.46,10,10,0,0,1,.28-1.41,16.7,16.7,0,0,1,2.23-5.26c2.58-4,6.81-7,11.8-7a13.39,13.39,0,0,1,4.26.73,13,13,0,0,1,1.37.54c.45.19.9.42,1.36.67s.65.38,1,.59a16.22,16.22,0,0,1,4.19,3.81A13.57,13.57,0,0,1,90.85,286.16Z"/><path d="M216.31,338.82c-12.59,8.77-26.31-10.33-13.72-19S228.9,330.05,216.31,338.82Z" fill="#453835"/><path d="M222.25,326.34a14.48,14.48,0,0,0-2.05-4.25,15,15,0,0,0-1.81-2.15,14,14,0,0,0-3.06-2.27l-.21-.11a10.17,10.17,0,0,0-1.35-.61,9.94,9.94,0,0,0-1.49-.48h0a12.6,12.6,0,0,0-10.5,2.15,14.71,14.71,0,0,0-1.9,1.55,14.85,14.85,0,0,0-2,2.39,11.51,11.51,0,0,0-1.72,7.16,13.83,13.83,0,0,0,2,6,14.48,14.48,0,0,0,4.87,4.91,11.07,11.07,0,0,0,1.26.69,12.11,12.11,0,0,0,5.26,1.22,11.85,11.85,0,0,0,3.84-.64l.2-.06a14.61,14.61,0,0,0,3.52-1.83,12.23,12.23,0,0,0,5.53-8.81A12.49,12.49,0,0,0,222.25,326.34Zm-7.86,12a9.39,9.39,0,0,1-8.83.39,7.33,7.33,0,0,1-.73-.39,11.71,11.71,0,0,1-4.69-5,10.8,10.8,0,0,1-1.06-3.78,8.68,8.68,0,0,1,1.8-6.12,9.08,9.08,0,0,1,1.19-1.3,11.21,11.21,0,0,1,1.35-1.08c.15-.11.31-.21.46-.3a10.1,10.1,0,0,1,5.47-1.69h0a9,9,0,0,1,2.13.25l.08,0a9.19,9.19,0,0,1,1.5.52,10.66,10.66,0,0,1,2.42,1.47,4.86,4.86,0,0,1,.6.52,11.36,11.36,0,0,1,1.74,2,11.63,11.63,0,0,1,1.75,3.78,9.82,9.82,0,0,1,.29,2.35,9.31,9.31,0,0,1-4.38,7.75C215.12,337.88,214.75,338.11,214.39,338.31Z"/><path d="M214.16,316.44c-10.8,14.56-33.47-1.64-22.57-16.21S225,301.87,214.16,316.44Z" fill="#453835"/><path d="M218.16,305.52a15.73,15.73,0,0,0-6.12-9.13,16.68,16.68,0,0,0-8.12-3.23,12.08,12.08,0,0,0-1.47-.09l-.75,0-.49,0-.28,0a14.68,14.68,0,0,0-10.5,6.21,16.59,16.59,0,0,0-2.12,3.72,12.69,12.69,0,0,0-.51,1.42c-.14.48-.25,1-.34,1.44a13.42,13.42,0,0,0,.93,7.77,16.79,16.79,0,0,0,9.52,8.85,10.35,10.35,0,0,0,1.43.46,11.81,11.81,0,0,0,1.54.35c.26.05.53.09.79.12a15.59,15.59,0,0,0,1.79.1A13.91,13.91,0,0,0,210,322a14.27,14.27,0,0,0,3.07-2.19,11.3,11.3,0,0,0,1.1-1.09,13.34,13.34,0,0,0,1-1.14.47.47,0,0,0,.09-.12l.11-.15A14.26,14.26,0,0,0,218.16,305.52ZM213,315.58c-.24.31-.47.61-.73.89a11.45,11.45,0,0,1-1.19,1.22,11.75,11.75,0,0,1-1.73,1.31,11.09,11.09,0,0,1-5.48,1.69,11.81,11.81,0,0,1-1.87-.08l-.41-.05a13.08,13.08,0,0,1-1.73-.39,13.92,13.92,0,0,1-8.83-7.6,10.61,10.61,0,0,1-.58-6.77,12.35,12.35,0,0,1,.49-1.53,14.52,14.52,0,0,1,1.8-3.18,12.12,12.12,0,0,1,6.95-4.83,10.48,10.48,0,0,1,1.74-.27l.87,0,.7,0h.3a14,14,0,0,1,7,2.72,12.83,12.83,0,0,1,5,7.43,10,10,0,0,1,.24,2.23,11.63,11.63,0,0,1-1.92,6.26C213.45,315,213.24,315.27,213,315.58Z"/><path d="M202.2,294c-5.79,18.71-34.44,10.42-28.75-8.3S208,275.34,202.2,294Z" fill="#453835"/><path d="M200.54,279.28A18.09,18.09,0,0,0,186,273.8a3.27,3.27,0,0,0-.45,0,11.48,11.48,0,0,0-1.43.22l-.44.08c-.34.08-.66.17-1,.26-5.14,1.49-8.89,5.31-10.61,10.84a17.34,17.34,0,0,0-.81,5.69,10,10,0,0,0,.11,1.45,12.74,12.74,0,0,0,.24,1.42c1.33,5.8,6.07,9.78,11.22,11.35a18.71,18.71,0,0,0,4.63.79h.71l.77,0c.51,0,1-.07,1.52-.13A15.38,15.38,0,0,0,203,296c.05-.1.09-.21.13-.3.13-.36.27-.73.38-1.1l.06-.19c.13-.41.24-.82.34-1.23A14.67,14.67,0,0,0,200.54,279.28Zm-.84,17a12.6,12.6,0,0,1-9.77,6.72,14.67,14.67,0,0,1-1.62.1,16,16,0,0,1-4.63-.7c-4.26-1.31-8.17-4.59-9.22-9.39a9.62,9.62,0,0,1-.24-1.44,11,11,0,0,1,0-1.53,14.66,14.66,0,0,1,.65-3.92,12.76,12.76,0,0,1,8-8.68,10.66,10.66,0,0,1,1.46-.44h.05a13,13,0,0,1,1.41-.24,4.36,4.36,0,0,1,.52-.05q.61-.06,1.23-.06a15.1,15.1,0,0,1,10.95,4.62,11.82,11.82,0,0,1,2.77,10.92c-.07.32-.15.66-.25,1,0,.12-.07.25-.11.38h0c-.11.39-.25.77-.39,1.13A15.76,15.76,0,0,1,199.7,296.26Z"/><path d="M184.26,276.31c.29,21.22-32.22,22.28-32.51,1.06S184,255.08,184.26,276.31Z" fill="#453835"/><path d="M185.67,275.28c0-.49-.07-1-.14-1.44a13.59,13.59,0,0,0-.26-1.49c-1.86-8.85-9.61-12.89-16.88-12.89h-.27a19.65,19.65,0,0,0-7.44,1.57c-.45.19-.89.39-1.32.62s-.85.47-1.25.72a18.25,18.25,0,0,0-2.23,1.67,16.93,16.93,0,0,0-5.58,13.35,19,19,0,0,0,.95,5.84,13.5,13.5,0,0,0,.52,1.35,13,13,0,0,0,.63,1.3c3.14,5.69,9.32,8.33,15.22,8.33h.27a19.44,19.44,0,0,0,3.72-.41,14.38,14.38,0,0,0,1.44-.35c.47-.13.94-.28,1.41-.46a16.77,16.77,0,0,0,11.25-16.26v-.44C185.71,276,185.69,275.61,185.67,275.28Zm-13,15.27c-.48.15-1,.27-1.45.38a17.82,17.82,0,0,1-3.41.39h-.23c-4.87,0-10-2.16-12.62-6.83a13.25,13.25,0,0,1-.64-1.31,11.56,11.56,0,0,1-.51-1.4,16,16,0,0,1-.65-4.43,14,14,0,0,1,4.7-11.28,13.37,13.37,0,0,1,1.35-1,13.08,13.08,0,0,1,1.26-.75,12.36,12.36,0,0,1,1.32-.64,17.13,17.13,0,0,1,6.33-1.29h.23a15.19,15.19,0,0,1,9.74,3.37,12.58,12.58,0,0,1,3.93,5.88,13.9,13.9,0,0,1,.62,2.79,14.1,14.1,0,0,1,.11,1.48c0,.15,0,.29,0,.44,0,.38,0,.74,0,1.1a13.7,13.7,0,0,1-8.61,12.6A15.13,15.13,0,0,1,172.71,290.55Z"/><path d="M160.82,265.21c6,20.36-25.08,30.1-31.07,9.65S154.84,244.86,160.82,265.21Z" fill="#453835"/><path d="M162.75,267.12a22,22,0,0,0-.54-2.31c-.12-.4-.24-.78-.38-1.16s-.34-.91-.52-1.33-.41-.88-.63-1.29c-4.26-8.09-13-9.83-20-7.76A19.56,19.56,0,0,0,135,256a13.72,13.72,0,0,0-1.14.87c-.39.31-.76.63-1.1.95A16.46,16.46,0,0,0,127.66,268a18.21,18.21,0,0,0,.71,7.3,19.26,19.26,0,0,0,1.49,3.72,12,12,0,0,0,.73,1.25c.26.42.53.81.82,1.19a15.49,15.49,0,0,0,8.78,5.71,17.5,17.5,0,0,0,4.15.48,20.14,20.14,0,0,0,8.06-1.73c.45-.21.89-.42,1.33-.66s.86-.47,1.27-.73a18.6,18.6,0,0,0,3.43-2.82,16.1,16.1,0,0,0,4.6-11.36A19.38,19.38,0,0,0,162.75,267.12Zm-21.87,17.19a12.64,12.64,0,0,1-7.24-4.75,12.42,12.42,0,0,1-.81-1.23,10.76,10.76,0,0,1-.72-1.34,15.36,15.36,0,0,1-1-2.54,15.72,15.72,0,0,1-.51-7,13.75,13.75,0,0,1,4.8-8.2c.37-.32.76-.61,1.15-.89a17.12,17.12,0,0,1,4.89-2.31,16.24,16.24,0,0,1,4.62-.68,13.87,13.87,0,0,1,7.95,2.39,13,13,0,0,1,4.07,4.61,14.44,14.44,0,0,1,.62,1.31c.19.43.36.89.52,1.36l.18.58c.08.28.15.55.22.83a13.72,13.72,0,0,1-3.31,13.22,15.2,15.2,0,0,1-2.49,2.11c-.41.28-.84.55-1.28.79a12.5,12.5,0,0,1-1.32.66A16.26,16.26,0,0,1,140.88,284.31Z"/><path d="M135.25,258.94c-7.19-12.49-22.32-8.84-28,.55-14.56-11.21-34.92,10-21.09,24.73,8.68,9.26,20.55,4.83,25.54-3.54C124,290.14,144.63,275.22,135.25,258.94Z" fill="#453835"/><path d="M139,266a18.56,18.56,0,0,0-2.41-7.63.46.46,0,0,0-.07-.14c-.21-.38-.44-.74-.68-1.09A13.84,13.84,0,0,0,135,256a15.71,15.71,0,0,0-12.6-6.47,19.61,19.61,0,0,0-15.53,8c-8-5.19-16.83-1.89-21.86,3.65a19.86,19.86,0,0,0-3.45,5.32,13,13,0,0,0-.53,1.35q-.24.68-.42,1.38a16.44,16.44,0,0,0-.27,7,17.83,17.83,0,0,0,4.77,9A18.52,18.52,0,0,0,90,289c.44.23.87.44,1.3.62s.93.36,1.37.5a15.46,15.46,0,0,0,4.63.71,15.68,15.68,0,0,0,1.72-.09,19,19,0,0,0,13.12-8c6.5,4.11,14.13,2.41,19.32-1.3.4-.29.78-.58,1.14-.89l.35-.29c.26-.22.5-.45.74-.68A16.87,16.87,0,0,0,139,266Zm-8,12.08c-.36.32-.74.62-1.14.91-4.66,3.39-11.66,4.9-17.29.56a1.44,1.44,0,0,0-2.12.4,16.22,16.22,0,0,1-11.8,7.92,12.25,12.25,0,0,1-5.12-.5,9.58,9.58,0,0,1-1.37-.52,9.07,9.07,0,0,1-1.31-.68,15.72,15.72,0,0,1-3.65-2.94,14.83,14.83,0,0,1-4-7.53,13.21,13.21,0,0,1,.1-5.32,12.06,12.06,0,0,1,.38-1.43c.15-.47.32-.92.51-1.36a16.8,16.8,0,0,1,2.93-4.52,15.51,15.51,0,0,1,11.18-5.28,12.91,12.91,0,0,1,8,2.86,1.43,1.43,0,0,0,1.15.27,1.41,1.41,0,0,0,1-.67,16.73,16.73,0,0,1,13.89-7.86A12.79,12.79,0,0,1,129,254.3a14.35,14.35,0,0,1,3.76,3.48c.28.38.56.78.83,1.2.15.22.28.45.42.69s.22.39.33.59a15.17,15.17,0,0,1,1.83,6.23,14.09,14.09,0,0,1-4,10.5,12.29,12.29,0,0,1-1.1,1.07Z"/><path d="M203.46,364.57c-.1-10.63-3.52-21.45-9.81-21.51h-.13c-1.74,0-4.92,1-7.24,7.14a39.23,39.23,0,0,0-2.21,14.57,42.65,42.65,0,0,0,2.5,14.47,16.22,16.22,0,0,0,2.6,4.46,7.39,7.39,0,0,0,2.43,1.95,6,6,0,0,0,1.24.44,7.73,7.73,0,0,0,.81.16,2.07,2.07,0,0,0,.35,0,4.86,4.86,0,0,0,1.94-.41c1.67-.67,3.7-2.46,5.3-6.73a37.74,37.74,0,0,0,2.22-13.05c0-.2,0-.4,0-.6S203.47,364.88,203.46,364.57Zm-6.37,13c-1.06,3-2.41,4.34-3.18,4.34-.43,0-1-.42-1.69-1.29a12.69,12.69,0,0,1-1.59-3,25,25,0,0,1-1.16-3.77s0-.05,0-.07a44.46,44.46,0,0,1-1.05-9.08,39.72,39.72,0,0,1,1.91-13,.14.14,0,0,1,0-.06c1.06-3,2.41-4.34,3.18-4.34h.19c1,.2,2.27,1.82,3.34,4.72a37.67,37.67,0,0,1,2,12.45,46.41,46.41,0,0,1-.87,9.21A30,30,0,0,1,197.09,377.6Z" fill="#12a27e"/><polygon points="192.56 453.13 191.59 385.02 195.93 385.02 196.9 453.13 192.56 453.13" fill="#12a27e"/><path d="M210.78,430.56v22.77H179.92V430.56a15.48,15.48,0,0,1,15.43-15.44,15.77,15.77,0,0,1,10.91,4.57A15.29,15.29,0,0,1,210.78,430.56Z" fill="#7a645d"/><path d="M163.42,460.75l41,41a8.73,8.73,0,0,1,0,12.44l-9.36,9.36a8.73,8.73,0,0,1-12.44,0l-41-41Z" fill="#118669"/><path d="M210.78,459.4v57.88a8.85,8.85,0,0,1-8.87,8.88H188.7a8.86,8.86,0,0,1-8.88-8.88V459.4Z" fill="#12a27e"/><path d="M172.78,506.21v13.23a8.85,8.85,0,0,1-8.88,8.87H147.65v-31H163.9A8.85,8.85,0,0,1,172.78,506.21Z" fill="#7a645d"/><path d="M141.62,497.34v31H60.21A16.18,16.18,0,0,1,44,512.1V497.34Z" fill="#12a27e"/><circle cx="237.03" cy="364.67" r="48.44" fill="#ba4721"/><path d="M271.29,330.41c14.2,14.21,10.39,41.07-8.53,60s-45.78,22.73-60,8.53a48.45,48.45,0,1,0,68.52-68.52Z" fill="#9e3f20"/><path d="M271.29,330.41c5.7,5.71-5,25.67-23.93,44.59s-38.88,29.63-44.59,23.93c14.21,14.2,41.07,10.39,60-8.53S285.49,344.62,271.29,330.41Z" fill="#ba4721"/><path d="M271.29,330.41a48.45,48.45,0,0,0-68.52,68.52c5.71,5.7,25.67-5,44.59-23.93S277,336.12,271.29,330.41Z" fill="#d74d1f"/><path d="M207.46,347.41a4.82,4.82,0,0,1-3.6-8,49.76,49.76,0,0,1,44.51-16.21,4.83,4.83,0,1,1-1.39,9.55,40.18,40.18,0,0,0-35.92,13.07A4.8,4.8,0,0,1,207.46,347.41Z" fill="#fff"/><circle cx="508.03" cy="255.83" r="24.26" fill="#ba4721"/><path d="M525.18,238.68c7.11,7.11,5.2,20.56-4.27,30s-22.92,11.38-30,4.27a24.25,24.25,0,0,0,34.3-34.3Z" fill="#9e3f20"/><path d="M525.18,238.68c2.86,2.86-2.5,12.85-12,22.32s-19.46,14.84-22.32,12c7.11,7.11,20.56,5.2,30-4.27S532.29,245.79,525.18,238.68Z" fill="#ba4721"/><path d="M525.18,238.68a24.25,24.25,0,0,0-34.3,34.3c2.86,2.86,12.85-2.5,22.32-12S528,241.54,525.18,238.68Z" fill="#d74d1f"/><path d="M492,249.17a2.41,2.41,0,0,1-2.14-3.85,24.93,24.93,0,0,1,21.49-10,2.41,2.41,0,0,1-.28,4.82,20.13,20.13,0,0,0-17.34,8.09A2.43,2.43,0,0,1,492,249.17Z" fill="#fff"/><circle cx="565.08" cy="118.96" r="14.44" fill="#ba4721"/><path d="M575.29,108.75c4.23,4.24,3.09,12.24-2.54,17.88s-13.65,6.77-17.88,2.54a14.44,14.44,0,0,0,20.42-20.42Z" fill="#9e3f20"/><path d="M575.29,108.75c1.7,1.7-1.49,7.65-7.13,13.29s-11.59,8.83-13.29,7.13c4.23,4.23,12.24,3.1,17.88-2.54S579.52,113,575.29,108.75Z" fill="#ba4721"/><path d="M575.29,108.75a14.44,14.44,0,1,0-20.42,20.42c1.7,1.7,7.65-1.49,13.29-7.13S577,110.45,575.29,108.75Z" fill="#d74d1f"/><path d="M555.33,115.9a1.44,1.44,0,0,1-1.47-2.17,14.83,14.83,0,0,1,12.22-7.06,1.44,1.44,0,0,1,.09,2.87,12,12,0,0,0-9.87,5.7A1.43,1.43,0,0,1,555.33,115.9Z" fill="#fff"/><circle cx="529.73" cy="11.39" r="8.66" fill="#ba4721"/><path d="M535.85,5.26c2.55,2.54,1.86,7.34-1.52,10.73s-8.19,4.06-10.73,1.52A8.66,8.66,0,0,0,535.85,5.26Z" fill="#9e3f20"/><path d="M535.85,5.26c1,1-.89,4.59-4.27,8s-7,5.3-8,4.28c2.54,2.54,7.35,1.86,10.73-1.52S538.4,7.8,535.85,5.26Z" fill="#ba4721"/><path d="M535.85,5.26A8.66,8.66,0,0,0,523.6,17.51c1,1,4.59-.89,8-4.28S536.88,6.28,535.85,5.26Z" fill="#d74d1f"/><path d="M523.88,9.55a.81.81,0,0,1-.6-.12A.85.85,0,0,1,523,8.25,8.89,8.89,0,0,1,530.33,4a.87.87,0,1,1,0,1.73,7.18,7.18,0,0,0-5.92,3.41A.85.85,0,0,1,523.88,9.55Z" fill="#fff"/><path d="M503.9,105.13c-.19-.68-.29-1.25-.48-1.93a12.53,12.53,0,0,0-.48-1.74c-.07-.32-.18-.65-.27-1h0c-40-47.41-103.07-76.29-159.58-75.76-89.33.83-81.41.84-149.71,75.62l-.12.14c-.1.33-.2.66-.27,1a10.26,10.26,0,0,0-.48,1.74c-.2.68-.29,1.25-.49,1.93a96.32,96.32,0,0,0-2.7,21.22v15.92c0,.77.1,1.54.1,2.32.09,2.31.19,4.63.38,6.84s.29,4.15.58,6.18c.1,1.06.2,2.12.39,3.18a8,8,0,0,0,.19,1.45c.19,1.16.39,2.22.58,3.28a6,6,0,0,0,.19,1.25c.1.39.1.77.2,1.06s.09.39.09.58a123.1,123.1,0,0,0,2.9,12.16c.19.67.38,1.35.58,2,1.25,4.34,2.79,8.69,4.43,12.83.29.78.68,1.64,1,2.42a148.84,148.84,0,0,0,10.22,20,13.29,13.29,0,0,0,1,1.64c19.68,31.36,50.84,53,87.49,62.9l3.28.87H303v32.48l44.09,9.65,45.05-9.65V283.4l.85-.19h.1l3.28-.87c36.66-9.94,67.82-31.54,87.5-62.9a14.56,14.56,0,0,0,1-1.64,150.08,150.08,0,0,0,10.23-20c.29-.78.67-1.64,1-2.42,1.64-4.14,3.18-8.49,4.44-12.83l.58-2a123.07,123.07,0,0,0,2.89-12.16c0-.19.1-.38.1-.58s.09-.67.19-1.06a5.41,5.41,0,0,0,.19-1.25c.2-1.06.39-2.12.58-3.28a7.23,7.23,0,0,0,.2-1.45c.19-1.06.29-2.12.38-3.18.29-2,.48-4.05.58-6.18s.29-4.53.39-6.84c0-.78.09-1.55.09-2.32V126.35A95.73,95.73,0,0,0,503.9,105.13Z" fill="#99776b"/><path d="M319,170c0,31-48.72,31-48.72,0C270.29,139.44,319,138.19,319,170Z" fill="#fff"/><path d="M426.57,173.3c0,31.55-49.1,31.55-48.71,0C377.47,141.76,426.57,141.76,426.57,173.3Z" fill="#fff"/><path d="M303.38,179.09c0,15.15-23.44,15.15-23.44,0S303.38,164,303.38,179.09Z"/><path d="M409.88,182.37c0,15.15-23.44,15.15-23.44,0S409.88,167.23,409.88,182.37Z"/><path d="M348.83,252.8c-21.67,0-35.4-10.37-40.82-30.86a2.41,2.41,0,0,1,4.66-1.24c5,19,17.51,27.88,38.21,27.25,10.57-.27,37.12-8.58,37.12-26.63a2.41,2.41,0,1,1,4.82,0c0,21.65-29.5,31.14-41.8,31.45Z"/><path d="M368,194c0,26.24-40.91,26.24-40.52,0C327.11,167.81,368,167.81,368,194Z" fill="#8c6254"/><path d="M305.33,45.47a17.55,17.55,0,0,1-2.73,3.62q-10.32-10.61-20.66-21.18l-3.62-3.72a17.39,17.39,0,0,1,27,21.28Z" fill="#453835"/><path d="M306.16,26.91a18.93,18.93,0,0,0-25.33-6.36c-1.18.68-4.33,2.28-3.91,4,.33,1.36,2.79,3.15,3.76,4.14L295,43.32l3.31,3.39c1,1,2.89,3.81,4.34,3.82,1.65,0,3.29-3.11,4-4.35a18.89,18.89,0,0,0-.43-19.27Zm-2.09,17.85A20.53,20.53,0,0,1,302.56,47q-9.21-9.47-18.44-18.9-1.85-1.89-3.68-3.79a15.94,15.94,0,0,1,25.4,15.62,14.47,14.47,0,0,1-.69,2.5C304.93,43,304.07,44.15,304.07,44.76Z"/><path d="M316,53.34a17.38,17.38,0,0,1-30.24-1.45L309.5,40.54l7.63-3.65A17.53,17.53,0,0,1,316,53.34Z" fill="#453835"/><path d="M305,61.07c-.11-.27-.25-1-.47-1.19-.38-.29-1.43,0-2,.09a5.48,5.48,0,0,0,.61,1.15c.4.38.25.11,1,.11s.41-.18.79.34c.26.36.09,1,.61.86Zm14.82-20.48c-.31-1.68-.91-5.82-3.39-5a25.47,25.47,0,0,0-2.3,1.1l-6.15,3c-3.51,1.67-7,3.34-10.53,5s-7.18,3.43-10.77,5.15c-1.1.53-2.65,1-2.26,2.51.47,1.84,2.33,3.8,3.65,5.1a18.84,18.84,0,0,0,31.75-16.88Zm-3.91,9.86c-5,11.54-21.44,12.74-28.12,2.08l22.16-10.6,6.42-3.07A15.89,15.89,0,0,1,315.9,50.45Z"/><path d="M202.82,146.37,178,158.63l-3.55,1.75a15.81,15.81,0,0,1,28.34-14Z" fill="#453835"/><path d="M199.23,146.53l-2.09,1a7,7,0,0,1,2.4-.41A3,3,0,0,0,199.23,146.53Zm4.87-.83a17.25,17.25,0,0,0-31.21,14.65c1.12,2.57,3.27.81,5-.06l7-3.46,8.21-4.06,6.22-3.07C200.67,149.05,205.13,147.64,204.1,145.7Zm-4.87.83-24,11.86a14.36,14.36,0,0,1,25.55-12.63Z"/><path d="M199.46,148.58l2.91,27.5.42,3.93a15.81,15.81,0,0,1-3.33-31.43Z" fill="#453835"/><path d="M204.23,179.86l-2.62-24.66-.48-4.45c-.14-1.35,0-3.47-1.73-3.6-2.08-.16-4.78,1.15-6.53,2.16a17.58,17.58,0,0,0-5.1,4.5,17.13,17.13,0,0,0,3.72,24.5,17.47,17.47,0,0,0,6.58,2.87C199.43,181.46,204.49,182.49,204.23,179.86Zm-17.07-14.09a14.58,14.58,0,0,1,11-15.5l2.63,24.79.38,3.56A14.56,14.56,0,0,1,187.16,165.77Z"/><path d="M193.93,132.53l12.26,24.79,1.75,3.55a15.81,15.81,0,0,0-14-28.34Z" fill="#453835"/><path d="M217.14,141.81c-2.63-9.39-13.49-14.46-22.49-11.15-2.05.76-2.45,1.64-1.53,3.5l1.33,2.67,2.4,4.87,4.37,8.85c1,2,2,4,3,6a37.22,37.22,0,0,0,2.43,4.9c2.31,3.28,8.28-4.78,9.26-6.66A17.46,17.46,0,0,0,217.14,141.81Zm-8.59,17L199,139.5q-1.53-3.12-3.07-6.22a14.36,14.36,0,0,1,12.64,25.55Z"/><path d="M206.92,127.66l-26,9.52-3.71,1.36a15.81,15.81,0,0,1,29.68-10.88Z" fill="#453835"/><path d="M208.27,127.13A17.25,17.25,0,0,0,175.33,137c.39,1.82.86,3.37,2.94,2.65.63-.21,1.26-.46,1.89-.69l6.58-2.41,9.4-3.45,6.31-2.3C203.88,130.31,209.1,129.22,208.27,127.13ZM189,132.69l-10.78,3.95A14.36,14.36,0,0,1,205,126.83Z"/><path d="M201.59,113.12l9.52,26,1.36,3.71a15.81,15.81,0,0,0-10.88-29.68Z" fill="#453835"/><path d="M211.17,135.05q-1.44-4-2.9-7.92c.84,2.13-1.86,1.5-2.18,2.46-.18.56.54,1,.85,1.22.85.54,1.16.39,1.58,1.22a24.26,24.26,0,0,1,.92,2.51,6.81,6.81,0,0,0,.51,1.39c.71,1,1.89,1.81,2.61,2.91Zm12.14-11.77a17.49,17.49,0,0,0-21.09-11.85c-1.24.33-2.29.75-2,2.26a24.85,24.85,0,0,0,1.06,2.88q1,2.76,2,5.54c1.26,3.43,2.53,6.86,3.78,10.29q.81,2.23,1.63,4.45a61.13,61.13,0,0,0,2.33,6.36c1.89,3.74,8.94-4,10.11-5.8A17.43,17.43,0,0,0,223.31,123.28ZM216,139a15.48,15.48,0,0,1-2.72,1.84q-3.88-10.58-7.75-21.14l-2.06-5.62A14.35,14.35,0,0,1,216,139Z"/><path d="M214,108.49l-26.84,6.67-3.84,1A15.81,15.81,0,0,1,214,108.49Z" fill="#453835"/><path d="M215.44,108.11a17.25,17.25,0,0,0-33.82,6.27c.16,1.55.31,3.38,2.27,3.09a31.9,31.9,0,0,0,3.34-.82l4.38-1.09,12.06-3,6-1.47C211,110.75,216,110.25,215.44,108.11Zm-22.7-8.51a14.51,14.51,0,0,1,19.45,7.87L190,113l-5.46,1.36A14.57,14.57,0,0,1,192.74,99.6Z"/><path d="M210.31,93.47,217,120.31l1,3.84a15.81,15.81,0,0,0-7.62-30.68Z" fill="#453835"/><path d="M231,107.76a17.47,17.47,0,0,0-18.93-16.05c-2,.21-3.52.51-3,2.79.18.83.41,1.66.62,2.5.46,1.87.93,3.74,1.39,5.62.86,3.44,1.72,6.9,2.57,10.35.92,3.73,1.59,7.66,2.81,11.3s8.27-1.88,9.76-3.45A17.5,17.5,0,0,0,231,107.76Zm-10,13.53a12.54,12.54,0,0,1-2,1c-1.81-7.23-3.59-14.46-5.39-21.69l-1.48-6A14.35,14.35,0,0,1,221,121.29Z"/><path d="M240,71.4l-27.41,3.73-3.91.53A15.81,15.81,0,0,1,240,71.4Z" fill="#453835"/><path d="M241.42,71.17a17.26,17.26,0,0,0-34.28,1.73c-.09,1.54-.39,4.15,1.75,4.19a23.48,23.48,0,0,0,3.41-.47l4.88-.66L229,74.35l5.64-.77C236,73.4,241.82,73.5,241.42,71.17Zm-25.09,2L210,74a14.36,14.36,0,0,1,28.23-3.84Z"/><path d="M256.2,53.16l-27.41,3.73-3.92.54a15.81,15.81,0,0,1,31.33-4.27Z" fill="#453835"/><path d="M253.16,52.12l-.33,0c.37.44.74,1.49,1.4,1.28Zm4.46.83a17.25,17.25,0,0,0-34.28,1.88c-.08,1.6-.3,4.1,1.89,4,1-.05,1.93-.26,2.88-.39l4.56-.62,12.8-1.75,6.71-.92C253.57,55,258,55.06,257.62,53Zm-3.18-1.07c-.05-.09-4.15.63-4.61.69l-4.6.63-12,1.63-7.05,1a14.36,14.36,0,0,1,28.22-3.9Z"/><path d="M226.24,90.91l-27.41,3.72-3.92.54a15.81,15.81,0,0,1,31.33-4.26Z" fill="#453835"/><path d="M227.65,90.61a17.22,17.22,0,0,0-31.17-7.08c-2.19,3.14-3.77,7.69-3,11.56.48,2.51,4.11,1.18,5.86,1l5-.68,11.88-1.62,5-.69C222.62,92.86,228.11,92.9,227.65,90.61Zm-29.53,2.67-1.86.25a14.37,14.37,0,0,1,28.25-3.85Z"/><path d="M224.15,75.56,227.88,103l.53,3.91a15.81,15.81,0,0,0-4.26-31.32Z" fill="#453835"/><path d="M226,78.12l-1.45,0,.67,5c.36,2.65,2.05,4.84,2.48,7.57Zm17.11,10.82a17.41,17.41,0,0,0-7.26-11.81,17.6,17.6,0,0,0-6.54-2.79c-1.44-.29-5.36-1.07-6.33.46-.78,1.23.31,4.86.5,6.26l.63,4.66q.8,5.77,1.58,11.55c.22,1.65.45,3.31.67,5,.2,1.46,0,5.82,2,6.08s4.64-1.16,6.26-2.09a17.37,17.37,0,0,0,8.52-17.28Zm-13.42,16.21q-1.53-11.25-3.07-22.51l-.78-5.73a14.36,14.36,0,0,1,3.85,28.24Z"/><path d="M350.76,47.47l-19.13-23.6-2.77-3.41a17.39,17.39,0,0,1,21.9,27Z" fill="#453835"/><path d="M357.52,28.66a19,19,0,0,0-20.63-13.1c-2,.28-11.09,2.66-9.14,5.83a49.45,49.45,0,0,0,3.78,4.67L347.3,45.5c.66.82,1.3,1.65,2,2.44,1.74,2.05,3.41-.11,4.73-1.69A19.12,19.12,0,0,0,357.52,28.66Zm-24.46-5.32-2.1-2.6a16,16,0,0,1,20,24.62L335.34,26.15Z"/><path d="M364,36.74l-23.6,19.14L337,58.64a17.39,17.39,0,0,0,27-21.9Z" fill="#453835"/><path d="M346.62,64.42c-.4-.83-.56-1.49-1.35-1.89a31.53,31.53,0,0,1-3.67-1.74c.53,1.1.82,2.18,2,2.67.94.39,1.14.34,1.55,1.17.57,1.16.9,1.17,2.27,1.37ZM369,46.08a18.61,18.61,0,0,0-2.23-7.71c-1-1.84-2.13-4-4.23-2.32-1.69,1.35-3.36,2.73-5,4.09l-8.85,7.18L339.3,54.9c-1,.82-3.86,2.43-3.74,3.87.08.89,1,1.63,1.64,2.21a18.35,18.35,0,0,0,3.49,2.65,18.73,18.73,0,0,0,4.93,2A18.93,18.93,0,0,0,369,46.08ZM361.7,58.52c-6,6.38-16.42,6.22-22.6.27Q348.64,51,358.2,43.3l5.51-4.46A16.19,16.19,0,0,1,361.7,58.52Z"/><path d="M374.6,51.9,357.86,26.54l-2.42-3.66a17.39,17.39,0,0,1,19.16,29Z" fill="#453835"/><path d="M383.17,33.85a19,19,0,0,0-19.11-15.07c-2.11.07-11.38,1.49-9.82,4.91a41.62,41.62,0,0,0,3.3,5q7,10.61,14,21.23c.56.84,1.08,1.82,1.72,2.61,1.61,2,3.87-.69,5.07-1.95A19.24,19.24,0,0,0,383.17,33.85Zm-8.21,16L359.67,26.66c-.73-1.1-1.44-2.2-2.17-3.29A15.95,15.95,0,0,1,375,49.81Z"/><path d="M388.81,42.51,363.45,59.25l-3.66,2.42a17.39,17.39,0,0,0,29-19.16Z" fill="#453835"/><path d="M369.08,68.45a7.5,7.5,0,0,0-.7-1.64c-.49-.66-1.88-1-2.64-1.46a15.63,15.63,0,0,1-3.06-2.44c-.66-.67-.56-.83-1.33-.27a18.92,18.92,0,0,1-1.76,1.14,18.31,18.31,0,0,0,8.4,5.79l-.77-1.81Q368.14,68.15,369.08,68.45Zm23.56-19.9a18,18,0,0,0-1.06-3.75c-.4-1-.92-2.64-1.79-3.35-1-.84-2,0-2.88.59l-5.31,3.51L371.85,52c-3.41,2.25-6.84,4.49-10.25,6.75-.8.54-1.69,1-2.44,1.62-1.87,1.49.33,3.43,1.51,4.63a18.83,18.83,0,0,0,32-16.43Zm-9.32,16.24c-6.31,5-16.52,3.38-21.45-2.77,6.89-4.57,13.8-9.1,20.7-13.66l5.75-3.79A16.14,16.14,0,0,1,383.32,64.79Z"/><path d="M326.74,45.49,305.28,24l-3.1-3.11a17.39,17.39,0,0,1,24.56,24.62Z" fill="#453835"/><path d="M331.51,26c-3.59-8.74-13.68-13.25-22.65-10.63A18.8,18.8,0,0,0,303,18.31c-1.48,1.1-3,2.3-1.45,4s3.08,3.08,4.61,4.62l17.69,17.73a22.7,22.7,0,0,0,1.83,1.84c1.91,1.51,3.6-1.58,4.47-3A19.13,19.13,0,0,0,331.51,26Zm-4.84,17.35-18.89-19L304.3,21a16.16,16.16,0,0,1,20.68.73C330.84,27,332.08,37.2,326.67,43.38Z"/><path d="M398,58.66,383.74,31.85,381.68,28A17.39,17.39,0,0,1,398,58.66Z" fill="#453835"/><path d="M406.16,34.63a19,19,0,0,0-22-9.2c-1.52.44-4.54,1.09-3.8,3.22a20.5,20.5,0,0,0,1.45,2.74l2.61,4.89q5.94,11.14,11.88,22.29c.42.8.8,1.6,1.87,1.51s2.6-1.47,3.43-2.18a18.74,18.74,0,0,0,4.93-6.44A19,19,0,0,0,406.16,34.63Zm-7.58,22-13-24.47-1.86-3.5a15.95,15.95,0,0,1,14.9,28Z"/><path d="M413.06,50.65,386.25,64.94,382.37,67a17.39,17.39,0,0,0,30.69-16.35Z" fill="#453835"/><path d="M389.72,72.82l.53-.18a14.63,14.63,0,0,1-5.83-5.09c4.75-2.58,9.54-5.09,14.31-7.63-1.42.81-2.14-.87-2.66-1.85l-3.89,2.07a8.27,8.27,0,0,0-1.69.9c-.77.7-1,2-1.84,2.62a29.08,29.08,0,0,1-4,2.13c-1.22.65-2.33,1.39-3.52,1.92a18.68,18.68,0,0,0,9.8,8.39C390.51,75,390.11,73.91,389.72,72.82ZM414.35,50c-1-2.09-5.41,1.22-6.59,1.85l-4.62,2.46c-3.61,1.91-7.22,3.85-10.83,5.77-3.34,1.77-6.71,3.49-10,5.34-1.82,1-1.39,2.15-.27,3.77a18.94,18.94,0,0,0,20.58,7.47C413.8,73.53,419.67,60.39,414.35,50Zm-9.3,22.6c-6.95,3.47-16.26,1.76-20.63-5,7.3-4,14.66-7.81,22-11.72l6-3.17A16.17,16.17,0,0,1,405.05,72.59Z"/><path d="M422,67.66l-11.8-28-1.7-4A17.39,17.39,0,0,1,422,67.66Z" fill="#453835"/><path d="M432.42,44.94C430,36.75,420.21,32,412.22,33.13c-1.4.2-5.18.58-5.2,2.48a5.37,5.37,0,0,0,.67,1.88l3.3,7.84q4.58,10.86,9.14,21.72c.3.7.52,1.65,1.29,2,1.12.44,2.67-.77,3.53-1.32a18.79,18.79,0,0,0,5.89-6A19,19,0,0,0,432.42,44.94Zm-9.73,20.73L411.93,40.13l-1.54-3.65a15.94,15.94,0,0,1,12.3,29.19Z"/><path d="M437.65,61l-28,11.8-4,1.7a17.39,17.39,0,0,0,32-13.5Z" fill="#453835"/><path d="M407.59,75.28l15-6.3a1.54,1.54,0,0,1-1.12,0,7.51,7.51,0,0,1-.8-.79c-.1,0-.25.14-.35.15a8.3,8.3,0,0,0-2.09.88L411.72,72a17.17,17.17,0,0,0-1.76.74,15.46,15.46,0,0,0-1.38,1.07c-.48.35-2.11,1-2.37,1.46-.5.9,2.08,3.6,2.85,4.38a11.7,11.7,0,0,1,1.8,1.86c.42.67.5,1.87,1.2,2.25-.4-1.49,1-1.9,2.16-2.12A16,16,0,0,1,407.59,75.28Zm32.61-10c-.16-1.48-.51-5.72-2.62-5.68a8.87,8.87,0,0,0-2.75,1.06L429,63.11l-10.33,4.36-11.45,4.82c-.84.35-2.4.69-2.88,1.55-.87,1.57,1.76,4.6,2.7,5.71A18.84,18.84,0,0,0,440.2,65.28ZM427.68,82.16a16.21,16.21,0,0,1-20.09-6.88l23-9.68L436.79,63A16.16,16.16,0,0,1,427.68,82.16Z"/><path d="M446.81,78.75l-10.7-28.43-1.54-4.11a17.39,17.39,0,0,1,12.24,32.54Z" fill="#453835"/><path d="M459.05,60.37c-.62-8.87-8.8-15.89-17.36-16.53-2.11-.16-9.38-.26-8.38,3.15.67,2.25,1.68,4.46,2.51,6.65q4.44,11.82,8.9,23.64c.29.78.52,2.06,1.18,2.6,1.74,1.41,5.94-2.26,7.13-3.36A19.09,19.09,0,0,0,459.05,60.37Zm-10.63,16a7.74,7.74,0,0,1-.8.44c-3.32-8.59-6.49-17.24-9.73-25.86l-1.43-3.79a15.94,15.94,0,0,1,12,29.21Z"/><path d="M461.87,73.57l-28.94,9.25-4.18,1.34a17.39,17.39,0,0,0,33.12-10.59Z" fill="#453835"/><path d="M463.26,73.16c-.7-2.27-5.72.28-7.06.71-1.66.54-3.32,1.06-5,1.59l-11.67,3.73c-1.82.58-3.63,1.17-5.45,1.74l-2.87.92A12.58,12.58,0,0,0,428,82.94c-1.65,1.17.38,4.09,1.1,5.27a18.83,18.83,0,0,0,34.2-15Zm-13.2,20.55a16.15,16.15,0,0,1-19.39-8.64l22.9-7.32,7.27-2.33A16.17,16.17,0,0,1,450.06,93.71Z"/><path d="M469.36,94l-8.13-29.28-1.18-4.22A17.39,17.39,0,0,1,469.36,94Z" fill="#453835"/><path d="M482.52,72.27a19.12,19.12,0,0,0-19.24-13.76c-1.59.08-4.95.08-4.61,2.37a16.93,16.93,0,0,0,.6,2.16q1,3.75,2.08,7.51,3.18,11.49,6.38,23c.69,2.49,2.33,1.88,4.36,1a18.75,18.75,0,0,0,7-5.52A19,19,0,0,0,482.52,72.27ZM470.34,92.09q-3.69-13.32-7.4-26.63l-1.08-3.89a15.94,15.94,0,0,1,8.48,30.52Z"/><path d="M484.84,90.14l-29.65,6.64-4.28,1a17.39,17.39,0,0,0,33.93-7.6Z" fill="#453835"/><path d="M458.26,106.33a16.79,16.79,0,0,1-2.51-2.33,16.79,16.79,0,0,1,1.31,3.27c.2.71.18,1.93.85,2.29-.18-1-.59-2.63.88-2.85Zm28-16.48c-.44-2.18-5.17-.36-6.52,0L474.6,91l-10.75,2.41-8.43,1.89c-1.5.33-3.18.55-4.64,1-3.91,1.32,2.25,9.18,3.86,10.74a18.81,18.81,0,0,0,31.62-17.17Zm-15,19.3a16.16,16.16,0,0,1-18.54-10.33q11.72-2.61,23.42-5.25l7.49-1.68C484.53,100.14,479,107,471.28,109.15Z"/><path d="M489.27,113l-5.71-29.84-.82-4.31A17.39,17.39,0,0,1,489.27,113Z" fill="#453835"/><path d="M504.15,92.44a19.08,19.08,0,0,0-18-15.29c-1.4,0-4.56-.35-4.81,1.57a12.69,12.69,0,0,0,.59,3.37q.6,3.21,1.22,6.42,2.25,11.65,4.47,23.3a7,7,0,0,0,.39,1.82c.63,1.17,1.93.73,2.95.43a18.71,18.71,0,0,0,7.79-4.54A19,19,0,0,0,504.15,92.44ZM490.4,111.2c-1.69-9-3.45-18.09-5.18-27.13-.25-1.33-.49-2.66-.76-4a15.94,15.94,0,0,1,5.94,31.12Z"/><path d="M505.45,110.27l-30,4.56-4.34.66a17.39,17.39,0,0,0,34.38-5.22Z" fill="#453835"/><path d="M481.73,128.66c-.08-.62,0-1.38-.43-1.8a8,8,0,0,0-1.53-.84,16.07,16.07,0,0,1-1.95-1.44c0,.9-.21,1.59.42,2.19s1.77.74,2.1,1.26-.18.87,0,1.34,1,.68,1.57.89Zm25.15-18.59c-.26-2.13-4.55-.79-5.94-.58l-5.55.84L484,112.07c-4.21.64-8.48,1.13-12.66,1.92s.84,8.57,2.28,10.34a19.12,19.12,0,0,0,12.23,6.87C497.82,132.81,508.47,122.07,506.88,110.07Zm-3,5.26a15.93,15.93,0,0,1-31.06,1.36c8.06-1.24,16.12-2.45,24.18-3.68,2.38-.36,4.76-.73,7.14-1.08A15,15,0,0,1,503.88,115.33Z"/><path d="M507.47,136.27,504.4,106l-.45-4.36a17.39,17.39,0,0,1,3.52,34.59Z" fill="#453835"/><path d="M524.1,117.11a19.11,19.11,0,0,0-17.43-16.89c-1.66-.12-4.16-.46-4.13,1.82,0,.93.19,1.9.29,2.84.23,2.32.47,4.63.71,7,.39,3.74.76,7.49,1.14,11.23l.87,8.64c.13,1.21-.07,4.66.92,5.61,1.46,1.38,5.6-.63,7.06-1.35a19,19,0,0,0,10.57-18.85Zm-15.34,17.48q-1.29-12.56-2.55-25.11l-.66-6.41a15.94,15.94,0,0,1,3.21,31.52Z"/><path d="M251.69,50.91l-21,21.94-3,3.17a17.38,17.38,0,0,0,24-25.11Z" fill="#453835"/><path d="M246.93,55.88l-4.4,4.6-2.75,2.88c-1.07,1.11-1,.84-.23,2.32l9.68-10.11ZM258,60.36a18.63,18.63,0,0,0-2.6-7.09c-.78-1.25-2.66-4.68-4.53-3.54a12.12,12.12,0,0,0-2,2.08L246.71,54c-2.83,3-5.69,5.93-8.53,8.9l-7.91,8.28a50,50,0,0,0-3.57,3.72c-1.54,2,1.61,3.61,3.07,4.48a18.84,18.84,0,0,0,28.22-19Zm-4.56,10.43A15.85,15.85,0,0,1,243,78.72c-4.08.92-10.07.34-13.22-2.82q9-9.39,18-18.79c1.3-1.37,2.61-2.73,3.91-4.09A16.12,16.12,0,0,1,253.43,70.79Z"/><path d="M264.66,66.28,245.52,42.69l-2.77-3.41a17.39,17.39,0,0,1,21.91,27Z" fill="#453835"/><path d="M256.9,54.42l-2.69-3.32a6.22,6.22,0,0,0,.25.84l-1.3.18,1.07,1.32-.41.05c1.17,1.73,1.65,3.76,3,5.37l1.92,2.38,1.56,1.91c.24.3.8,1.31,1.16,1.44s2.05-1.11,2.57-1.43Zm13.92-8.6a19,19,0,0,0-24.37-10.3c-1.4.55-5.4,2-5.13,4,.11.85,1,1.62,1.56,2.26,1.24,1.52,2.49,3,3.72,4.58l15,18.45a16.85,16.85,0,0,0,2.1,2.56c2,1.56,4.77-2.82,5.67-4.27A19.12,19.12,0,0,0,270.82,45.82Zm-3.73,15.39a15.66,15.66,0,0,1-2.28,3Q256.65,54.09,248.47,44l-3.62-4.45a15.93,15.93,0,0,1,22.24,21.64Z"/><path d="M284.3,52.1,258.57,68.27l-3.71,2.33A17.39,17.39,0,0,0,284.3,52.1Z" fill="#453835"/><path d="M282.13,53.48c-.37-.26-1-.88-1.4-.84s-1.21.77-1.59,1l-5.49,3.45a13.7,13.7,0,0,0-1.9,1.18c-.7.65-.54,1.78-1.2,2.47s-1.61.86-2.26,1.42c-1.17,1-2,2.61-3.14,3.69l18.29-11.5Zm5.69,3.74c-.33-1.63-1.16-5.52-2.84-6.39-1-.52-2,.4-2.82.91l-4.57,2.88c-3.51,2.19-7,4.39-10.5,6.59l-9.87,6.2c-.92.57-1.86,1.12-2.75,1.72-1.78,1.21-.69,2.6.42,3.93a19,19,0,0,0,12.33,6.67C279.76,81.21,290.36,69.6,287.82,57.22Zm-9.95,17.33A16.17,16.17,0,0,1,256.94,71l21.51-13.51c1.77-1.11,3.53-2.24,5.32-3.34A16.18,16.18,0,0,1,277.87,74.55Z"/><path d="M325.33,64.38,299.75,80.79l-3.69,2.37a17.39,17.39,0,0,0,29.27-18.78Z" fill="#453835"/><path d="M329.29,72.62a18.57,18.57,0,0,0-1.85-7.38c-.88-1.81-1.75-2.82-3.58-1.64l-5.15,3.3-10.18,6.54-9.27,5.94-3.09,2c-1.33.85-2,1.59-.92,3.15A18.67,18.67,0,0,0,307.1,92C318.77,94.1,329.93,84.59,329.29,72.62Zm-3.66-4.14a15.93,15.93,0,0,1-27.49,15.06q11.64-7.42,23.24-14.92l3.42-2.19A11.73,11.73,0,0,1,325.63,68.48Z"/><path d="M340.93,71.21a17.62,17.62,0,0,1-7.25,8.46c-3.32-5.76-6.55-11.59-9.83-17.35l-3-5.27-1.6-2.82c-.45-.8-.56-.72.12-1.4l3.89-3.89c.41-.41,1.06-1.38,1.6-1.6a6.17,6.17,0,0,1,2.33.16,17.1,17.1,0,0,1,3.16.75A17.53,17.53,0,0,1,340.93,71.21Z" fill="#453835"/><path d="M343.58,63.46a18.39,18.39,0,0,0-4.79-11.36c-3.19-3.58-8.73-6.67-13.71-6.22-1.84.17-3.78,3-5.05,4.26-.6.6-1.22,1.2-1.81,1.81a2,2,0,0,0-.29,2.85q6.35,11.22,12.7,22.43a30.7,30.7,0,0,0,1.71,3c1.41,1.93,3.46-.14,4.76-1.25A18.83,18.83,0,0,0,343.58,63.46ZM326,63.08c-1.09-2-2.24-3.93-3.35-5.9l-1.16-2.06c-.15-.27-.8-1-.79-1.39s1.47-1.59,1.81-1.93L324.23,50c.33-.32.81-1.05,1.23-1.23.77-.32,2.58.28,3.37.49a15.46,15.46,0,0,1,3.74,1.49,16,16,0,0,1,1.61,26.84C331.39,72.8,328.68,67.94,326,63.08Z"/><path d="M348.5,71.28l-26.44,15-3.82,2.16A17.39,17.39,0,0,0,348.5,71.28Z" fill="#453835"/><path d="M347.17,72l-.64-1.31a35.62,35.62,0,0,0-4.79,2.71c-1,.8-1.55,2.23-2.39,3.25a18.92,18.92,0,0,1-4.89,4.2l7.64-4.33L346.66,74C347.93,73.26,347.86,73.44,347.17,72ZM352,78.49c-.13-2.5-.69-5.81-2.2-7.89-1-1.34-2.19-.46-3.3.16l-5.17,2.93-10,5.68-10,5.65-2.91,1.65c-1.62.92-1.9,1.78-.75,3.45A18.84,18.84,0,0,0,352,78.49Zm-6.43,11.09c-6.4,8.11-19.24,7.53-25.25-.67l21.8-12.35c1.92-1.09,3.83-2.21,5.77-3.26A16.17,16.17,0,0,1,345.55,89.58Z"/><path d="M339.86,55.7C338,58.77,334,61,330.67,61.89a17.31,17.31,0,0,1-5.91.55c-1-.07-.8,0-1.26-.74-1.15-1.73-2.07-3.66-3.09-5.46A17.15,17.15,0,0,1,319.14,54c-.05-.14-.32-.41-.31-.55s.5-.38.56-.62c.12-.47-.82-1.18-.69-1.62s1.48-1.13,1.77-1.36c1.34-1,2.69-2.05,4-3.09L331,41.81l9.13-7A17.54,17.54,0,0,1,339.86,55.7Z" fill="#453835"/><path d="M337.12,56.59c-.22.22-.45.42-.68.63A2.82,2.82,0,0,0,337.12,56.59Zm-1.29,2.92a1.45,1.45,0,0,1,.19-1.94A16,16,0,0,1,325.16,61l.75,1.52a6,6,0,0,0,.4.8c.54.73.83.61,1.79.5a18.45,18.45,0,0,0,8.7-3.24C336.54,60.32,336,59.86,335.83,59.51Zm8.84-17.24a19,19,0,0,0-2.93-7.6c-1.12-1.68-2.1-1.34-3.48-.28l-5.72,4.39c-3,2.31-6,4.61-9,6.93l-4.81,3.67a7.36,7.36,0,0,0-.88.68c-.68.73-.44,1.09-.33,2,0,.17.18.32.18.47,0,.34-.33.67-.28,1.1a4.23,4.23,0,0,0,.68,1.44q1.43,2.51,2.84,5a24.43,24.43,0,0,0,1.7,3c.87,1.13,2.75.91,4.06.87A19,19,0,0,0,344.67,42.27ZM339.86,53.1A12.77,12.77,0,0,1,338,55.66c-.36.41-.77.59-.64,1,.07.25.65.66.84.86-.89-.78-.83-1.15-1.78-.33a15.74,15.74,0,0,1-3.88,2.46,15.53,15.53,0,0,1-5,1.29c-1,.09-2.36.37-3-.29-1.1-1.11-1.82-3.22-2.59-4.58a14.64,14.64,0,0,1-1.13-2c-.24-.68.12-.83,0-1.59-.13-.95-.48-.52,0-1.17a11.27,11.27,0,0,1,2-1.54l3.17-2.42,5.14-3.94,8.53-6.53A16.13,16.13,0,0,1,339.86,53.1Z"/><path d="M356.21,87,342.73,59.8l-1.94-3.93A17.39,17.39,0,0,1,356.21,87Z" fill="#453835"/><path d="M367,70.87c-.17-9.8-8.63-17.75-18.26-18.07a18.17,18.17,0,0,0-7.87,1.47c-1.59.71-1.69,1.57-1,3l2.58,5.22q5.3,10.65,10.57,21.33c.53,1.06,1,2.14,1.58,3.2,1.29,2.52,3.33.85,5.05-.48A19.08,19.08,0,0,0,367,70.87ZM356.82,85l-11-22.26c-1-2-2-4.09-3-6.14A15.95,15.95,0,0,1,356.82,85Z"/><path d="M341.36,70A17.39,17.39,0,0,1,332.92,80L320.37,54.6l-2.88-5.82A17.38,17.38,0,0,1,341.36,70Z" fill="#453835"/><path d="M325.89,62.49c-2-4.06-4-8.11-6-12.18-.27.25-1,.8-1.06,1.13s.53.78.54,1.11-.23.26-.31.63-.13,0-.08.49a5,5,0,0,0,.67,1.19l1,1.75c.79,1.4,1.58,2.81,2.38,4.21a10.91,10.91,0,0,0,.86,1.53c-.13-.17.83.64.6.54.32.14.2,0,.63.06s.83,0,1.21.38Zm17.79,1a18.83,18.83,0,0,0-26.07-16.37c-2,.82-1.59,1.9-.85,3.42s1.6,3.22,2.39,4.83q5.49,11.08,11,22.17a21.77,21.77,0,0,0,1.5,3c1.52,2.1,4.69-1,5.95-2.14A18.91,18.91,0,0,0,343.68,63.51Zm-3.6,5.72a15.27,15.27,0,0,1-6.56,8.68L322,54.62c-.85-1.7-1.68-3.4-2.52-5.1C331.62,45.05,343.91,57,340.08,69.23Z"/><path d="M371.48,79.48,344.24,93l-3.93,1.94a17.39,17.39,0,0,0,31.17-15.42Z" fill="#453835"/><path d="M374.42,84.61c-.19-1.59-.78-6.63-3-6.56a6.6,6.6,0,0,0-2.25,1l-5.68,2.82L352.9,87.06l-10.52,5.2a13.19,13.19,0,0,0-3,1.55c-1.49,1.39,1,4,1.9,5.1A19.06,19.06,0,0,0,353,105.47C365,107.3,376,96.78,374.42,84.61Zm-10.74,16.08c-7.15,4.43-16.83,1.59-21.34-5.17l22.34-11.06,6.05-3A16.16,16.16,0,0,1,363.68,100.69Z"/><path d="M379.15,95.65,367.2,67.71l-1.73-4a17.39,17.39,0,0,1,13.68,32Z" fill="#453835"/><path d="M390.41,75.89a19.06,19.06,0,0,0-21.06-14.73c-1.69.24-5.8.64-5.21,3.09a18.67,18.67,0,0,0,1.08,2.53l2,4.74,9.88,23.11c.46,1.07.82,2.66,2.32,2.43a9.31,9.31,0,0,0,3.21-1.74,18.66,18.66,0,0,0,3.15-2.74A19.17,19.17,0,0,0,390.41,75.89ZM379.87,93.66q-5-11.76-10.07-23.53c-.8-1.86-1.59-3.73-2.39-5.6a15.94,15.94,0,0,1,12.46,29.13Z"/><path d="M394.81,89l-27.94,12-4,1.72a17.39,17.39,0,0,0,32-13.67Z" fill="#453835"/><path d="M379.87,96.91m17.58-2.8c-.1-1.59-.41-6.5-2.6-6.58a6.36,6.36,0,0,0-2.29.81l-5.86,2.51-11.32,4.84L364,100.54c-.75.32-1.94.58-2.39,1.29-1,1.48,1.44,4.25,2.3,5.33a18.84,18.84,0,0,0,33.52-13Zm-3.71,6.52a16,16,0,0,1-14.31,10.74,16.23,16.23,0,0,1-14.6-8c7.62-3.22,15.22-6.5,22.82-9.76L394,90.9A16,16,0,0,1,393.74,100.63Z"/><path d="M401.59,105.5,391.21,76.94l-1.5-4.12a17.39,17.39,0,0,1,11.88,32.68Z" fill="#453835"/><path d="M392,75l-.44-1.22.9-.19c-.87-.27-1.93-1.06-2.78-.77.2.56.4,1.13.61,1.69.55,1.52.58,1.69,2.31,2.15Zm21.49,9.49a19.09,19.09,0,0,0-22.11-13.64c-2,.41-3.62.94-2.82,3.16.3.84.61,1.67.92,2.52q1,2.72,2,5.43l8.26,22.71a5.29,5.29,0,0,0,.78,1.8c.85.9,2,.25,2.88-.18a18.72,18.72,0,0,0,6.41-5A19.07,19.07,0,0,0,413.53,84.49Zm-10.71,18.85-.4.21c-3.06-8.57-6.22-17.11-9.34-25.67-.49-1.37-1-2.73-1.48-4.1a15.94,15.94,0,0,1,11.22,29.56Z"/><path d="M417.6,99.68,389,110.06l-4.13,1.5A17.39,17.39,0,0,0,417.6,99.68Z" fill="#453835"/><path d="M406.42,104.49a18.39,18.39,0,0,1-4.28,2.35l5.44-2ZM419,99.22c-.73-2.15-5.52.43-6.8.9l-4.93,1.79L395,106.36l-4.83,1.76-3.73,1.35a8.18,8.18,0,0,0-2.38,1c-1.56,1.33.78,4.37,1.6,5.56a18.88,18.88,0,0,0,4.82,4.78A18.8,18.8,0,0,0,419,99.22ZM416.82,108a15.93,15.93,0,0,1-28.76,6.35,15.8,15.8,0,0,0-1.2-2c7.49-2.54,14.88-5.4,22.31-8.1l7.47-2.72A15.68,15.68,0,0,1,416.82,108Z"/><path d="M423.47,116.57,414.7,87.48l-1.26-4.2a17.39,17.39,0,0,1,10,33.29Z" fill="#453835"/><path d="M436.28,95.06a18.59,18.59,0,0,0-8-10.86A18.91,18.91,0,0,0,421,81.44c-2.36-.38-5.93-.62-8.12.52-2,1,.24,5.29.68,6.77s1,3.25,1.48,4.88c2.29,7.61,4.44,15.28,6.89,22.84,1.51,4.66,9.5-2.92,11-4.83A19,19,0,0,0,436.28,95.06Zm-20.72-9.75-.29-1a15.94,15.94,0,0,1,9.14,30.32q-3.8-12.6-7.6-25.21Z"/><path d="M439.78,111.66l-29.09,8.77-4.2,1.27a17.39,17.39,0,0,0,33.29-10Z" fill="#453835"/><path d="M432.05,114c-1-.4-1.05-.21-1.82.45a21.17,21.17,0,0,1-1.87,1.4,19.4,19.4,0,0,1-4.33,2.08l10.08-3Zm9.12-2.72c-.56-2.2-5.59.14-6.84.52l-5,1.52c-4.07,1.24-8.14,2.45-12.21,3.67l-4.91,1.48a43.16,43.16,0,0,0-6.12,1.85c-3.46,1.67,3,8.82,4.59,10.19a19.15,19.15,0,0,0,12.2,4.66C435.17,135.33,444.45,123.1,441.17,111.27Zm-12.42,20a16.1,16.1,0,0,1-17-3.7,15.59,15.59,0,0,1-2-2.44c-.4-.6-1.33-1.74-1.33-2.46,8.25-2.34,16.42-4.95,24.63-7.42l5.7-1.72A16.19,16.19,0,0,1,428.75,131.23Z"/><path d="M444.75,128.85l-7.13-29.53-1-4.27a17.39,17.39,0,0,1,8.16,33.8Z" fill="#453835"/><path d="M459.07,110.23c-.87-10.35-10.75-18.09-21-16.9-1.61.19-3.12.4-2.85,2.33a34.14,34.14,0,0,0,.86,3.56l1.23,5.11q2.84,11.74,5.67,23.49c.45,1.86,1,2.8,3,2.16a18.44,18.44,0,0,0,7-4.07A19.1,19.1,0,0,0,459.07,110.23Zm-20.72-14c8.16-1.26,16.14,4.93,17.64,12.86A16.18,16.18,0,0,1,445.79,127l-6.24-25.86Z"/><path d="M461.31,124.85,431.78,132l-4.27,1a17.39,17.39,0,0,0,33.8-8.17Z" fill="#453835"/><path d="M456.4,126c-.82-.49-1.54-1.23-2.51-.89-.78.27-1.59,1.42-2.27,1.94a18.37,18.37,0,0,1-6.35,3.12l12.94-3.12C457.61,126.73,457,126.38,456.4,126Zm6.32-1.5c-.45-2.24-5.51-.19-6.8.12l-5.13,1.25-12.59,3-4.94,1.2c-1.92.46-4.44.66-6.23,1.52-2,1-.24,4,.44,5.33a18.87,18.87,0,0,0,3.95,5.27,19.13,19.13,0,0,0,11.58,5.1C455.31,148.28,465.36,136.57,462.72,124.54Zm-14.65,19.55a16.13,16.13,0,0,1-15.95-5.27c-.89-1.06-2.77-3.3-2.77-4.77,8.24-2.13,16.56-4,24.84-6l6-1.44A16.17,16.17,0,0,1,448.07,144.09Z"/><path d="M465.37,142.31l-5.47-29.88-.79-4.32a17.39,17.39,0,0,1,6.26,34.2Z" fill="#453835"/><path d="M480.42,121.89a18.87,18.87,0,0,0-18.74-15.45c-1,0-2.56-.11-3.39.49-1.37,1,.12,5.37.36,6.71q.51,2.74,1,5.49c1.41,7.66,2.59,15.41,4.22,23,1,4.74,10.36-2.47,12-4.26A19,19,0,0,0,480.42,121.89ZM477.59,128a16.26,16.26,0,0,1-11.08,12.5l-4.83-26.42c-.29-1.58-.57-3.17-.87-4.75C470.89,108.68,479.44,118,477.59,128Z"/><path d="M482.13,139.25l-29.89,5.47-4.32.79a17.39,17.39,0,0,0,34.21-6.26Z" fill="#453835"/><path d="M483.55,139c-.34-2.28-5.55-.49-6.86-.25l-5.1.93-12.84,2.35-5.12.94-4,.72a6.48,6.48,0,0,0-2.6.65c-1.43,1.1.22,4.24.78,5.48A19,19,0,0,0,463,160.75C475.06,162.1,485.5,151,483.55,139Zm-15.73,18.69a16.19,16.19,0,0,1-18.12-11.06L474.92,142l5.95-1.09A16.2,16.2,0,0,1,467.82,157.71Z"/><path d="M485.27,157l-3.78-30.15-.55-4.35a17.39,17.39,0,0,1,4.33,34.5Z" fill="#453835"/><path d="M483.05,127.59a14.64,14.64,0,0,1-1.54-.63,5,5,0,0,0,.17,1.3c.3.66.74.7,1.57.93Zm18.39,9.81a19.11,19.11,0,0,0-19.86-16.46c-3.13.19-1.83,3.64-1.56,5.8.22,1.77.45,3.55.67,5.32q1.5,12,3,24.06c.1.8.09,1.66.9,2.09,1,.53,2.56-.12,3.55-.42a18.86,18.86,0,0,0,7.29-4.17A19.05,19.05,0,0,0,501.44,137.4Zm-10.88,16.22a15.46,15.46,0,0,1-4.05,1.62Q485,143,483.43,130.66c-.28-2.29-.57-4.57-.86-6.86a15.93,15.93,0,0,1,8,29.82Z"/><path d="M502.17,154.83,472,158.61l-4.35.54a17.39,17.39,0,0,0,34.5-4.32Z" fill="#453835"/><path d="M503.6,154.68c-.22-2.22-5.32-.82-6.65-.65l-5.45.68c-4.25.55-8.5,1.06-12.74,1.6l-5.14.64-4.16.52a6.94,6.94,0,0,0-2.51.45c-1.61,1-.15,4.2.35,5.49a18.9,18.9,0,0,0,3.47,5.67,19.16,19.16,0,0,0,11,6.13C493.79,177.29,504.87,166.83,503.6,154.68Zm-34.22,5.72,24.19-3,7.25-.91a15.95,15.95,0,0,1-31.44,3.94Z"/><path d="M504.35,171.39l-3-30.24-.44-4.36a17.39,17.39,0,0,1,3.47,34.6Z" fill="#453835"/><path d="M521,152.25a18.92,18.92,0,0,0-6.14-12.06c-3.46-3.12-9.18-5.76-13.95-4.85-2.52.48-1.14,4.9-1,6.72s.35,3.49.52,5.24q.67,6.63,1.33,13.27l.57,5.65c.13,1.36.27,2.71.4,4.07s.17,2.48,1.74,2.54c2.24.07,5-1.19,6.89-2.26A19.23,19.23,0,0,0,516.8,166,19,19,0,0,0,521,152.25ZM505.63,169.7q-1.32-13.12-2.63-26.24l-.52-5.28a15.94,15.94,0,0,1,3.15,31.52Z"/><path d="M301.77,58.8,277.15,76.6l-3.56,2.57A17.39,17.39,0,0,0,301.77,58.8Z" fill="#453835"/><path d="M305.25,62.49a3.49,3.49,0,0,0-.34-.92c-.41-.5-.31-.41-1.08-.29a15.59,15.59,0,0,1-2.16.17,16.19,16.19,0,0,1-2.35,17.9c1.61-1,3.41-2,4.93-3.17s1.73-3.75,1.92-5.62A18.73,18.73,0,0,0,305.25,62.49Zm0,0c-.46-1.38-1.6-4.88-3.26-5.12-1-.14-2.26,1.12-3,1.67L294.91,62l-10.24,7.4L275.5,76a22.65,22.65,0,0,0-2.75,2c-1.69,1.69,1.11,3.82,2.36,4.9a19,19,0,0,0,12.71,4.6C300.4,87.29,309.38,74.4,305.25,62.49Zm-8.43,19.13a16.21,16.21,0,0,1-21.13-2.18l21.68-15.68,4-2.89A16.21,16.21,0,0,1,296.82,81.62Z"/><path d="M285.06,53.7l-24.6-16.65-3.53-2.39a17,17,0,0,1,28.13,19Z" fill="#453835"/><path d="M266.24,39.21a17.6,17.6,0,0,1,3.25,3.95c.57.94.85,2.14,1.64,2.87a39.73,39.73,0,0,0,4.69,3.17l2.75,1.86a10.14,10.14,0,0,0,1.89,1.28c.6.22.45.19,1.16-.25l1.88-1.19Zm19.91-4.91a18.6,18.6,0,0,0-24.57-5.75,18.06,18.06,0,0,0-4.95,4.13c-1.16,1.39-1.46,2.53.06,3.57,1.72,1.18,3.46,2.34,5.19,3.51q10.1,6.84,20.2,13.68A13.53,13.53,0,0,0,284.44,55c2.13.81,3.28-3,3.77-4.46A18.61,18.61,0,0,0,286.15,34.3Zm-1.09,16.34a5.62,5.62,0,0,1-.47,1c-6.54-4.46-13.12-8.87-19.68-13.32l-5.88-4a15.54,15.54,0,0,1,26,16.31Z"/><path d="M308.5,74,297.45,45.73l-1.6-4.08A17.39,17.39,0,0,1,308.5,74Z" fill="#453835"/><path d="M320.62,56.59c-.57-9.71-9.19-17.43-18.82-17.44a18.33,18.33,0,0,0-4.17.47c-1,.22-2.63.42-3.1,1.43s.49,2.45.84,3.36c.61,1.55,1.22,3.09,1.82,4.64q4.44,11.39,8.89,22.78c.36.94.65,2.47,1.39,3.2,1.56,1.55,5.35-1.68,6.56-2.72A19.09,19.09,0,0,0,320.62,56.59ZM309.28,72.07l-9.14-23.43q-1.2-3-2.38-6.08c8.11-2.32,16.92,2.84,19.34,10.76A16.19,16.19,0,0,1,309.28,72.07Z"/><rect x="179.92" y="453.33" width="30.86" height="6.08" fill="#fff"/></svg>