<?xml version="1.0" encoding="utf-8"?>
<!-- Generator: Adobe Illustrator 22.1.0, SVG Export Plug-In . SVG Version: 6.00 Build 0)  -->
<svg version="1.1" id="Layer_1" xmlns="http://www.w3.org/2000/svg" xmlns:xlink="http://www.w3.org/1999/xlink" x="0px" y="0px"
	 viewBox="0 0 188.7 42" style="enable-background:new 0 0 188.7 42;" xml:space="preserve">
<title>fixagraphlogo</title>
<path d="M118.5,17.9L118.5,17.9L118.5,17.9L118.5,17.9z"/>
<path d="M119.8,17l-0.1,0.1C119.8,17,119.8,17,119.8,17z"/>
<path d="M119.6,17.2l-0.1,0.1C119.5,17.2,119.6,17.2,119.6,17.2z"/>
<path d="M116.7,18.2L116.7,18.2L116.7,18.2z"/>
<path d="M119.4,17.4l-0.1,0.1C119.3,17.4,119.4,17.4,119.4,17.4z"/>
<path d="M120,16.7l-0.1,0.1C119.9,16.8,120,16.8,120,16.7z"/>
<path d="M116.5,18.1L116.5,18.1L116.5,18.1z"/>
<path d="M120.2,16.5l-0.1,0.1L120.2,16.5z"/>
<path d="M118.3,18L118.3,18L118.3,18z"/>
<path d="M117.2,18.2L117.2,18.2z"/>
<path d="M118.9,17.7L118.9,17.7L118.9,17.7z"/>
<path d="M117,18.2L117,18.2z"/>
<path d="M119.2,17.5l-0.1,0.1C119.1,17.6,119.1,17.6,119.2,17.5z"/>
<path d="M116.2,18.1c-0.1,0-0.1,0-0.2-0.1C116.1,18.1,116.2,18.1,116.2,18.1z"/>
<path d="M120.5,15.7c0,0.1,0,0.1,0,0.2C120.5,15.8,120.5,15.7,120.5,15.7z"/>
<path d="M120.4,15.9c0,0.1,0,0.1-0.1,0.2C120.4,16.1,120.4,16,120.4,15.9z"/>
<path d="M120.6,15.4v0.1V15.4z"/>
<path d="M188.4,29.9c-1.9,0-2.2-0.5-2.2-1.8v-9.7c0-5.5-2.8-8.1-7.3-8.1c-4.1,0-6.8,2.3-7.8,5.9V0.9h-9.9v3.7h0.1
	c1.6,0,2.4,0.4,2.4,2.6V28c0,1.6-0.3,2-1.9,2h-0.6v3.4H174V30h-0.5c-2.1,0-2.4-0.3-2.4-1.7V21c0-3.9,1.8-6.1,4.5-6.1
	c2.1,0,3.2,1.2,3.2,3.7v9.7c0,1.5-0.5,1.7-2.4,1.7h-0.5v3.4h12.8V30L188.4,29.9z"/>
<path d="M152.7,10.3c-4.3,0-6.9,3-7.5,6.2v-0.2c0-1.8-0.4-3.7-1-5.4h-8.8v4h0.1c1.6,0,2.4,0.4,2.4,2.6v12.1
	c-0.6,0.2-1.3,0.3-1.8,0.3c-1.3,0-1.9-0.7-1.9-2.7v-7.6c0-2.1-0.3-4.4-1.6-6.1c-1.3-1.8-3.5-2.6-5.6-3c-1.9-0.3-3.9-0.3-5.8,0
	c0.8,0.9,1.3,2,1.4,3.2c0.9-0.1,1.8,0.1,2.6,0.4c1.3,0.5,1.9,1.8,1.8,3.2c-0.1,3.3-5.2,4-7.6,4.7c-4,1.1-5.8,2.9-5.8,5.9l0,0
	c0,0.7,0.1,1.5,0.3,2.2c0.2,0.6,0.5,1.1,0.8,1.5c1.7,2.2,4.7,2.8,7.3,2.3c2.4-0.4,4.2-2,5-4.3v0.1c0,3.2,3,4.4,5.8,4.2
	c2.2-0.1,4-1,5.1-2.7v5.1c0,1.6-0.3,2-1.9,2h-0.6v3.4h13.5v-3.4h-1.2c-2.1,0-2.4-0.3-2.4-1.7v-7.8c0.8,3.1,3.2,5.2,7.1,5.2
	c5.6,0,9.5-4.3,9.5-12.1l0,0C161.9,15,158.6,10.3,152.7,10.3z M126.8,25.8c0,1.5-0.5,3.3-1.9,4.1c-1.4,0.8-3.1,0.4-3.6-1.2
	c-0.2-0.5-0.3-1.1-0.3-1.7v-0.2c0-2.1,1-2.8,2.4-3.5c1.1-0.6,2.4-1.1,3.4-2.3v0.1l0,0V25.8z M154.3,22.3c0,5.4-1.7,7.5-4.4,7.5
	s-4.7-2.4-4.7-7.6v-0.8c0-4,2-6.6,4.7-6.6c2.9,0,4.4,2.1,4.4,6.2V22.3z"/>
<path d="M120.6,15.2L120.6,15.2L120.6,15.2z"/>
<path d="M120.3,16.2c0,0.1-0.1,0.1-0.1,0.2C120.2,16.3,120.3,16.3,120.3,16.2z"/>
<path d="M115.7,10.6c0.1,0,0.2,0,0.3-0.1c0.3,0,0.5-0.1,0.8-0.1c0.7,0,1.4,0.1,2,0.4c0.1,0.1,0.2,0.1,0.3,0.2c1,0.6,1.5,1.7,1.6,2.9
	c0,0,0,0,0,0.1c0,0.4,0,0.8,0,1.1l0,0c0,0.1,0,0.1,0,0.2c0,0.1,0,0.1,0,0.1v0.1c0,0,0,0.1,0,0.2v0.1c0,0,0,0.1-0.1,0.2v0.1
	c0,0.1-0.1,0.1-0.1,0.2c0,0,0,0,0,0.1l0,0c0,0,0,0.1-0.1,0.1l-0.1,0.1l-0.1,0.1l-0.1,0.1l-0.1,0.1l-0.1,0.1l-0.1,0.1l-0.1,0.1
	l-0.1,0.1l-0.1,0.1l-0.1,0.1c0,0-0.1,0.1-0.2,0.1h-0.1c-0.1,0-0.2,0.1-0.3,0.1l0,0c-0.1,0-0.2,0.1-0.2,0.1l0,0
	c-0.3,0.1-0.7,0.2-1.1,0.2l0,0h-0.2h-0.1c-0.1,0-0.1,0-0.2,0h-0.1h-0.2h-0.1l0,0h-0.1c-0.1,0-0.1,0-0.2-0.1h-0.1h-0.1H116l0,0"/>
<path d="M49,28.1l-4.8-6.7l3.7-4.9c1.2-1.6,1.9-2,3.3-2h0.4v-3.7H41.5v3.7H42c1.7,0,2.2,0.8,0.7,2.9l-2,2.6l-2.1-3.1
	c-1.1-1.5-0.8-2.3,0.6-2.3h0.6v-3.7H27v3.7h0.4c1.6,0,1.9,0.4,3.1,2.2l3.7,5.6l-4,5.7c-1.2,1.8-1.7,2-2.9,2h-0.9
	c-1.7,0-2.1-0.3-2.1-2V10.8h-14V7.4c0-3.2,1.5-4.6,3.8-4.6c0.4,0,2,0.1,2.9,0.9c-0.2,0.6-0.2,1.2-0.1,1.7c0.2,1,1.1,2.2,3.4,2.3
	c1.9,0.1,3.6-1,3.6-3.2c0-2.9-4.6-4.5-9.8-4.5C6.8,0,3.1,3,2.9,9.2v1.6H0v3.6h2.9V28c0,1.6-0.3,2-1.9,2H0.3v3.4h13.1V30H13
	c-2.3,0-2.7-0.3-2.7-2V14.4h4.2c1.6,0,2.4,0.4,2.4,2.6v11c0,1.5-0.3,2-1.7,2h-0.5v3.4h22.4V30h-0.6c-1.8,0-2.2-0.9-0.8-2.8l2.4-3.4
	l2.5,3.8c1.1,1.7,0.9,2.4-0.8,2.4h-0.6v3.4H52V30h-0.2C50.4,29.9,50,29.4,49,28.1z"/>
<path d="M120.7,14c-0.1-1.2-0.6-2.2-1.6-2.9c-0.9-0.6-2.1-0.7-3.1-0.5c-2,0.3-3.6,1.8-4.6,3.5c-0.6,0.9-1,2-1.2,3
	c0,0.1,0,0.2-0.1,0.3V17c0-2.1-0.4-4.2-1.2-6.1H92.5c-0.5,1.4-0.9,2.9-1.1,4.4c-1.4-3.3-3.4-5-7.6-5c-5.5,0-9.5,4.1-9.5,10.8v0.1
	c0,3.4,0.9,6.2,2.6,8l-0.2,0.1c-0.4,0.2-1.7,0.5-2.3,0.5c-1.3,0-1.9-0.7-1.9-2.7v-7.6c0-2.1-0.3-4.4-1.6-6.1c-1.3-1.8-3.5-2.6-5.6-3
	c-2.6-0.4-5.3-0.3-7.9,0.4c-1.5,0.4-3.1,1.1-4.2,2.3c-1,1.1-1.5,2.8-0.4,4c1,1,2.7,1.3,4,0.7c1.7-0.7,2.2-2.3,2.1-3.9l0,0
	c1.3-0.6,3.2-0.6,4.4,0c1.3,0.5,1.9,1.8,1.8,3.2c-0.1,3.3-5.2,4-7.6,4.7c-4,1.1-5.8,2.9-5.8,5.9l0,0c0,0.7,0.1,1.5,0.3,2.2
	c0.2,0.6,0.5,1.1,0.8,1.5c1.7,2.2,4.7,2.8,7.3,2.3c2.4-0.4,4.2-2,5-4.3v0.1c0,3.2,3,4.4,5.8,4.2c2.9-0.2,5.2-1.7,5.8-4.6
	c1.6,1.7,3.8,2.6,6.6,2.6c4.3,0,6.6-2.1,7.3-4.3v3c0,5.5-1.7,7.9-6.7,7.9c-1.1,0-1.7-0.1-2.2-0.4V37c0-2.2-1.6-3.1-3.5-3.1
	c-2,0-3.2,1.1-3.2,2.8c0,3.4,3.9,5.3,10,5.3c8.9,0,13-4.4,13-12.1V17.4c0-2.1,0.7-2.5,2-2.6l0,0h0.1c1.6,0,2.4,0.4,2.4,2.6V28
	c0,1.1-0.9,1.9-1.9,1.9H100v3.4h13.5v-3.4h-1c-2.1,0-2.6-0.3-2.6-2.1v-2.6c0-0.3,0-0.6,0-0.9c0-2.2,0.5-4.5,1.7-6.4
	c0.5-0.9,1.2-1.7,2.1-2.2c0,1.4,1.2,2.2,2.4,2.5c1.5,0.3,3.1-0.3,3.9-1.6C120.6,15.7,120.7,14.8,120.7,14z M65.1,25.8
	c0,1.5-0.5,3.3-1.9,4.1c-1.4,0.8-3.1,0.4-3.6-1.2c-0.2-0.5-0.3-1.1-0.3-1.7v-0.2c0-2.1,1-2.8,2.4-3.5c1.1-0.6,2.4-1.1,3.4-2.3v0.1
	l0,0V25.8z M90.9,21.4c0,4.2-2,6.7-4.7,6.7c-2.8,0-4.4-2.2-4.4-6.7v-0.8c0-4,1.7-6.1,4.4-6.1c2.7,0,4.6,2.5,4.6,6.4L90.9,21.4
	L90.9,21.4z"/>
</svg>
