<svg xmlns="http://www.w3.org/2000/svg" width="250" height="250" viewBox="0 0 250 250"><title>chat</title><circle cx="125" cy="125" r="125" fill="#fff"/><path d="M142.5,31.5H78.17a27.1,27.1,0,0,0-12.94,3.27A28.06,28.06,0,0,0,50.64,59.48V94.22a35.27,35.27,0,0,1-17.29,30.46,34.2,34.2,0,0,0,31.88,1.42,27.1,27.1,0,0,0,12.94,3.27H142.5a27.77,27.77,0,0,0,27.54-28V59.48A27.76,27.76,0,0,0,142.5,31.5Z" fill="#118669" stroke="#3c2c6a" stroke-linecap="round" stroke-linejoin="round" stroke-width="10"/><rect x="103.02" y="84.08" width="35.39" height="13.93" rx="5.58" ry="5.58" transform="translate(29.66 211.76) rotate(-90)" fill="#fff"/><rect x="123.91" y="62.85" width="35.39" height="13.93" rx="5.58" ry="5.58" transform="translate(71.79 211.43) rotate(-90)" fill="#fff"/><rect x="71.51" y="73.47" width="56.62" height="13.93" rx="5.58" ry="5.58" transform="translate(19.38 180.25) rotate(-90)" fill="#fff"/><rect x="50.61" y="73.47" width="56.62" height="13.93" rx="5.58" ry="5.58" transform="translate(-1.51 159.35) rotate(-90)" fill="#fff"/><rect x="113.63" y="52.24" width="14.15" height="13.93" rx="5.58" ry="5.58" transform="translate(61.51 179.91) rotate(-90)" fill="#fff"/><rect x="134.53" y="94.7" width="14.15" height="13.93" rx="5.58" ry="5.58" transform="translate(39.94 243.27) rotate(-90)" fill="#fff"/><rect x="82.33" y="69.12" width="14.15" height="22.62" rx="5.58" ry="5.58" transform="translate(8.97 169.84) rotate(-90)" fill="#fff"/><path d="M102.5,129.13h64.33a27.1,27.1,0,0,1,12.94,3.27,28.07,28.07,0,0,1,14.59,24.71v7.24a35.26,35.26,0,0,0,17.29,30.46,34.2,34.2,0,0,1-31.88,1.42,27.1,27.1,0,0,1-12.94,3.27H102.5a27.77,27.77,0,0,1-27.54-28v-14.4A27.76,27.76,0,0,1,102.5,129.13Z" fill="#fff" stroke="#fff" stroke-linejoin="round" stroke-width="20"/><path d="M102.5,129.13h64.33a27.1,27.1,0,0,1,12.94,3.27,28.07,28.07,0,0,1,14.59,24.71v7.24a35.26,35.26,0,0,0,17.29,30.46,34.2,34.2,0,0,1-31.88,1.42,27.1,27.1,0,0,1-12.94,3.27H102.5a27.77,27.77,0,0,1-27.54-28v-14.4A27.76,27.76,0,0,1,102.5,129.13Z" fill="#fff" stroke="#118669" stroke-linecap="round" stroke-linejoin="round" stroke-width="10"/><path d="M133.26,161.89h3.17a6.38,6.38,0,0,1,6.38,6.38v7.79a2,2,0,0,1-2,2H128.89a2,2,0,0,1-2-2v-7.79a6.38,6.38,0,0,1,6.38-6.38Z" transform="translate(269.7 339.96) rotate(-180)" fill="#d74d1f"/><rect x="103.01" y="153.8" width="15.92" height="16.18" rx="6.38" ry="6.38" transform="translate(221.93 323.78) rotate(-180)" fill="#3c2c6a"/><rect x="150.77" y="153.8" width="15.92" height="16.18" rx="6.38" ry="6.38" transform="translate(317.46 323.78) rotate(-180)" fill="#3c2c6a"/></svg>