<svg xmlns="http://www.w3.org/2000/svg" width="250" height="250" viewBox="0 0 250 250"><title>editing</title><circle cx="125" cy="125" r="125" fill="#fff"/><rect x="55.52" y="35.06" width="138.97" height="179.88" rx="4.05" ry="4.05" transform="translate(-19.81 23.61) rotate(-10)" fill="#118669"/><rect x="35.06" y="55.52" width="179.88" height="138.97" rx="4.05" ry="4.05" transform="translate(-19.81 226.4) rotate(-80)" fill="#3c2c6a"/><rect x="55.35" y="35.28" width="138.97" height="179.88" rx="4.05" ry="4.05" fill="#fff"/><rect x="80.94" y="60.06" width="23.19" height="13.91" rx="4.83" ry="4.83" fill="#3c2c6a"/><rect x="113.4" y="60.06" width="23.19" height="13.91" rx="4.83" ry="4.83" fill="#3c2c6a"/><rect x="145.87" y="60.06" width="23.19" height="13.91" rx="4.83" ry="4.83" fill="#3c2c6a"/><rect x="129.64" y="176.02" width="39.43" height="13.91" rx="4.07" ry="4.07" fill="#3c2c6a"/><rect x="80.94" y="176.02" width="39.43" height="13.91" rx="4.07" ry="4.07" fill="#3c2c6a"/><rect x="129.64" y="83.25" width="39.43" height="13.91" rx="4.07" ry="4.07" fill="#3c2c6a"/><rect x="80.94" y="83.25" width="39.43" height="13.91" rx="4.07" ry="4.07" fill="#3c2c6a"/><rect x="80.94" y="152.83" width="88.13" height="13.91" rx="4.83" ry="4.83" fill="#3c2c6a"/><path d="M114.29,143.55h21.42a5.52,5.52,0,0,0,5.52-5.53v-6.8a1.57,1.57,0,0,0-1.57-1.58H110.34a1.57,1.57,0,0,0-1.57,1.58V138A5.52,5.52,0,0,0,114.29,143.55Z" fill="#3c2c6a"/><rect x="27.59" y="118.51" width="46.38" height="46.38" rx="4.05" ry="4.05" transform="translate(-99.23 154.08) rotate(-75)" fill="#118669"/><path d="M55.61,145.14l-6.42-1.72-.33-.09-11.2-3A2.11,2.11,0,0,1,35.91,138l.25-.92a2.11,2.11,0,0,1,2.7-1.19l11.2,3,.33.09,6.42,1.72A2.13,2.13,0,0,1,58.56,143l-.25.92A2.11,2.11,0,0,1,55.61,145.14Z" fill="#3c2c6a"/><rect x="33.47" y="145.34" width="9.28" height="4.64" rx="2.03" ry="2.03" transform="translate(39.52 -4.83) rotate(15)" fill="#3c2c6a"/><path d="M58.45,136.3,54,135.1l-.91-.25-4.49-1.2a1.85,1.85,0,0,1-1.3-2.25l.25-.92a1.86,1.86,0,0,1,2.26-1.31l4.48,1.2.92.25,4.48,1.2a1.86,1.86,0,0,1,1.3,2.26l-.25.92A1.85,1.85,0,0,1,58.45,136.3Z" fill="#3c2c6a"/><rect x="38.36" y="126.82" width="4.64" height="4.64" rx="2.03" ry="2.03" transform="translate(34.81 -6.13) rotate(15)" fill="#3c2c6a"/><rect x="65.24" y="134.02" width="4.64" height="4.64" rx="2.03" ry="2.03" transform="translate(37.59 -12.84) rotate(15)" fill="#3c2c6a"/><rect x="176.02" y="82.33" width="46.38" height="46.38" rx="4.05" ry="4.05" transform="translate(-20.52 55.16) rotate(-15)" fill="#118669"/><rect x="186.7" y="115.16" width="9.28" height="4.64" rx="2.03" ry="2.03" transform="translate(-23.89 53.53) rotate(-15)" fill="#3c2c6a"/><rect x="202.06" y="91.84" width="9.28" height="4.64" rx="2.03" ry="2.03" transform="translate(-17.33 56.71) rotate(-15)" fill="#3c2c6a"/><path d="M194.32,99.88l-4.48,1.2-.92.24-4.48,1.2a1.84,1.84,0,0,1-2.26-1.3l-.24-.92a1.85,1.85,0,0,1,1.3-2.26l4.48-1.2.92-.24,4.48-1.2a1.85,1.85,0,0,1,2.26,1.3l.24.92A1.85,1.85,0,0,1,194.32,99.88Z" fill="#3c2c6a"/><path d="M210.16,105.23,205,106.61l-.27.07-9,2.4a1.85,1.85,0,0,1-2.26-1.3l-.24-.92a1.85,1.85,0,0,1,1.3-2.26l9-2.4.27-.07,5.13-1.38a1.86,1.86,0,0,1,2.26,1.31l.25.92A1.84,1.84,0,0,1,210.16,105.23Z" fill="#3c2c6a"/><rect x="184.38" y="106.8" width="4.64" height="4.64" rx="2.03" ry="2.03" transform="translate(-21.88 52.04) rotate(-15)" fill="#3c2c6a"/><path d="M173.58,152.16c2.61-1.13,1.16-.5,6.34-2.67" fill="none" stroke="#d74d1f" stroke-linecap="round" stroke-linejoin="round" stroke-width="3"/><line x1="176.72" y1="154.01" x2="171.18" y2="153.57" fill="none" stroke="#d74d1f" stroke-linecap="round" stroke-linejoin="round" stroke-width="3"/><line x1="173.34" y1="148.81" x2="171.18" y2="153.56" fill="none" stroke="#d74d1f" stroke-linecap="round" stroke-linejoin="round" stroke-width="3"/><path d="M165.15,57.5c-13-10.78-25.72,1.26-25.72,8.73,0,7.08,5.5,12.56,18.13,12.56h-.08c12.63,0,18.47-8,18.47-14.45s-6.69-16.89-23.79-6.84" fill="none" stroke="#d74d1f" stroke-linecap="round" stroke-linejoin="round" stroke-width="3"/><path d="M124.88,84c0-15,12.29-1.67,18.6-8" fill="none" stroke="#d74d1f" stroke-linecap="round" stroke-linejoin="round" stroke-width="3"/><line x1="129.04" y1="81.67" x2="124.88" y2="87.63" fill="none" stroke="#d74d1f" stroke-linecap="round" stroke-linejoin="round" stroke-width="3"/><line x1="120.96" y1="82.03" x2="124.86" y2="87.63" fill="none" stroke="#d74d1f" stroke-linecap="round" stroke-linejoin="round" stroke-width="3"/><path d="M80.94,76.88c2.89,0,2.89,3.48,5.79,3.48s2.9-3.48,5.8-3.48,2.9,3.48,5.8,3.48,2.9-3.48,5.8-3.48" fill="none" stroke="#d74d1f" stroke-linecap="round" stroke-linejoin="round" stroke-width="3"/><path d="M131,193.24c3.05,0,3.05,3.67,6.1,3.67s3.06-3.67,6.11-3.67,3,3.67,6.1,3.67,3.06-3.67,6.11-3.67,3.06,3.67,6.11,3.67,3.06-3.67,6.11-3.67" fill="none" stroke="#d74d1f" stroke-linecap="round" stroke-linejoin="round" stroke-width="3"/><line x1="183.95" y1="139.88" x2="184.92" y2="150.97" fill="none" stroke="#d74d1f" stroke-linecap="round" stroke-linejoin="round" stroke-width="3"/><line x1="185.49" y1="157.43" x2="185.49" y2="157.43" fill="none" stroke="#d74d1f" stroke-linecap="round" stroke-linejoin="round" stroke-width="3"/><rect x="96.5" y="106.59" width="13.62" height="13.62" rx="5.41" ry="5.41" fill="#3c2c6a"/><rect x="139.89" y="106.59" width="13.62" height="13.62" rx="5.41" ry="5.41" fill="#3c2c6a"/></svg>