<svg xmlns="http://www.w3.org/2000/svg" width="250" height="250" viewBox="0 0 250 250"><title>typewriter</title><circle cx="125" cy="125" r="125" fill="#fff"/><path d="M206.21,100.91H44.86l2.86-62.54a8.87,8.87,0,0,1,8.87-8.87l60.93-4.24a108.42,108.42,0,0,1,15.08,0l61.88,4.24a8.87,8.87,0,0,1,8.87,8.87Z" fill="#118669"/><path d="M35.43,108.51V81.42a2,2,0,0,0-.08-.56A1.47,1.47,0,0,0,34,79.73H25.43a1.45,1.45,0,0,0-1.34,1.13,1.73,1.73,0,0,0-.08.56v27.09a1.69,1.69,0,0,0,.08.56,1.47,1.47,0,0,0,1.34,1.13H34a1.5,1.5,0,0,0,1.35-1.13A2,2,0,0,0,35.43,108.51Z" fill="#118669" stroke="#118669" stroke-miterlimit="10" stroke-width="3"/><path d="M193.44,225H57.63a9.53,9.53,0,0,1-9.52-9.21l-1.61-79H204.56l-1.6,79A9.53,9.53,0,0,1,193.44,225Z" fill="#3c2c6a"/><path d="M10.91,86.87H22.47a0,0,0,0,1,0,0v16.19a0,0,0,0,1,0,0H10.91a3.47,3.47,0,0,1-3.47-3.47V90.34A3.47,3.47,0,0,1,10.91,86.87Z" fill="#d74d1f"/><path d="M227.06,108.51V81.42a1.73,1.73,0,0,0-.09-.56,1.45,1.45,0,0,0-1.34-1.13h-8.57a1.45,1.45,0,0,0-1.34,1.13,1.73,1.73,0,0,0-.09.56v27.09a1.69,1.69,0,0,0,.09.56,1.47,1.47,0,0,0,1.34,1.13h8.57a1.49,1.49,0,0,0,1.34-1.13A1.69,1.69,0,0,0,227.06,108.51Z" fill="#118669" stroke="#118669" stroke-miterlimit="10" stroke-width="3"/><path d="M133.43,102.88H117.64a5.43,5.43,0,0,0,.75-2.38,7.15,7.15,0,1,1,14.29,0A5.3,5.3,0,0,0,133.43,102.88Z" fill="#fff" stroke="#000" stroke-miterlimit="10" stroke-width="3"/><path d="M212.5,103.37H38.57c-.4,0-1.71.65-1.71,1.46V85.1c0,.81,1.31,1.46,1.71,1.46H212.5c.4,0,1.71-.65,1.71-1.46v19.73C214.21,104,212.9,103.37,212.5,103.37Z" fill="#3c2c6a"/><rect x="167.9" y="179.82" width="25.71" height="17.14" rx="6.81" ry="6.81" fill="#118669"/><rect x="56.5" y="179.82" width="25.71" height="17.14" rx="6.81" ry="6.81" fill="#118669"/><rect x="90.78" y="179.82" width="17.14" height="17.14" rx="6.77" ry="6.77" transform="translate(198.7 376.77) rotate(-180)" fill="#118669"/><rect x="116.49" y="179.82" width="17.14" height="17.14" rx="6.77" ry="6.77" transform="translate(250.11 376.77) rotate(-180)" fill="#118669"/><rect x="142.2" y="179.82" width="17.14" height="17.14" rx="6.77" ry="6.77" transform="translate(301.53 376.77) rotate(-180)" fill="#118669"/><rect x="56.5" y="154.11" width="17.14" height="17.14" rx="6.77" ry="6.77" transform="translate(130.14 325.36) rotate(-180)" fill="#118669"/><rect x="82.21" y="154.11" width="17.14" height="17.14" rx="6.77" ry="6.77" transform="translate(181.56 325.36) rotate(-180)" fill="#118669"/><rect x="107.92" y="154.11" width="17.14" height="17.14" rx="6.77" ry="6.77" transform="translate(232.98 325.36) rotate(-180)" fill="#118669"/><rect x="133.63" y="154.11" width="17.14" height="17.14" rx="6.77" ry="6.77" transform="translate(284.39 325.36) rotate(-180)" fill="#118669"/><rect x="159.34" y="154.11" width="34.28" height="17.14" rx="6.81" ry="6.81" transform="translate(352.95 325.36) rotate(-180)" fill="#118669"/><path d="M98.6,205.53h52.91a7.82,7.82,0,0,1,7.82,7.82v7.41a1.9,1.9,0,0,1-1.9,1.9H92.68a1.9,1.9,0,0,1-1.9-1.9v-7.41a7.82,7.82,0,0,1,7.82-7.82Z" transform="translate(250.11 428.19) rotate(-180)" fill="#d74d1f"/><path d="M192,45v81.25H59.08V45a4.44,4.44,0,0,1,4.44-4.44h124A4.44,4.44,0,0,1,192,45Z" fill="#fff"/><rect x="97.67" y="74.31" width="13.31" height="13.31" rx="5.29" ry="5.29" fill="#3c2c6a"/><rect x="140.09" y="74.31" width="13.31" height="13.31" rx="5.29" ry="5.29" fill="#3c2c6a"/><path d="M205.51,133.47a2.55,2.55,0,0,1-2.74,2.29H48.29a2.56,2.56,0,0,1-2.74-2.29l.91-28.91H204.6Z" fill="#3c2c6a" stroke="#3c2c6a" stroke-miterlimit="10" stroke-width="3"/><path d="M136.5,95.45c-3.81,0-2.65,8.38-.67,10.57,3.91,4.33,12.16,5.07,33.52,5.2H170a6,6,0,0,1,3.17.92h0c2.94,1.81,4.49,5.85,3.73,9.79s-3.61,6.7-6.9,6.71H81.06c-3.3,0-6.16-2.79-6.9-6.71s.79-8,3.73-9.79h0a6,6,0,0,1,3.17-.92h.65c21.36-.13,29.61-.87,33.52-5.2,2-2.19,3.14-10.57-.67-10.57H44.79A1.51,1.51,0,0,0,43.36,97l-.91,42.48c0,1.92,1.27,3.49,2.84,3.49H205.78c1.57,0,2.84-1.57,2.84-3.49L207.71,97a1.51,1.51,0,0,0-1.43-1.54Z" fill="#118669" stroke="#118669" stroke-miterlimit="10" stroke-width="3"/><path d="M82.67,112.72h84.77a9,9,0,0,1,9,9V126a1.9,1.9,0,0,1-1.9,1.9h-99a1.9,1.9,0,0,1-1.9-1.9v-4.3a9,9,0,0,1,9-9Z" transform="translate(250.11 240.67) rotate(-180)" fill="#3c2c6a"/><rect x="133.15" y="55.08" width="40.47" height="14.28" rx="4.78" ry="4.78" fill="#3c2c6a"/><rect x="83.16" y="55.08" width="40.47" height="14.28" rx="4.78" ry="4.78" fill="#3c2c6a"/><rect x="22.58" y="79.25" width="14.28" height="0.95" fill="#3c2c6a"/><rect x="22.58" y="81.16" width="14.28" height="0.95" fill="#3c2c6a"/><rect x="22.58" y="88.77" width="14.28" height="0.95" fill="#3c2c6a"/><rect x="22.58" y="90.68" width="14.28" height="0.95" fill="#3c2c6a"/><rect x="22.58" y="89.73" width="14.28" height="0.95" fill="#3c2c6a"/><rect x="22.58" y="82.11" width="14.28" height="0.95" fill="#3c2c6a"/><rect x="22.58" y="91.63" width="14.28" height="0.95" fill="#3c2c6a"/><rect x="22.58" y="87.82" width="14.28" height="0.95" fill="#3c2c6a"/><rect x="22.58" y="99.25" width="14.28" height="0.95" fill="#3c2c6a"/><rect x="22.58" y="98.3" width="14.28" height="0.95" fill="#3c2c6a"/><rect x="22.58" y="101.15" width="14.28" height="0.95" fill="#3c2c6a"/><rect x="22.58" y="97.34" width="14.28" height="0.95" fill="#3c2c6a"/><rect x="22.58" y="100.2" width="14.28" height="0.95" fill="#3c2c6a"/><rect x="22.58" y="106.87" width="14.28" height="0.95" fill="#3c2c6a"/><rect x="22.58" y="107.82" width="14.28" height="0.95" fill="#3c2c6a"/><rect x="22.58" y="108.77" width="14.28" height="0.95" fill="#3c2c6a"/><rect x="22.58" y="80.2" width="14.28" height="0.95" fill="#3c2c6a"/><rect x="22.58" y="109.72" width="14.28" height="0.95" fill="#3c2c6a"/><path d="M36.75,79.25a1.8,1.8,0,0,0-1.68-1H24.36a1.81,1.81,0,0,0-1.68,1Z" fill="#3c2c6a"/><path d="M36.86,110.67a1.82,1.82,0,0,1-1.7,1H24.28a1.82,1.82,0,0,1-1.7-1Z" fill="#3c2c6a"/><rect x="214.2" y="79.25" width="14.28" height="0.95" fill="#3c2c6a"/><rect x="214.2" y="81.16" width="14.28" height="0.95" fill="#3c2c6a"/><rect x="214.2" y="88.77" width="14.28" height="0.95" fill="#3c2c6a"/><rect x="214.2" y="90.68" width="14.28" height="0.95" fill="#3c2c6a"/><rect x="214.2" y="89.73" width="14.28" height="0.95" fill="#3c2c6a"/><rect x="214.2" y="82.11" width="14.28" height="0.95" fill="#3c2c6a"/><rect x="214.2" y="91.63" width="14.28" height="0.95" fill="#3c2c6a"/><rect x="214.2" y="87.82" width="14.28" height="0.95" fill="#3c2c6a"/><rect x="214.2" y="99.25" width="14.28" height="0.95" fill="#3c2c6a"/><rect x="214.2" y="98.3" width="14.28" height="0.95" fill="#3c2c6a"/><rect x="214.2" y="101.15" width="14.28" height="0.95" fill="#3c2c6a"/><rect x="214.2" y="97.34" width="14.28" height="0.95" fill="#3c2c6a"/><rect x="214.2" y="100.2" width="14.28" height="0.95" fill="#3c2c6a"/><rect x="214.2" y="106.87" width="14.28" height="0.95" fill="#3c2c6a"/><rect x="214.2" y="107.82" width="14.28" height="0.95" fill="#3c2c6a"/><rect x="214.2" y="108.77" width="14.28" height="0.95" fill="#3c2c6a"/><rect x="214.2" y="80.2" width="14.28" height="0.95" fill="#3c2c6a"/><rect x="214.2" y="109.72" width="14.28" height="0.95" fill="#3c2c6a"/><path d="M228.38,79.25a1.81,1.81,0,0,0-1.68-1H216a1.8,1.8,0,0,0-1.68,1Z" fill="#3c2c6a"/><path d="M228.48,110.67a1.81,1.81,0,0,1-1.7,1H215.91a1.83,1.83,0,0,1-1.71-1Z" fill="#3c2c6a"/></svg>