<?xml version="1.0" encoding="utf-8"?>
<!-- Generator: Adobe Illustrator 22.1.0, SVG Export Plug-In . SVG Version: 6.00 Build 0)  -->
<svg version="1.1" id="Calque_1" xmlns="http://www.w3.org/2000/svg" xmlns:xlink="http://www.w3.org/1999/xlink" x="0px" y="0px"
	 viewBox="0 0 1521.1 453.7" style="enable-background:new 0 0 1521.1 453.7;" xml:space="preserve">
<g>
	<g>
		<g>
			<g>
				<path d="M499,193.6c-1.9-28.2-17.2-45.4-51.3-45.4h-104v19h88.8c24,1.5,25.2,19,26.1,27.1L472,350.8h40.1L499,193.6z"/>
			</g>
			<g>
				<path d="M463.6,350.9h-40.3l-11.6-137.4c-0.9-6.2-2.4-17.5-21.6-18.4h-26v-18.8h65.3c13.4,0.7,18.2,5.3,20.2,16.6L463.6,350.9z"
					/>
			</g>
			<path d="M414.4,350.9H374l-9.7-120.2c-1.2-4.7-8.6-9.9-20.8-9.9v-17.1h45c13,1.2,14,4.2,15.2,16.2L414.4,350.9z"/>
			<g>
				<path d="M150,311.2V352c102.1,2.7,102.5-3.6,132.1-115.1c2.5-9.5,19-15.6,30.4-16v-17.2h-28.4c-21.3,1.1-24.6-6.6-51.1,67.6
					C217.7,314.4,188.8,310.6,150,311.2z"/>
			</g>
		</g>
		<g>
			<path d="M150,262.9l0.1,38.6c74.6-0.2,62.9-12.3,98-92.5c5.7-13.1,21.9-14.1,42.9-13.8v-19h-29.4c-32,2.2-24.8,3.5-53.8,64.9
				C197.7,262.3,174.6,262.7,150,262.9z"/>
		</g>
		<g>
			<path d="M150,213.2l0.1,40.2c47.3-0.6,41.7-0.8,69.6-63.3c11.4-25.6,30.6-22.8,92.7-22.9v-19.1h-20.8
				c-62.1,0-82.6-4.2-100.3,41.9C186.2,203.3,182.6,213.1,150,213.2z"/>
		</g>
	</g>
	<g>
		<path d="M639.4,118.7c-1.4,5.2-2.2,12.2-2.3,20.8h-5.4v-6c0-3.9-0.5-6.6-1.6-8s-3.8-2.9-8.3-4.5s-9.2-2.4-14.1-2.4
			c-8.1,0-14.4,2-19,6.1c-4.6,4-6.9,9.2-6.9,15.5c0,4,0.9,7.4,2.8,10.3c1.9,2.9,4.4,4.9,7.6,6.2c3.2,1.3,10,2.4,20.4,3.4
			s17.4,2.3,21.1,4c3.7,1.7,6.6,4.3,8.8,8s3.3,8,3.3,13c0,10.1-4.2,18.8-12.7,26.1s-19.8,10.9-33.9,10.9c-4.8,0-9.7-0.5-14.6-1.5
			s-9.9-2.5-14.9-4.4c0.9-6,1.3-13.8,1.3-23.2h5.2v3.8c0,4.9,0.3,7.9,0.8,9c0.5,1.2,1.7,2.4,3.6,3.7c2.8,2,6.1,3.5,9.9,4.5
			c3.8,1,8,1.5,12.4,1.5c9.5,0,16.9-2.2,22.1-6.7c5.2-4.5,7.8-10.1,7.8-17c0-4-0.9-7.4-2.6-10.2c-1.8-2.8-4.2-4.8-7.4-6.2
			s-9-2.4-17.6-3.1c-11.4-0.9-19.1-2.3-23.2-4.1c-4.1-1.8-7.3-4.6-9.6-8.5s-3.5-8.7-3.5-14.5c0-9.8,3.6-17.8,10.7-24
			s17-9.3,29.6-9.3c5.1,0,10.1,0.6,15.2,1.7C629.2,114.8,634.3,116.4,639.4,118.7z"/>
		<g>
			<path d="M744.5,133.6c2.3,0,4.3-0.8,6-2.5c1.7-1.6,2.5-3.6,2.5-6c0-2.3-0.8-4.3-2.5-6s-3.6-2.5-6-2.5s-4.4,0.8-6,2.5
				c-1.7,1.7-2.5,3.7-2.5,6s0.8,4.3,2.5,6C740.1,132.7,742.1,133.6,744.5,133.6z"/>
			<path d="M753.1,214.2c-0.8-0.7-1.2-2-1.4-3.8c-0.5-4.6-0.7-10.5-0.7-17c0-7,0.2-17.8,0.5-32.5c0.1-4.5,0.3-8.7,0.6-12.4l-1.8-1.1
				c-4.5,1.8-8.2,3.1-11.1,3.8c-2.9,0.7-7.3,1.6-13.4,2.5v4.5h5.5c2.7,0,4.4,0.3,5.1,1c0.8,0.7,1.2,1.8,1.3,3.3
				c0.2,4.2,0.4,10.2,0.4,18c0,11.2-0.1,20-0.4,26.4c-0.2,4.1-0.5,6.6-1.1,7.3s-2.1,1.2-4.5,1.5l-8.9,0.7l0,0h-6.9
				c-2-0.7-3.3-1.4-3.8-2.8c-0.5-1.4-0.8-8.9-0.9-22.4c-0.2-14.3-0.5-23.3-1.1-26.9c-0.9-4.8-3.4-8.8-7.7-11.9
				c-4.3-3.1-9.9-4.7-16.8-4.7c-3.2,0-6.2,0.4-8.9,1.2c-2.8,0.8-6.1,2.3-9.8,4.4l-8.2,4.7l0.1,5.2l-0.1,5.1l4.3,1.1
				c1.2-3.3,2.5-6.8,4-10.4c1.8-1.2,3.8-2.1,5.9-2.7c2.1-0.6,4.4-0.9,6.8-0.9c6.3,0,11.2,2,14.6,5.9c2.7,3.1,4.1,7.8,4.2,14.1
				c-16.4,2.9-26.8,5.3-31.3,7.1s-8,4.6-10.4,8.4c-2.4,3.8-3.7,8.2-3.7,13.3c0,5.4,1.7,9.7,5.1,12.9c3.4,3.2,8.4,4.8,14.9,4.8
				c2.4,0,4.3-0.2,5.7-0.6c1.4-0.4,2.7-1.2,4.1-2.2l15.6-12c0.1,2.2,0.1,4.5,0.1,6.7l-0.1,6.8c4.7-0.4,8.5-0.5,11.4-0.5
				c2.2,0,6.2-0.3,13.1,0.1l0,0c0.1,0,0.1,0,0.2,0c0.1,0,0.1,0,0.2,0l0,0c7.3-0.3,14.3-0.1,20.1-0.1c6,0,12.7,0.2,21,0.5v-3.9
				l-6.1-0.7C755.7,215.7,753.9,214.9,753.1,214.2z M698.7,200.4c-3.1,4.2-6.4,7.3-9.8,9.4c-3.4,2.1-7,3.2-10.8,3.2
				c-3.4,0-6.2-1.1-8.3-3.3c-2.2-2.2-3.2-5.2-3.2-8.9c0-5.5,1.9-9.6,5.6-12.2s12.6-5.4,26.5-8.4l-0.2,3.7L698.7,200.4z"/>
			<path d="M848.2,216.2c-2.7,0-4.6-0.8-5.5-2.4c-0.7-1.3-1-6-1-14.2l0.4-23.7c0-7.4-0.9-12.9-2.6-16.4c-1.7-3.5-4.5-6.3-8.5-8.5
				c-3.9-2.2-8.6-3.3-14-3.3c-3.3,0-6.7,0.6-10,1.7c-1.5,0.6-3,1.4-4.3,2.7l-11.4,10.2l0.2-10.3l0.1-2.9c0-1.2-0.4-1.7-1.2-1.7
				c-0.4,0-0.8,0.1-1.3,0.3c-4.3,1.8-8.1,3.1-11.5,3.9c-3.4,0.9-7.3,1.5-11.6,2v4.5h5.4c3.3,0,5.2,0.3,5.9,0.9
				c0.7,0.6,1.1,1.7,1.2,3.3c0.2,4.9,0.3,11.6,0.3,20.1c0,19.1-0.3,29.5-0.9,31.2c-0.6,1.7-2.8,2.6-6.5,3l-6.4,0.1v3.9
				c7.8-0.4,13.9-0.5,19.2-0.5c5,0,11.8,0.2,20.4,0.5v-4.5H799c-2.9,0-4.9-0.6-6.2-1.7c-0.7-0.6-1-2.1-1.1-4.4
				c-0.2-7.9-0.2-16.4-0.2-25.5c0-8.3,0.2-13.4,0.8-15.3c0.8-3,2.9-5.7,6.3-8.1c3.4-2.5,7.5-3.7,12.4-3.7c3.9,0,7.3,0.9,10,2.6
				c2.8,1.7,4.8,4,5.9,6.8c1.2,2.8,1.8,7.6,1.8,14.3c0,16.6-0.5,29.9-1.4,39.6c4.4-0.4,8.5-0.5,12.3-0.5c3.9,0,8.6,0.2,14,0.5v-4.5
				L848.2,216.2L848.2,216.2z"/>
		</g>
		<path d="M1045.4,129.7l-22.4,46.5c-8.4,17.5-15.3,32.7-20.6,45.8h-3.2c-1.8-4.5-7.1-15.9-15.8-34.4L956.6,132v58.1
			c0,13.5,0.5,21.2,1.6,23s4.5,2.7,10.2,2.7h2.8v4.8c-7-0.4-12.8-0.5-17.2-0.5c-3.2,0-9.6,0.2-19.1,0.5v-4.8h5
			c3.4,0,5.6-0.5,6.7-1.4c1.1-1,1.8-2.7,2.1-5.2c0.6-7,0.9-14.6,0.9-22.7v-42.6c0-10.3-0.2-17.1-0.7-20.4c-0.2-1.7-0.9-3-2.2-3.9
			s-3.9-1.4-7.7-1.4h-4v-4.8c8.8,0.4,14.3,0.5,16.6,0.5c2.9,0,7-0.2,12.2-0.5c6.1,13.5,13.1,28.4,21,44.7l19.8,40.7l18.3-37.7
			c6.4-13.2,13.7-29.1,22-47.7c6.3,0.4,10.8,0.5,13.4,0.5c3,0,8.4-0.2,16.2-0.5v4.8h-5c-4.5,0-7.2,0.8-8.2,2.3s-1.5,7-1.5,16.5v55
			c0,12.2,0.5,19.3,1.6,21.1c1,1.8,4,2.7,8.7,2.7h4.4v4.8c-7.1-0.4-13.8-0.5-20.2-0.5c-7.1,0-14.5,0.2-22.3,0.5v-4.8h5
			c4,0,6.4-0.9,7.3-2.6c0.8-1.7,1.3-9.2,1.3-22.3v-61.2L1045.4,129.7L1045.4,129.7z"/>
		<path d="M1204.4,148.7c-1.5-0.7-3.6-1-6.4-1c-2.7,0-5.2,0.7-7.7,2c-2.4,1.4-5.1,3.9-7.9,7.6c-2.4,3.1-4.6,5.7-6.6,7.6l0.4-15.1
			c0-1.1-0.1-1.8-0.3-2.1c-0.2-0.3-0.6-0.5-1.1-0.5s-1,0.2-1.7,0.5c-3,1.4-6.4,2.6-10.2,3.5c-3.8,0.9-8.2,1.7-13.1,2.2v4.5h6.3
			c3.5,0,5.5,0.7,6.2,2c1,2.1,1.4,9.2,1.4,21.2c0,9.9-0.2,18.5-0.5,25.7c-0.2,4.1-0.6,6.5-1.3,7.3c-0.7,0.7-2.3,1.2-4.9,1.4
			l-7.9,0.6h-7.3c-2,0-3.3-0.7-3.8-2.1c-0.5-1.4-0.8-9.6-0.9-23.1c-0.2-14.3-0.5-23.3-1.1-26.9c-0.9-4.8-3.4-8.8-7.7-11.9
			c-4.3-3.1-9.9-4.7-16.8-4.7c-3.2,0-6.2,0.4-8.9,1.2c-2.8,0.8-6,2.3-9.8,4.4l-8.2,4.7l0.1,5.2l-0.1,5.1l4.3,1.1
			c1.2-3.3,2.5-6.8,4-10.4c1.8-1.2,3.8-2.1,5.9-2.7c2.1-0.6,4.4-0.9,6.8-0.9c6.3,0,11.2,2,14.6,5.9c2.7,3.1,4.1,7.8,4.2,14.1
			c-16.4,2.9-26.8,5.3-31.3,7.1s-8,4.6-10.4,8.4c-2.4,3.8-3.7,8.2-3.7,13.3c0,5.4,1.7,9.7,5.1,12.9s8.4,4.8,14.9,4.8
			c2.4,0,4.3-0.2,5.7-0.6c1.4-0.4,2.7-1.2,4.1-2.2l15.6-12c0,2.2,0.1,4.5,0.1,6.7l-0.1,6.8c4.7-0.4,8.5-0.5,11.4-0.5
			c2.3,0,6.3,0.2,13.5,0.5l0,0c0,0,0,0,0.1,0l0,0l0,0c7.2-0.4,13.8-0.5,20.5-0.5c6.9,0,14.2,0.2,21.9,0.5V216h-4.5
			c-3.7,0-6.6-0.5-8.5-1.6c-0.8-0.4-1.3-1.6-1.5-3.3c-0.6-4.8-0.8-10.6-0.8-17.6c0-10.6,0.4-17.7,1.3-21.3c0.8-3.6,2.5-6.4,5.1-8.4
			c2.5-2,5.3-3,8.2-3c2.2,0,4.1,0.5,5.7,1.5s2.9,2.8,4.1,5.3h3.4c0.1-7.3,0.6-13,1.4-17l0.1-0.8
			C1205.5,149.5,1205.1,149,1204.4,148.7z M1124.3,200.4c-3.1,4.2-6.4,7.3-9.8,9.4c-3.4,2.1-7,3.2-10.8,3.2c-3.4,0-6.2-1.1-8.3-3.3
			c-2.2-2.2-3.2-5.2-3.2-8.9c0-5.5,1.9-9.6,5.6-12.2c3.8-2.6,12.6-5.4,26.5-8.4l-0.2,3.7L1124.3,200.4z"/>
		<path d="M1216.5,260.4l3.6-11.8h1.7c1.4,1.6,2.7,2.8,4.1,3.6s2.7,1.2,4.2,1.2c3.1,0,6-1.5,8.6-4.6c2.6-3,6.5-11.5,11.9-25.3
			c-2.2-5.8-6.6-16.9-13.2-33.2l-7-17.2l-5.6-13.1c-1.8-4.5-4.4-6.8-7.9-6.8h-3v-4.5c5.2,0.4,9.8,0.5,13.8,0.5
			c3.1,0,10.3-0.2,21.7-0.5v4.5h-5.6c-1.9,0-3.3,0.3-4.2,1c-0.9,0.6-1.3,1.4-1.3,2.4c0,0.8,0.5,2.5,1.4,5.1
			c5.1,13.9,11.1,28.9,18,44.8c6.7-14.6,12.5-28.7,17.4-42.2c1.5-3.9,2.2-6.3,2.2-7.2c0-1.6-1.7-2.6-5.1-3.1l-5.6-0.8v-4.5
			c5.9,0.4,11.2,0.5,15.8,0.5c4.4,0,8.8-0.2,13.2-0.5v4.5h-2.6c-1.2,0-2.3,0.3-3.5,1s-2.2,1.6-2.9,2.8c-1.6,2.5-6.3,12.3-14,29.2
			c-2.1,4.7-7.5,17.3-16.2,37.9c-7.6,17.4-12,27-13,28.7c-2,3.3-4.5,5.9-7.5,7.7c-3.1,1.8-6.4,2.7-10,2.7c-1.5,0-3-0.2-4.5-0.7
			C1219.6,261.9,1218.1,261.2,1216.5,260.4z"/>
		<path d="M1322.1,197.4v4.9c0,4,0.4,6.4,1.1,7.4c1.3,1.6,3.9,3.2,7.7,4.7c3.8,1.5,7.7,2.3,11.7,2.3c5.2,0,9.4-1.4,12.7-4.2
			c3.3-2.8,4.9-6.1,4.9-10c0-3.1-1-5.5-2.9-7.4s-5.6-3.3-11-4.4c-10-2-16.7-3.8-19.9-5.3c-3.2-1.5-5.6-3.5-7.3-6
			c-1.6-2.5-2.4-5.6-2.4-9.1c0-6.7,2.4-12.1,7.3-16.3s11.8-6.3,20.8-6.3c7.1,0,14.2,1.4,21.2,4.2c-0.4,3.4-0.8,9.2-1.1,17.2h-4.6
			c-0.1-4.4-0.6-7.3-1.4-8.8c-1.2-1.9-3.3-3.5-6.3-5.1c-3.1-1.5-6.3-2.3-9.8-2.3c-4.6,0-8.2,1.2-11,3.5c-2.7,2.3-4.1,5.3-4.1,8.8
			c0,3.4,1.1,5.9,3.3,7.6c2.2,1.8,8.2,3.6,18,5.6c7.3,1.5,12.1,2.8,14.4,4.1s4.2,3.2,5.6,5.7c1.4,2.6,2.1,5.5,2.1,8.8
			c0,6.8-2.9,12.6-8.7,17.5c-5.8,4.9-13.6,7.4-23.4,7.4c-6.2,0-13.2-1-20.9-2.9c-1.4-0.3-2-0.9-2-1.6l0.2-1.1c0.2-0.8,0.4-2.1,0.6-4
			c0.5-4.9,0.7-8.7,0.7-11.5l-0.1-3.6h4.6L1322.1,197.4L1322.1,197.4z"/>
		<path d="M559.3,248v-4.8c10.4,0.4,17.9,0.5,22.6,0.5c5,0,12.2-0.2,21.9-0.5v4.8h-5.5c-4.8,0-7.6,0.9-8.6,2.7s-1.4,10-1.4,24.5
			v29.5c0,10.8,0.6,18.3,1.8,22.5s4.2,7.8,9.2,10.7c4.9,2.9,11.5,4.4,19.8,4.4c8.5,0,15.7-1.6,21.5-4.7c4-2.2,7-5.5,8.8-10
			c1.9-4.5,2.8-13.1,2.8-25.8v-28.3c0-13.1-0.6-20.6-1.8-22.5s-4.5-2.8-9.8-2.8h-3.9v-4.8c10.5,0.4,17.2,0.5,20,0.5
			c4.6,0,10.3-0.2,17.2-0.5v4.8h-5.2c-4,0-6.6,1.1-7.7,3.2c-1.1,2.1-1.7,9.6-1.7,22.5v28.2c0,12.9-0.6,21.6-1.9,26.1
			c-1.3,4.5-3.6,8.5-7,12.1s-7.9,6.5-13.6,8.6c-5.7,2.1-12.3,3.2-20,3.2c-7.9,0-14.8-0.9-20.8-2.8c-5.9-1.9-10.4-4.2-13.4-7
			s-5.2-6.1-6.5-10.1s-2-10.8-2-20.3l0.2-14.3v-22.9c0-14.1-0.4-22.1-1.3-23.8c-0.8-1.7-3.5-2.6-8-2.6h-5.7L559.3,248L559.3,248z"/>
		<g>
			<path d="M779.4,263.3c2.3,0,4.3-0.8,6-2.5c1.7-1.6,2.5-3.6,2.5-6c0-2.3-0.8-4.3-2.5-6s-3.6-2.5-6-2.5s-4.4,0.8-6,2.5
				c-1.7,1.7-2.5,3.7-2.5,6c0,2.3,0.8,4.3,2.5,6C775,262.4,777,263.3,779.4,263.3z"/>
			<path d="M793.4,345.2c-2.9-0.4-4.7-0.9-5.4-1.6c-0.8-0.7-1.2-2-1.4-3.8c-0.5-4.6-0.7-10.2-0.7-16.7c0-7,0.2-17.8,0.5-32.5
				c0.1-4.5,0.3-8.7,0.6-12.4l-1.8-1.1c-4.5,1.8-8.2,3.1-11.1,3.8c-2.9,0.7-7.3,1.6-13.4,2.5v4.5h5.5c2.7,0,4.4,0.3,5.1,1
				c0.8,0.7,1.2,1.8,1.3,3.3c0.2,4.2,0.4,10.2,0.4,18c0,11.2-0.1,20-0.4,26.4c-0.2,4.1-0.5,6.6-1.1,7.3c-0.6,0.7-2.1,1.2-4.5,1.4
				l-10.7,1.1v-0.1h-5.5c-2.7,0-4.6-0.8-5.5-2.4c-0.7-1.3-1-6.3-1-14.4l0.4-23.7c0-7.4-0.9-12.9-2.6-16.4c-1.7-3.5-4.5-6.3-8.5-8.5
				c-3.9-2.2-8.6-3.3-14-3.3c-3.3,0-6.7,0.6-10,1.7c-1.5,0.6-2.9,1.4-4.3,2.7l-11.4,10l0.2-10.3l0.1-2.9c0-1.2-0.4-1.7-1.2-1.7
				c-0.4,0-0.8,0.1-1.3,0.3c-4.3,1.8-8.1,3.1-11.5,3.9c-3.4,0.9-7.3,1.5-11.6,2v4.5h5.4c3.3,0,5.2,0.3,5.9,0.9s1.1,1.7,1.2,3.3
				c0.2,4.9,0.3,11.6,0.3,20.1c0,19.1-0.3,29.5-0.9,31.2c-0.6,1.7-2.8,2.6-6.5,2.6h-5.4v4.5c6.8-0.4,12.9-0.5,18.2-0.5
				c5,0,11.8,0.2,20.4,0.5v-4.5h-5.4c-2.9,0-4.9-0.6-6.2-1.7c-0.7-0.6-1-2.1-1.1-4.4c-0.2-7.9-0.2-16.4-0.2-25.5
				c0-8.3,0.2-13.4,0.8-15.3c0.8-3,2.9-5.7,6.3-8.1c3.4-2.5,7.5-3.7,12.4-3.7c3.9,0,7.3,0.9,10,2.6c2.8,1.7,4.8,4,5.9,6.8
				c1.2,2.8,1.8,7.6,1.8,14.3c0,16.7-0.5,29.9-1.4,39.6c4.4-0.4,8.5-0.5,12.3-0.5c3.9,0,8.5,0.2,14,0.5l0,0h0.1l0,0l0,0
				c10.4-0.4,16.3-0.5,22.2-0.5c6,0,12.7,0.2,20,0.5V346L793.4,345.2z"/>
		</g>
		<path d="M848.9,283.3v-4.5c5.2,0.4,9.8,0.5,13.9,0.5c4.7,0,9.8-0.2,15.2-0.5v4.5h-2.3c-1.2,0-2.3,0.2-3.4,0.7
			c-0.8,0.4-1.5,0.8-2,1.4s-2.3,4-5.4,10.5c-5.6,11.7-9.9,21-12.9,27.8s-6.8,15.9-11.4,27.5h-8.1c-6.6-16.6-13.4-32.7-20.4-48.4
			c-2.6-5.7-4.1-9.4-4.7-11c-1.1-3.3-2.4-5.5-3.7-6.6c-1.4-1.2-3.2-1.8-5.3-1.8H796v-4.5c7.4,0.4,13.5,0.5,18.4,0.5
			c5.3,0,11-0.2,17.3-0.5v4.5h-3.3c-3.1,0-5.2,0.3-6.5,1c-0.9,0.5-1.3,1.3-1.3,2.3c0,0.8,0.5,2.6,1.4,5.2s7,17.8,18.3,45.7
			l13.5-32.6c3.1-7.5,4.9-12.8,5.7-15.7c0.2-0.8,0.3-1.5,0.3-2c0-0.9-0.3-1.6-1-2.1c-0.7-0.4-2.3-0.8-5.1-1.1L848.9,283.3z"/>
		<path d="M895.7,288.9c3.4-4.1,7.9-6.1,13.5-6.1c3.6,0,6.8,0.8,9.6,2.4s4.7,3.6,5.8,6.1c1.8,3.9,2.6,8.1,2.6,12.4v4.2
			c-3.5,0.3-7.2,0.5-11,0.5c-9.4,0-18-0.2-25.9-0.5C890.6,299.3,892.3,293,895.7,288.9z M909.1,313.7c9.6,0,17-0.2,22.4-0.6
			c3-0.3,6.2-0.8,9.5-1.7l0.2-4.4c0-9.3-2.6-16.6-7.8-21.8c-5.2-5.2-12.3-7.8-21.2-7.8c-5.9,0-12,1.7-18.2,5.2
			c-6.3,3.5-10.5,7.2-12.9,11.3c-3.5,6.2-5.3,13.5-5.3,21.9c0,11,3.1,19.8,9.4,26.2c6.3,6.5,14.5,9.7,24.7,9.7
			c4.7,0,9.2-0.6,13.7-1.8c4.4-1.2,8.7-3,12.9-5.4l2.4-6.4l-1.3-1.1c-3.4,2.3-6.8,4-10.3,5.1s-6.9,1.7-10.5,1.7
			c-7.8,0-14.1-2.6-19-7.7c-4.8-5.1-7.3-12.6-7.6-22.5L909.1,313.7L909.1,313.7z"/>
		<path d="M974.7,294.7c2-1.9,4.2-4.5,6.6-7.6c2.8-3.7,5.5-6.2,7.9-7.6s5-2.1,7.7-2.1c2.8,0,4.9,0.3,6.4,1c0.7,0.3,1.1,0.8,1.1,1.4
			l-0.1,0.8c-0.8,4.1-1.3,9.7-1.4,17h-3.4c-1.1-2.5-2.5-4.2-4.1-5.3c-1.6-1-3.5-1.5-5.7-1.5c-3,0-5.7,1-8.2,3s-4.2,4.8-5.1,8.4
			c-0.8,3.6-1.3,10.7-1.3,21.3c0,7,0.3,12.8,0.8,17.6c0.2,1.8,0.7,2.9,1.5,3.3c1.9,1.1,4.7,1.6,8.5,1.6h4.5v4.3
			c-7.7-0.4-15-0.5-21.9-0.5c-6.7,0-13.3,0.2-19.9,0.5V346l7.2-0.6c2.6-0.2,4.2-0.7,4.9-1.4c0.7-0.7,1.1-3.2,1.3-7.3
			c0.4-7.2,0.5-15.8,0.5-25.7c0-12.1-0.5-19.1-1.4-21.2c-0.7-1.4-2.7-2-6.2-2h-6.3v-4.5c4.9-0.6,9.2-1.3,13.1-2.2
			c3.8-0.9,7.2-2.1,10.2-3.5c0.7-0.4,1.3-0.5,1.7-0.5c0.6,0,0.9,0.2,1.1,0.5c0.2,0.3,0.3,1,0.3,2.1L974.7,294.7z"/>
		<path d="M1017.8,327.1v4.9c0,4,0.4,6.4,1.1,7.4c1.3,1.6,3.9,3.2,7.7,4.7c3.8,1.5,7.7,2.3,11.7,2.3c5.2,0,9.4-1.4,12.7-4.2
			c3.3-2.8,4.9-6.1,4.9-10c0-3.1-1-5.5-2.9-7.4s-5.6-3.3-11-4.4c-10-2-16.7-3.8-19.9-5.3c-3.2-1.5-5.6-3.5-7.3-6
			c-1.6-2.5-2.4-5.6-2.4-9.1c0-6.7,2.4-12.1,7.3-16.3c4.9-4.2,11.8-6.3,20.8-6.3c7.1,0,14.2,1.4,21.2,4.2c-0.4,3.4-0.8,9.2-1.1,17.2
			h-4.6c-0.1-4.4-0.6-7.3-1.4-8.8c-1.2-1.9-3.3-3.5-6.3-5.1c-3.1-1.5-6.3-2.3-9.8-2.3c-4.6,0-8.3,1.2-11,3.5s-4.1,5.3-4.1,8.8
			c0,3.4,1.1,5.9,3.3,7.6c2.2,1.8,8.2,3.6,18,5.6c7.3,1.5,12.1,2.8,14.4,4.1c2.3,1.3,4.2,3.2,5.6,5.7c1.4,2.6,2.1,5.5,2.1,8.8
			c0,6.8-2.9,12.6-8.7,17.5s-13.6,7.4-23.4,7.4c-6.2,0-13.2-1-20.9-2.9c-1.4-0.3-2-0.9-2-1.6l0.2-1.1c0.2-0.8,0.4-2.1,0.6-4
			c0.5-4.9,0.7-8.7,0.7-11.5l-0.1-3.6h4.6L1017.8,327.1L1017.8,327.1z"/>
		<path d="M1091.1,246.3c2.3,0,4.3,0.8,6,2.5s2.5,3.7,2.5,6s-0.8,4.3-2.5,6c-1.7,1.6-3.6,2.5-6,2.5s-4.4-0.8-6-2.5
			c-1.7-1.6-2.5-3.6-2.5-6c0-2.3,0.8-4.3,2.5-6C1086.7,247.1,1088.7,246.3,1091.1,246.3z M1096.9,277.1l1.8,1.1
			c-0.3,3.8-0.5,7.9-0.6,12.4c-0.3,14.7-0.5,25.5-0.5,32.5c0,6.5,0.2,12.1,0.7,16.7c0.2,1.8,0.7,3.1,1.4,3.8
			c0.8,0.7,2.6,1.2,5.4,1.6l5.1,0.7v4.5c-7.3-0.4-14-0.5-20-0.5c-5.9,0-11.9,0.2-17.9,0.5v-4.5l6.4-0.7c2.5-0.2,4-0.7,4.5-1.4
			c0.6-0.7,0.9-3.2,1.1-7.3c0.2-6.4,0.4-15.2,0.4-26.4c0-7.8-0.1-13.8-0.4-18c-0.1-1.6-0.5-2.7-1.3-3.3c-0.8-0.7-2.5-1-5.1-1h-5.5
			v-4.5c6.1-0.9,10.5-1.7,13.4-2.5C1088.6,280.1,1092.3,278.9,1096.9,277.1z"/>
		<path d="M1222.4,279.4c-4.6,0-9.9-0.2-15.8-0.5v4.5l5.6,0.8c3.4,0.5,5.1,1.5,5.1,3.1c0,0.8-0.7,3.2-2.2,7.2
			c-4.9,13.5-10.7,27.6-17.4,42.2c-6.9-15.9-12.9-30.9-18-44.8c-1-2.6-1.4-4.3-1.4-5.1c0-0.9,0.4-1.7,1.3-2.4c0.9-0.6,2.3-1,4.2-1
			h5.6v-4.5c-11.4,0.4-18.6,0.5-21.7,0.5c-3.7,0-8-0.2-12.8-0.5l0.1-0.6l-6,0.3c-3.8,0.2-8.8,0.2-14.9,0.2
			c0.4-14.6,0.7-18.9,1.1-22.8l-1.9-1.5c-2.5,1.5-6.6,3.5-12.4,6c0.3,8.4,0.5,10.5,0.5,17.6c-3.7,1.8-7.7,2.2-12,3.9v3.3
			c4.1-0.4,8.1-0.5,12-0.5v35.7L1121,335c0,4.3,0.6,7.5,1.7,9.6c1.2,2.1,3,3.9,5.6,5.2c2.6,1.4,5.7,2,9.4,2c1.4,0,2.9-0.2,4.4-0.5
			s3.1-0.8,4.7-1.3l7.3-8.6l-2.2-2.6c-1.3,1.1-2.7,2-4.1,2.5c-1.4,0.6-2.8,0.8-4.2,0.8c-2.3,0-4.3-0.6-5.8-1.8c-1.5-1.2-2.5-2.9-3-5
			s-0.7-7.1-0.7-14.7V284h2.6l14.3-0.1l2.9,0.1l0,0h3c3.5,0,6.2,1.6,7.9,6.1l5.6,13.1l7,17.2c6.6,16.4,11,27.4,13.2,33.2
			c-5.3,13.9-9.3,22.3-11.9,25.3s-5.4,4.5-8.6,4.5c-1.4,0-2.8-0.4-4.2-1.2c-1.4-0.8-2.7-2-4.1-3.6h-1.7l-3.6,11.8
			c1.6,0.9,3.1,1.5,4.6,2s3,0.7,4.5,0.7c3.6,0,6.9-0.9,10-2.7c3.1-1.8,5.6-4.3,7.5-7.7c1-1.7,5.3-11.3,13-28.7
			c8.7-20.6,14.1-33.2,16.2-37.9c7.7-16.9,12.4-26.7,14-29.2c0.8-1.2,1.7-2.1,2.9-2.8s2.4-1,3.5-1h2.6v-4.5
			C1231.2,279.2,1226.8,279.4,1222.4,279.4z"/>
		<path d="M581.5,415c1.5-2.9,3.5-5.1,6.1-6.6s5.7-2.2,9.2-2.2c3.9,0,7.3,0.8,10.1,2.5c2.9,1.7,5.1,4.2,6.7,7.6
			c1.6,3.3,2.5,7.4,2.5,12.1c0,4.5-0.7,8.3-2.2,11.4s-3.5,5.5-6.1,7.1s-5.6,2.4-9.1,2.4c-3.7,0-7-0.9-9.9-2.8s-5.2-4.6-6.9-8.4
			c-1.7-3.7-2.6-8.1-2.6-13.1C579.3,421.2,580,417.9,581.5,415z M575.5,440.7c2,3.8,4.8,6.6,8.3,8.6s7.7,2.9,12.6,2.9
			c7.8,0,14.2-2.5,19.3-7.5s7.7-11.2,7.7-18.6c0-6.9-2.2-12.4-6.6-16.6c-4.4-4.2-10.5-6.2-18.2-6.2c-7.9,0-14.2,2.2-19,6.7
			c-4.7,4.5-7.1,10.4-7.1,17.7C572.4,432.6,573.5,436.9,575.5,440.7z"/>
		<path d="M643,428.9v11.4c0,4.5,0.2,7.2,0.7,8s1.7,1.1,3.8,1.1h2.4v2.1c-4.3-0.2-7.7-0.3-10.2-0.3c-2.6,0-5.9,0.1-9.9,0.3v-2.1h2.7
			c1.9,0,3.1-0.4,3.5-1.1s0.7-3.4,0.7-8.1V415c0-4.5-0.2-7.2-0.7-7.9c-0.5-0.7-1.7-1.1-3.7-1.1h-2.4v-2.1c3.7,0.2,7.1,0.3,10,0.3
			l19.3-0.4c2,0,3.9,0.1,5.7,0.4c-0.8,2.4-1.2,5.8-1.3,10.2h-2.2c-0.1-2.3-0.4-4.4-0.8-6.2c-3-0.8-6.1-1.2-9.2-1.2
			c-2.7,0-5.3,0.1-7.9,0.4c-0.3,2.9-0.4,5.5-0.4,7.8v10.6c1.3,0.1,2.6,0.2,3.9,0.2c3.3,0,6.2-0.1,8.6-0.3c0.8,0,1.4-0.2,1.7-0.6
			c0.3-0.3,0.5-1.2,0.7-2.6l0.3-2.6h2.2c-0.2,4.1-0.3,6.8-0.3,7.9v8H658v-2.6c0-2.1-0.4-3.3-1.2-3.8s-3.7-0.7-8.8-0.7
			C646.6,428.7,644.9,428.8,643,428.9z"/>
		<path d="M744.4,411.2l-9.9,20.7c-3.7,7.8-6.8,14.6-9.2,20.4h-1.4c-0.8-2-3.2-7.1-7-15.3L705,412.2V438c0,6,0.2,9.4,0.7,10.3
			c0.5,0.8,2,1.2,4.5,1.2h1.3v2.1c-3.1-0.2-5.7-0.3-7.7-0.3c-1.4,0-4.3,0.1-8.5,0.3v-2.1h2.2c1.5,0,2.5-0.2,3-0.6s0.8-1.2,0.9-2.3
			c0.3-3.1,0.4-6.5,0.4-10.1v-19c0-4.6-0.1-7.6-0.3-9.1c-0.1-0.8-0.4-1.3-1-1.7c-0.6-0.4-1.7-0.6-3.4-0.6h-1.8V404
			c3.9,0.2,6.4,0.3,7.4,0.3c1.3,0,3.1-0.1,5.5-0.3c2.7,6,5.8,12.6,9.3,19.9l8.8,18.1l8.1-16.8c2.9-5.9,6.1-13,9.8-21.2
			c2.8,0.2,4.8,0.3,5.9,0.3c1.3,0,3.7-0.1,7.2-0.3v2.1h-2.2c-2,0-3.2,0.3-3.7,1c-0.4,0.7-0.7,3.1-0.7,7.3v24.5
			c0,5.4,0.2,8.6,0.7,9.4s1.8,1.2,3.9,1.2h1.9v2.1c-3.1-0.2-6.1-0.3-9-0.3c-3.1,0-6.4,0.1-9.9,0.3v-2.1h2.2c1.8,0,2.8-0.4,3.2-1.2
			c0.4-0.8,0.6-4.1,0.6-9.9L744.4,411.2L744.4,411.2L744.4,411.2z"/>
		<path d="M766.3,449.5h2.1c2.1,0,3.4-0.5,3.8-1.5c0.4-1,0.6-5.8,0.6-14.4v-11.4c0-8.9-0.2-13.8-0.5-14.8c-0.4-0.9-1.4-1.4-3.2-1.4
			h-2.7v-2.1c3.7,0.1,7.4,0.2,11.1,0.2c3,0,5.8-0.1,8.3-0.2v2.1h-2.6c-1.6,0-2.6,0.2-3,0.6s-0.6,1.3-0.7,2.9
			c-0.1,2.4-0.2,6.6-0.2,12.8v11.5c0,8.7,0.2,13.5,0.6,14.3c0.4,0.9,1.6,1.3,3.7,1.3h2.2v2.1c-2.8-0.1-5.8-0.2-9.1-0.2
			c-3.8,0-7.3,0.1-10.3,0.2L766.3,449.5L766.3,449.5z"/>
		<path d="M804.3,411.3v23.3c0,5.3,0.1,9,0.3,11.1c0.2,1.6,0.4,2.6,0.8,2.9c0.4,0.4,1.5,0.6,3.2,0.8l2.2,0.2v2.1
			c-2.5-0.2-4.7-0.3-6.7-0.3c-1.4,0-4.5,0.1-9.5,0.3v-2.1h2.4c1.5,0,2.4-0.2,2.9-0.6s0.7-1.2,0.8-2.4c0.2-2.5,0.4-5.8,0.4-10V420
			c0-3.1,0-6.2-0.1-9.3c0-1.3-0.2-2.2-0.5-2.7s-0.7-0.9-1.3-1.3s-1.4-0.6-2.4-0.6h-2.1V404c2.8,0.2,5,0.3,6.5,0.3
			c1.6,0,3.4-0.1,5.3-0.3c2.2,2.7,4.3,5.3,6.2,7.9c2,2.6,4,5.1,6.1,7.7l11.4,14.1c4.1,5,7.1,8.6,8.9,10.5v-21.5
			c0-9-0.2-13.9-0.5-14.7c-0.3-0.8-1.6-1.4-3.9-1.6l-2.5-0.2v-2.1c3.6,0.2,6.4,0.3,8.4,0.3c2.1,0,4.8-0.1,8.1-0.3v2.1h-2.6
			c-2.1,0-3.3,0.7-3.6,2.1c-0.2,0.9-0.3,5.8-0.3,14.7v15.1c0,4.1,0.2,8.9,0.5,14.6c-3-0.5-4.8-0.8-5.3-1s-1-0.6-1.4-1
			c-2.5-2.8-5.1-5.8-7.8-9.2L804.3,411.3z"/>
		<path d="M867,411.3v23.3c0,5.3,0.1,9,0.3,11.1c0.2,1.6,0.4,2.6,0.8,2.9c0.4,0.4,1.5,0.6,3.2,0.8l2.2,0.2v2.1
			c-2.5-0.2-4.7-0.3-6.7-0.3c-1.4,0-4.5,0.1-9.5,0.3v-2.1h2.4c1.5,0,2.4-0.2,2.9-0.6s0.7-1.2,0.8-2.4c0.2-2.5,0.4-5.8,0.4-10V420
			c0-3.1,0-6.2-0.1-9.3c0-1.3-0.2-2.2-0.5-2.7s-0.7-0.9-1.3-1.3s-1.4-0.6-2.4-0.6h-2.1V404c2.8,0.2,5,0.3,6.5,0.3
			c1.6,0,3.4-0.1,5.3-0.3c2.2,2.7,4.3,5.3,6.2,7.9c2,2.6,4,5.1,6.1,7.7l11.4,14.1c4.1,5,7.1,8.6,8.9,10.5v-21.5
			c0-9-0.2-13.9-0.5-14.7c-0.3-0.8-1.6-1.4-3.9-1.6l-2.5-0.2v-2.1c3.6,0.2,6.4,0.3,8.4,0.3c2.1,0,4.8-0.1,8.1-0.3v2.1H909
			c-2.1,0-3.3,0.7-3.6,2.1c-0.2,0.9-0.3,5.8-0.3,14.7v15.1c0,4.1,0.2,8.9,0.5,14.6c-3-0.5-4.8-0.8-5.3-1s-1-0.6-1.4-1
			c-2.5-2.8-5.1-5.8-7.8-9.2L867,411.3z"/>
		<path d="M933.9,428.9v8.2v4.7c0,3,0,5.1,0.1,6.5c3.3,0.2,6.8,0.4,10.5,0.4c2.5,0,4.6-0.1,6.3-0.3c1.1-0.1,2.3-0.4,3.5-0.9
			c0.6-2,1.1-4.4,1.7-7.4h2.2c-0.6,4.9-1,8.1-1,9.8l0.1,1.5c-2.6,0.3-5.1,0.4-7.6,0.4l-5.3-0.1c-5.8-0.2-10.1-0.3-12.8-0.3
			c-2.6,0-6.1,0.1-10.5,0.3v-2.1h1c1.9,0,3.2-0.2,3.7-0.6s0.8-1.3,1-2.7c0.2-1.4,0.3-4.5,0.3-9.3v-18.4c0-3-0.1-5.5-0.2-7.4
			c-0.1-1.9-0.3-3.1-0.5-3.4c-0.2-0.4-0.4-0.7-0.7-0.9c-0.3-0.2-1.3-0.4-2.9-0.5l-2.6-0.3V404h3.6l3.6,0.1c2,0.1,3.5,0.1,4.5,0.1
			l12.9-0.2h6.1c2.1,0,4.2,0.1,6.3,0.3c-0.9,2.7-1.3,6.1-1.4,10.4h-2.2c0-2.5-0.1-4.5-0.4-6.2c-2.7-1-5.9-1.5-9.8-1.5
			c-3.1,0-6.3,0.1-9.7,0.4c0,2.1,0,4.2-0.1,6.3l-0.1,5.1v6.8c2.2,0.2,4.2,0.3,5.9,0.3c5.4,0,8.4-0.2,9.2-0.6
			c0.7-0.4,1.1-1.5,1.1-3.5v-2.2h2.2c-0.2,3.4-0.2,6.1-0.2,8.2s0.1,4.7,0.2,7.6h-2.2v-1.9c0-2.1-0.4-3.5-1.3-3.9
			c-0.8-0.5-3.8-0.7-9-0.7C937.9,428.6,935.9,428.7,933.9,428.9z"/>
		<path d="M998.7,406.3c-0.7,2.3-1,5.4-1.1,9.3h-2.3v-2.7c0-1.7-0.2-2.9-0.7-3.6c-0.5-0.6-1.7-1.3-3.7-2s-4.1-1.1-6.3-1.1
			c-3.6,0-6.4,0.9-8.4,2.7c-2.1,1.8-3.1,4.1-3.1,6.8c0,1.8,0.4,3.3,1.3,4.5c0.8,1.3,2,2.2,3.4,2.7c1.4,0.6,4.4,1.1,9.1,1.5
			c4.6,0.4,7.7,1,9.4,1.8c1.6,0.7,2.9,1.9,3.9,3.6c1,1.6,1.5,3.6,1.5,5.8c0,4.5-1.9,8.4-5.7,11.7c-3.8,3.3-8.8,4.9-15.1,4.9
			c-2.2,0-4.3-0.2-6.5-0.7c-2.2-0.4-4.4-1.1-6.6-2c0.4-2.7,0.6-6.1,0.5-10.3h2.3v1.7c0,2.2,0.1,3.5,0.3,4s0.7,1.1,1.6,1.6
			c1.2,0.9,2.7,1.5,4.4,2s3.5,0.7,5.5,0.7c4.2,0,7.5-1,9.8-3s3.5-4.5,3.5-7.6c0-1.8-0.4-3.3-1.2-4.5s-1.9-2.2-3.3-2.8
			c-1.4-0.6-4-1.1-7.8-1.4c-5.1-0.4-8.5-1-10.3-1.8s-3.2-2.1-4.3-3.8c-1-1.7-1.5-3.9-1.5-6.4c0-4.3,1.6-7.9,4.8-10.7
			c3.2-2.8,7.5-4.1,13.1-4.1c2.2,0,4.5,0.2,6.8,0.7C994.1,404.5,996.4,405.3,998.7,406.3z"/>
		<path d="M1018.7,415c1.5-2.9,3.5-5.1,6.1-6.6c2.6-1.5,5.7-2.2,9.2-2.2c3.9,0,7.3,0.8,10.1,2.5c2.9,1.7,5.1,4.2,6.8,7.6
			c1.6,3.3,2.5,7.4,2.5,12.1c0,4.5-0.7,8.3-2.2,11.4s-3.5,5.5-6.1,7.1s-5.6,2.4-9.1,2.4c-3.7,0-7-0.9-9.9-2.8s-5.2-4.6-7-8.4
			c-1.7-3.7-2.6-8.1-2.6-13.1C1016.5,421.2,1017.2,417.9,1018.7,415z M1012.6,440.7c2,3.8,4.8,6.6,8.3,8.6c3.5,2,7.7,2.9,12.6,2.9
			c7.8,0,14.2-2.5,19.3-7.5s7.7-11.2,7.7-18.6c0-6.9-2.2-12.4-6.6-16.6s-10.5-6.2-18.2-6.2c-7.9,0-14.2,2.2-19,6.7
			c-4.7,4.5-7.1,10.4-7.1,17.7C1009.6,432.6,1010.6,436.9,1012.6,440.7z"/>
		<path d="M1088.7,407c-0.2,3.3-0.4,6.9-0.4,10.6v19.1c0,7.1,0.2,11,0.5,11.7c0.4,0.7,1.6,1.1,3.8,1.1h2.5v2.1
			c-4-0.2-7.3-0.3-10.1-0.3s-6.1,0.1-10,0.3v-2.1h2.8c1.5,0,2.4-0.2,2.9-0.6c0.4-0.4,0.7-1.2,0.8-2.3c0.2-2.6,0.3-6,0.3-10.1v-19.1
			c0-3.8-0.1-7.2-0.2-10.4h-3.4c-5.5,0-8.5,0.1-9.1,0.4s-0.9,1.3-1.1,3l-0.5,4.5h-2.1l0.1-4c0-1.6-0.1-4-0.4-7
			c12.1,0.2,19.2,0.3,21.3,0.3l18.6-0.3c-0.5,3.8-0.7,7.5-0.8,11.1h-2.1l-0.3-4.4c-0.1-1.5-0.3-2.4-0.6-2.7
			c-0.2-0.3-0.8-0.5-1.6-0.5c-2.4-0.2-5.2-0.3-8.3-0.3h-2.6L1088.7,407L1088.7,407z"/>
		<path d="M1125,412.6l8.5,20.2h-16.9L1125,412.6z M1138.4,444.8c0.7,1.7,1,2.7,1,3.1s-0.2,0.7-0.5,0.9c-0.2,0.2-0.9,0.3-2.1,0.4
			l-3.3,0.2v2.1c4.1-0.2,7.4-0.3,9.8-0.3c2.6,0,5.4,0.1,8.3,0.3v-2.1c-1.7-0.1-2.8-0.3-3.3-0.5s-0.9-0.6-1.3-1.2
			c-0.4-0.5-1.1-2.2-2.3-4.8l-17-39.4h-2.3c-0.9,2.5-2.6,6.5-5,12.1l-9.2,20.9c-1.7,3.7-3.3,7.2-4.9,10.4c-0.5,1.1-1,1.8-1.5,2.1
			c-0.5,0.3-1.5,0.4-3,0.5h-1v2.1c2.4-0.2,5.3-0.3,8.5-0.3c2.7,0,5.1,0.1,7.2,0.3v-2.1l-3.2-0.4c-1.1-0.1-1.8-0.3-2.1-0.5
			c-0.3-0.2-0.4-0.6-0.4-1.1c0-0.8,0.7-3,2.2-6.6l2.3-5.5h19.4L1138.4,444.8z"/>
		<path d="M874.1,155.9v35c0,7.6,0.2,12.6,0.7,14.7c0.5,2.2,1.5,3.8,3,5s3.4,1.8,5.8,1.8c1.4,0,2.8-0.3,4.2-0.8
			c1.4-0.6,2.7-1.4,4.1-2.5l2.2,2.6l-7.3,8.6c-1.6,0.6-3.2,1-4.7,1.3s-3,0.5-4.4,0.5c-3.7,0-6.8-0.7-9.4-2c-2.6-1.4-4.4-3.1-5.6-5.2
			c-1.2-2.1-1.7-5.3-1.7-9.6l0.4-14.5v-34.1c-4.1,0-7.5-0.6-12.7-0.2v-3.3c5.1-1.7,8.2-1.6,12.7-3.9c0-7.2-0.2-10.1-0.5-18.4
			c5.7-2.5,9.9-4.4,12.4-6l1.9,1.5c-0.3,3.9-0.7,8.3-1.1,22.9c6.1,0,11.1-0.1,14.9-0.2l6-0.3l-0.9,7.2l-3.1-0.1l-14.3,0.1h-2.6
			L874.1,155.9L874.1,155.9z"/>
		<path d="M1301.8,157.1c3.5-2.2,8.6-8.1,8.6-13.2c0-4.7-5.1-9.1-8.4-11.2c4.3-3.2,8.7-6.6,12.5-10.5c4.2,3.4,5.8,8.7,5.8,13.7
			c0,7.5-10.9,19.8-15.3,23.4L1301.8,157.1z"/>
	</g>
</g>
</svg>
