<?xml version="1.0" encoding="utf-8"?>
<!-- Generator: Adobe Illustrator 22.1.0, SVG Export Plug-In . SVG Version: 6.00 Build 0)  -->
<svg version="1.1" id="Layer_1" xmlns="http://www.w3.org/2000/svg" xmlns:xlink="http://www.w3.org/1999/xlink" x="0px" y="0px"
	 viewBox="0 0 1345.2 456.2" style="enable-background:new 0 0 1345.2 456.2;" xml:space="preserve">
<style type="text/css">
	.st0{display:none;}
	.st1{display:inline;opacity:1;}
	.st2{display:inline;opacity:1;enable-background:new    ;}
	.st3{opacity:1;}
	.st4{fill:#FFFFFF;}
	.st5{fill:#231F20;}
	.st6{fill:#A6A8AB;}
</style>
<g id="Calque_1" class="st0">
	<g class="st1">
		<path d="M187.4,285.5c9.2,32,16.7,41.7,20,47.7s23.8,26.1,23.8,26.1s51.3,43.8,103.3,31.5s67.8-30.3,67.8-30.3
			c9-4.8,41.5-39.5,41.5-39.5l-49.2-56c0,0-37,43.3-60.8,48.8s-38-5-38-5s-22.3-8.3-29-34.8s3.5-41.8,3.5-41.8s1-3.7,16.5-19.7
			s43-12,43-12c-16-9.8-20.8-11-20.8-11c-33.3-12.3-63.3-4-63.3-4s-33.9,5.5-50.6,46.2C195.1,231.7,181.3,266.4,187.4,285.5z"/>
		<path d="M188.9,230.5c0,0,5.5-37,53.5-56s95,17.5,95,17.5l30.8,29c0,0,89.7,103,120.7,133s63.5,34.5,63.5,34.5s35.5,9.5,76.5-5.5
			s55.5-39,55.5-39s29-34,30-74.5c0,0-9.3,28.8-31.5,40.3s-36.8,21.3-90,14.5c0,0-19.8-4.3-33.8-12.8s-33.3-27.3-33.3-27.3
			s-19.3-18.8-37-40.8s-45.3-56.8-45.3-56.8s-52.2-54.3-106.5-60.5s-90,18.8-90,18.8S195.4,177.3,188.9,230.5z"/>
		<path d="M457.4,189.5l49.5,62c0,0,43.5-53.5,74-51s38.5,16.5,38.5,16.5s16.5,16.2,17.5,41.4s-21.9,47.7-39,55.1
			c0,0,36.9,7.7,70.5-6.5s47-52,46-67.5c0,0-42.7-3.2-55.7-39.2s4-48.7,2-50s-34.3-27.8-90.7-25.1
			C513.8,128,458.4,183.7,457.4,189.5z"/>
	</g>
	<g class="st2">
		<path d="M681.4,210c-0.5,0-0.9-0.5-0.9-1v-50.8c0-0.3,0.3-0.7,0.6-0.7h12c0.5,0,0.8,0.3,0.8,0.7v50.9c0,0.4-0.3,0.9-0.8,0.9H681.4
			L681.4,210z"/>
		<path d="M696.7,158.4c0-0.5,0.4-0.9,0.8-0.9h11.8c0.5,0,0.8,0.3,1,0.8l4.2,15.8c0.1,0.6,0.3,0.8,0.5,0.8s0.4-0.3,0.4-0.9v-15.6
			c0-0.5,0.3-0.9,0.8-0.9h10.5c0.6,0,0.9,0.5,0.9,1v50.6c0,0.5-0.3,0.9-0.8,0.9h-13.1c-0.3,0-0.7-0.3-0.8-0.7l-3.1-12.6
			c-0.1-0.7-0.4-1-0.6-1s-0.4,0.3-0.4,1v12.4c0,0.5-0.4,0.9-0.9,0.9h-10.6c-0.4,0-0.7-0.4-0.7-1L696.7,158.4L696.7,158.4z"/>
		<path d="M730.5,158.5c0-0.5,0.3-1,0.8-1h25.2c0.5,0,0.8,0.4,0.8,0.8v12.2c0,0.5-0.4,0.9-0.9,0.9h-11.3c-0.4,0-0.8,0.3-0.8,0.8v4.2
			c0,0.4,0.2,0.6,0.7,0.6h5.3c0.3,0,0.8,0.3,0.8,0.7v12.7c0,0.4-0.3,0.8-0.8,0.8H745c-0.3,0-0.7,0.5-0.7,0.9v17c0,0.6-0.4,1-0.9,1
			h-12.2c-0.4,0-0.8-0.4-0.8-0.9L730.5,158.5L730.5,158.5z"/>
		<path d="M760.8,210c-0.5,0-0.9-0.5-0.9-1v-50.8c0-0.3,0.3-0.7,0.6-0.7h12c0.5,0,0.8,0.3,0.8,0.7v50.9c0,0.4-0.3,0.9-0.8,0.9H760.8
			L760.8,210z"/>
		<path d="M776.1,158.4c0-0.5,0.4-0.9,0.8-0.9h11.8c0.5,0,0.8,0.3,1,0.8l4.2,15.8c0.1,0.6,0.3,0.8,0.5,0.8s0.4-0.3,0.4-0.9v-15.6
			c0-0.5,0.3-0.9,0.8-0.9h10.5c0.6,0,0.9,0.5,0.9,1v50.6c0,0.5-0.3,0.9-0.8,0.9h-13.1c-0.3,0-0.7-0.3-0.8-0.7l-3.1-12.6
			c-0.1-0.7-0.4-1-0.6-1c-0.2,0-0.4,0.3-0.4,1v12.4c0,0.5-0.4,0.9-0.9,0.9h-10.6c-0.4,0-0.7-0.4-0.7-1L776.1,158.4L776.1,158.4z"/>
		<path d="M810.8,210c-0.5,0-0.9-0.5-0.9-1v-50.8c0-0.3,0.3-0.7,0.6-0.7h12c0.5,0,0.8,0.3,0.8,0.7v50.9c0,0.4-0.4,0.9-0.8,0.9H810.8
			L810.8,210z"/>
		<path d="M835.5,210c-0.5,0-1-0.4-1-1v-36.5c0-0.5-0.4-0.8-0.9-0.8h-7c-0.4,0-0.9-0.6-0.9-1v-12.5c0-0.4,0.2-0.7,0.6-0.7h30
			c0.5,0,0.9,0.3,0.9,0.8v12.3c0,0.6-0.4,1-1,1h-7c-0.5,0-0.8,0.4-0.8,1v36.5c0,0.5-0.4,0.9-1,0.9H835.5z"/>
		<path d="M859.7,158.4c0-0.4,0.4-0.9,0.9-0.9h24.9c0.4,0,0.7,0.4,0.7,0.8v12.6c0,0.4-0.3,0.7-0.8,0.7h-11.7c-0.3,0-0.5,0.2-0.5,0.5
			v3.9c0,0.3,0.3,0.5,0.5,0.5h5.5c0.3,0,0.5,0.2,0.5,0.5v12.7c0,0.3-0.3,0.6-0.6,0.6h-5.6c-0.3,0-0.5,0.2-0.5,0.6v4.1
			c0,0.3,0.2,0.5,0.4,0.5h12.1c0.5,0,0.8,0.3,0.8,0.7v13c0,0.4-0.4,0.8-0.8,0.8h-25.1c-0.4,0-0.8-0.4-0.8-0.9L859.7,158.4
			L859.7,158.4L859.7,158.4z"/>
	</g>
</g>
<g id="Layer_2_1_">
	<g class="st3">
		<g id="XMLID_336_">
			<g id="XMLID_350_">
				<path id="XMLID_351_" class="st4" d="M304.4,457.3c-69.2-41.1-156.3-100.8-156.3-206.4V139.5c31.9-12,81.1-27.2,156.3-27.2
					c76.1,0,128.2,16.5,156.3,27.2v111.4C460.8,357.3,370.1,418.6,304.4,457.3z"/>
			</g>
			<g id="XMLID_337_">
				<path id="XMLID_343_" class="st5" d="M351.4,313.1c0-2.4,2-6,2-9.3c0-3.9-4.7-5.2-8.5-5.6c-7.9-1.1-10.5-0.7-10.5-2.4
					c0-1.1,1-2.4,2.4-4.4c2.1-3,7.2-4.2,9.7-4.6c3.6-0.4,7.4-1,12-1c5.2,0,9.6,0.7,11.7,1.1c4.7,0.9,5.6,2.9,5.6,5
					c0,0.4,0,1.7,0,2.3c0,2.3-1.9,3.4-5.2,4.2c-0.9,0.1-2,0.4-2.6,0.6c-2.4,0.6-5.4,1-6.4,4c-2.3,6.6-6.3,11.7-9.2,11.6
					C351.9,314.4,351.4,313.9,351.4,313.1z M358.2,207.2c-0.3-0.1-1.3-0.6-1.3-1.6c0-1.1,0.9-2.3,2.6-4.6
					c3.9-5.3,9.3-11.7,11.3-11.7c1,0,1.6,0.7,2.7,2.9c0.7,1.3,1.3,3.6,1.3,5.7c0,7-2.4,11.9-6.2,17.5
					C366.9,213.7,363.5,210.2,358.2,207.2z M243.4,220.2c1.7,0,3.2-1.1,5.7-4.2c5.9-6.6,11.7-7.4,11.7-10.3c0-1.3-0.9-2.4-1.6-3.7
					c-6.3-9.9-9-15.2-12.7-22.3c-1.4-2.6-3.2-4.4-4.4-4.4c-2.1,0-4.4,2.6-5.9,4.7c-1.9,3.2-3.7,6.6-3.7,9.7c0,4.7,1.1,13.5,3.2,19.1
					C237.7,214.9,240.7,220.2,243.4,220.2z M314.7,243c0-4.2-4.6-10-12.6-10c-7.2,0-12.6,5.4-14,9.6c1.7,3.3,3.3,6.7,10.2,8.9
					c0.9,0.3,1.9,0.3,1.9,1c0,1.1-1.1,1.6-3.6,1.6c-7.7,0-12.3-3.2-14.3-5.9c-2,0.3-4.3,1-7.2,1.1c-2.4,0.1-3.4-1.4-3.4-3.6
					c0-1.4,0.4-2.9,1.1-4.6c0.4-0.9,0.9-1.9,1.3-2.6c1.1-2.3,3-7.6,10.2-11.6c0.9-0.4,3-1.7,4-2.4c4-2.3,7-2.9,11.7-2.9
					c0.4,0,3,0,3.4,0c5.7,0,8.6,1.6,11.2,3.7c5.2,4.3,7.9,6.6,7.9,9.9c0,3.6-0.1,6.3-3,10c-2.4,3.2-6,5.3-8.3,5.3
					c-0.7,0-0.9-0.3-0.9-0.7s0.6-0.7,1.1-1.1C313.4,247.3,314.2,244.6,314.7,243z M349.2,352.6c-1.3,0.3-4,1-15.6,1
					c-17.8,0-20.8-4.3-20.8-7.9c0-5.7,25.5-9.9,35.4-9.9c9.6,0,13.9,3.2,13.9,5.4C362,344.2,357.7,350.6,349.2,352.6z M246.9,404.6
					c18.5,14.5,38.2,27.1,57.6,38.7l0,0l0,0c0.1-17.3-0.4-27.6,11.3-40c4.7-5,9.6-10,14-14.6c3.3-3.4,6-6,7.6-6
					c1.1,0,1.6,0.6,1.6,2.1s0.7,7.3,4.3,14c4.4,8.5,10.9,9.6,13,10c50.4-38,92.5-87.5,92.5-158.1c0-38.8,0-102.8,0-102.8
					c-12.5-4.2-63.5-23.8-144.4-23.8s-132,19.5-144.5,23.7c0,0,0,64.2,0,102.8c0,31.1,8.2,58,21.5,81.8c1.3-14.3,11-21.1,11-35.1
					c0-9.7-2.7-16-2.7-24.2c0-14.9,20.1-45.4,30.4-57.7c0.3-0.4,1-1.3,1.9-1.3c0.7,0,1.3,0.6,1.7,1.1c1,1.6,1.6,2.4,2.6,2.4
					c1.1,0,1.6-0.6,1.6-1.6c0-2.6-3-6.9-3-23.8c0-11.7,2.7-14.3,10-21.5c1.3-1.3,5.4-5.3,9.3-5.3c4.3,0,6.4,2.6,9.2,5.3
					c4.6,4.6,10.9,12.7,11.9,14c0.3,0.4,0.6,0.7,1.1,0.7c2.1,0,3.9-0.6,12.9-0.6c16.5,0,41.4,2.6,54.3,6.7c6.6,2.1,8,3.6,9.7,3.6
					c0.9,0,0.9-0.6,0.9-1c0-0.9-1.7-2.1-1.7-3.3c0-0.7,0.6-1.3,1.1-1.6c9.6-5.2,17.8-9,25.2-9c4.3,0,6.4,3.7,8.3,7.4
					c1.4,2.9,3,6.7,3,10.7c0,10.2-3.9,16.3-6.9,20.6c1.4,1.6,3.6,3.9,4.9,5.3c2.3,2.7,5,6.3,5,9.9c0,1.6-0.7,4-1.1,6
					c-0.1,0.9-1,2.7-2.6,2.6c-1.4,0-1.7-1.6-1.9-2.9c0-0.3,0-0.9,0-1c0-2.9-0.9-6.9-3.6-9.6c-3.2-3.2-6-5.4-9.6-5.4
					c-0.1,0-1,0-1.3,0c-5.9,0-8.6,2.6-10.2,4.2c-1.7,1.7-3.2,4-3.2,7.2c0,1.7,1.1,3.9,2.9,7.2c1,1.9,3.4,6.4,4.7,8.7
					c1.1,2,2.7,2.7,4.3,2.7c4.2,0,7.7-0.6,7.7-1.9c0-0.3-0.1-0.6-0.7-0.6c-0.3,0-0.9,0-1.3,0c-5.4,0-8.3-6.9-10.9-13
					c2-2,4.4-4,8.6-4c5.3,0,8.9,3.6,8.9,8.3c0,2.3-0.7,4.3-1.1,5.2c-0.1,0.4-0.3,0.7-0.3,1c0,0.7,0.9,0.9,2.4,1.1
					c0.6,0.1,1.6,0.3,2.1,0.6c1.6,0.4,3.3,1.9,4,3.7c0.4,1.3,1.6,4.2,1.7,4.9c0.9,2.6,2.3,6.4,2.3,11.2c0,4.7-0.3,6.2-1.6,10.9
					c-1.7,6.2-2.4,8.5-2.7,11.7c0.6,1,0.6,1.3,0.9,2c0.9,2,2.1,5.4,2.1,9.3c0,1,0,3,0,3.2c0,6.2-2.4,10.9-5.2,14.5
					c-2,2.7-5,6.7-6.7,8.9c-1.1,1.3-2.6,2.3-4.2,2.3c-0.7,0-1.7-0.3-2.6-0.4c-1-0.3-3.2-0.9-4.2-1c-3.6-0.9-4.9-3.3-6.2-6.4
					c-0.1-0.4-0.7-1.9-0.9-2.3c-0.9-2.1-1.3-3.6-2.7-3.6c-1,0-2,0.7-3,2.1c-3.6,5.4-5.6,7.3-11.9,8.9c-2.1,0.6-6.7,1.4-9.2,2
					c-3.7,0.9-10.6,2.6-14.3,2.6c-0.9,0-1.7,0-2.6-0.1c-5.2-0.7-8.9-1.1-15.3-8.7c-8.9-10.6-8-12.2-8.5-26.5c0-1.6-0.6-3.6-2.3-3.6
					c-1.4,0-2.1,3-2.7,7.3c-0.6,5-1.9,10.3-4.3,10.3c-1.7,0-2.9-0.3-5.6-1.1c-3.3-1-11.3-3.7-15.5-5.2c-5.7-1.9-11.3-3.4-13.5-8.6
					c-1-2.4-3-6.9-4-9.2c-0.7-1.6-1.1-2.4-2.3-2.4c-1.6,0-1.9,1.9-2,3.3c-0.1,1.6-0.6,5.4-0.9,7.7c-0.9,10-2.9,14.2-7.2,19.8
					c-2,2.6-3.7,5.2-5.9,8c-4.4,5.9-7.2,11.9-7,23.3c0,0.7,0,5,0,6.9C213.9,373.5,218.2,381.8,246.9,404.6z"/>
				<path id="XMLID_338_" class="st6" d="M381.1,254.8L381.1,254.8c0.4,1.3,1.6,4.2,1.7,4.9c0.9,2.6,2.3,6.4,2.3,11.2
					c0,4.7-0.3,6.2-1.6,10.9c-1.7,6.2-2.4,8.5-2.7,11.7c-0.4-1-9.2-15.9-9.9-17.2c-0.7-1.3-1.3-2.4-1.3-3.9c0-1.6,0.7-2.4,2.6-3.6
					c1.1-0.7,2.6-1.6,3.6-2c4.4-2.3,5.6-5.2,5.6-8.2C381.5,257.3,381.3,256.1,381.1,254.8z M343.2,278.7c0.4,1.1,0.9,2.6,0.9,3.6
					c0,2.3-0.6,3-1.9,4.3c-0.7,0.7-1.6,1.4-2.3,2c-1.3,0.7-2.3,1.4-3.2,2.6c-1.4,2-2.4,3.3-2.4,4.4c0,0.4,0.1,0.7,0.4,0.9
					c-1.7-1.3-2.4-3.3-2.4-5c0-1.6,0.6-2.4,0.6-3.9c0-1.3-0.3-2.4-0.6-3.2c-2.4-8-6.4-17.6-9-24.2c-2.6-6.6-4.6-10.3-7.4-10.3
					c-1.6,0-3,0.7-4.7,0.7c2.3,0,5.9-2.1,8.3-5.3c2.9-3.7,3-6.4,3-10c0-1.4-0.6-2.9-1.9-4.3c3.6,3.7,6,8.5,8.5,13.8
					C334.7,256.3,339.2,269,343.2,278.7z M213.7,356.6c0-2,0-6.2,0-6.9c-0.1-11.3,2.6-17.3,7-23.3c2.1-2.9,4-5.4,5.9-8
					c4.3-5.6,6.2-9.9,7.2-19.8c0.1-2.3,0.6-6.2,0.9-7.7c0.1-1.4,0.6-3.3,2-3.3c1.1,0,1.6,0.9,2.3,2.4c1,2.3,2.9,6.7,4,9.2
					c2.3,5.2,7.7,6.6,13.5,8.6c4.3,1.4,12.3,4.2,15.5,5.2c2.7,0.9,3.9,1.1,5.6,1.1c2.4,0,3.7-5.3,4.3-10.3c0.6-4.3,1.1-7.3,2.7-7.3
					c1.7,0,2.1,2,2.3,3.6c0.6,14.3-0.4,15.9,8.5,26.5c6.4,7.7,10.2,8,15.3,8.7c-1.9-0.6-4.4-2.9-4.4-7.4c0-0.9,0-4.6,0-5.2
					c0-2.6,0.3-5.2,1.6-8.2c0.6-1.4,1.3-3.9,2-5.4c1.1-2.6,0.6-3.3,0.6-5.2c0-2-0.7-3.9-2.1-8.6c-0.9-2.4-1.9-5.9-2.9-8.7
					c-3.3-9-4.6-11.2-15.3-12.6c-3.4-0.4-18.6-2.6-21.8-3c-12-1.7-21.5-2.3-26.5-10.3c-5.9-9.6-5.3-21.5-10.9-21.5
					c-2.7,0-4.2,3-4.2,7.4c0,4.6,1.7,12,1.7,24.9c0,11.2-1,14.3-7.6,22.5c-1.7,2.1-4,5.3-5.4,7.2c-4.9,6.2-7,9.6-6.7,16.6
					C209.4,336,212.2,349.6,213.7,356.6z M336.7,399.7c0.4-4.4,2.4-12,2.4-15l0,0c0-1.6-0.6-2.1-1.6-2.1c-1.6,0-4.3,2.6-7.6,6
					c-4.4,4.6-9.3,9.6-14,14.6c-11.7,12.3-11.2,22.5-11.3,40l0,0c13-7.9,25.1-15.5,33.9-21.5C336.9,414.5,335.7,409.3,336.7,399.7z"
					/>
			</g>
		</g>
		<path class="st5" d="M523.5,161.8H514v-13.9h44c23.1,0,35.2,12.2,35.2,29.4c0,20.5-16.2,29.4-35.2,29.4h-14.6v22.9h9.5v13.9h-38.8
			v-13.9h9.5L523.5,161.8L523.5,161.8z M556,192.7c10,0,16.5-5.7,16.5-15.5c0-8.9-5.7-15.5-16.8-15.5h-12.2v30.9H556V192.7z
			 M617.6,212.1c0.6,11.3,9.3,18.3,22.6,18.3c11.7,0,19.1-3.3,22.2-4.6v14.8c-2.9,1.1-10.9,4.4-26.4,4.4
			c-27.6,0-39.2-17.2-39.2-37.1c0-22.3,13.5-37.7,36-37.7c24.6,0,34.5,18.6,34.5,41.7h-49.7V212.1L617.6,212.1z M646.6,199
			c0-9.9-5.6-15.5-14.5-15.5c-8.7,0-13.8,5.7-14.6,15.5H646.6z M1147.5,212.1c0.6,11.3,9.3,18.3,22.6,18.3c11.7,0,19.1-3.3,22.2-4.6
			v14.8c-2.9,1.1-10.9,4.4-26.4,4.4c-27.6,0-39.2-17.2-39.2-37.1c0-22.3,13.5-37.7,36-37.7c24.6,0,34.5,18.6,34.5,41.7h-49.7
			L1147.5,212.1L1147.5,212.1z M1176.4,199c0-9.9-5.6-15.5-14.5-15.5c-8.7,0-13.8,5.7-14.6,15.5H1176.4z M685.1,186h-9.3v-13.9H702
			l0.6,9.3h0.3c1.3-2,7.4-11,21.9-11c18.2,0,27.6,12.7,27.6,28.5v30.7h8.2v13.9h-35v-13.9h7.7v-27.4c0-10-5.6-15.5-14.6-15.5
			c-8.2,0-14.5,4.6-14.5,15.5v27.4h8.2v13.9h-35.1v-13.9h7.7L685.1,186L685.1,186z M778.3,186H769v-13.9h26.2l0.6,9.3h0.3
			c1.3-2,7.4-11,21.9-11c18.2,0,27.6,12.7,27.6,28.5v30.7h8.2v13.9h-35v-13.9h7.7v-27.4c0-10-5.6-15.5-14.6-15.5
			c-8.2,0-14.5,4.6-14.5,15.5v27.4h8.2v13.9h-35v-13.9h7.7L778.3,186L778.3,186z M1083.6,156.8h19.2v15.3h19.2V186h-19.2v31.8
			c0,9.6,3.3,12.6,11.3,12.6c3,0,7-0.9,8.6-1.1v13.6c-1.6,0.4-8.6,2.3-15.8,2.3c-14,0-23.2-7.6-23.2-20.2v-39h-9.9v-13.9h9.7v-15.3
			L1083.6,156.8L1083.6,156.8z M954.5,156.8h19.2v15.3h19.2V186h-19.2v31.8c0,9.6,3.3,12.6,11.3,12.6c3,0,7-0.9,8.6-1.1v13.6
			c-1.6,0.4-8.6,2.3-15.8,2.3c-14,0-23.2-7.6-23.2-20.2v-39h-9.7v-13.9h9.7L954.5,156.8L954.5,156.8L954.5,156.8z M1045.5,198
			c0-9.9-4.7-13.6-14.5-13.6c-6.2,0-10.6,1.6-11.9,2v9.6h-15.5v-18.2c2.6-1.4,14-7.4,27.1-7.4c19.9,0,32.8,8.2,32.8,28.1
			c0,11.7,0,31.1,0,31.1h7.4v13.9h-23.3l-0.6-9.7h-0.3c-1.4,2-6.6,11.3-22.8,11.3c-16.2,0-23.9-9.6-23.9-20.8
			c0-13.6,10.5-22.9,36.7-22.9c1.1,0,7.4,0,8.6,0L1045.5,198L1045.5,198z M1039.9,213.2c-15.6,0-20.5,3.3-20.5,9.5
			c0,4.3,3,8.6,10.5,8.6c7.6,0,15.3-6,15.3-18h-5.3V213.2z M916,162.5c-1.4-0.6-7-2.3-12.2-2.3c-11.2,0-15.6,6-15.6,11.3
			c0,7,5.2,10.2,11.2,11.7l9.5,2.4c13.3,3.6,28.2,9.2,28.2,29.1c0,18.2-11.7,30.4-37.5,30.4c-10,0-20.3-1.1-32.7-5.3v-25.4h17.2
			v12.3c2.7,0.7,10.5,2.7,17,2.7c10.2,0,15-4.3,15-11.5c0-6-3.4-10.3-15.6-13.6l-8.2-2.3c-18.8-5-25.1-14-25.1-28.8
			c0-15.2,10.2-27.2,35.8-27.2c11,0,22.1,1.9,29.9,5v23h-17.2v-11.5H916z M523.8,294v32h37v-32h10v76.3h-10v-35.8h-37v35.8h-9.9V294
			H523.8z M617.9,370.4l-0.9-6.9h-0.4c-3,4.3-8.9,8.2-16.8,8.2c-11.2,0-16.8-7.9-16.8-15.8c0-13.3,11.7-20.5,32.9-20.3v-1.1
			c0-4.6-1.3-12.7-12.5-12.7c-5.2,0-10.5,1.6-14.3,4l-2.3-6.6c4.6-3,11-4.9,18-4.9c16.8,0,20.9,11.5,20.9,22.5v20.5
			c0,4.7,0.3,9.5,0.9,13.2L617.9,370.4L617.9,370.4z M616.3,342.3c-10.9-0.3-23.2,1.7-23.2,12.3c0,6.4,4.3,9.5,9.5,9.5
			c7.2,0,11.6-4.6,13.3-9.2c0.3-1,0.6-2.1,0.6-3.2v-9.5h-0.2L616.3,342.3L616.3,342.3z M642.1,332.5c0-6.4-0.1-12-0.4-17h8.7
			l0.3,10.7h0.4c2.4-7.3,8.5-12,15.2-12c1.1,0,1.9,0.1,2.9,0.3v9.5c-1-0.3-2-0.3-3.4-0.3c-7,0-12,5.3-13.3,12.7
			c-0.3,1.3-0.4,3-0.4,4.6v29.2h-9.9L642.1,332.5L642.1,332.5z M679.6,332.5c0-6.4-0.1-12-0.4-17h8.7l0.3,10.7h0.4
			c2.4-7.3,8.5-12,15.2-12c1.1,0,1.9,0.1,2.9,0.3v9.5c-1-0.3-2-0.3-3.4-0.3c-7,0-12,5.3-13.3,12.7c-0.3,1.3-0.4,3-0.4,4.6v29.2h-10
			V332.5L679.6,332.5z M728.1,300c0.1,3.4-2.4,6.2-6.3,6.2c-3.6,0-6-2.7-6-6.2c0-3.6,2.6-6.2,6.2-6.2
			C725.6,293.9,728.1,296.6,728.1,300z M717,370.4v-54.9h10v54.9H717z M742.1,360.1c3,1.9,8.2,4,13.2,4c7.3,0,10.6-3.6,10.6-8.2
			c0-4.7-2.9-7.3-10.2-10c-9.9-3.6-14.5-8.9-14.5-15.5c0-8.9,7.2-16,18.9-16c5.6,0,10.5,1.6,13.5,3.4l-2.4,7.3
			c-2.1-1.3-6.2-3.2-11.2-3.2c-5.9,0-9.2,3.4-9.2,7.4c0,4.6,3.3,6.6,10.5,9.3c9.5,3.6,14.3,8.5,14.3,16.5c0,9.6-7.4,16.5-20.5,16.5
			c-6,0-11.6-1.4-15.5-3.7L742.1,360.1z M787.9,370.4c0.3-3.7,0.4-9.3,0.4-14.2v-66.3h9.9v34.4h0.3c3.6-6.2,9.9-10,18.6-10
			c13.6,0,23.2,11.3,23.1,27.9c0,19.6-12.3,29.4-24.6,29.4c-7.9,0-14.3-3-18.3-10.3H797l-0.4,9H788v0.1L787.9,370.4L787.9,370.4z
			 M798.1,348.3c0,1.3,0.3,2.4,0.4,3.6c1.9,6.9,7.7,11.6,14.9,11.6c10.5,0,16.6-8.5,16.6-21.1c0-11-5.7-20.3-16.3-20.3
			c-6.7,0-13.2,4.6-15.2,12.2c-0.3,1.1-0.6,2.4-0.6,4v10L798.1,348.3L798.1,348.3z M898.8,355.3c0,5.7,0.1,10.6,0.4,14.9h-8.9
			l-0.6-8.9h-0.3c-2.6,4.4-8.5,10.2-18.2,10.2c-8.6,0-18.9-4.7-18.9-24.1v-32.1h10v30.4c0,10.5,3.2,17.5,12.2,17.5
			c6.7,0,11.3-4.6,13.2-9c0.6-1.4,0.9-3.3,0.9-5.2v-33.7h10v40L898.8,355.3L898.8,355.3z M915.3,332.5c0-6.4-0.1-12-0.4-17h8.7
			l0.3,10.7h0.4c2.4-7.3,8.5-12,15.2-12c1.1,0,1.9,0.1,2.9,0.3v9.5c-1-0.3-2-0.3-3.4-0.3c-7,0-12,5.3-13.3,12.7
			c-0.3,1.3-0.4,3-0.4,4.6v29.2h-9.9L915.3,332.5L915.3,332.5z M998.6,315.5c-0.3,4-0.4,8.5-0.4,15v31.8c0,12.6-2.4,20.3-7.9,25.1
			c-5.3,5-13,6.6-19.9,6.6c-6.6,0-13.8-1.6-18.2-4.6l2.4-7.6c3.6,2.3,9.3,4.3,16,4.3c10.2,0,17.6-5.3,17.6-19.2v-6.2h-0.3
			c-3,5.2-8.9,9.2-17.5,9.2c-13.6,0-23.3-11.6-23.3-26.8c0-18.6,12.2-29.1,24.6-29.1c9.5,0,14.8,5,17,9.5h0.3l0.4-8.3h9v0.3
			L998.6,315.5L998.6,315.5z M988.3,337.1c0-1.7-0.1-3.2-0.6-4.6c-1.9-5.7-6.7-10.6-13.9-10.6c-9.5,0-16.3,8-16.3,20.8
			c0,10.7,5.4,19.8,16.2,19.8c6.2,0,11.6-3.9,13.8-10.2c0.6-1.7,0.9-3.6,0.9-5.3L988.3,337.1L988.3,337.1z"/>
	</g>
</g>
</svg>
