<?xml version="1.0" encoding="utf-8"?>
<!-- Generator: Adobe Illustrator 22.1.0, SVG Export Plug-In . SVG Version: 6.00 Build 0)  -->
<svg version="1.1" id="Calque_1" xmlns="http://www.w3.org/2000/svg" xmlns:xlink="http://www.w3.org/1999/xlink" x="0px" y="0px"
	 viewBox="0 0 1891 454.7" style="enable-background:new 0 0 1891 454.7;" xml:space="preserve">
<g transform="matrix(1.25 0 0 -1.25 -373.17 600.6)">
	<path d="M1250.5,384.9l-1.8-18.1h2c1.7,9.9,3.7,12.5,8.2,12.5h19.5v-55.5c0-6.1-2-8.2-8.9-8.2h-4.1v-2.1h35.4v2.1h-4.2
		c-6.8,0-8.8,2.1-8.8,8.2v55.5h19.5c4.5,0,6.5-2.6,8.2-12.5h2l-1.8,18.1h-2.1c-0.2-1.3-1.9-1.7-3.5-1.7h-54c-0.8,0-1.6,0.1-2.3,0.3
		c-0.6,0.2-1.1,0.7-1.2,1.3L1250.5,384.9L1250.5,384.9z M1105,384.9c-11.4,0-19.9-6.9-19.9-16.2c0-19.6,35.8-24.5,35.8-40.6
		c0-8.8-7.9-13.2-15.4-13.2c-8.7,0-16.5,5.8-18.8,15.8h-2.1l2.3-17.2h1.9c0.5,0.9,1.2,1.4,2.2,1.4c1.6,0,9.4-3.1,15.5-3.1
		c13.1,0,22.8,8.2,22.8,19.2c0,20.6-35.8,24.8-35.8,40.7c0,6.3,5.1,10.5,12.5,10.5c7.7,0,14.9-5.1,18-13.2h1.9l-1.9,14.2h-1.8
		c-0.6-0.9-1.1-1.1-2-1.1C1116.3,382.1,1114.4,384.9,1105,384.9z M1557.4,384.9c-23.9,0-41.1-15.7-41.1-38.1c0-21,18.6-35,40.5-35
		c21.8,0,40,15.8,40,38.5C1596.8,370.5,1578.7,384.9,1557.4,384.9L1557.4,384.9z M997.5,384.2c-7.3,0-9.5-0.1-14.2-0.3
		c-4.6-0.3-11.4-0.7-14.1-0.7v-2.1h2.5c6.5,0,8.4-2,8.4-9v-47.3c0-7.6-2.4-9.4-9-9.4h-1.9v-2.1h31.8v2.1h-2.6c-6.2,0-9,1.7-9,8.5
		V343c1.8-0.1,3.3-0.2,5.7-0.2c3,0,4.8,0.1,7.6,0.2c2.7-1.8,6.6-5.1,11.5-10l7.5-7.5c10-10,15-14.2,34.7-13.3v2.1
		c-8.7,0.6-15.5,4.7-22.1,11.4l-8.8,8.9c-5.3,5.3-8.7,8.4-12.8,11.6c9.2,2.7,14.9,9.8,14.9,18.2
		C1027.5,375.8,1018.2,384.2,997.5,384.2L997.5,384.2z M430.7,383.2v-2.1c7.6-0.1,9.6-1.2,9.6-8.4V340c0-16,11-28.2,32.4-28.2
		c24.3,0,33.2,14.9,33.2,28.8v30.3c0,7.2,2.7,10.2,10.2,10.3v2.1h-26.3v-2.1c9.3-0.5,11-2.4,11-13.1V342c0-19-12.9-24.3-25.5-24.3
		c-16.7,0-25.5,9.1-25.5,24.2v31.2c0,6.5,2.7,8.2,8.8,8.2h1v2.1C459.5,383.2,430.7,383.2,430.7,383.2z M553.2,383.2v-2.1
		c3.9-0.1,6.8-1,9.4-2.8V323c0-5.2-2.2-7.5-9.2-7.5H553v-2.1h25.9v2.1c-9.5,0-11.3,1.7-11.3,9.8v48.2l57.9-60.9h2.9v62.7
		c0,4.4,1.8,5.8,10.2,5.8v2.1h-26.2v-2.1c9-0.2,11-1.5,11-8.3v-44.7l-52.7,55.1H553.2L553.2,383.2z M683.7,383.2v-2.1
		c6.3-0.3,8.4-2,8.4-8.1v-47.9c0-7.5-1.4-9.3-8.4-9.7v-2.1H711v2.1c-7.7,0-9.5,2.3-9.5,8.9v47.6c0,7.5,2.5,9.1,9.5,9.1v2.1
		C711,383.2,683.7,383.2,683.7,383.2z M750.8,383.2v-2.1c6.8,0,8.2-1.7,11-8.7l24.3-60.6h5.6l23.1,59.7c2.7,6.9,5.7,9.6,11.5,9.6
		v2.1h-26v-2.1c7.6,0,10.4-1.3,10.4-4.7c0-1.6-0.7-3.8-1.9-7l-17.7-46.3l-20.2,50.2c-2.1,5.2,0.3,7.5,10.6,7.7v2.1L750.8,383.2
		L750.8,383.2z M864.9,383.2v-2.1h2.5c7.5,0,9-2.7,9-9v-47.4c0-6.8-1.6-9.2-10.5-9.2h-3.1v-2.1h59.6l1.8,16.7h-2
		c-2.8-9.7-5.1-12.8-13-12.8h-17.4c-4.2,0-6.1,1-6.1,6.2v24h19c4.6,0,6.8-0.9,7.6-8.9h2.1v21.3h-2.1c-0.6-6.5-2.5-8.4-6.5-8.4h-20.1
		v27.7h23.7c4,0,6.8-2,8.2-11.6h2l-0.9,15.6L864.9,383.2L864.9,383.2z M1180.8,383.2v-2.1c6.3-0.3,8.4-2,8.4-8.1v-47.9
		c0-7.5-1.5-9.3-8.4-9.7v-2.1h27.3v2.1c-7.7,0-9.5,2.3-9.5,8.9v47.6c0,7.5,2.5,9.1,9.5,9.1v2.1
		C1208,383.2,1180.8,383.2,1180.8,383.2z M1352.7,383.2v-2.1c7.3-0.2,9.9-1.8,15.4-10.5l19.8-31.2v-15.8c0-5.5-2-8.1-8.8-8.1h-2.1
		v-2.1h30.8v2.1h-1.5c-6.8,0-9,2.4-9,8.3v16.9l18.7,31.6c3.1,5.3,6.4,8.3,14,8.9v2.1h-25.4v-2.1c7.2,0,9.3-1.9,5.7-8.1l-15.9-27
		l-17.8,27.8c-3.4,5.2-2.8,7.3,5.8,7.3v2.1L1352.7,383.2L1352.7,383.2z M1624.3,383.2v-2.1c7.9-0.1,8.4-3.4,8.4-10.6v-44
		c0-9.1-1.2-10.6-8.2-11v-2.1h27.3v2.1c-8.4,0-9.8,2.4-9.8,8.7v24.7h20.8c5.4,0,7.7-2,8-8.6h1.9V360h-1.9c-0.3-4.8-2.4-7.2-6.5-7.2
		h-22.2v26.5h21.3c7,0,9.2-2.7,9.3-9.2h1.9v13.2L1624.3,383.2L1624.3,383.2L1624.3,383.2z M1554.5,382.2c18.5,0,31.8-14.7,31.8-35.6
		c0-15.9-8.7-32.1-27.1-32.1c-18.1,0-32.4,14.8-32.4,35.8C1526.9,363.8,1534.7,382.2,1554.5,382.2L1554.5,382.2z M995,382.2
		c17.3,0,21.9-8.1,21.9-18.5c0-13.5-8.1-18.8-20.6-18.8c-2.5,0-4.3-0.1-6.9,0.2v36.8C991.4,382.2,992.9,382.2,995,382.2z M690,289.9
		l2.1-5.1l-42.3-115.3c-7.4-20.2-10-22.7-25.1-23h0.1V142h53.6v4.5h-3.7c-12.8,0-18.8,2.3-18.8,8.6c0,3.2,3,10.2,4.7,14.6l13.5,36.4
		h48.1l15.6-42.3c0.9-2.3,2.6-5.8,2.6-9.5c0-6.5-4.9-7.9-18.1-7.9h-6v-4.5h63.9h0.1H846v4.5h-5.4c-13.1,0-18.7,3.5-18.7,17.3v39
		c3.7-0.2,6.8-0.5,11.9-0.5c6.3,0,10,0.2,15.9,0.5c5.6-3.7,13.8-10.4,24.1-20.6l15.3-15.3c20.6-20.7,31.1-29.5,71.7-27.6v4.2
		c-17.9,1.2-32.1,9.7-45.8,23.4l-18.3,18.3c-10.8,10.9-17.7,17.4-26.4,24.2c19,5.6,30.8,20.2,30.8,37.6c0,23.7-19.1,41.5-62.3,41.5
		c-15.2,0-19.8-0.2-29.3-0.7c-9.5-0.4-23.7-1.4-29.2-1.4v-4.5h5.1c13.5,0,17.4-4.2,17.4-18.6v-97.7c0-15.5-4.9-19.2-18.6-19.2h-3.9
		h-0.1c-11.6,0-16.4,2.4-21.1,14.6l-48.6,128.7C710.2,289.9,690,289.9,690,289.9z M1260.4,289.9l2.1-5.1l-42.3-115.3
		c-7.4-20.2-10-22.7-25.1-23V142h53.7v4.5h-3.7c-12.8,0-18.8,2.3-18.8,8.6c0,3.2,3.1,10.2,4.7,14.6l13.5,36.4h48.1l15.6-42.3
		c0.9-2.3,2.6-5.8,2.6-9.5c0-6.5-4.9-7.9-18.1-7.9h-6.1v-4.5h64v4.5c-11.7,0-16.5,2.3-21.2,14.6l-48.6,128.7
		C1280.7,289.9,1260.4,289.9,1260.4,289.9z M1602,288.6c-12.1,0-26.3-0.2-39-0.7c-12.7-0.4-24-0.9-32.5-1.4v0.2h-2.6v-0.2h0.6v-4.2
		h2l0,0h4.4c13.7,0,17.7-3.7,17.7-18.8v-100c0-13.5-5.8-16.9-18.4-16.9h-3.9v-4.5h74.3c58.9,0,85.9,42.1,85.9,77.1
		C1690.5,257.4,1663.4,288.6,1602,288.6z M1528.4,282.4h-0.6v4.2h-53.7v-4.5c18.6-0.5,22.7-3,22.7-17.2v-92.4l-109.3,114.1h-36.4
		v-4.5c8.1-0.2,14.2-2.1,19.5-5.8V162.1c0-10.7-4.6-15.5-19.1-15.5h-0.9v-4.5h53.8v4.5c-19.7,0-23.4,3.5-23.4,20.2v99.5l120.2-125.9
		h6V270c0,9.1,3.7,12.1,21.2,12.1L1528.4,282.4L1528.4,282.4z M431.2,286.6v-4.2c14.4-0.9,14.9-5.1,13.9-20.5l-5.6-90.5
		c-1.2-21.2-3.2-24.9-20.2-24.9V142h48.5v4.5c-10.5,0.5-19.4,3-18.7,14.9l6.3,104.7h0.5L515.2,142h5.3l57.9,124.1h0.5l6.7-104.2
		c0.9-12.3-9.8-15.4-20.7-15.4V142h59.6v4.5c-16.9,0-18.7,0.1-20.1,21.4L597,273.3c-0.5,7.9,3.9,8.1,15.3,9.1v4.2h-34.2l-55.8-117.2
		l-56,117.2C466.4,286.6,431.2,286.6,431.2,286.6z M920.7,286.5V282c15-0.5,20.4-3.7,31.8-21.6l41.6-64.5v-32.7
		c0-11.4-4.2-16.7-18.7-16.7h-4.6V142h64v4.5h-3.1c-14.2,0-18.6,4.9-18.6,17.2v34.8l38.6,65.2c6.5,10.9,13.2,17.2,28.9,18.3h2.1
		c14.7,0,18.4-5.1,18.4-17.4V161.9c0-11.8-3.9-15.3-14.6-15.3h-7.7v-4.5h103.8l17.9,34h-4.2c-14.7-20.3-18.8-25.7-32.5-25.7h-34.2
		c-6.8,0-9.3,2.3-9.3,8.6v107.1c0,14.4,4,16,19.1,16h8.6v4.5h-67.3h-1.1h-51.3v-4.5c14.9,0,19.3-3.9,11.8-16.7l-32.7-55.7L970,267
		c-7,10.7-5.8,15.1,12.5,15.1v4.5C982.5,286.5,920.7,286.5,920.7,286.5z M833.3,284.1c36,0,45.8-16.7,45.8-38.3
		c0-27.9-17.1-38.8-43-38.8c-5.4,0-8.9-0.2-14.5,0.5v76.2C825.8,284.1,828.8,284.1,833.3,284.1z M1590.4,284.1
		c32.6,0,49.1-8.1,59.8-18.8c13.7-13.7,18.7-32.7,18.7-49.9c0-23.9-10.7-41.8-19.3-50.1c-14.4-14.4-27.4-18.8-58.6-18.8
		c-18.4,0-19.1,3.2-19.1,12.8v123.9C1574.5,283.4,1580.8,284.1,1590.4,284.1L1590.4,284.1z M697.6,270.4l20.5-53.8h-40.2
		L697.6,270.4z M1268.1,270.4l20.5-53.8h-40.2L1268.1,270.4L1268.1,270.4z"/>
</g>
</svg>
