<?xml version="1.0" encoding="utf-8"?>
<!-- Generator: Adobe Illustrator 22.1.0, SVG Export Plug-In . SVG Version: 6.00 Build 0)  -->
<svg version="1.1" id="Calque_1" xmlns="http://www.w3.org/2000/svg" xmlns:xlink="http://www.w3.org/1999/xlink" x="0px" y="0px"
	 viewBox="0 0 1066.9 453.7" style="enable-background:new 0 0 1066.9 453.7;" xml:space="preserve">
<g transform="matrix(1.25 0 0 -1.25 -598.84 505.34)">
	<path d="M599.2,313.1v-6c17.6-2.5,16.8-1.4,16.8-22.8v-68.5c0-38.6,11.1-62.7,45.9-66V88.6c0-24.1,0.9-22.8-18.9-25.6v-6.7h0.2
		h66.4c54.5,0,86.9,44,86.9,95.7c0,41.8-16.8,70.5-49.6,81c-0.1,1.4-0.1,2.6-0.1,3.3v43.1c14.3-18.7,28.8-37.9,42.7-56.2h3v55
		c0,2,0.4,3.7,0.5,5.3c0.4,3.4,3.3,4.8,7.3,5.3c7.6-1,7.3-0.7,7.3-9.6v-43.8c0-9.1,0.3-8.6-7.5-9.6v-2.5h23.6v2.5
		c-7.9,1.1-7.5,0.6-7.5,9.6v43.8c0,8.2-0.3,8.6,5.5,9.4c3.1-0.9,5.5-4.5,8.2-13.2c5.4-16.6,11.3-35.4,16.7-52.2h4.5
		c7.4,20,14.8,39.8,22.2,59.8c1.4,3.6,3.3,5,5.2,5.6c5.8-0.8,5.6-1.2,5.6-9.4v-43.8c0-9.1,0.4-8.6-7.5-9.6v-2.5h43.1l0.3,1.7v-1.7
		h23.1v2.5c-7.9,1.1-7.5,0.6-7.5,9.6v18h8.2c10.6-19.6,13.4-30.2,18.6-30.2h9v1.3c-3.1,2-8,8.9-12.4,16l-8.6,14.5
		c6.8,2.9,12.3,9.8,12.3,19.9c0,11.4-8.9,16.6-17.7,16.6h-25.5V289c7.9-1.1,7.5-0.6,7.5-9.6v-43.8c0-9,0.3-8.6-7.4-9.6l2.3,15h-2.3
		c-4-10.4-3.4-14.4-16.1-14.4c-7.9,0-11.3,0.7-11.3,9v22h7.4c5.9,0,7.9-3.4,8.1-9.2h2.3v20.7h-2.3c-0.2-6-2.5-8.5-8.1-8.5h-7.4v27.9
		h11.9c6.3,0,8.1-5.4,8.9-12.6h2.3v15.7h-35.2h-4H876h-14.9v-2.5c6,0,8.2-3,6-9.2c-5.4-14.9-10.8-29.9-16.4-44.8
		c-4.6,14.8-9.6,31.6-13.1,43.1c-2.9,9.4,0.6,10.9,5.4,10.9v2.5h-19.8h-4h-19h-0.5h-20.9v-2.5c5.8-0.5,8.8-1.8,9.2-5.4
		c0.2-1.6,0.5-3.2,0.5-5.3v-40h-0.2c-13.1,17.6-26.7,35.6-39.7,53.2h-16v-2.5c5,0,7.7-3.1,10.2-6.6v-45.9c0-0.5,0-1.3-0.1-2.2
		c-6.3,1.7-13.1,2.7-20.4,3.1V282c0,4.8,0.8,8.7,1.2,12.4c1,8.3,7.4,11.5,16.8,12.6v6h-46.1v-6c9.2-1.1,15.8-4.4,16.8-12.6
		c0.4-3.7,1.2-7.6,1.2-12.4v-44.7h-69.4v-6.7c19.8-2.8,18.9-1.6,18.9-25.6v-43.8c-21.2,5-26.9,27.4-26.9,55.7v67.4
		c0,21.4-0.8,20.2,16.8,22.8v6L599.2,313.1L599.2,313.1z M992.8,292.5c-10.1,0-18.9-6.9-18.9-15.7c0-10.6,5.9-14.4,10.6-17.9
		c13.2-9.6,16.2-14.8,16.2-21.1c0-7.1-5.1-12.4-11.3-12.4c-6.8,0-13.2,4.3-14.1,15.1h-2.2v-14c0-0.8,0.3-1.2,0.6-1.4
		c4.6-1.9,9.4-3.1,15-3.1c10.5,0,21.2,6.4,21.2,18c0,8.1-3,13.1-12.3,20.7c-8.8,7.3-14.9,11.4-14.9,18.2c0,7.2,4.6,10.1,9.6,10.1
		c7,0,10.3-5.5,11-12.3h2.3v12.8c0,0.5-0.1,0.9-0.6,1.1C1001.6,292.1,996.6,292.5,992.8,292.5L992.8,292.5z M1011.7,291.4v-2.5
		c7.9-1.1,7.5-0.6,7.5-9.6v-43.8c0-9.1,0.3-8.6-7.5-9.6v-2.5h23.6v2.5c-7.9,1.1-7.5,0.6-7.5,9.6v43.8c0,9.1-0.4,8.6,7.5,9.6v2.5
		H1011.7z M1036.1,291.4l-2.4-14.9h2.2c2.9,6.4,4.6,11.8,12.3,11.8h7.9v-52.9c0-9.1,0.3-8.6-7.5-9.6v-2.5h23.5v2.5
		c-7.9,1.1-7.5,0.6-7.5,9.6v52.9h7.9c7.6,0,9.4-5.4,12.3-11.8h2.2l-2.4,14.9H1036.1L1036.1,291.4z M1086.5,291.4v-2.5
		c4,0,6.5-2.4,9.4-8.8l13.5-29.7v-15c0-9.1,0.3-8.6-7.5-9.6v-2.5h23.6v2.5c-7.9,1.1-7.5,0.6-7.5,9.6v10.9c0,2.4,0.2,5.2,1.1,7.1
		l14.6,29.5c2.4,4.7,4.7,5.9,7.2,5.9v2.5h-18.1v-2.5c5.2,0,8-2.8,5-8.8l-12.1-24.5l-10.6,24.5c-2.2,5.1-2.8,8.8,3.9,8.8v2.5
		L1086.5,291.4L1086.5,291.4z M935.6,288.2h6.7c6.4,0,11.7-3.7,11.7-14.3c0-11-3.5-17.4-11.1-17.4h-7.3L935.6,288.2L935.6,288.2z
		 M1166.4,268.7c-12,0-21.6-10.2-21.6-24c0-12.4,8.6-22.3,19.5-22.3c12.7,0,21.8,11,21.8,24.5
		C1186.1,256.7,1178.9,268.7,1166.4,268.7L1166.4,268.7z M1186.6,267.9v-1.7c5.2-0.7,4.9-0.4,4.9-6.3v-28.7c0-5.9,0.2-5.6-4.9-6.3
		v-1.7h15.5v1.7c-5.2,0.7-4.9,0.4-4.9,6.3v13.1h5.5c3.9,0,5.1-2.3,5.3-6.1h1.5v13.7h-1.5c-0.1-4-1.7-5.6-5.3-5.6h-5.5v19.5h7.8
		c4.1,0,5.1-3.5,5.9-8.2h1.5v10.3L1186.6,267.9L1186.6,267.9z M1165.2,266.4c7,0,14.4-6.2,14.4-21.5c0-8.6-3-20.3-13.7-20.3
		c-7.4,0-14.5,7.9-14.5,23.4C1151.4,256.7,1155.4,266.4,1165.2,266.4L1165.2,266.4z M683.2,229.1h23.5c1.9,0,3.8-0.1,5.6-0.2v-10.8
		c0-31-10-50.9-29.2-56.4L683.2,229.1L683.2,229.1z M722.5,227.6c32-6.5,48.8-33.5,48.8-76.1c0-65.2-27-86.9-61.8-86.9
		c-20.9,0-26.4,0.3-26.4,28.5V151c20.8,5.4,39.3,25.1,39.3,66.2v10.4L722.5,227.6L722.5,227.6z M917,207.3
		c-9.3-27.5-22.4-68.3-27.2-79.2c-1.1-2.5-2.7-4.3-4.5-5.3c-5.9,0.6-8.6,2.6-8.6,9.4v58c0,11.6-0.5,11,9.6,12.3v3.2h-30.2v-3.2
		c10.1-1.4,9.6-0.7,9.6-12.3v-56.1c0-11.6,0.4-11-9.6-12.3v-3.2h25.6h20.4h9.1l3.4,22.4h-2.8c-4.2-11-4.5-16.4-13.6-17.9
		c-2,1.6-2.6,4.5-1.7,7.7l5.2,16.7h28.6l4.8-16.1c1.8-5.5,1.1-9.6-5.9-9.6v-3.2h26.1v3.2c-4.8,0-6.6,4-9.1,11
		c-3.8,11.1-15.2,49.5-22.9,74.5L917,207.3L917,207.3z M1065,207.3c-9.3-27.5-22.4-68.3-27.2-79.2c-1.8-4.1-5-6.2-8.1-6.2v-3.2h20.4
		v3.2c-4.9,0-7.1,4.1-5.6,9l5.2,16.7h28.6l4.8-16.1c1.8-5.5,1.1-9.6-5.9-9.6v-3.2h16.5h9.7h20.5v3.2c-10.1,1.4-9.6,0.7-9.6,12.3v23
		h10.5c13.6-25,17.2-38.6,23.8-38.6h4.7h6.9h48.3l3.4,22.4h-2.9c-5.2-13.3-4.4-18.4-20.6-18.4c-10.1,0-14.5,0.9-14.5,11.5v28.2h9.4
		c7.5,0,10.1-4.4,10.3-11.7h2.9V177h-2.9c-0.2-7.7-3.3-10.8-10.3-10.8h-9.4v35.6h15.2c8.1,0,10.3-6.9,11.4-16.1h2.9v20.1h-50h-0.1
		v-3.2c10.1-1.4,9.6-0.7,9.6-12.3v-56.1c0-9.6,0.3-10.8-5.4-11.7c-3.8,3.9-8.7,10.9-13.2,18.2l-11,18.6c8.6,3.7,15.7,12.6,15.7,25.4
		c0,14.6-11.3,21.2-22.6,21.2h-32.6v-3.2c10.1-1.4,9.6-0.7,9.6-12.3v-56.1c0-8.4,0.2-10.4-3.5-11.4c-2.4,1.6-3.8,5-5.6,10
		c-3.8,11.1-15.3,49.5-22.9,74.5L1065,207.3L1065,207.3z M935.9,205.8v-3.2c5.9,0,9.6-5.1,12.8-17.3l16.9-66.6h4.8l22.4,67.6
		l22.5-67.6h5.2l20.9,74.2c1.9,6.9,6.4,9.7,9.7,9.7v3.2h-24.7v-3.2c9.1-0.1,11-3.9,8.9-11.6c-4.9-17.7-9.6-35.4-14.7-52.8h-0.2
		l-22.2,66.5h-4.3l-22.5-67.4h-0.2l-13.3,53.6c-2.2,8.5,0.3,11.7,7.4,11.7v3.2L935.9,205.8L935.9,205.8z M798.4,205.8v-3.2
		c10.1-1.4,9.6-0.7,9.6-12.3v-56.1c0-11.6,0.4-11-9.6-12.3v-3.2h55.2l3.4,22.4h-2.9c-5.2-13.3-4.4-18.4-20.6-18.4
		c-10.1,0-14.5,0.9-14.5,11.5v28.2h9.4c7.5,0,10.1-4.4,10.3-11.7h2.9V177h-2.9c-0.2-7.7-3.3-10.8-10.3-10.8H819v35.6h15.1
		c8.1,0,10.3-6.9,11.4-16.1h2.9v20.1L798.4,205.8L798.4,205.8L798.4,205.8z M1114.1,201.8h8.6c8.2,0,14.9-4.7,14.9-18.3
		c0-14.1-4.5-22.3-14.2-22.3h-9.3V201.8L1114.1,201.8z M916.7,192.7h0.2l11.9-40.5h-25.4L916.7,192.7L916.7,192.7z M1064.6,192.7
		h0.2l11.9-40.5h-25.5L1064.6,192.7z"/>
</g>
</svg>
