<svg xmlns="http://www.w3.org/2000/svg" width="590" height="644.89" viewBox="0 0 590 644.89"><title>bubblestop</title><path d="M521.36,441.45a259.36,259.36,0,0,1-97.69,203H99.3a259.36,259.36,0,0,1-97.69-203C1.61,297.92,118,181.58,261.48,181.58S521.36,297.92,521.36,441.45Z" fill="#fff"/><path d="M157.33,572.4H96.74a109.92,109.92,0,0,1-4.57,13.22h69.75C159.81,580.89,158.76,576.6,157.33,572.4Z" fill="#fff"/><path d="M198.44,434.48a12.83,12.83,0,0,1-12.25-10.71,11,11,0,0,1-.1-3.95l-3.28-.77-.87-.2-1.15-.28-.68-.2-.48-.09-.77-.2-3.09-.67-1.25-.29-2.13-.48-1.15-.29-.49-.1-.48-.1-.67-.19-1.64-.39-1.45-.28-2.32-.58-1.35-.29-1.73-.39-1.84-.38-1.35-.29-.19-.1h-.1l-.58-.1-.48-.09-.38-.1-.49-2.6L68,425.61l1,5.69-1.25.77-1.45,1-.58.38-.48.29-.48.29-1.07.68-1.83,1.15-1.06.68-2.7,1.73-.68.39-.38.29-.58.39-1.06.67-.77.48-2.9,1.84A12.44,12.44,0,0,1,53,446.06a13.09,13.09,0,0,1-2.22,9.74,12.84,12.84,0,0,1-8.39,5.31l-1.64.29a12.73,12.73,0,0,1-3.28.19l2.7,15.53-4.92.87,1,5.4c.1.48.19,1,.29,1.45s.19.87.29,1.35c.29,1.35.58,2.6.87,3.86s.58,2.31,1,3.47c.2.58.39,1.16.58,1.74l.29.86c.19.58.39,1.16.58,1.74.1.19.19.48.29.68s.1.38.19.58,0,.28.1.38a55.48,55.48,0,0,0,2.8,6.56c.19.39.38.68.58,1.06A76.35,76.35,0,0,0,47.76,514a8.53,8.53,0,0,0,.77,1.26,82.28,82.28,0,0,0,7.72,10.32c.29.29.48.58.77.87a86.48,86.48,0,0,0,43.59,26,125.54,125.54,0,0,1-3,16.74c-.38,1.35-.77,2.8-1.16,4.25-.09.38-.19.77-.29,1.15l1.64.29a156.19,156.19,0,0,0,56.05.77l4.25-.77c-.2-.48-.29-1-.49-1.44s-.29-.87-.38-1.36c-.29-1-.58-1.92-.77-2.89a127.18,127.18,0,0,1-3.12-18,87.12,87.12,0,0,0,11.32-4,11.19,11.19,0,0,0,1.83-.78A86.24,86.24,0,0,0,209.73,501c.09-.38.29-.67.38-1.06A79.1,79.1,0,0,0,214,487.64c.1-.49.19-1,.29-1.45a67.5,67.5,0,0,0,1.25-7.72c0-.38.1-.77.1-1.16a57.55,57.55,0,0,0,.48-7.13v-3.86Z" fill="#66534d"/><path d="M491.79,644.62h-289v-8.81a152.67,152.67,0,0,0,29.9-19.49,176.56,176.56,0,0,0,35.4-40,204.49,204.49,0,0,0,23-47.85c1.07-3.18,2-6.36,3-9.54.68-2.41,1.35-4.92,2-7.44q2.6-10.62,4.24-21.7t2.21-22.57c.11-1.26.11-2.61.2-3.86v-1.64c0-.07,0-.12,0-.19H392c0,.77,0,1.54.06,2.31,0,1.16.09,2.23.09,3.38.39,7.67,1.11,15.22,2.18,22.6a214.58,214.58,0,0,0,4.29,21.67c.38,1.64.87,3.39,1.35,5,.2.77.49,1.64.67,2.41.39,1.44.77,2.8,1.26,4.24.09.38.29.87.38,1.26A206.53,206.53,0,0,0,422,568.87a184.08,184.08,0,0,0,34.34,42.53c1.35,1.26,2.7,2.51,4.16,3.68a160.29,160.29,0,0,0,21,15.14c1,.58,1.93,1.15,2.81,1.64A14.68,14.68,0,0,1,491.79,644.62Z" fill="#3c2c6a"/><path d="M343.72,481.46c0,5.79-8.78,5.79-8.68,0C334.94,475.67,343.72,475.67,343.72,481.46Z" fill="#1d1533"/><path d="M342.56,480.4c0,5.79-8.78,5.79-8.68,0C333.78,474.52,342.56,474.52,342.56,480.4Z" fill="#fff"/><path d="M343.72,557.48c0,5.79-8.78,5.79-8.68,0C334.94,551.69,343.72,551.69,343.72,557.48Z" fill="#1d1533"/><path d="M342.56,556.42c0,5.79-8.78,5.79-8.68,0C333.78,550.63,342.56,550.63,342.56,556.42Z" fill="#fff"/><path d="M343.72,633.59c0,5.79-8.78,5.79-8.68,0C334.94,627.8,343.72,627.8,343.72,633.59Z" fill="#1d1533"/><path d="M342.56,632.43c0,5.79-8.78,5.79-8.68,0C333.78,626.65,342.56,626.65,342.56,632.43Z" fill="#fff"/><path d="M368.22,340.91c0,26.24-40.9,26.24-40.51,0C327.32,314.77,368.22,314.77,368.22,340.91Z" fill="#7a5c63"/><path d="M293.36,529.7c-1.06,3.37,1.26,6.07,4.63,7.23,4.44,1.45,9.55-.29,11.87-3.76l37.43-62.71-44.18-8Z" fill="#1d1533"/><path d="M401.31,529.7l-9.74-67.24-44.19,8,37.43,62.71c2.22,3.47,7.34,5.21,11.87,3.76C400.06,535.77,402.37,533.07,401.31,529.7Z" fill="#1d1533"/><path d="M288,508.47,303.2,461.4l44.09,9.74L302,516.19a9.07,9.07,0,0,1-11.77,1C287.38,515.13,286,511.75,288,508.47Z" fill="#4a3585"/><path d="M404.3,517.15a3.85,3.85,0,0,1-1.06.68,7.48,7.48,0,0,1-2.7.87c-.29,0-.58.09-.87.09h-1.45a8.94,8.94,0,0,1-5.69-2.6l-44.08-43.8h0l-.68-.57-.48-.49-.1-.09-.09-.1h.19l.29-.1h.19l15.44-3.37h.09l.48-.1h.1l27.49-6.08.1.2.68,2,14.56,44.86C408.45,511.75,407.19,515.13,404.3,517.15Z" fill="#4a3585"/><rect x="346.81" y="470.46" width="0.96" height="174.32"/><path d="M210.11,639.48v5.21H44a8.69,8.69,0,0,1,1.14-4.33,8.26,8.26,0,0,1,3.11-3.1,91.15,91.15,0,0,0,12.83-9c.78-.69,1.64-1.36,2.42-2a101.79,101.79,0,0,0,17.93-20.94c2.42-3.66,4.64-7.33,6.66-11.08a90.51,90.51,0,0,0,5.67-12.73l3.62.76a158.91,158.91,0,0,0,56.91.79l6.18-1a122.16,122.16,0,0,0,9.33,18.88,104.43,104.43,0,0,0,22.09,26.53A90.65,90.65,0,0,0,210.11,639.48Z" fill="#118669"/><path d="M113.26,492.17c3.09,17.56-24.6,22.38-27.59,4.82C82.58,479.73,110.08,474.13,113.26,492.17Z" fill="#fff"/><path d="M174.42,483.49c3.09,17.84-24.7,22.67-27.59,4.82C143.55,470.46,171.33,465.64,174.42,483.49Z" fill="#fff"/><path d="M109.3,490.43c1.45,8.59-11.77,10.9-13.31,2.32S107.76,481.85,109.3,490.43Z"/><path d="M168.63,481c1.45,8.59-11.77,10.9-13.31,2.31S167.18,472.39,168.63,481Z"/><path d="M164.1,518.12c1.44,8.59-11.77,10.9-13.32,2.31S162.55,509.53,164.1,518.12Z"/><path d="M143.45,495.35c2.61,14.86-20.54,18.91-23,4C117.7,484.55,140.85,480.5,143.45,495.35Z" fill="#99776b"/><path d="M37.38,499.32C48.23,488.64,64.82,505,54,515.56S26.53,509.91,37.38,499.32Z" fill="#453835"/><path d="M58.57,504.81a14,14,0,0,0-4.47-7c-.37-.32-.76-.62-1.15-.9a12.86,12.86,0,0,0-1.31-.81,13.16,13.16,0,0,0-2.93-1.22,12,12,0,0,0-9.3,1.12,12.88,12.88,0,0,0-2.38,1.7c-.22.19-.44.4-.66.62s-.28.28-.41.41a13.87,13.87,0,0,0-1,1.09,11.76,11.76,0,0,0-2.59,8,13.17,13.17,0,0,0,3.88,8.43A13.83,13.83,0,0,0,45,520.41c.34,0,.67,0,1,0a11.86,11.86,0,0,0,5.23-1.2A14.1,14.1,0,0,0,55,516.6C58.39,513.26,59.67,509.07,58.57,504.81ZM45.23,517.52a11.07,11.07,0,0,1-6.88-3.37c-3.23-3.3-4.58-8.51-.7-13,.23-.27.47-.53.74-.79h0l.35-.33a11.79,11.79,0,0,1,1.38-1.09l.28-.17a9.22,9.22,0,0,1,5-1.47,9.92,9.92,0,0,1,2.56.35,6.75,6.75,0,0,1,.76.25,11.11,11.11,0,0,1,3,1.67,11.08,11.08,0,0,1,4,6,9.12,9.12,0,0,1-2.8,9,11.09,11.09,0,0,1-3.4,2.31A9,9,0,0,1,45.23,517.52Z"/><path d="M36.66,473.65c16.89-7.91,29.52,17.65,12.64,25.56S19.88,481.65,36.66,473.65Z" fill="#453835"/><path d="M56.56,479.17c-.24-.44-.5-.86-.77-1.28s-.55-.79-.85-1.16a16,16,0,0,0-3.52-3.35,14.41,14.41,0,0,0-12.31-2.15,17.11,17.11,0,0,0-3.06,1.11h0c-.45.21-.88.43-1.29.67s-.83.5-1.22.77c-7,4.83-7.44,12.93-4.58,19a17.19,17.19,0,0,0,6.07,7c.42.27.84.51,1.28.74a11.26,11.26,0,0,0,1.37.62,13.73,13.73,0,0,0,4,1c.44,0,.87.06,1.31.06a16.49,16.49,0,0,0,7-1.64,19.18,19.18,0,0,0,1.8-1A13.81,13.81,0,0,0,53,498.7a12.27,12.27,0,0,0,1.13-.92,13.65,13.65,0,0,0,4.57-9.19A16.67,16.67,0,0,0,56.56,479.17Zm-.78,9.17a10.9,10.9,0,0,1-4.14,7.73,12.78,12.78,0,0,1-1.31.93,14.86,14.86,0,0,1-1.63.89h0a12.68,12.68,0,0,1-8.2,1.12,2.25,2.25,0,0,1-.35-.09,9.57,9.57,0,0,1-1.69-.56,11.56,11.56,0,0,1-1.41-.7,14.14,14.14,0,0,1-5.48-6.14c-2.4-5.06-2-11.52,3.7-15.4a11.87,11.87,0,0,1,1.25-.76c.25-.15.51-.28.78-.41s.4-.18.59-.26a17.17,17.17,0,0,1,1.74-.61,11.74,11.74,0,0,1,10.16,1.66,13.45,13.45,0,0,1,2.39,2.13,14.31,14.31,0,0,1,1,1.22,9.89,9.89,0,0,1,.8,1.26A13.79,13.79,0,0,1,55.78,488.34Z"/><path d="M46.12,449c20.26-1.35,23,29.62,2.7,31S25.86,450.3,46.12,449Z" fill="#453835"/><path d="M64.14,463.69c0-.28,0-.57-.08-.85-.06-.49-.12-1-.22-1.46s-.2-1-.33-1.44a16.5,16.5,0,0,0-10.37-11.55,17.39,17.39,0,0,0-5.73-.93c-.45,0-.92,0-1.39.05s-.84.06-1.25.12-1,.15-1.43.24-1,.22-1.42.36a14.86,14.86,0,0,0-9.4,7.89,18.79,18.79,0,0,0,1,17.68c.12.2.24.39.37.57s.3.43.46.64a13.51,13.51,0,0,0,.91,1.12,14,14,0,0,0,1.61,1.57,16,16,0,0,0,10.59,3.71c.48,0,1,0,1.47,0a18.78,18.78,0,0,0,5-1,13.78,13.78,0,0,0,1.36-.55c.45-.2.87-.41,1.28-.64C62.21,475.88,64.52,469.53,64.14,463.69ZM40,476.44a12.32,12.32,0,0,1-2.15-1.74,12.17,12.17,0,0,1-1-1.14c-.21-.26-.4-.53-.59-.81-.09-.12-.18-.26-.26-.39a15.84,15.84,0,0,1-.91-15,12.14,12.14,0,0,1,7.41-6.31,12.47,12.47,0,0,1,1.4-.36,10.81,10.81,0,0,1,1.44-.24l.85-.08a14.62,14.62,0,0,1,6.56.94,13.5,13.5,0,0,1,7.88,9.09,19.51,19.51,0,0,1,.55,2.9c0,.19,0,.37,0,.56.34,5-1.57,10.19-6.3,12.84a10.09,10.09,0,0,1-1.32.64,12.53,12.53,0,0,1-1.46.51,17,17,0,0,1-3.45.59A14,14,0,0,1,40,476.44Z"/><path d="M63.39,429.76c20.45,5.88,12,37.23-8.4,31.44S42.93,423.87,63.39,429.76Z" fill="#453835"/><path d="M68.86,430.62a19.35,19.35,0,0,0-5.08-2.25c-.49-.15-1-.27-1.47-.37s-1-.18-1.43-.25-1-.11-1.45-.14a15.53,15.53,0,0,0-12,4.41,19.67,19.67,0,0,0-5.55,16.21q.09.72.24,1.44c.05.25.11.5.17.74a5.12,5.12,0,0,0,.19.67A16.1,16.1,0,0,0,47.59,459a18.54,18.54,0,0,0,7,3.62,19.38,19.38,0,0,0,5.34.78c.43,0,.85,0,1.26,0s1-.1,1.43-.18a10.64,10.64,0,0,0,1.43-.31c6.09-1.62,10.2-6.75,11.78-12.29.15-.54.29-1.09.4-1.65s.17-1,.23-1.46.09-1,.11-1.48A16.93,16.93,0,0,0,68.86,430.62Zm4.85,15c0,.51-.06,1-.12,1.49a14.14,14.14,0,0,1-.24,1.45c-.09.41-.18.82-.3,1.21-1.29,4.54-4.61,8.75-9.54,10.18a10.87,10.87,0,0,1-1.42.33,13.21,13.21,0,0,1-1.44.16A16.76,16.76,0,0,1,49.78,457a13.13,13.13,0,0,1-4.42-6.52c-.09-.25-.16-.51-.23-.78s-.1-.42-.13-.63a11.66,11.66,0,0,1-.23-1.44,16.61,16.61,0,0,1,4.7-13.52,12.69,12.69,0,0,1,9-3.63H59c.47,0,.95.06,1.43.12s.95.15,1.43.25.72.18,1.09.28a16.9,16.9,0,0,1,3.78,1.58A13.83,13.83,0,0,1,73.71,445.61Z"/><path d="M85.09,417c17.85,11.48.77,39.17-17.07,27.69S67.15,405.54,85.09,417Z" fill="#453835"/><path d="M91.62,421.51a18.29,18.29,0,0,0-5.75-5.7,17.58,17.58,0,0,0-1.65-1c-.44-.23-.88-.44-1.31-.63s-.91-.37-1.36-.52c-8.23-2.8-15.61,1.48-19.45,7.47a19.67,19.67,0,0,0-2.67,6.44c-.11.48-.19,1-.26,1.44s-.11,1-.14,1.44a16.94,16.94,0,0,0,.91,6.56,17.48,17.48,0,0,0,7.29,8.87,19.24,19.24,0,0,0,6.12,2.63c.48.1,1,.18,1.42.24a12.12,12.12,0,0,0,1.47.11h.45c6.06,0,11.25-3.65,14.28-8.35a20.62,20.62,0,0,0,1.65-3.16c.19-.46.35-.91.51-1.37s.29-.92.4-1.39a18.49,18.49,0,0,0,.55-4.44A16.22,16.22,0,0,0,91.62,421.51Zm-.77,11.93c-.11.49-.23,1-.39,1.46a12.83,12.83,0,0,1-.51,1.38A16.62,16.62,0,0,1,88.53,439c-2.53,3.94-6.88,7-12,7a14.05,14.05,0,0,1-1.44-.08,12,12,0,0,1-1.43-.27,15.36,15.36,0,0,1-4.91-2.12,14.45,14.45,0,0,1-6.36-8,13.36,13.36,0,0,1-.55-4.6,14,14,0,0,1,.14-1.45,9.77,9.77,0,0,1,.28-1.41,16.75,16.75,0,0,1,2.23-5.27c2.58-4,6.81-7,11.8-7a13.37,13.37,0,0,1,4.26.72c.46.16.91.33,1.37.54s.9.43,1.36.68.65.37,1,.59a16.22,16.22,0,0,1,4.19,3.81A13.57,13.57,0,0,1,90.85,433.44Z"/><path d="M216.31,486.1c-12.59,8.76-26.31-10.34-13.72-19S228.9,477.33,216.31,486.1Z" fill="#453835"/><path d="M222.25,473.62a14.53,14.53,0,0,0-2.05-4.26,15.6,15.6,0,0,0-1.81-2.15,13.92,13.92,0,0,0-3.06-2.26l-.21-.12a13.61,13.61,0,0,0-1.35-.61,12.93,12.93,0,0,0-1.49-.48h0a12.63,12.63,0,0,0-10.5,2.15,14.77,14.77,0,0,0-1.9,1.56,10.77,10.77,0,0,0-1.08,1.18,10.92,10.92,0,0,0-.88,1.21,11.51,11.51,0,0,0-1.72,7.16,13.87,13.87,0,0,0,2,6,14.57,14.57,0,0,0,4.87,4.91,11.07,11.07,0,0,0,1.26.69,12.26,12.26,0,0,0,5.26,1.22,12.13,12.13,0,0,0,3.84-.64l.2-.07a14.22,14.22,0,0,0,3.52-1.82,12.26,12.26,0,0,0,5.53-8.82A12.46,12.46,0,0,0,222.25,473.62Zm-7.86,12a9.39,9.39,0,0,1-8.83.4,7.33,7.33,0,0,1-.73-.39,11.77,11.77,0,0,1-4.69-5,10.8,10.8,0,0,1-1.06-3.79,9.1,9.1,0,0,1,3-7.41,10.31,10.31,0,0,1,1.35-1.08,4,4,0,0,1,.46-.3,10.1,10.1,0,0,1,5.47-1.69h0a9,9,0,0,1,2.13.25l.08,0a8.33,8.33,0,0,1,1.5.52,10.66,10.66,0,0,1,2.42,1.47,4.14,4.14,0,0,1,.6.52,11.29,11.29,0,0,1,1.74,2,11.68,11.68,0,0,1,1.75,3.79,9.82,9.82,0,0,1,.29,2.35,9.31,9.31,0,0,1-4.38,7.75A12,12,0,0,1,214.39,485.58Z"/><path d="M214.16,463.71c-10.8,14.57-33.47-1.64-22.57-16.2S225,449.15,214.16,463.71Z" fill="#453835"/><path d="M218.16,452.79a15.71,15.71,0,0,0-6.12-9.12,16.6,16.6,0,0,0-8.12-3.24,14.48,14.48,0,0,0-1.47-.08l-.75,0-.49,0-.28,0a14.69,14.69,0,0,0-10.5,6.22,16.53,16.53,0,0,0-2.12,3.71,12.84,12.84,0,0,0-.51,1.43,13.71,13.71,0,0,0-.34,1.44,13.39,13.39,0,0,0,.93,7.76,16.84,16.84,0,0,0,9.52,8.86,11.91,11.91,0,0,0,1.43.46,13.7,13.7,0,0,0,1.54.35c.26.05.53.08.79.11a13.65,13.65,0,0,0,1.79.11,13.91,13.91,0,0,0,6.54-1.61,16.53,16.53,0,0,0,4.17-3.28,13.5,13.5,0,0,0,1-1.15l.09-.11.11-.15A14.28,14.28,0,0,0,218.16,452.79ZM213,462.85c-.24.31-.47.61-.73.89a11.55,11.55,0,0,1-1.19,1.23,12.49,12.49,0,0,1-1.73,1.31,11.09,11.09,0,0,1-5.48,1.69,11.81,11.81,0,0,1-1.87-.08l-.41-.06a13,13,0,0,1-1.73-.38,13.93,13.93,0,0,1-8.83-7.61,10.6,10.6,0,0,1-.58-6.77,12.23,12.23,0,0,1,1.28-3.15,13.72,13.72,0,0,1,1-1.56,12.1,12.1,0,0,1,6.95-4.82,10.48,10.48,0,0,1,1.74-.27,8.44,8.44,0,0,1,.87,0l.7,0,.3,0a13.94,13.94,0,0,1,7,2.72,12.8,12.8,0,0,1,5,7.43,9.89,9.89,0,0,1,.24,2.23,11.65,11.65,0,0,1-1.92,6.26C213.45,462.23,213.24,462.54,213,462.85Z"/><path d="M202.2,441.24c-5.79,18.71-34.44,10.41-28.75-8.3S208,422.62,202.2,441.24Z" fill="#453835"/><path d="M200.54,426.55A18.12,18.12,0,0,0,186,421.07a3.27,3.27,0,0,0-.45,0c-.48.05-1,.13-1.43.22-.15,0-.29.06-.44.09l-1,.25a15.57,15.57,0,0,0-10.61,10.84,17.44,17.44,0,0,0-.81,5.7,9.76,9.76,0,0,0,.11,1.44,12.92,12.92,0,0,0,.24,1.43c1.33,5.8,6.07,9.77,11.22,11.35a18.71,18.71,0,0,0,4.63.79h.71l.77,0c.51,0,1-.07,1.52-.14A15.35,15.35,0,0,0,203,443.25c.05-.1.09-.2.13-.3.13-.35.27-.72.38-1.1l.06-.18c.13-.42.24-.82.34-1.24A14.68,14.68,0,0,0,200.54,426.55Zm-.84,17a12.47,12.47,0,0,1-9.77,6.71,14.67,14.67,0,0,1-1.62.1,16,16,0,0,1-4.63-.69c-4.26-1.32-8.17-4.6-9.22-9.39a9.75,9.75,0,0,1-.24-1.45,10.9,10.9,0,0,1,0-1.52,14.66,14.66,0,0,1,.65-3.93,12.78,12.78,0,0,1,8-8.68,10.62,10.62,0,0,1,1.46-.43h.05a9.44,9.44,0,0,1,1.41-.24,4.36,4.36,0,0,1,.52-.05q.61-.06,1.23-.06a15.1,15.1,0,0,1,10.95,4.62,11.8,11.8,0,0,1,2.77,10.91c-.07.33-.15.67-.25,1,0,.13-.07.26-.11.38h0c-.11.39-.25.76-.39,1.13A15.76,15.76,0,0,1,199.7,443.54Z"/><path d="M184.26,423.58c.29,21.22-32.22,22.29-32.51,1.06S184,402.36,184.26,423.58Z" fill="#453835"/><path d="M185.67,422.56c0-.49-.07-1-.14-1.45a13.84,13.84,0,0,0-.26-1.48c-1.86-8.85-9.61-12.89-16.88-12.89h-.27a19.83,19.83,0,0,0-7.44,1.56q-.68.29-1.32.63c-.42.22-.85.46-1.25.71a17.35,17.35,0,0,0-2.23,1.68,16.93,16.93,0,0,0-5.58,13.34,19.17,19.17,0,0,0,.95,5.85c.15.47.33.91.52,1.35a12.85,12.85,0,0,0,.63,1.29c3.14,5.69,9.32,8.34,15.22,8.34h.27a20.27,20.27,0,0,0,3.72-.41,14.43,14.43,0,0,0,1.44-.36c.47-.12.94-.28,1.41-.45A16.78,16.78,0,0,0,185.71,424v-.45C185.71,423.22,185.69,422.89,185.67,422.56Zm-13,15.27c-.48.14-1,.27-1.45.38a17.81,17.81,0,0,1-3.41.38h-.23c-4.87,0-10-2.16-12.62-6.83a13.08,13.08,0,0,1-.64-1.3,11.71,11.71,0,0,1-.51-1.41,15.92,15.92,0,0,1-.65-4.43,14,14,0,0,1,4.7-11.27,13.47,13.47,0,0,1,1.35-1,13.08,13.08,0,0,1,1.26-.75c.42-.23.87-.44,1.32-.64a17.33,17.33,0,0,1,6.33-1.29h.23a15.14,15.14,0,0,1,9.74,3.38,12.55,12.55,0,0,1,3.93,5.87,14.05,14.05,0,0,1,.62,2.79,14.3,14.3,0,0,1,.11,1.49c0,.14,0,.29,0,.44,0,.38,0,.73,0,1.09a13.71,13.71,0,0,1-8.61,12.61C173.7,437.49,173.21,437.68,172.71,437.83Z"/><path d="M160.82,412.49c6,20.35-25.08,30.1-31.07,9.64S154.84,392.13,160.82,412.49Z" fill="#453835"/><path d="M162.75,414.4a22.16,22.16,0,0,0-.54-2.32c-.12-.39-.24-.78-.38-1.16s-.34-.9-.52-1.33-.41-.87-.63-1.29c-4.26-8.08-13-9.83-20-7.75a19.31,19.31,0,0,0-5.67,2.69c-.39.27-.78.56-1.14.86s-.76.63-1.1,1a16.44,16.44,0,0,0-5.09,10.18,18.24,18.24,0,0,0,.71,7.3,19.16,19.16,0,0,0,1.49,3.71,12.13,12.13,0,0,0,.73,1.26c.26.41.53.81.82,1.18a15.46,15.46,0,0,0,8.78,5.72,18,18,0,0,0,4.15.48,20,20,0,0,0,8.06-1.74c.45-.2.89-.41,1.33-.65s.86-.48,1.27-.74a18.55,18.55,0,0,0,3.43-2.81,16.14,16.14,0,0,0,4.6-11.37A19.35,19.35,0,0,0,162.75,414.4Zm-21.87,17.19a12.71,12.71,0,0,1-7.24-4.76,12.28,12.28,0,0,1-.81-1.22,11.52,11.52,0,0,1-.72-1.34,15.36,15.36,0,0,1-1-2.54,15.73,15.73,0,0,1-.51-7,13.35,13.35,0,0,1,3.7-7.19,10.54,10.54,0,0,1,1.1-1c.37-.32.76-.61,1.15-.89a17.42,17.42,0,0,1,4.89-2.32,16.6,16.6,0,0,1,4.62-.67A13.86,13.86,0,0,1,154,405a13.13,13.13,0,0,1,4.07,4.61c.22.42.43.85.62,1.31s.36.89.52,1.36l.18.58c.08.28.15.55.22.83A13.73,13.73,0,0,1,156.34,427a15.14,15.14,0,0,1-2.49,2.1,13,13,0,0,1-1.28.79,12.57,12.57,0,0,1-1.32.67A16.33,16.33,0,0,1,140.88,431.59Z"/><path d="M135.25,406.22c-7.19-12.5-22.32-8.84-28,.55-14.56-11.21-34.92,10-21.09,24.72,8.68,9.26,20.55,4.84,25.54-3.53C124,437.42,144.63,422.5,135.25,406.22Z" fill="#453835"/><path d="M139,413.27a18.52,18.52,0,0,0-2.41-7.63.51.51,0,0,0-.07-.15c-.21-.37-.44-.74-.68-1.09a13.69,13.69,0,0,0-.84-1.16,15.72,15.72,0,0,0-12.6-6.48,19.67,19.67,0,0,0-15.53,8c-8-5.19-16.83-1.88-21.86,3.66a19.65,19.65,0,0,0-3.45,5.31c-.2.45-.38.9-.53,1.35s-.3.92-.42,1.38a16.48,16.48,0,0,0-.27,7,17.91,17.91,0,0,0,4.77,9A18.74,18.74,0,0,0,90,436.28a13.73,13.73,0,0,0,1.3.61,12.92,12.92,0,0,0,1.37.51,15.46,15.46,0,0,0,4.63.71A15.61,15.61,0,0,0,99,438a19,19,0,0,0,13.12-8c6.5,4.11,14.13,2.41,19.32-1.31.4-.29.78-.57,1.14-.88l.35-.29c.26-.22.5-.46.74-.69A16.84,16.84,0,0,0,139,413.27Zm-8,12.08c-.36.32-.74.61-1.14.9-4.66,3.4-11.66,4.9-17.29.56a1.45,1.45,0,0,0-1.14-.28,1.43,1.43,0,0,0-1,.69,16.22,16.22,0,0,1-11.8,7.92,12.42,12.42,0,0,1-5.12-.5,11,11,0,0,1-1.37-.52,11.64,11.64,0,0,1-1.31-.68,16,16,0,0,1-3.65-2.94,14.85,14.85,0,0,1-4-7.54,13.16,13.16,0,0,1,.1-5.31,12.22,12.22,0,0,1,.38-1.44c.15-.46.32-.92.51-1.36a16.75,16.75,0,0,1,2.93-4.51,15.51,15.51,0,0,1,11.18-5.28,12.91,12.91,0,0,1,8,2.86,1.47,1.47,0,0,0,1.15.27,1.41,1.41,0,0,0,1-.67,16.71,16.71,0,0,1,13.89-7.86,12.69,12.69,0,0,1,6.63,1.92,14.19,14.19,0,0,1,3.76,3.48c.28.38.56.77.83,1.2.15.22.28.45.42.68s.22.4.33.6a15.13,15.13,0,0,1,1.83,6.22,14.11,14.11,0,0,1-4,10.51,13.84,13.84,0,0,1-1.1,1.07Z"/><path d="M203.46,511.85c-.1-10.63-3.52-21.46-9.81-21.51h-.13c-1.74,0-4.92,1-7.24,7.14A39.18,39.18,0,0,0,184.07,512a42.65,42.65,0,0,0,2.5,14.47,16.14,16.14,0,0,0,2.6,4.47,7.52,7.52,0,0,0,2.43,1.95,5.92,5.92,0,0,0,1.24.43,5.84,5.84,0,0,0,.81.17l.35,0a4.83,4.83,0,0,0,1.94-.4c1.67-.68,3.7-2.46,5.3-6.73a37.8,37.8,0,0,0,2.22-13.06c0-.2,0-.39,0-.59S203.47,512.16,203.46,511.85Zm-6.37,13c-1.06,3-2.41,4.34-3.18,4.34-.43,0-1-.41-1.69-1.28a12.91,12.91,0,0,1-1.59-3,25,25,0,0,1-1.16-3.77s0-.05,0-.07a44.56,44.56,0,0,1-1.05-9.09,39.66,39.66,0,0,1,1.91-13,.14.14,0,0,1,0-.06c1.06-3,2.41-4.34,3.18-4.34h.19c1,.19,2.27,1.81,3.34,4.72a37.67,37.67,0,0,1,2,12.45,46.3,46.3,0,0,1-.87,9.2A30,30,0,0,1,197.09,524.87Z" fill="#12a27e"/><polygon points="192.56 600.41 191.59 532.3 195.93 532.3 196.9 600.41 192.56 600.41" fill="#12a27e"/><path d="M210.78,577.84V600.6H179.92V577.84a15.49,15.49,0,0,1,15.43-15.45A15.73,15.73,0,0,1,206.26,567,15.29,15.29,0,0,1,210.78,577.84Z" fill="#66534d"/><circle cx="237.03" cy="511.95" r="48.44" fill="#ba4721"/><path d="M271.29,477.69c14.2,14.21,10.39,41.06-8.53,60s-45.78,22.74-60,8.53a48.45,48.45,0,1,0,68.52-68.51Z" fill="#9e3f20"/><path d="M271.29,477.69c5.7,5.71-5,25.67-23.93,44.59s-38.88,29.63-44.59,23.92c14.21,14.21,41.07,10.39,60-8.53S285.49,491.9,271.29,477.69Z" fill="#ba4721"/><path d="M271.29,477.69a48.45,48.45,0,0,0-68.52,68.51c5.71,5.71,25.67-5,44.59-23.92S277,483.4,271.29,477.69Z" fill="#d74d1f"/><path d="M207.46,494.68a4.82,4.82,0,0,1-3.6-8,49.78,49.78,0,0,1,44.51-16.2A4.83,4.83,0,0,1,247,480a40.15,40.15,0,0,0-35.92,13.07A4.79,4.79,0,0,1,207.46,494.68Z" fill="#fff"/><circle cx="517.03" cy="398.11" r="24.26" fill="#ba4721"/><path d="M534.18,381c7.11,7.12,5.2,20.56-4.27,30s-22.92,11.38-30,4.27A24.26,24.26,0,1,0,534.18,381Z" fill="#9e3f20"/><path d="M534.18,381c2.86,2.86-2.5,12.86-12,22.33s-19.46,14.83-22.32,12c7.11,7.11,20.56,5.2,30-4.27S541.29,388.07,534.18,381Z" fill="#ba4721"/><path d="M534.18,381a24.26,24.26,0,0,0-34.3,34.31c2.86,2.85,12.85-2.51,22.32-12S537,383.81,534.18,381Z" fill="#d74d1f"/><path d="M501,391.45a2.41,2.41,0,0,1-2.14-3.85,24.88,24.88,0,0,1,21.49-10,2.41,2.41,0,0,1-.28,4.82,20.12,20.12,0,0,0-17.34,8.08A2.4,2.4,0,0,1,501,391.45Z" fill="#fff"/><circle cx="575.56" cy="227.22" r="14.44" fill="#ba4721"/><path d="M585.77,217c4.24,4.24,3.1,12.24-2.54,17.88s-13.64,6.77-17.88,2.54A14.44,14.44,0,0,0,585.77,217Z" fill="#9e3f20"/><path d="M585.77,217c1.7,1.7-1.49,7.65-7.13,13.29s-11.59,8.83-13.29,7.13c4.24,4.23,12.24,3.1,17.88-2.54S590,221.25,585.77,217Z" fill="#ba4721"/><path d="M585.77,217a14.44,14.44,0,1,0-20.42,20.42c1.7,1.7,7.65-1.49,13.29-7.13S587.47,218.71,585.77,217Z" fill="#d74d1f"/><path d="M565.81,224.16a1.44,1.44,0,0,1-1.47-2.17,14.86,14.86,0,0,1,12.23-7.06,1.44,1.44,0,1,1,.08,2.87,12,12,0,0,0-9.86,5.7A1.47,1.47,0,0,1,565.81,224.16Z" fill="#fff"/><circle cx="539.73" cy="78.66" r="8.66" fill="#ba4721"/><path d="M545.85,72.54c2.55,2.54,1.86,7.34-1.52,10.72s-8.19,4.07-10.73,1.53a8.66,8.66,0,0,0,12.25-12.25Z" fill="#9e3f20"/><path d="M545.85,72.54c1,1-.89,4.59-4.27,8s-7,5.3-8,4.28c2.54,2.54,7.35,1.86,10.73-1.53S548.4,75.08,545.85,72.54Z" fill="#ba4721"/><path d="M545.85,72.54A8.66,8.66,0,0,0,533.6,84.79c1,1,4.59-.9,8-4.28S546.88,73.56,545.85,72.54Z" fill="#d74d1f"/><path d="M533.88,76.83a.87.87,0,0,1-.88-1.31,8.9,8.9,0,0,1,7.33-4.23.86.86,0,1,1,0,1.72,7.19,7.19,0,0,0-5.92,3.42A.88.88,0,0,1,533.88,76.83Z" fill="#fff"/><path d="M503.9,252.41c-.19-.68-.29-1.26-.48-1.93a12.53,12.53,0,0,0-.48-1.74c-.07-.33-.18-.66-.27-1h0c-40-47.42-103.07-76.29-159.58-75.76-89.33.83-81.41.84-149.71,75.61l-.12.15c-.1.32-.2.65-.27,1a10.26,10.26,0,0,0-.48,1.74c-.2.67-.29,1.25-.49,1.93a96.32,96.32,0,0,0-2.7,21.22v15.92c0,.77.1,1.54.1,2.31.09,2.32.19,4.63.38,6.85s.29,4.15.58,6.17c.1,1.07.2,2.13.39,3.19a7.9,7.9,0,0,0,.19,1.44c.19,1.16.39,2.22.58,3.28a6.1,6.1,0,0,0,.19,1.26c.1.38.1.77.2,1.06s.09.39.09.58a122.23,122.23,0,0,0,2.9,12.15c.19.68.38,1.35.58,2,1.25,4.34,2.79,8.68,4.43,12.83.29.77.68,1.64,1,2.41a149,149,0,0,0,10.22,20,14.07,14.07,0,0,0,1,1.64c19.68,31.35,50.84,53,87.49,62.9l3.28.86H303V463l44.09,9.64L392.11,463V430.68l.85-.2h.1c1.06-.28,2.22-.57,3.28-.86,36.66-9.94,67.82-31.55,87.5-62.9a15.51,15.51,0,0,0,1-1.64,150.2,150.2,0,0,0,10.23-20c.29-.77.67-1.64,1-2.41,1.64-4.15,3.18-8.49,4.44-12.83l.58-2a122.21,122.21,0,0,0,2.89-12.15c0-.19.1-.39.1-.58s.09-.68.19-1.06a5.49,5.49,0,0,0,.19-1.26c.2-1.06.39-2.12.58-3.28a7.13,7.13,0,0,0,.2-1.44c.19-1.06.29-2.12.38-3.19.29-2,.48-4.05.58-6.17s.29-4.53.39-6.85c0-.77.09-1.54.09-2.31V273.63A95.73,95.73,0,0,0,503.9,252.41Z" fill="#99776b"/><path d="M319,317.3c0,31-48.72,31-48.72,0C270.29,286.72,319,285.47,319,317.3Z" fill="#fff"/><path d="M426.57,320.58c0,31.55-49.1,31.55-48.71,0C377.47,289,426.57,289,426.57,320.58Z" fill="#fff"/><path d="M303.38,326.37c0,15.14-23.44,15.14-23.44,0S303.38,311.22,303.38,326.37Z"/><path d="M409.88,329.65c0,15.14-23.44,15.14-23.44,0S409.88,314.5,409.88,329.65Z"/><path d="M348.83,400.08c-21.67,0-35.4-10.38-40.82-30.87a2.41,2.41,0,1,1,4.66-1.23c5,19,17.51,27.88,38.21,27.24C361.45,395,388,386.64,388,368.6a2.41,2.41,0,1,1,4.82,0c0,21.64-29.5,31.13-41.8,31.44C350.28,400.07,349.55,400.08,348.83,400.08Z"/><path d="M368,341.22c0,26.24-40.91,26.24-40.52,0C327.11,315.08,368,315.08,368,341.22Z" fill="#80594c"/><path d="M305.33,192.74a17.29,17.29,0,0,1-2.73,3.62l-20.66-21.18-3.62-3.71a17.39,17.39,0,0,1,27,21.27Z" fill="#453835"/><path d="M306.16,174.18a18.94,18.94,0,0,0-25.33-6.35c-1.18.68-4.33,2.28-3.91,4,.33,1.37,2.79,3.16,3.76,4.15L295,190.6c1.1,1.13,2.21,2.25,3.31,3.39s2.89,3.81,4.34,3.82c1.65,0,3.29-3.12,4-4.35a18.91,18.91,0,0,0-.43-19.28ZM304.07,192a20.66,20.66,0,0,1-1.51,2.22q-9.21-9.47-18.44-18.91l-3.68-3.78a15.94,15.94,0,0,1,25.4,15.62,14.47,14.47,0,0,1-.69,2.5C304.93,190.3,304.07,191.43,304.07,192Z"/><path d="M316,200.62a17.38,17.38,0,0,1-30.24-1.45l23.73-11.35,7.63-3.65A17.53,17.53,0,0,1,316,200.62Z" fill="#453835"/><path d="M305,208.34c-.11-.26-.25-1-.47-1.18-.38-.29-1.43.05-2,.08a5,5,0,0,0,.61,1.15c.4.39.25.11,1,.12s.41-.18.79.34c.26.36.09,1,.61.85Zm14.82-20.48c-.31-1.67-.91-5.82-3.39-5a21,21,0,0,0-2.3,1.1L308,186.94c-3.51,1.67-7,3.35-10.53,5s-7.18,3.44-10.77,5.16c-1.1.52-2.65,1-2.26,2.5.47,1.85,2.33,3.81,3.65,5.11a18.84,18.84,0,0,0,31.75-16.89Zm-3.91,9.86c-5,11.54-21.44,12.74-28.12,2.09l22.16-10.6,6.42-3.07A15.87,15.87,0,0,1,315.9,197.72Z"/><path d="M202.82,293.64,178,305.9l-3.55,1.75a15.81,15.81,0,0,1,28.34-14Z" fill="#453835"/><path d="M199.23,293.8l-2.09,1a7.3,7.3,0,0,1,2.4-.42A3.59,3.59,0,0,0,199.23,293.8Zm4.87-.83a17.26,17.26,0,0,0-31.21,14.66c1.12,2.56,3.27.81,5-.06l7-3.46,8.21-4.06,6.22-3.07C200.67,296.33,205.13,294.92,204.1,293Zm-4.87.83-24,11.87A14.36,14.36,0,0,1,200.78,293Z"/><path d="M199.46,295.85l2.91,27.51.42,3.93a15.81,15.81,0,0,1-3.33-31.44Z" fill="#453835"/><path d="M204.23,327.13l-2.62-24.66-.48-4.44c-.14-1.36,0-3.48-1.73-3.61-2.08-.15-4.78,1.15-6.53,2.17a17.26,17.26,0,0,0,5.2,31.86C199.43,328.73,204.49,329.76,204.23,327.13Zm-17.07-14.08a14.58,14.58,0,0,1,11-15.5l2.63,24.78.38,3.57A14.56,14.56,0,0,1,187.16,313.05Z"/><path d="M193.93,279.81l12.26,24.79,1.75,3.54a15.81,15.81,0,0,0-14-28.33Z" fill="#453835"/><path d="M217.14,289.09c-2.63-9.4-13.49-14.46-22.49-11.15-2.05.76-2.45,1.63-1.53,3.49.44.9.89,1.79,1.33,2.68l2.4,4.86c1.46,2.95,2.91,5.91,4.37,8.85q1.5,3,3,6.06a37.85,37.85,0,0,0,2.43,4.9c2.31,3.28,8.28-4.78,9.26-6.67A17.43,17.43,0,0,0,217.14,289.09Zm-8.59,17L199,286.77q-1.53-3.11-3.07-6.21a14.36,14.36,0,0,1,12.64,25.54Z"/><path d="M206.92,274.93l-26,9.52-3.71,1.36a15.81,15.81,0,0,1,29.68-10.88Z" fill="#453835"/><path d="M208.27,274.4a17.26,17.26,0,0,0-32.94,9.92c.39,1.82.86,3.36,2.94,2.65l1.89-.69,6.58-2.41,9.4-3.45c2.1-.77,4.21-1.53,6.31-2.31C203.88,277.59,209.1,276.5,208.27,274.4ZM189,280l-10.78,4A14.36,14.36,0,0,1,205,274.11Z"/><path d="M201.59,260.39l9.52,26,1.36,3.71a15.81,15.81,0,0,0-10.88-29.68Z" fill="#453835"/><path d="M211.17,282.32q-1.44-4-2.9-7.92c.84,2.13-1.86,1.51-2.18,2.47-.18.55.54,1,.85,1.22.85.53,1.16.39,1.58,1.22a23.44,23.44,0,0,1,.92,2.51,6.72,6.72,0,0,0,.51,1.38c.71,1.05,1.89,1.81,2.61,2.92Zm12.14-11.76a17.49,17.49,0,0,0-21.09-11.86c-1.24.33-2.29.76-2,2.26a25,25,0,0,0,1.06,2.89c.68,1.84,1.35,3.69,2,5.53,1.26,3.44,2.53,6.87,3.78,10.3q.81,2.22,1.63,4.44a61.3,61.3,0,0,0,2.33,6.37c1.89,3.74,8.94-4,10.11-5.81A17.4,17.4,0,0,0,223.31,270.56ZM216,286.28a15.42,15.42,0,0,1-2.72,1.83q-3.88-10.56-7.75-21.13l-2.06-5.63A14.36,14.36,0,0,1,216,286.28Z"/><path d="M214,255.77l-26.84,6.67-3.84.95A15.81,15.81,0,0,1,214,255.77Z" fill="#453835"/><path d="M215.44,255.39a17.25,17.25,0,0,0-33.82,6.26c.16,1.56.31,3.38,2.27,3.1a31.94,31.94,0,0,0,3.34-.83l4.38-1.08,12.06-3,6-1.47C211,258,216,257.53,215.44,255.39Zm-22.7-8.52a14.52,14.52,0,0,1,19.45,7.87L190,260.25l-5.46,1.36A14.58,14.58,0,0,1,192.74,246.87Z"/><path d="M210.31,240.74,217,267.58l1,3.84a15.81,15.81,0,0,0-7.62-30.68Z" fill="#453835"/><path d="M231,255a17.47,17.47,0,0,0-18.93-16c-2,.2-3.52.51-3,2.78.18.84.41,1.67.62,2.5.46,1.88.93,3.75,1.39,5.62q1.29,5.18,2.57,10.35c.92,3.74,1.59,7.66,2.81,11.3s8.27-1.87,9.76-3.44A17.52,17.52,0,0,0,231,255Zm-10,13.54a11.74,11.74,0,0,1-2,1c-1.81-7.23-3.59-14.46-5.39-21.69l-1.48-6A14.36,14.36,0,0,1,221,268.57Z"/><path d="M240,218.67l-27.41,3.73-3.91.54A15.81,15.81,0,0,1,240,218.67Z" fill="#453835"/><path d="M241.42,218.44a17.26,17.26,0,0,0-34.28,1.73c-.09,1.55-.39,4.16,1.75,4.19a23.46,23.46,0,0,0,3.41-.46l4.88-.67L229,221.62l5.64-.76C236,220.68,241.82,220.78,241.42,218.44Zm-25.09,2-6.31.86a14.35,14.35,0,0,1,28.23-3.84Z"/><path d="M256.2,200.44l-27.41,3.73-3.92.53a15.81,15.81,0,0,1,31.33-4.26Z" fill="#453835"/><path d="M253.16,199.39l-.33.05c.37.44.74,1.48,1.4,1.27Zm4.46.83a17.25,17.25,0,0,0-34.28,1.89c-.08,1.6-.3,4.1,1.89,4,1,0,1.93-.26,2.88-.39l4.56-.62,12.8-1.74,6.71-.92C253.57,202.25,258,202.34,257.62,200.22Zm-3.18-1.06c-.05-.09-4.15.63-4.61.69l-4.6.62-12,1.63-7.05,1a14.36,14.36,0,0,1,28.22-3.9Z"/><path d="M226.24,238.18l-27.41,3.73-3.92.53a15.81,15.81,0,0,1,31.33-4.26Z" fill="#453835"/><path d="M227.65,237.88a17.21,17.21,0,0,0-31.17-7.07c-2.19,3.13-3.77,7.69-3,11.56.48,2.5,4.11,1.18,5.86.94l5-.68L216.16,241l5-.69C222.62,240.14,228.11,240.18,227.65,237.88Zm-29.53,2.67-1.86.25A14.37,14.37,0,0,1,224.51,237Z"/><path d="M224.15,222.84l3.73,27.4.53,3.92a15.81,15.81,0,0,0-4.26-31.32Z" fill="#453835"/><path d="M226,225.4l-1.45,0,.67,4.95c.36,2.66,2.05,4.84,2.48,7.57Zm17.11,10.81a17.38,17.38,0,0,0-13.8-14.59c-1.44-.29-5.36-1.08-6.33.45-.78,1.24.31,4.87.5,6.27l.63,4.65q.8,5.77,1.58,11.56c.22,1.65.45,3.3.67,5,.2,1.46,0,5.81,2,6.08s4.64-1.16,6.26-2.1a17.37,17.37,0,0,0,8.52-17.28Zm-13.42,16.22q-1.53-11.27-3.07-22.51l-.78-5.74a14.37,14.37,0,0,1,3.85,28.25Z"/><path d="M350.76,194.75l-19.13-23.61-2.77-3.41a17.39,17.39,0,0,1,21.9,27Z" fill="#453835"/><path d="M357.52,175.94a19,19,0,0,0-20.63-13.1c-2,.28-11.09,2.66-9.14,5.83a48.09,48.09,0,0,0,3.78,4.66q7.88,9.73,15.77,19.45c.66.81,1.3,1.64,2,2.44,1.74,2.05,3.41-.11,4.73-1.69A19.12,19.12,0,0,0,357.52,175.94Zm-24.46-5.32L331,168a16,16,0,0,1,20,24.62l-15.58-19.22Z"/><path d="M364,184l-23.6,19.13L337,205.92A17.39,17.39,0,0,0,364,184Z" fill="#453835"/><path d="M346.62,211.69c-.4-.83-.56-1.49-1.35-1.88a30.05,30.05,0,0,1-3.67-1.75c.53,1.11.82,2.19,2,2.68.94.39,1.14.34,1.55,1.17.57,1.16.9,1.16,2.27,1.36ZM369,193.35a18.7,18.7,0,0,0-2.23-7.71c-1-1.84-2.13-4-4.23-2.31-1.69,1.34-3.36,2.72-5,4.09l-8.85,7.17-9.36,7.59c-1,.82-3.86,2.43-3.74,3.86.08.9,1,1.63,1.64,2.22a18.78,18.78,0,0,0,3.49,2.65,19.44,19.44,0,0,0,4.93,2A18.93,18.93,0,0,0,369,193.35ZM361.7,205.8c-6,6.37-16.42,6.21-22.6.27q9.54-7.75,19.1-15.49l5.51-4.46A16.19,16.19,0,0,1,361.7,205.8Z"/><path d="M374.6,199.17l-16.74-25.35-2.42-3.67a17.39,17.39,0,0,1,19.16,29Z" fill="#453835"/><path d="M383.17,181.13a19,19,0,0,0-19.11-15.07c-2.11.07-11.38,1.49-9.82,4.9a40.09,40.09,0,0,0,3.3,5q7,10.62,14,21.23c.56.85,1.08,1.83,1.72,2.62,1.61,2,3.87-.69,5.07-1.95A19.24,19.24,0,0,0,383.17,181.13Zm-8.21,16-15.29-23.16c-.73-1.09-1.44-2.19-2.17-3.29A16,16,0,0,1,375,197.09Z"/><path d="M388.81,189.79l-25.36,16.74L359.79,209a17.39,17.39,0,0,0,29-19.16Z" fill="#453835"/><path d="M369.08,215.72a7.94,7.94,0,0,0-.7-1.64c-.49-.65-1.88-1-2.64-1.45a16,16,0,0,1-3.06-2.44c-.66-.68-.56-.83-1.33-.27a17,17,0,0,1-1.76,1.13,18.23,18.23,0,0,0,8.4,5.79l-.77-1.8A18,18,0,0,0,369.08,215.72Zm23.56-19.9a18.2,18.2,0,0,0-1.06-3.75c-.4-1-.92-2.63-1.79-3.34-1-.84-2,0-2.88.59l-5.31,3.5-9.75,6.43c-3.41,2.26-6.84,4.5-10.25,6.76-.8.53-1.69,1-2.44,1.61-1.87,1.5.33,3.44,1.51,4.64a18.83,18.83,0,0,0,32-16.44Zm-9.32,16.25c-6.31,5-16.52,3.38-21.45-2.77q10.33-6.86,20.7-13.66l5.75-3.79A16.14,16.14,0,0,1,383.32,212.07Z"/><path d="M326.74,192.77l-21.46-21.52-3.1-3.1a17.39,17.39,0,0,1,24.56,24.62Z" fill="#453835"/><path d="M331.51,173.31c-3.59-8.74-13.68-13.25-22.65-10.63a18.58,18.58,0,0,0-5.88,2.91c-1.48,1.09-3,2.29-1.45,3.95s3.08,3.08,4.61,4.62l17.69,17.74a24.44,24.44,0,0,0,1.83,1.84c1.91,1.51,3.6-1.59,4.47-3A19.14,19.14,0,0,0,331.51,173.31Zm-4.84,17.34q-9.45-9.47-18.89-19l-3.48-3.48A16.15,16.15,0,0,1,325,169C330.84,174.32,332.08,184.47,326.67,190.65Z"/><path d="M398,205.94l-14.29-26.82-2.06-3.87A17.39,17.39,0,0,1,398,205.94Z" fill="#453835"/><path d="M406.16,181.9a19.06,19.06,0,0,0-22-9.2c-1.52.45-4.54,1.09-3.8,3.23a20.5,20.5,0,0,0,1.45,2.74l2.61,4.89q5.94,11.15,11.88,22.28c.42.8.8,1.61,1.87,1.52s2.6-1.47,3.43-2.18a18.74,18.74,0,0,0,4.93-6.44A19,19,0,0,0,406.16,181.9Zm-7.58,22-13-24.47-1.86-3.5a15.95,15.95,0,0,1,14.9,28Z"/><path d="M413.06,197.93l-26.81,14.29-3.88,2.06a17.39,17.39,0,0,0,30.69-16.35Z" fill="#453835"/><path d="M389.72,220.09l.53-.17a14.71,14.71,0,0,1-5.83-5.09c4.75-2.58,9.54-5.09,14.31-7.63-1.42.8-2.14-.87-2.66-1.86l-3.89,2.08a7.78,7.78,0,0,0-1.69.89c-.77.71-1,2-1.84,2.63a30.2,30.2,0,0,1-4,2.13c-1.22.65-2.33,1.39-3.52,1.92a18.66,18.66,0,0,0,9.8,8.38C390.51,222.28,390.11,221.19,389.72,220.09Zm24.63-22.82c-1-2.09-5.41,1.22-6.59,1.85l-4.62,2.45-10.83,5.78c-3.34,1.77-6.71,3.49-10,5.33-1.82,1-1.39,2.15-.27,3.77a19,19,0,0,0,20.58,7.48C413.8,220.8,419.67,207.67,414.35,197.27Zm-9.3,22.59c-6.95,3.48-16.26,1.76-20.63-5,7.3-4,14.66-7.82,22-11.72l6-3.18A16.17,16.17,0,0,1,405.05,219.86Z"/><path d="M422,214.93l-11.8-28-1.7-4a17.39,17.39,0,0,1,13.5,32Z" fill="#453835"/><path d="M432.42,192.21c-2.41-8.18-12.21-12.92-20.2-11.8-1.4.19-5.18.58-5.2,2.48a5.44,5.44,0,0,0,.67,1.88l3.3,7.84q4.58,10.86,9.14,21.72c.3.69.52,1.64,1.29,1.95,1.12.45,2.67-.76,3.53-1.32a18.69,18.69,0,0,0,5.89-6A19,19,0,0,0,432.42,192.21ZM422.69,213,411.93,187.4l-1.54-3.65a15.94,15.94,0,0,1,12.3,29.2Z"/><path d="M437.65,208.32l-28,11.8-4,1.7a17.39,17.39,0,0,0,32-13.5Z" fill="#453835"/><path d="M407.59,222.55q7.49-3.13,15-6.3a1.45,1.45,0,0,1-1.12,0,6,6,0,0,1-.8-.79c-.1,0-.25.14-.35.15a8.68,8.68,0,0,0-2.09.88l-6.46,2.73a7.12,7.12,0,0,0-3.14,1.8c-.48.35-2.11,1-2.37,1.46-.5.9,2.08,3.6,2.85,4.38a12.2,12.2,0,0,1,1.8,1.87c.42.66.5,1.87,1.2,2.24-.4-1.48,1-1.89,2.16-2.12A15.87,15.87,0,0,1,407.59,222.55Zm32.61-10c-.16-1.48-.51-5.72-2.62-5.68a8.63,8.63,0,0,0-2.75,1.06L429,210.39l-10.33,4.35-11.45,4.82c-.84.36-2.4.7-2.88,1.56-.87,1.57,1.76,4.6,2.7,5.71a18.84,18.84,0,0,0,33.14-14.27Zm-12.52,16.87a16.19,16.19,0,0,1-20.09-6.88l23-9.67,6.23-2.63A16.16,16.16,0,0,1,427.68,229.43Z"/><path d="M446.81,226l-10.7-28.44-1.54-4.1A17.39,17.39,0,0,1,446.81,226Z" fill="#453835"/><path d="M459.05,207.65c-.62-8.87-8.8-15.9-17.36-16.54-2.11-.16-9.38-.25-8.38,3.15.67,2.26,1.68,4.46,2.51,6.66q4.44,11.82,8.9,23.64c.29.78.52,2.06,1.18,2.59,1.74,1.41,5.94-2.25,7.13-3.36A19.07,19.07,0,0,0,459.05,207.65Zm-10.63,16c-.26.16-.52.31-.8.45-3.32-8.59-6.49-17.25-9.73-25.87l-1.43-3.79a15.94,15.94,0,0,1,12,29.21Z"/><path d="M461.87,220.85l-28.94,9.25-4.18,1.33a17.39,17.39,0,0,0,33.12-10.58Z" fill="#453835"/><path d="M463.26,220.44c-.7-2.27-5.72.28-7.06.71l-5,1.59-11.67,3.73-5.45,1.74-2.87.91a12.6,12.6,0,0,0-3.27,1.1c-1.65,1.16.38,4.08,1.1,5.26a18.87,18.87,0,0,0,5.1,5.54,18.81,18.81,0,0,0,29.1-20.58ZM450.06,241a16.15,16.15,0,0,1-19.39-8.65q11.44-3.65,22.9-7.32l7.27-2.32A16.17,16.17,0,0,1,450.06,241Z"/><path d="M469.36,241.25,461.23,212l-1.18-4.23a17.39,17.39,0,0,1,9.31,33.51Z" fill="#453835"/><path d="M482.52,219.54a19.13,19.13,0,0,0-19.24-13.76c-1.59.09-4.95.08-4.61,2.38a16.79,16.79,0,0,0,.6,2.15q1,3.76,2.08,7.51,3.18,11.49,6.38,23c.69,2.49,2.33,1.87,4.36.95a19,19,0,0,0,10.43-22.22Zm-12.18,19.83q-3.69-13.32-7.4-26.64l-1.08-3.88a15.94,15.94,0,0,1,8.48,30.52Z"/><path d="M484.84,237.41l-29.65,6.64-4.28,1a17.39,17.39,0,0,0,33.93-7.6Z" fill="#453835"/><path d="M458.26,253.61a16.35,16.35,0,0,1-2.51-2.34,16.79,16.79,0,0,1,1.31,3.27c.2.72.18,1.94.85,2.3-.18-1-.59-2.63.88-2.86Zm28-16.48c-.44-2.18-5.17-.36-6.52-.06l-5.14,1.15-10.75,2.41-8.43,1.89c-1.5.34-3.18.55-4.64,1-3.91,1.31,2.25,9.17,3.86,10.74a18.81,18.81,0,0,0,31.62-17.17Zm-15,19.29a16.15,16.15,0,0,1-18.54-10.33q11.72-2.59,23.42-5.24l7.49-1.69C484.53,247.42,479,254.23,471.28,256.42Z"/><path d="M489.27,260.27l-5.71-29.85-.82-4.31a17.39,17.39,0,0,1,6.53,34.16Z" fill="#453835"/><path d="M504.15,239.71a19.08,19.08,0,0,0-18-15.28c-1.4,0-4.56-.35-4.81,1.57a12.69,12.69,0,0,0,.59,3.37q.6,3.21,1.22,6.42,2.25,11.64,4.47,23.3a7,7,0,0,0,.39,1.81c.63,1.18,1.93.73,2.95.44a18.82,18.82,0,0,0,7.79-4.54A19,19,0,0,0,504.15,239.71ZM490.4,258.48c-1.69-9.05-3.45-18.09-5.18-27.14-.25-1.32-.49-2.66-.76-4a15.94,15.94,0,0,1,5.94,31.12Z"/><path d="M505.45,257.54l-30,4.57-4.34.66a17.39,17.39,0,0,0,34.38-5.23Z" fill="#453835"/><path d="M481.73,275.94c-.08-.62,0-1.39-.43-1.8a8.64,8.64,0,0,0-1.53-.85,17.12,17.12,0,0,1-1.95-1.43c0,.9-.21,1.58.42,2.19s1.77.74,2.1,1.26-.18.86,0,1.33,1,.69,1.57.9Zm25.15-18.59c-.26-2.14-4.55-.8-5.94-.58l-5.55.84c-3.82.57-7.63,1.16-11.44,1.74-4.21.64-8.48,1.12-12.66,1.92s.84,8.57,2.28,10.34a19.12,19.12,0,0,0,12.23,6.87C497.82,280.09,508.47,269.34,506.88,257.35Zm-3,5.26A15.93,15.93,0,0,1,472.82,264q12.09-1.86,24.18-3.68l7.14-1.09A15,15,0,0,1,503.88,262.61Z"/><path d="M507.47,283.55l-3.07-30.23L504,249a17.39,17.39,0,0,1,3.52,34.6Z" fill="#453835"/><path d="M524.1,264.38a19.1,19.1,0,0,0-17.43-16.88c-1.66-.12-4.16-.46-4.13,1.81,0,.94.19,1.91.29,2.84q.35,3.48.71,7c.39,3.74.76,7.49,1.14,11.23l.87,8.64c.13,1.21-.07,4.66.92,5.61,1.46,1.38,5.6-.64,7.06-1.35a19.19,19.19,0,0,0,6-4.55A18.94,18.94,0,0,0,524.1,264.38Zm-15.34,17.48q-1.29-12.56-2.55-25.11l-.66-6.4a15.94,15.94,0,0,1,3.21,31.51Z"/><path d="M251.69,198.18l-21,21.95-3,3.17a17.39,17.39,0,0,0,24-25.12Z" fill="#453835"/><path d="M246.93,203.15l-4.4,4.61-2.75,2.87c-1.07,1.12-1,.84-.23,2.32l9.68-10.11ZM258,207.64a18.57,18.57,0,0,0-2.6-7.09c-.78-1.26-2.66-4.69-4.53-3.55a12.55,12.55,0,0,0-2,2.09c-.71.73-1.41,1.47-2.12,2.21-2.83,3-5.69,5.93-8.53,8.9l-7.91,8.28a48.17,48.17,0,0,0-3.57,3.72c-1.54,2,1.61,3.6,3.07,4.47a18.48,18.48,0,0,0,7,2.44A19,19,0,0,0,258,207.64Zm-4.56,10.43A15.85,15.85,0,0,1,243,226c-4.08.91-10.07.33-13.22-2.82q9-9.39,18-18.8l3.91-4.08A16.12,16.12,0,0,1,253.43,218.07Z"/><path d="M264.66,213.56,245.52,190l-2.77-3.4a17.39,17.39,0,0,1,21.91,27Z" fill="#453835"/><path d="M256.9,201.7c-.9-1.11-1.79-2.22-2.69-3.32a6.22,6.22,0,0,0,.25.84l-1.3.17,1.07,1.32-.41,0c1.17,1.74,1.65,3.77,3,5.38l1.92,2.38,1.56,1.91c.24.29.8,1.31,1.16,1.43s2.05-1.1,2.57-1.42Zm13.92-8.61a19,19,0,0,0-24.37-10.3c-1.4.55-5.4,2-5.13,4,.11.84,1,1.61,1.56,2.25,1.24,1.53,2.49,3.06,3.72,4.59l15,18.44a15.92,15.92,0,0,0,2.1,2.56c2,1.57,4.77-2.81,5.67-4.26A19.14,19.14,0,0,0,270.82,193.09Zm-3.73,15.4a16,16,0,0,1-2.28,3q-8.16-10.08-16.34-20.15c-1.21-1.49-2.42-3-3.62-4.46a15.94,15.94,0,0,1,22.24,21.65Z"/><path d="M284.3,199.38l-25.73,16.16-3.71,2.34a17.39,17.39,0,0,0,29.44-18.5Z" fill="#453835"/><path d="M282.13,200.75c-.37-.25-1-.87-1.4-.83s-1.21.76-1.59,1l-5.49,3.44a12.87,12.87,0,0,0-1.9,1.19c-.7.65-.54,1.78-1.2,2.47s-1.61.85-2.26,1.42c-1.17,1-2,2.61-3.14,3.69l18.29-11.5Zm5.69,3.74c-.33-1.63-1.16-5.51-2.84-6.38-1-.52-2,.39-2.82.91l-4.57,2.87-10.5,6.6-9.87,6.2c-.92.57-1.86,1.12-2.75,1.72-1.78,1.2-.69,2.59.42,3.93A18.94,18.94,0,0,0,267.22,227C279.76,228.49,290.36,216.88,287.82,204.49Zm-9.95,17.34a16.17,16.17,0,0,1-20.93-3.55l21.51-13.51c1.77-1.12,3.53-2.25,5.32-3.34A16.18,16.18,0,0,1,277.87,221.83Z"/><path d="M325.33,211.66l-25.58,16.41-3.69,2.37a17.39,17.39,0,0,0,29.27-18.78Z" fill="#453835"/><path d="M329.29,219.9a18.62,18.62,0,0,0-1.85-7.39c-.88-1.8-1.75-2.81-3.58-1.64l-5.15,3.31q-5.1,3.25-10.18,6.53l-9.27,5.95-3.09,2c-1.33.86-2,1.6-.92,3.15a18.59,18.59,0,0,0,11.85,7.44C318.77,241.38,329.93,231.87,329.29,219.9Zm-3.66-4.15a15.94,15.94,0,0,1-27.49,15.07q11.64-7.44,23.24-14.92l3.42-2.19A11.64,11.64,0,0,1,325.63,215.75Z"/><path d="M340.93,218.49a17.67,17.67,0,0,1-7.25,8.46c-3.32-5.76-6.55-11.59-9.83-17.36q-1.5-2.62-3-5.27l-1.6-2.81c-.45-.8-.56-.73.12-1.41l3.89-3.88c.41-.41,1.06-1.38,1.6-1.6a5.79,5.79,0,0,1,2.33.16,17.91,17.91,0,0,1,3.16.74A17.55,17.55,0,0,1,340.93,218.49Z" fill="#453835"/><path d="M343.58,210.74a18.36,18.36,0,0,0-4.79-11.36c-3.19-3.59-8.73-6.67-13.71-6.22-1.84.17-3.78,3-5.05,4.25-.6.61-1.22,1.21-1.81,1.81a2,2,0,0,0-.29,2.86q6.35,11.21,12.7,22.42a30.86,30.86,0,0,0,1.71,3c1.41,1.93,3.46-.14,4.76-1.26A18.8,18.8,0,0,0,343.58,210.74ZM326,210.36c-1.09-2-2.24-3.93-3.35-5.9l-1.16-2.06c-.15-.27-.8-1.06-.79-1.39s1.47-1.59,1.81-1.93l1.77-1.78c.33-.32.81-1,1.23-1.22.77-.33,2.58.28,3.37.48a16.32,16.32,0,0,1,3.74,1.49,16,16,0,0,1,1.61,26.85C331.39,220.08,328.68,215.21,326,210.36Z"/><path d="M348.5,218.56l-26.44,15-3.82,2.17a17.39,17.39,0,0,0,30.26-17.13Z" fill="#453835"/><path d="M347.17,219.31l-.64-1.3a35.62,35.62,0,0,0-4.79,2.71c-1,.8-1.55,2.22-2.39,3.25a18.92,18.92,0,0,1-4.89,4.2l7.64-4.33,4.56-2.58C347.93,220.54,347.86,220.71,347.17,219.31Zm4.81,6.46c-.13-2.51-.69-5.81-2.2-7.9-1-1.34-2.19-.46-3.3.17L341.31,221l-10,5.68-10,5.66-2.91,1.64c-1.62.92-1.9,1.78-.75,3.46A18.84,18.84,0,0,0,352,225.77Zm-6.43,11.09c-6.4,8.11-19.24,7.53-25.25-.68l21.8-12.34c1.92-1.09,3.83-2.21,5.77-3.26A16.17,16.17,0,0,1,345.55,236.86Z"/><path d="M339.86,203c-1.85,3.07-5.86,5.28-9.19,6.2a17.82,17.82,0,0,1-5.91.55c-1-.07-.8-.05-1.26-.75-1.15-1.72-2.07-3.65-3.09-5.45a17.26,17.26,0,0,1-1.27-2.25c-.05-.13-.32-.4-.31-.54s.5-.38.56-.63c.12-.46-.82-1.17-.69-1.62s1.48-1.13,1.77-1.35l4-3.09c2.15-1.66,4.31-3.3,6.46-4.95l9.13-7A17.52,17.52,0,0,1,339.86,203Z" fill="#453835"/><path d="M337.12,203.87l-.68.62A2.8,2.8,0,0,0,337.12,203.87Zm-1.29,2.91a1.45,1.45,0,0,1,.19-1.94,16,16,0,0,1-10.86,3.45l.75,1.52a5.85,5.85,0,0,0,.4.79c.54.74.83.61,1.79.51a18.36,18.36,0,0,0,8.7-3.25C336.54,207.6,336,207.14,335.83,206.78Zm8.84-17.24a19,19,0,0,0-2.93-7.6c-1.12-1.68-2.1-1.33-3.48-.28l-5.72,4.39-9,6.93-4.81,3.68a6.45,6.45,0,0,0-.88.68c-.68.72-.44,1.09-.33,2,0,.17.18.32.18.48,0,.34-.33.66-.28,1.09a4.19,4.19,0,0,0,.68,1.45q1.43,2.5,2.84,5a26,26,0,0,0,1.7,3c.87,1.13,2.75.91,4.06.87A19,19,0,0,0,344.67,189.54Zm-4.81,10.84a12.77,12.77,0,0,1-1.84,2.56c-.36.41-.77.58-.64,1,.07.25.65.67.84.86-.89-.78-.83-1.14-1.78-.33a15.63,15.63,0,0,1-8.84,3.76c-1,.09-2.36.37-3-.3-1.1-1.11-1.82-3.21-2.59-4.57a14.17,14.17,0,0,1-1.13-2c-.24-.67.12-.82,0-1.59-.13-.94-.48-.51,0-1.17a11.22,11.22,0,0,1,2-1.53l3.17-2.43,5.14-3.93,8.53-6.53A16.13,16.13,0,0,1,339.86,200.38Z"/><path d="M356.21,234.31l-13.48-27.23-1.94-3.93a17.39,17.39,0,0,1,15.42,31.16Z" fill="#453835"/><path d="M367,218.14c-.17-9.8-8.63-17.74-18.26-18.06a18,18,0,0,0-7.87,1.46c-1.59.71-1.69,1.57-1,3l2.58,5.22q5.3,10.66,10.57,21.34c.53,1.06,1,2.13,1.58,3.19,1.29,2.53,3.33.86,5.05-.47A19.12,19.12,0,0,0,367,218.14Zm-10.15,14.15q-5.51-11.13-11-22.27c-1-2-2-4.09-3-6.13a15.95,15.95,0,0,1,14.06,28.4Z"/><path d="M341.36,217.29a17.33,17.33,0,0,1-8.44,9.93q-6.27-12.67-12.55-25.34l-2.88-5.83a17.38,17.38,0,0,1,23.87,21.24Z" fill="#453835"/><path d="M325.89,209.76c-2-4-4-8.11-6-12.17-.27.25-1,.8-1.06,1.13s.53.77.54,1.1-.23.26-.31.64-.13,0-.08.49a5.23,5.23,0,0,0,.67,1.19c.33.58.67,1.16,1,1.75L323,208.1a10.91,10.91,0,0,0,.86,1.53c-.13-.17.83.64.6.53.32.15.2,0,.63.06s.83,0,1.21.38Zm17.79,1a18.81,18.81,0,0,0-26.07-16.36c-2,.81-1.59,1.9-.85,3.42s1.6,3.21,2.39,4.82q5.49,11.1,11,22.17a21.89,21.89,0,0,0,1.5,3c1.52,2.1,4.69-1,5.95-2.14A18.92,18.92,0,0,0,343.68,210.78Zm-3.6,5.72a15.26,15.26,0,0,1-6.56,8.69L322,201.9c-.85-1.7-1.68-3.4-2.52-5.1C331.62,192.32,343.91,204.23,340.08,216.5Z"/><path d="M371.48,226.76l-27.24,13.47-3.93,2a17.39,17.39,0,0,0,31.17-15.42Z" fill="#453835"/><path d="M374.42,231.88c-.19-1.59-.78-6.62-3-6.55a6.6,6.6,0,0,0-2.25.95l-5.68,2.81-10.59,5.25-10.52,5.2a12.77,12.77,0,0,0-3,1.54c-1.49,1.39,1,4,1.9,5.1A19,19,0,0,0,353,252.74C365,254.58,376,244.05,374.42,231.88ZM363.68,248c-7.15,4.44-16.83,1.59-21.34-5.17q11.18-5.5,22.34-11.06l6.05-3A16.15,16.15,0,0,1,363.68,248Z"/><path d="M379.15,242.93,367.2,215l-1.73-4a17.4,17.4,0,0,1,13.68,32Z" fill="#453835"/><path d="M390.41,223.17a19.06,19.06,0,0,0-21.06-14.73c-1.69.23-5.8.64-5.21,3.09a18.55,18.55,0,0,0,1.08,2.52l2,4.74q4.94,11.55,9.88,23.11c.46,1.07.82,2.67,2.32,2.44a9.48,9.48,0,0,0,3.21-1.74,18.72,18.72,0,0,0,3.15-2.75A19.15,19.15,0,0,0,390.41,223.17Zm-10.54,17.77q-5-11.76-10.07-23.53c-.8-1.87-1.59-3.74-2.39-5.6a15.94,15.94,0,0,1,12.46,29.13Z"/><path d="M394.81,236.23l-27.94,12-4,1.72a17.39,17.39,0,0,0,32-13.67Z" fill="#453835"/><path d="M379.87,244.18m17.58-2.8c-.1-1.58-.41-6.49-2.6-6.58a6.19,6.19,0,0,0-2.29.82l-5.86,2.5L375.38,243,364,247.82c-.75.32-1.94.58-2.39,1.28-1,1.49,1.44,4.25,2.3,5.33a18.83,18.83,0,0,0,33.52-13.05Zm-3.71,6.52a16,16,0,0,1-14.31,10.75,16.24,16.24,0,0,1-14.6-8c7.62-3.22,15.22-6.51,22.82-9.76l6.31-2.7A16,16,0,0,1,393.74,247.9Z"/><path d="M401.59,252.78l-10.38-28.56-1.5-4.12a17.39,17.39,0,0,1,11.88,32.68Z" fill="#453835"/><path d="M392,222.27l-.44-1.21c.3-.07.6-.14.9-.19-.87-.28-1.93-1.06-2.78-.78.2.57.4,1.13.61,1.7.55,1.52.58,1.68,2.31,2.14Zm21.49,9.5a19.08,19.08,0,0,0-22.11-13.64c-2,.41-3.62.93-2.82,3.15.3.84.61,1.68.92,2.52q1,2.72,2,5.43,4.13,11.37,8.26,22.72a5.47,5.47,0,0,0,.78,1.8c.85.89,2,.25,2.88-.18a18.63,18.63,0,0,0,6.41-5A19.05,19.05,0,0,0,413.53,231.77Zm-10.71,18.85-.4.21c-3.06-8.58-6.22-17.12-9.34-25.67-.49-1.37-1-2.74-1.48-4.1a15.94,15.94,0,0,1,11.22,29.56Z"/><path d="M417.6,247,389,257.34l-4.13,1.5A17.39,17.39,0,0,0,417.6,247Z" fill="#453835"/><path d="M406.42,251.76a18.8,18.8,0,0,1-4.28,2.36l5.44-2ZM419,246.5c-.73-2.15-5.52.43-6.8.89l-4.93,1.79L395,253.64l-4.83,1.75-3.73,1.36a7.66,7.66,0,0,0-2.38.95c-1.56,1.32.78,4.37,1.6,5.55a18.72,18.72,0,0,0,4.82,4.78,19,19,0,0,0,13,3.22C415.07,269.86,422.73,257.57,419,246.5Zm-2.14,8.81a16,16,0,0,1-27.34,8.11,17,17,0,0,1-1.42-1.75,15.25,15.25,0,0,0-1.2-2c7.49-2.54,14.88-5.4,22.31-8.1l7.47-2.71A15.63,15.63,0,0,1,416.82,255.31Z"/><path d="M423.47,263.85l-8.77-29.09-1.26-4.2a17.39,17.39,0,0,1,10,33.29Z" fill="#453835"/><path d="M436.28,242.34a18.64,18.64,0,0,0-8-10.87,19.07,19.07,0,0,0-7.24-2.76c-2.36-.37-5.93-.62-8.12.53-2,1,.24,5.29.68,6.77s1,3.25,1.48,4.87c2.29,7.61,4.44,15.28,6.89,22.84,1.51,4.67,9.5-2.92,11-4.83A19,19,0,0,0,436.28,242.34Zm-20.72-9.75-.29-1A15.94,15.94,0,0,1,424.41,262q-3.8-12.6-7.6-25.21Z"/><path d="M439.78,258.93l-29.09,8.77-4.2,1.27a17.39,17.39,0,0,0,33.29-10Z" fill="#453835"/><path d="M432.05,261.27c-1-.41-1.05-.22-1.82.44a17.85,17.85,0,0,1-1.87,1.4,18.56,18.56,0,0,1-4.33,2.08l10.08-3Zm9.12-2.72c-.56-2.2-5.59.14-6.84.52l-5,1.52c-4.07,1.24-8.14,2.44-12.21,3.67l-4.91,1.48a41.86,41.86,0,0,0-6.12,1.84c-3.46,1.68,3,8.82,4.59,10.2a19.15,19.15,0,0,0,12.2,4.66C435.17,282.6,444.45,270.37,441.17,258.55ZM428.75,278.5a16,16,0,0,1-19-6.14c-.4-.6-1.33-1.74-1.33-2.45,8.25-2.34,16.42-5,24.63-7.43l5.7-1.72A16.18,16.18,0,0,1,428.75,278.5Z"/><path d="M444.75,276.13l-7.13-29.54-1-4.26a17.39,17.39,0,0,1,8.16,33.8Z" fill="#453835"/><path d="M459.07,257.5c-.87-10.35-10.75-18.08-21-16.89-1.61.18-3.12.4-2.85,2.33a34.14,34.14,0,0,0,.86,3.56l1.23,5.11q2.84,11.75,5.67,23.49c.45,1.85,1,2.8,3,2.15a18.42,18.42,0,0,0,7-4.06A19.12,19.12,0,0,0,459.07,257.5Zm-20.72-14c8.16-1.26,16.14,4.92,17.64,12.86a16.18,16.18,0,0,1-10.2,17.94l-6.24-25.87Z"/><path d="M461.31,272.13l-29.53,7.13-4.27,1a17.39,17.39,0,0,0,33.8-8.16Z" fill="#453835"/><path d="M456.4,273.31c-.82-.48-1.54-1.22-2.51-.88-.78.27-1.59,1.41-2.27,1.93a18.2,18.2,0,0,1-6.35,3.12l12.94-3.11Zm6.32-1.49c-.45-2.24-5.51-.2-6.8.12l-5.13,1.24-12.59,3-4.94,1.2c-1.92.46-4.44.66-6.23,1.51-2,1-.24,4,.44,5.34a18.87,18.87,0,0,0,3.95,5.27,19.19,19.19,0,0,0,11.58,5.1C455.31,295.56,465.36,283.85,462.72,271.82Zm-14.65,19.54a16.08,16.08,0,0,1-15.95-5.27c-.89-1-2.77-3.3-2.77-4.76,8.24-2.14,16.56-4,24.84-6l6-1.44A16.16,16.16,0,0,1,448.07,291.36Z"/><path d="M465.37,289.59,459.9,259.7l-.79-4.32a17.39,17.39,0,0,1,6.26,34.21Z" fill="#453835"/><path d="M480.42,269.17a19.16,19.16,0,0,0-8.14-12.29,18.93,18.93,0,0,0-7.06-2.86,18.34,18.34,0,0,0-3.54-.31c-1,0-2.56-.1-3.39.5-1.37,1,.12,5.37.36,6.71q.51,2.74,1,5.49c1.41,7.66,2.59,15.4,4.22,23,1,4.74,10.36-2.47,12-4.26A19,19,0,0,0,480.42,269.17Zm-2.83,6.14a16.23,16.23,0,0,1-11.08,12.5l-4.83-26.41c-.29-1.59-.57-3.17-.87-4.76C470.89,256,479.44,265.32,477.59,275.31Z"/><path d="M482.13,286.53,452.24,292l-4.32.79a17.39,17.39,0,0,0,34.21-6.25Z" fill="#453835"/><path d="M483.55,286.3c-.34-2.28-5.55-.49-6.86-.25l-5.1.93-12.84,2.34-5.12.94-4,.73a6.48,6.48,0,0,0-2.6.65c-1.43,1.1.22,4.24.78,5.47A19,19,0,0,0,463,308C475.06,309.38,485.5,298.31,483.55,286.3ZM467.82,305a16.18,16.18,0,0,1-18.12-11.05l25.22-4.62,5.95-1.08A16.18,16.18,0,0,1,467.82,305Z"/><path d="M485.27,304.22l-3.78-30.14-.55-4.36a17.39,17.39,0,0,1,4.33,34.5Z" fill="#453835"/><path d="M483.05,274.87a14.64,14.64,0,0,1-1.54-.63,5,5,0,0,0,.17,1.3c.3.65.74.7,1.57.93Zm18.39,9.81a19.11,19.11,0,0,0-19.86-16.47c-3.13.2-1.83,3.65-1.56,5.81.22,1.77.45,3.54.67,5.32q1.5,12,3,24.05c.1.8.09,1.67.9,2.1,1,.53,2.56-.12,3.55-.42a19,19,0,0,0,13.29-20.39Zm-10.88,16.21a15.15,15.15,0,0,1-4.05,1.63q-1.53-12.3-3.08-24.58-.42-3.44-.86-6.86a15.92,15.92,0,0,1,8,29.81Z"/><path d="M502.17,302.11,472,305.88l-4.35.55a17.39,17.39,0,0,0,34.5-4.32Z" fill="#453835"/><path d="M503.6,302c-.22-2.22-5.32-.82-6.65-.66-1.82.23-3.64.45-5.45.69l-12.74,1.6-5.14.64-4.16.52a7.16,7.16,0,0,0-2.51.44c-1.61,1-.15,4.2.35,5.5a18.85,18.85,0,0,0,3.47,5.66,19.11,19.11,0,0,0,11,6.13C493.79,324.56,504.87,314.11,503.6,302Zm-34.22,5.72,24.19-3,7.25-.91a15.95,15.95,0,0,1-31.44,3.94Z"/><path d="M504.35,318.66l-3-30.23-.44-4.37a17.39,17.39,0,0,1,3.47,34.6Z" fill="#453835"/><path d="M521,299.52a19,19,0,0,0-6.14-12.06c-3.46-3.12-9.18-5.76-13.95-4.85-2.52.48-1.14,4.91-1,6.73s.35,3.49.52,5.23q.67,6.65,1.33,13.28l.57,5.65c.13,1.35.27,2.71.4,4.06s.17,2.49,1.74,2.54c2.24.08,5-1.18,6.89-2.25a19.4,19.4,0,0,0,5.39-4.53A19,19,0,0,0,521,299.52ZM505.63,317q-1.32-13.12-2.63-26.24l-.52-5.28A15.94,15.94,0,0,1,505.63,317Z"/><path d="M301.77,206.07l-24.62,17.8-3.56,2.57a17.39,17.39,0,0,0,28.18-20.37Z" fill="#453835"/><path d="M305.25,209.76a3.42,3.42,0,0,0-.34-.91c-.41-.51-.31-.41-1.08-.3a14.2,14.2,0,0,1-2.16.18,16.18,16.18,0,0,1-2.35,17.89c1.61-1,3.41-2,4.93-3.16s1.73-3.76,1.92-5.62A18.79,18.79,0,0,0,305.25,209.76Zm0,0c-.46-1.38-1.6-4.87-3.26-5.11-1-.15-2.26,1.12-3,1.67l-4.06,2.93-10.24,7.4-9.17,6.63a21.62,21.62,0,0,0-2.75,2c-1.69,1.69,1.11,3.82,2.36,4.9a19.07,19.07,0,0,0,12.71,4.59C300.4,234.57,309.38,221.68,305.25,209.76Zm-8.43,19.13a16.21,16.21,0,0,1-21.13-2.18L297.37,211l4-2.89A16.2,16.2,0,0,1,296.82,228.89Z"/><path d="M285.06,201l-24.6-16.66-3.53-2.39a17,17,0,0,1,28.13,19Z" fill="#453835"/><path d="M266.24,186.48a17.44,17.44,0,0,1,3.25,4c.57.94.85,2.13,1.64,2.86a38.62,38.62,0,0,0,4.69,3.18l2.75,1.86a10.66,10.66,0,0,0,1.89,1.28c.6.22.45.19,1.16-.26s1.25-.79,1.88-1.18Zm19.91-4.91a18.61,18.61,0,0,0-24.57-5.75,18.09,18.09,0,0,0-4.95,4.14c-1.16,1.38-1.46,2.52.06,3.56,1.72,1.19,3.46,2.35,5.19,3.52q10.1,6.84,20.2,13.67a13,13,0,0,0,2.36,1.56c2.13.81,3.28-3.05,3.77-4.46A18.64,18.64,0,0,0,286.15,181.57Zm-1.09,16.35a6.39,6.39,0,0,1-.47,1c-6.54-4.47-13.12-8.88-19.68-13.32l-5.88-4a15.54,15.54,0,0,1,26,16.32Z"/><path d="M308.5,221.31,297.45,193l-1.6-4.09a17.39,17.39,0,0,1,12.65,32.39Z" fill="#453835"/><path d="M320.62,203.87c-.57-9.72-9.19-17.43-18.82-17.44a18.32,18.32,0,0,0-4.17.46c-1,.22-2.63.42-3.1,1.44s.49,2.44.84,3.35q.92,2.32,1.82,4.64,4.44,11.4,8.89,22.78c.36.94.65,2.48,1.39,3.21,1.56,1.55,5.35-1.68,6.56-2.72A19.09,19.09,0,0,0,320.62,203.87Zm-11.34,15.48q-4.57-11.72-9.14-23.44-1.2-3-2.38-6.08c8.11-2.31,16.92,2.84,19.34,10.77A16.19,16.19,0,0,1,309.28,219.35Z"/><rect x="179.92" y="600.6" width="30.86" height="6.08" fill="#fff"/><rect x="141.62" y="644.62" width="6.03" height="0.18" fill="#fff"/><polygon points="491.75 644.19 363.88 640.73 363.88 644.78 491.75 644.78 491.75 644.19" fill="#3c2c6a"/><rect x="491.75" y="644.78" width="0.05" height="0.01" transform="translate(-2.77 2.13) rotate(-0.25)" fill="#4a3585"/><polygon points="491.75 644.79 491.75 644.78 363.88 644.78 363.88 644.79 366.55 644.79 491.75 644.79" fill="#4a3585"/><path d="M363.88,644.79v.1c.89,0,1.78-.08,2.67-.1Z" fill="#4a3585"/><path d="M366.55,644.79c-.89,0-1.78.06-2.67.1" fill="#4a3585"/><path d="M165.67,644.79h14.15V624.42L163.42,608l-21.8,21.8,14.79,14.79h7.49A9.32,9.32,0,0,1,165.67,644.79Z" fill="#118669"/><polygon points="210.78 644.79 210.78 606.68 179.82 606.68 179.82 624.42 200.19 644.79 210.78 644.79" fill="#12a27e"/><polygon points="200.19 644.79 179.82 624.42 179.82 644.79 200.19 644.79" fill="#12a27e"/><polygon points="156.59 644.79 156.41 644.62 148.09 644.62 148.09 644.79 156.59 644.79" fill="#66534d"/><rect x="147.65" y="644.62" width="0.44" height="0.18" fill="#66534d"/><path d="M165.67,644.79a9.32,9.32,0,0,0-1.77-.17h-7.49l.18.17Z" fill="#66534d"/><rect x="43.99" y="644.62" width="97.42" height="0.18" fill="#12a27e"/><rect x="141.41" y="644.62" width="0.21" height="0.18" fill="#12a27e"/></svg>