<svg xmlns="http://www.w3.org/2000/svg" xmlns:xlink="http://www.w3.org/1999/xlink" width="590" height="94.62" viewBox="0 0 590 94.62"><defs><clipPath id="a"><rect width="590" height="94.62" fill="none"/></clipPath></defs><title>bubblesbottom</title><g clip-path="url(#a)"><path d="M165.67,0a8.84,8.84,0,0,1,7.11,8.69V16.2l8.59,8.59a8.86,8.86,0,0,1-1.55-5V0" fill="#118669" stroke="#118669" stroke-miterlimit="10" stroke-width="0.25"/><polyline points="141.62 0 141.62 30.79 147.65 30.79 147.65 0" fill="#fff"/><path d="M315.4,35.58H137.86A8.14,8.14,0,0,0,130.14,41L114.51,83.53a8.34,8.34,0,0,0-.07,5.4H378.07a8.18,8.18,0,0,0-.59-6.56L354.75,41.29A135.85,135.85,0,0,0,337,44.46C328.59,46.44,319.56,43,315.4,35.58ZM265.87,68.19c-6.46.29-13,.29-19.58.19-6.56.1-13.12.1-19.59-.19-6.27-.19-10.51-7.24-4-10.42,6-3,17-2.51,23.54-2.51h.19c6.66,0,17.56-.48,23.54,2.51C276.29,61,272.14,68,265.87,68.19Z" fill="#a2a2a2"/><path d="M269.92,57.77c-6-3-16.88-2.51-23.54-2.51h-.19c-6.56,0-17.56-.48-23.54,2.51-6.46,3.18-2.22,10.23,4,10.42,6.47.29,13,.29,19.59.19,6.56.1,13.12.1,19.58-.19C272.14,68,276.29,61,269.92,57.77Z" fill="#fff"/><path d="M122.23,94.62h248a8.21,8.21,0,0,0,7.82-5.69H114.44A8.2,8.2,0,0,0,122.23,94.62Z" fill="#535353"/><path d="M363.88,40.5V.09a179.19,179.19,0,0,0-37.43,5.29c-12,3-18.14,13.61-14.47,22.1.87,2.22,1.74,4.34,2.6,6.47a17.73,17.73,0,0,0,.82,1.63C319.56,43,328.59,46.44,337,44.46a135.85,135.85,0,0,1,17.78-3.17c3.57-.4,7.17-.66,10.78-.79Z" fill="#99776b"/><path d="M475.59,40.5A16.18,16.18,0,0,0,491.8,24.3V22.68C491.8,32.54,484.56,40.5,475.59,40.5Z" fill="#4a3585"/><polyline points="491.75 0 491.8 22.68 491.8 0" fill="#4a3585"/><path d="M491.75,0H366.55l-2.67.09V40.5H475.59c9,0,16.21-8,16.21-17.82Z" fill="#4a3585"/><path d="M181.37,24.79a8.86,8.86,0,0,0,6.57,3.8A8.5,8.5,0,0,1,182.62,26Z" fill="#12a27e"/><path d="M200.19,0H179.82V19.76a8.86,8.86,0,0,0,1.55,5L182.62,26a8.5,8.5,0,0,0,5.32,2.56h.17a5.85,5.85,0,0,0,.59,0h13.21a8.85,8.85,0,0,0,8.87-8.88V0Z" fill="#12a27e"/><path d="M165.67,0h-18V30.79H163.9a8.85,8.85,0,0,0,8.88-8.87V8.69A8.84,8.84,0,0,0,165.67,0Z" fill="#66534d"/><path d="M44,0V14.59a16.18,16.18,0,0,0,16.22,16.2h81.2V0" fill="#12a27e"/><polyline points="141.41 0 141.41 30.79 141.62 30.79 141.62 0" fill="#12a27e"/></g></svg>