<svg xmlns="http://www.w3.org/2000/svg" width="188.73" height="42" viewBox="0 0 188.73 42"><title>fixagraphlogo</title><path d="M119.82,17l-.1.11Z" fill="#3c2c6a"/><path d="M119.62,17.17l-.11.11Z" fill="#3c2c6a"/><path d="M116.73,18.16h0Z" fill="#3c2c6a"/><path d="M119.41,17.37l-.12.09Z" fill="#3c2c6a"/><path d="M120,16.75l-.08.1Z" fill="#3c2c6a"/><path d="M116.48,18.13l-.14,0Z" fill="#3c2c6a"/><path d="M120.15,16.5l-.07.12Z" fill="#3c2c6a"/><path d="M118.89,17.72l-.09,0Z" fill="#3c2c6a"/><path d="M119.17,17.54l-.12.08Z" fill="#3c2c6a"/><path d="M116.23,18.09,116,18Z" fill="#3c2c6a"/><path d="M120.51,15.65a.75.75,0,0,1-.05.16C120.48,15.76,120.49,15.71,120.51,15.65Z" fill="#3c2c6a"/><path d="M120.42,15.93l-.07.18Z" fill="#3c2c6a"/><path d="M120.58,15.39l0,.12Z" fill="#3c2c6a"/><path d="M188.41,30c-1.93,0-2.21-.51-2.21-1.84V18.4c0-5.47-2.81-8.14-7.27-8.14a7.6,7.6,0,0,0-7.77,5.93V.86h-9.94V4.59h.14c1.61,0,2.39.37,2.39,2.62V28c0,1.61-.32,2-1.93,2h-.6v3.4H174V30h-.46c-2.07,0-2.39-.28-2.39-1.66V21c0-3.87,1.79-6.07,4.46-6.07,2.12,0,3.17,1.19,3.17,3.72v9.66c0,1.47-.5,1.66-2.39,1.66h-.46v3.4h12.79V30Z" fill="#3c2c6a"/><path d="M152.66,10.26a7.45,7.45,0,0,0-7.54,6.16v-.23a15.69,15.69,0,0,0-1-5.38h-8.79v4h.14c1.61,0,2.39.37,2.39,2.63V29.53a6.56,6.56,0,0,1-1.8.33c-1.32-.05-1.88-.69-1.88-2.67V19.55a10.18,10.18,0,0,0-1.63-6.13,8.32,8.32,0,0,0-5.6-3,19.51,19.51,0,0,0-5.81,0,5.67,5.67,0,0,1,1.36,3.18,6.23,6.23,0,0,1,2.6.37,3.08,3.08,0,0,1,1.8,3.15c-.14,3.34-5.2,4-7.63,4.69-4.05,1.1-5.8,2.89-5.8,5.93v.05a6.39,6.39,0,0,0,.35,2.16,5.23,5.23,0,0,0,.81,1.53c1.66,2.21,4.73,2.8,7.33,2.32a6.33,6.33,0,0,0,5-4.32v.14c0,3.24,3,4.37,5.82,4.22a6,6,0,0,0,5.09-2.75v5.13c0,1.6-.32,2-1.93,2h-.6V41.6H148.8V38.19h-1.15c-2.07,0-2.39-.27-2.39-1.65V28.7c.78,3.08,3.17,5.15,7.08,5.15,5.57,0,9.52-4.32,9.52-12.14v-.05C161.86,15,158.6,10.26,152.66,10.26ZM126.78,25.81c0,1.53-.46,3.32-1.89,4.13a2.47,2.47,0,0,1-3.65-1.17A4.58,4.58,0,0,1,121,27.1v-.23c0-2.07,1-2.81,2.4-3.55a9.94,9.94,0,0,0,3.4-2.3v.08l0,0Zm27.54-3.54c0,5.42-1.66,7.45-4.37,7.45s-4.69-2.44-4.69-7.64v-.83c0-4,2-6.57,4.69-6.57s4.37,2.11,4.37,6.16Z" fill="#3c2c6a"/><path d="M120.62,15.16v0Z" fill="#3c2c6a"/><path d="M120.3,16.21l-.09.18Z" fill="#3c2c6a"/><path d="M115.7,10.59l.28-.05a5.52,5.52,0,0,1,.81-.06,4.54,4.54,0,0,1,2,.44l.29.16A3.6,3.6,0,0,1,120.67,14V14a5.51,5.51,0,0,1,0,1.15v0a1.62,1.62,0,0,1,0,.19.35.35,0,0,1,0,.12l0,.14a1,1,0,0,0,0,.16l0,.12a1.08,1.08,0,0,1-.07.18,1,1,0,0,0,0,.1l-.09.17a.16.16,0,0,1,0,.07.05.05,0,0,1,0,0l-.08.12-.08.13-.08.1-.1.13-.09.1a.94.94,0,0,0-.1.1l-.11.11-.1.08-.13.1-.12.08-.11.07-.16.1-.09,0-.27.13h0l-.24.08h0a3.48,3.48,0,0,1-1.06.19h-.74l-.13,0h0l-.06,0L116,18H116l-.14-.05-.13,0h0" fill="#3c2c6a"/><path d="M49,28.06l-4.78-6.67,3.73-4.88c1.24-1.61,1.88-2,3.26-2h.42V10.81H41.46v3.73H42c1.66,0,2.21.83.69,2.85L40.72,20l-2.11-3.13c-1.06-1.51-.79-2.34.64-2.34h.55V10.81H27v3.73h.37c1.61,0,1.93.41,3.13,2.16l3.68,5.57-4,5.65c-1.24,1.8-1.66,2-3,2h-.88c-1.75,0-2.07-.32-2.07-2V10.81h-14V7.39c0-3.17,1.48-4.6,3.82-4.6A4.56,4.56,0,0,1,17,3.67a3.19,3.19,0,0,0-.12,1.73c.24,1,1.13,2.22,3.44,2.31,1.89.08,3.58-1,3.58-3.17,0-2.9-4.63-4.54-9.83-4.54C6.83,0,3.07,3,2.9,9.2v1.61H0v3.64H2.9V28c0,1.61-.32,2-1.93,2H.28v3.4H13.39V30H13c-2.34,0-2.67-.28-2.67-2V14.45h4.19c1.61,0,2.39.36,2.39,2.62V28c0,1.52-.28,2-1.66,2h-.5v3.4H37.09V30h-.65c-1.84,0-2.16-.88-.82-2.81L38,23.74l2.48,3.77c1.11,1.75.92,2.44-.78,2.44h-.55v3.4H52V30h-.23C50.38,30,50,29.44,49,28.06Z" fill="#3c2c6a"/><path d="M120.67,14a3.62,3.62,0,0,0-1.59-2.87,4.65,4.65,0,0,0-3.12-.54A6.9,6.9,0,0,0,111.31,14a8.72,8.72,0,0,0-1.23,3,2.87,2.87,0,0,0,0,.31v-.43a15.86,15.86,0,0,0-1.2-6.12H92.49a20.1,20.1,0,0,0-1.09,4.45C90,12,88,10.3,83.81,10.3c-5.53,0-9.51,4.13-9.51,10.77v.1c0,3.42.9,6.18,2.61,8l-.17.12a6.34,6.34,0,0,1-2.33.53c-1.32,0-1.89-.69-1.89-2.67V19.55a10.15,10.15,0,0,0-1.62-6.13,8.32,8.32,0,0,0-5.6-3,19,19,0,0,0-7.9.38,8.28,8.28,0,0,0-4.17,2.32c-1,1.11-1.5,2.78-.36,4a3.74,3.74,0,0,0,4,.72A3.64,3.64,0,0,0,59,14h0a6.31,6.31,0,0,1,4.43,0,3.08,3.08,0,0,1,1.79,3.15c-.14,3.35-5.19,4-7.63,4.69-4,1.1-5.8,2.9-5.8,5.93v.05a6.65,6.65,0,0,0,.35,2.16A5.48,5.48,0,0,0,53,31.47c1.67,2.21,4.74,2.8,7.33,2.32a6.32,6.32,0,0,0,5-4.31v.13c0,3.25,3,4.37,5.83,4.22s5.16-1.69,5.82-4.6a8.67,8.67,0,0,0,6.58,2.57c4.31,0,6.55-2.06,7.33-4.27v3c0,5.48-1.74,7.91-6.69,7.91a4.63,4.63,0,0,1-2.2-.36V37c0-2.21-1.56-3.08-3.48-3.08s-3.2,1.06-3.2,2.81c0,3.45,3.89,5.29,10,5.29,8.88,0,13-4.37,13-12.15V17.42c0-2.07.66-2.55,2-2.61h.13c1.61,0,2.4.37,2.4,2.62V28A1.94,1.94,0,0,1,100.81,30h-.59v3.4h13.47V30h-1c-2.07,0-2.58-.28-2.58-2.12v-3.5a12.62,12.62,0,0,1,1.65-6.44,6.7,6.7,0,0,1,2.06-2.24,2.72,2.72,0,0,0,2.42,2.46,3.63,3.63,0,0,0,3.88-1.64A4.5,4.5,0,0,0,120.67,14ZM65.14,25.81c0,1.53-.46,3.32-1.89,4.13a2.48,2.48,0,0,1-3.65-1.17,4.79,4.79,0,0,1-.27-1.67v-.23c0-2.07,1-2.81,2.39-3.55a9.85,9.85,0,0,0,3.4-2.3v.08l0,0Zm25.72-4.38c0,4.18-2,6.75-4.68,6.75S81.81,26,81.81,21.47v-.82c0-4,1.75-6.1,4.45-6.1s4.6,2.48,4.6,6.38Z" fill="#3c2c6a"/></svg>