<svg xmlns="http://www.w3.org/2000/svg" width="188.7" height="42" viewBox="0 0 188.7 42"><title>fixagraphlogogreen</title><path d="M119.8,17l-.1.1Z" fill="#118669"/><path d="M119.6,17.2l-.1.1A.1.1,0,0,1,119.6,17.2Z" fill="#118669"/><path d="M119.4,17.4l-.1.1A.1.1,0,0,1,119.4,17.4Z" fill="#118669"/><path d="M120,16.7l-.1.1A.1.1,0,0,0,120,16.7Z" fill="#118669"/><path d="M120.2,16.5l-.1.1Z" fill="#118669"/><path d="M119.2,17.5l-.1.1Z" fill="#118669"/><path d="M116.2,18.1c-.1,0-.1,0-.2-.1A.31.31,0,0,0,116.2,18.1Z" fill="#118669"/><path d="M120.4,15.9c0,.1,0,.1-.1.2C120.4,16.1,120.4,16,120.4,15.9Z" fill="#118669"/><path d="M188.4,29.9c-1.9,0-2.2-.5-2.2-1.8V18.4c0-5.5-2.8-8.1-7.3-8.1a7.61,7.61,0,0,0-7.8,5.9V.9h-9.9V4.6h.1c1.6,0,2.4.4,2.4,2.6V28c0,1.6-.3,2-1.9,2h-.6v3.4H174V30h-.5c-2.1,0-2.4-.3-2.4-1.7V21c0-3.9,1.8-6.1,4.5-6.1,2.1,0,3.2,1.2,3.2,3.7v9.7c0,1.5-.5,1.7-2.4,1.7h-.5v3.4h12.8V30Z" fill="#118669"/><path d="M152.7,10.3a7.43,7.43,0,0,0-7.5,6.2v-.2a16.64,16.64,0,0,0-1-5.4h-8.8v4h.1c1.6,0,2.4.4,2.4,2.6V29.6a6.15,6.15,0,0,1-1.8.3c-1.3,0-1.9-.7-1.9-2.7V19.6a10,10,0,0,0-1.6-6.1c-1.3-1.8-3.5-2.6-5.6-3a18.8,18.8,0,0,0-5.8,0,5.48,5.48,0,0,1,1.4,3.2,5.69,5.69,0,0,1,2.6.4,3,3,0,0,1,1.8,3.2c-.1,3.3-5.2,4-7.6,4.7-4,1.1-5.8,2.9-5.8,5.9h0a8.33,8.33,0,0,0,.3,2.2,5.3,5.3,0,0,0,.8,1.5c1.7,2.2,4.7,2.8,7.3,2.3a6.3,6.3,0,0,0,5-4.3v.1c0,3.2,3,4.4,5.8,4.2a6.11,6.11,0,0,0,5.1-2.7v5.1c0,1.6-.3,2-1.9,2h-.6v3.4h13.5V38.3h-1.2c-2.1,0-2.4-.3-2.4-1.7V28.8c.8,3.1,3.2,5.2,7.1,5.2,5.6,0,9.5-4.3,9.5-12.1h0C161.9,15,158.6,10.3,152.7,10.3ZM126.8,25.8c0,1.5-.5,3.3-1.9,4.1a2.35,2.35,0,0,1-3.6-1.2A4.67,4.67,0,0,1,121,27v-.2c0-2.1,1-2.8,2.4-3.5a10.24,10.24,0,0,0,3.4-2.3v.1h0Zm27.5-3.5c0,5.4-1.7,7.5-4.4,7.5s-4.7-2.4-4.7-7.6v-.8c0-4,2-6.6,4.7-6.6,2.9,0,4.4,2.1,4.4,6.2Z" fill="#118669"/><path d="M120.3,16.2c0,.1-.1.1-.1.2C120.2,16.3,120.3,16.3,120.3,16.2Z" fill="#118669"/><path d="M115.7,10.6a.37.37,0,0,0,.3-.1c.3,0,.5-.1.8-.1a4.48,4.48,0,0,1,2,.4c.1.1.2.1.3.2a3.59,3.59,0,0,1,1.6,2.9v1.2h0v.7a.31.31,0,0,1-.1.2v.1c0,.1-.1.1-.1.2v.1h0a.1.1,0,0,1-.1.1l-.1.1-.1.1-.1.1-.1.1-.1.1-.1.1-.1.1-.1.1-.1.1-.1.1a.35.35,0,0,1-.2.1h-.1c-.1,0-.2.1-.3.1h0a.35.35,0,0,0-.2.1h0a3.59,3.59,0,0,1-1.1.2h-1c-.1,0-.1,0-.2-.1H116" fill="#118669"/><path d="M49,28.1l-4.8-6.7,3.7-4.9c1.2-1.6,1.9-2,3.3-2h.4V10.8H41.5v3.7H42c1.7,0,2.2.8.7,2.9l-2,2.6-2.1-3.1c-1.1-1.5-.8-2.3.6-2.3h.6V10.9H27v3.7h.4c1.6,0,1.9.4,3.1,2.2l3.7,5.6-4,5.7c-1.2,1.8-1.7,2-2.9,2h-.9c-1.7,0-2.1-.3-2.1-2V10.8h-14V7.4c0-3.2,1.5-4.6,3.8-4.6a5,5,0,0,1,2.9.9,3.34,3.34,0,0,0-.1,1.7c.2,1,1.1,2.2,3.4,2.3a3.15,3.15,0,0,0,3.6-3.2c0-2.9-4.6-4.5-9.8-4.5C6.8,0,3.1,3,2.9,9.2v1.6H0v3.6H2.9V28c0,1.6-.3,2-1.9,2H.3v3.4H13.4V30H13c-2.3,0-2.7-.3-2.7-2V14.4h4.2c1.6,0,2.4.4,2.4,2.6V28c0,1.5-.3,2-1.7,2h-.5v3.4H37.1V30h-.6c-1.8,0-2.2-.9-.8-2.8l2.4-3.4,2.5,3.8c1.1,1.7.9,2.4-.8,2.4h-.6v3.4H52V30h-.2C50.4,29.9,50,29.4,49,28.1Z" fill="#118669"/><path d="M120.7,14a3.74,3.74,0,0,0-1.6-2.9,4.23,4.23,0,0,0-3.1-.5,6.8,6.8,0,0,0-4.6,3.5,8.59,8.59,0,0,0-1.2,3,.37.37,0,0,1-.1.3V17a15.8,15.8,0,0,0-1.2-6.1H92.5a21.81,21.81,0,0,0-1.1,4.4c-1.4-3.3-3.4-5-7.6-5-5.5,0-9.5,4.1-9.5,10.8v.1c0,3.4.9,6.2,2.6,8l-.2.1a7.79,7.79,0,0,1-2.3.5c-1.3,0-1.9-.7-1.9-2.7V19.5a10,10,0,0,0-1.6-6.1c-1.3-1.8-3.5-2.6-5.6-3a19.19,19.19,0,0,0-7.9.4,8.72,8.72,0,0,0-4.2,2.3c-1,1.1-1.5,2.8-.4,4a3.68,3.68,0,0,0,4,.7,3.63,3.63,0,0,0,2.1-3.9h0a5.6,5.6,0,0,1,4.4,0,3,3,0,0,1,1.8,3.2c-.1,3.3-5.2,4-7.6,4.7-4,1.1-5.8,2.9-5.8,5.9h0a8.33,8.33,0,0,0,.3,2.2,5.3,5.3,0,0,0,.8,1.5c1.7,2.2,4.7,2.8,7.3,2.3a6.3,6.3,0,0,0,5-4.3v.1c0,3.2,3,4.4,5.8,4.2s5.2-1.7,5.8-4.6a8.66,8.66,0,0,0,6.6,2.6c4.3,0,6.6-2.1,7.3-4.3v3c0,5.5-1.7,7.9-6.7,7.9a4.09,4.09,0,0,1-2.2-.4V37c0-2.2-1.6-3.1-3.5-3.1S75,35,75,36.7c0,3.4,3.9,5.3,10,5.3,8.9,0,13-4.4,13-12.1V17.4c0-2.1.7-2.5,2-2.6h.1c1.6,0,2.4.4,2.4,2.6V28a1.9,1.9,0,0,1-1.9,1.9H100v3.4h13.5V29.9h-1c-2.1,0-2.6-.3-2.6-2.1V24.3a12,12,0,0,1,1.7-6.4,5.56,5.56,0,0,1,2.1-2.2,2.76,2.76,0,0,0,2.4,2.5,3.72,3.72,0,0,0,3.9-1.6A4.45,4.45,0,0,0,120.7,14ZM65.1,25.8c0,1.5-.5,3.3-1.9,4.1a2.35,2.35,0,0,1-3.6-1.2,4.67,4.67,0,0,1-.3-1.7v-.2c0-2.1,1-2.8,2.4-3.5A10.24,10.24,0,0,0,65.1,21v.1h0Zm25.8-4.4c0,4.2-2,6.7-4.7,6.7s-4.4-2.2-4.4-6.7v-.8c0-4,1.7-6.1,4.4-6.1s4.6,2.5,4.6,6.4v.5Z" fill="#118669"/></svg>