<svg xmlns="http://www.w3.org/2000/svg" width="500" height="392" viewBox="0 0 500 392"><title>lifebuoy</title><rect y="180" width="500" height="32" fill="#999"/><rect x="225" y="180" width="50" height="3" fill="#b3b3b3"/><rect x="225" y="208" width="50" height="5" fill="#4d4d4d"/><path d="M275,0V32.89a166.29,166.29,0,0,0-50,0V0Z" fill="#999"/><path d="M275,32.89V392H225V32.89A166.29,166.29,0,0,1,275,32.89Z" fill="#999"/><path d="M0,180H166.36q-.27,1.49-.48,3H0Z" fill="#b3b3b3"/><path d="M229,183H173.47c.16-1,.33-2,.53-3h51Z" fill="#b3b3b3"/><path d="M176,180c-.2,1-2.37,2-2.53,3h-7.59q.21-1.51.48-3Z" fill="#999"/><path d="M174,212h-7.64a90.63,90.63,0,0,1-.48-29h7.59A83.35,83.35,0,0,0,174,212Z" fill="#666"/><path d="M325.94,180c.2,1,.37,2,.53,3H271l4-3Z" fill="#b3b3b3"/><path d="M500,180v3H334.06q-.21-1.51-.48-3Z" fill="#b3b3b3"/><path d="M334.06,183h-7.59c-.16-1-2.33-2-2.53-3h9.64Q333.85,181.49,334.06,183Z" fill="#999"/><path d="M335,196a90.68,90.68,0,0,1-1.42,16h-7.64a83.35,83.35,0,0,0,.53-29h7.59A89.91,89.91,0,0,1,335,196Z" fill="#666"/><path d="M275,278.86V271a82.84,82.84,0,0,1-50,0v7.86a90.54,90.54,0,0,0,50,0Z" fill="#666"/><path d="M225,348.52v27.6a167.16,167.16,0,0,0,50,0v-27.6a158.82,158.82,0,0,1-50,0Z" fill="#4d4d4d"/><path d="M275,106.52v27.86a82.84,82.84,0,0,0-50,0V106.52a90.54,90.54,0,0,1,50,0Z" fill="#4d4d4d"/><polygon points="227 208 225 213 0 213 0 208 227 208" fill="#4d4d4d"/><polygon points="500 208 500 213 275 213 273 208 500 208" fill="#4d4d4d"/><polygon points="500 203 500 208 273 208 271 203 500 203" fill="#666"/><polygon points="229 203 227 208 0 208 0 203 229 203" fill="#666"/><path d="M414.7,186A165.06,165.06,0,0,0,275,32.89a166.29,166.29,0,0,0-50,0A165.06,165.06,0,0,0,85.3,186q-.27,4.5-.29,9A165,165,0,0,0,225,359.11a166.29,166.29,0,0,0,50,0A165,165,0,0,0,415,195Q415,190.5,414.7,186ZM308.34,254.34a82.51,82.51,0,1,1-83.34-137c1.25-.4,2.51-.77,3.77-1.1a82.81,82.81,0,0,1,42.46,0c1.26.33,2.52.7,3.77,1.1a82.52,82.52,0,0,1,33.34,137Z" fill="#d74d1f"/><path d="M314.8,275.34c-35.79,32.21-93.81,32.21-129.6,0-20.72-18.66-29.43-44-26.16-68.34,2.38,17.67,11.11,34.78,26.16,48.34,35.79,32.21,93.81,32.21,129.6,0C329.85,241.78,338.58,224.67,341,207,344.23,231.31,335.52,256.68,314.8,275.34Z" fill="#f05623"/><path d="M415,195q0,4.5-.29,9a165,165,0,0,0-329.4,0q-.27-4.5-.29-9t.29-9a165,165,0,0,1,329.4,0Q415,190.5,415,195Z" fill="#f05623"/><path d="M250,31A164.37,164.37,0,0,0,142.28,71a2.06,2.06,0,0,1,.37.29l5,5a157.5,157.5,0,0,1,204.7,0l5-5a2.06,2.06,0,0,1,.37-.29A164.37,164.37,0,0,0,250,31ZM375,88.28a2.06,2.06,0,0,1-.29.37l-5,5a157.5,157.5,0,0,1,0,204.7l5,5a2,2,0,0,1,.29.36,165,165,0,0,0,0-215.43ZM130.29,93.65l-5-5a2.06,2.06,0,0,1-.29-.37,165,165,0,0,0,0,215.43,2,2,0,0,1,.29-.36l5-5a157.5,157.5,0,0,1,0-204.7ZM357.35,320.71l-5-5a157.5,157.5,0,0,1-204.7,0l-5,5a2,2,0,0,1-.36.29,165,165,0,0,0,215.42,0A2,2,0,0,1,357.35,320.71Z" fill="#ba4721"/><path d="M366.67,79.33a165,165,0,1,0,0,233.34A165,165,0,0,0,366.67,79.33ZM250,358.31A162.31,162.31,0,1,1,412.31,196,162.3,162.3,0,0,1,250,358.31Z" fill="#9e3f20"/><path d="M315.16,147A80,80,0,0,0,299,130.84a.74.74,0,0,1-.08-1.12l.09-.09a82.57,82.57,0,0,0-98,0l.09.09a.74.74,0,0,1-.08,1.12A80,80,0,0,0,184.84,147a.74.74,0,0,1-1.12.08l-.09-.09a82.57,82.57,0,0,0,0,98l.09-.09a.74.74,0,0,1,1.12.08A80,80,0,0,0,201,261.16a.74.74,0,0,1,.08,1.12l-.09.09a82.57,82.57,0,0,0,98,0l-.09-.09a.74.74,0,0,1,.08-1.12A80,80,0,0,0,315.16,245a.74.74,0,0,1,1.12-.08l.09.09a82.57,82.57,0,0,0,0-98l-.09.09A.74.74,0,0,1,315.16,147Z" fill="none"/><path d="M192.08,120.72a94.61,94.61,0,0,1,39.59-18l-1.15,5.35a89.6,89.6,0,0,0-34.88,16.16Z" fill="#ba4721"/><path d="M307.92,120.72l-3.56,3.56a89.6,89.6,0,0,0-34.88-16.16l-1.15-5.35A94.61,94.61,0,0,1,307.92,120.72Z" fill="#ba4721"/><path d="M160,196a89.57,89.57,0,0,1,18.28-54.36l-3.56-3.56a94.92,94.92,0,0,0,0,115.84l3.56-3.56A89.57,89.57,0,0,1,160,196Z" fill="#ba4721"/><path d="M250,286a89.57,89.57,0,0,1-54.36-18.28l-3.56,3.56a94.92,94.92,0,0,0,115.84,0l-3.56-3.56A89.57,89.57,0,0,1,250,286Z" fill="#ba4721"/><path d="M340,196a89.57,89.57,0,0,1-18.28,54.36l3.56,3.56a94.92,94.92,0,0,0,0-115.84l-3.56,3.56A89.57,89.57,0,0,1,340,196Z" fill="#ba4721"/><path d="M321.72,141.64,316.37,147a82.57,82.57,0,0,1,0,98l5.35,5.35a90,90,0,0,0,0-108.72Z" fill="#9e3f20"/><path d="M230.52,108.12l-1.75,8.15.4-.1A81.89,81.89,0,0,0,201,129.63l-5.35-5.35A89.6,89.6,0,0,1,230.52,108.12Z" fill="#9e3f20"/><path d="M238.71,114.28c1.07-.16,2.14-.28,3.22-.38C240.85,114,239.78,114.13,238.71,114.28Z" fill="#9e3f20"/><path d="M258.07,113.9c1.08.1,2.15.22,3.22.38C260.22,114.13,259.15,114,258.07,113.9Z" fill="#9e3f20"/><path d="M304.36,124.28,299,129.63a81.89,81.89,0,0,0-28.18-13.46l.4.1-1.75-8.15A89.6,89.6,0,0,1,304.36,124.28Z" fill="#9e3f20"/><path d="M201,262.37l-5.35,5.35a90,90,0,0,0,108.72,0L299,262.37A82.57,82.57,0,0,1,201,262.37Z" fill="#9e3f20"/><path d="M183.63,147l-5.35-5.35a90,90,0,0,0,0,108.72l5.35-5.35A82.57,82.57,0,0,1,183.63,147Z" fill="#9e3f20"/><path d="M184.84,147A80,80,0,0,1,201,130.84a.74.74,0,0,0,.08-1.12l-.09-.09A82.42,82.42,0,0,0,183.63,147l.09.09A.74.74,0,0,0,184.84,147Z" fill="#fff"/><path d="M147.65,76.29a156.36,156.36,0,0,0-17.36,17.36l-5-5a2.06,2.06,0,0,1-.29-.37A167.79,167.79,0,0,1,142.28,71a2.06,2.06,0,0,1,.37.29Z" fill="#dcdbdd"/><path d="M142.28,71A167.79,167.79,0,0,0,125,88.28a2.26,2.26,0,0,1,.15-2.6,106.13,106.13,0,0,1,14.53-14.53A2.28,2.28,0,0,1,142.28,71Z" fill="#c1c0c2"/><path d="M192.08,120.72a95.11,95.11,0,0,0-17.36,17.36L130.29,93.65a156.36,156.36,0,0,1,17.36-17.36Z" fill="#fff"/><path d="M195.64,124.28l-3.56-3.56a95.11,95.11,0,0,0-17.36,17.36l3.56,3.56A90.33,90.33,0,0,1,195.64,124.28Z" fill="#fff"/><path d="M191.66,137.66a82.71,82.71,0,0,1,9.33-8l-5.35-5.35a90.33,90.33,0,0,0-17.36,17.36l5.35,5.35A82.71,82.71,0,0,1,191.66,137.66Z" fill="#fff"/><path d="M375,303.71A166,166,0,0,1,357.71,321a2,2,0,0,1-.36-.29l-5-5a156.36,156.36,0,0,0,17.36-17.36l5,5A2,2,0,0,1,375,303.71Z" fill="#dcdbdd"/><path d="M352.35,315.71l-44.43-44.43a95.11,95.11,0,0,0,17.36-17.36l44.43,44.43A156.36,156.36,0,0,1,352.35,315.71Z" fill="#fff"/><path d="M374.85,306.32a106.13,106.13,0,0,1-14.53,14.53,2.29,2.29,0,0,1-2.61.15A166,166,0,0,0,375,303.71,2.29,2.29,0,0,1,374.85,306.32Z" fill="#c1c0c2"/><path d="M315.16,245A80,80,0,0,1,299,261.16a.74.74,0,0,0-.08,1.12l.09.09A82.42,82.42,0,0,0,316.37,245l-.09-.09A.74.74,0,0,0,315.16,245Z" fill="#fff"/><path d="M325.28,253.92l-3.56-3.56a90.33,90.33,0,0,1-17.36,17.36l3.56,3.56A95.11,95.11,0,0,0,325.28,253.92Z" fill="#fff"/><path d="M308.34,254.34a82.71,82.71,0,0,1-9.33,8l5.35,5.35a90.33,90.33,0,0,0,17.36-17.36L316.37,245A82.71,82.71,0,0,1,308.34,254.34Z" fill="#fff"/><path d="M299,129.63l-.09.09a.74.74,0,0,0,.08,1.12A80,80,0,0,1,315.16,147a.74.74,0,0,0,1.12.08l.09-.09A82.42,82.42,0,0,0,299,129.63Z" fill="#dcdbdd"/><path d="M375,88.28a2.06,2.06,0,0,1-.29.37l-5,5a156.36,156.36,0,0,0-17.36-17.36l5-5a2.06,2.06,0,0,1,.37-.29A167.79,167.79,0,0,1,375,88.28Z" fill="#dcdbdd"/><path d="M369.71,93.65l-44.43,44.43a95.11,95.11,0,0,0-17.36-17.36l44.43-44.43A156.36,156.36,0,0,1,369.71,93.65Z" fill="#fff"/><path d="M375,88.28A167.79,167.79,0,0,0,357.72,71a2.28,2.28,0,0,1,2.6.15,106.13,106.13,0,0,1,14.53,14.53A2.28,2.28,0,0,1,375,88.28Z" fill="#c1c0c2"/><path d="M321.72,141.64l3.56-3.56a95.11,95.11,0,0,0-17.36-17.36l-3.56,3.56A90.33,90.33,0,0,1,321.72,141.64Z" fill="#dcdbdd"/><path d="M308.34,137.66a82.71,82.71,0,0,1,8,9.33l5.35-5.35a90.33,90.33,0,0,0-17.36-17.36L299,129.63A82.71,82.71,0,0,1,308.34,137.66Z" fill="#c1c0c2"/><path d="M201,261.16A80,80,0,0,1,184.84,245a.74.74,0,0,0-1.12-.08l-.09.09A82.42,82.42,0,0,0,201,262.37l.09-.09A.74.74,0,0,0,201,261.16Z" fill="#fff"/><path d="M147.65,315.71l-5,5a2,2,0,0,1-.36.29A166,166,0,0,1,125,303.71a2,2,0,0,1,.29-.36l5-5A156.36,156.36,0,0,0,147.65,315.71Z" fill="#dcdbdd"/><path d="M142.29,321a2.23,2.23,0,0,1-1.2.34,2.2,2.2,0,0,1-1.41-.49,106.13,106.13,0,0,1-14.53-14.53,2.29,2.29,0,0,1-.15-2.61A166,166,0,0,0,142.29,321Z" fill="#c1c0c2"/><path d="M192.08,271.28l-44.43,44.43a156.36,156.36,0,0,1-17.36-17.36l44.43-44.43A95.11,95.11,0,0,0,192.08,271.28Z" fill="#fff"/><path d="M178.28,250.36l-3.56,3.56a95.11,95.11,0,0,0,17.36,17.36l3.56-3.56A90.33,90.33,0,0,1,178.28,250.36Z" fill="#fff"/><path d="M191.66,254.34a82.71,82.71,0,0,1-8-9.33l-5.35,5.35a90.33,90.33,0,0,0,17.36,17.36l5.35-5.35A82.71,82.71,0,0,1,191.66,254.34Z" fill="#fff"/><path d="M304.36,267.72l3.56,3.56a95.11,95.11,0,0,0,17.36-17.36l-3.56-3.56A90.33,90.33,0,0,1,304.36,267.72Z" fill="#dcdbdd"/><path d="M308.34,254.34a82.71,82.71,0,0,1-9.33,8l5.35,5.35a90.33,90.33,0,0,0,17.36-17.36L316.37,245A82.71,82.71,0,0,1,308.34,254.34Z" fill="#c1c0c2"/><path d="M178.28,250.36l-3.56,3.56a95.11,95.11,0,0,0,17.36,17.36l3.56-3.56A90.33,90.33,0,0,1,178.28,250.36Z" fill="#dcdbdd"/><path d="M191.66,254.34a82.71,82.71,0,0,1-8-9.33l-5.35,5.35a90.33,90.33,0,0,0,17.36,17.36l5.35-5.35A82.71,82.71,0,0,1,191.66,254.34Z" fill="#c1c0c2"/><path d="M195.64,124.28l-3.56-3.56a95.11,95.11,0,0,0-17.36,17.36l3.56,3.56A90.33,90.33,0,0,1,195.64,124.28Z" fill="#dcdbdd"/><path d="M191.66,137.66a82.71,82.71,0,0,1,9.33-8l-5.35-5.35a90.33,90.33,0,0,0-17.36,17.36l5.35,5.35A82.71,82.71,0,0,1,191.66,137.66Z" fill="#c1c0c2"/><text transform="translate(181.31 94.99) rotate(-29.76)" font-size="30" fill="#e6e6e6" font-family="DuplicateSans-Bold, Duplicate Sans" font-weight="700">F</text><text transform="translate(194.77 87.36) rotate(-24.87)" font-size="30" fill="#e6e6e6" font-family="DuplicateSans-Bold, Duplicate Sans" font-weight="700">I</text><text transform="translate(201.92 83.69) rotate(-18.44)" font-size="30" fill="#e6e6e6" font-family="DuplicateSans-Bold, Duplicate Sans" font-weight="700">X</text><text transform="translate(217.9 78.17) rotate(-10.07)" font-size="30" fill="#e6e6e6" font-family="DuplicateSans-Bold, Duplicate Sans" font-weight="700">A</text><text transform="matrix(1, -0.03, 0.03, 1, 235.67, 74.93)" font-size="30" fill="#e6e6e6" font-family="DuplicateSans-Bold, Duplicate Sans" font-weight="700">G</text><text transform="translate(253.56 74.41) rotate(6.93)" font-size="30" fill="#e6e6e6" font-family="DuplicateSans-Bold, Duplicate Sans" font-weight="700">R</text><text transform="translate(269.48 76.15) rotate(15.01)" font-size="30" fill="#e6e6e6" font-family="DuplicateSans-Bold, Duplicate Sans" font-weight="700">A</text><text transform="translate(286.7 80.71) rotate(23.01)" font-size="30" fill="#e6e6e6" font-family="DuplicateSans-Bold, Duplicate Sans" font-weight="700">P</text><text transform="translate(302.08 87.07) rotate(31.71)" font-size="30" fill="#e6e6e6" font-family="DuplicateSans-Bold, Duplicate Sans" font-weight="700">H</text><path d="M264.5,141.5h-29a2.77,2.77,0,0,1-3-3v-33c.67-3.87,8.77-24,13.22-24h8.5c4.45,0,12.55,20.1,13.22,24v33A2.77,2.77,0,0,1,264.5,141.5Z" fill="#4d4d4d"/><path d="M269.48,108.12a90.56,90.56,0,0,0-39,0l1.15-5.35a95.8,95.8,0,0,1,36.66,0Z" fill="#834a37"/><path d="M250,101a95.42,95.42,0,0,0-18.33,1.77l1.84-8.54c.83-3.87,5.57-6.73,11.16-6.73h10.66c5.59,0,10.33,2.86,11.16,6.73l1.84,8.54A95.42,95.42,0,0,0,250,101Z" fill="#924d36"/><path d="M271.23,116.27l-.4-.1c-1-.27-2-.52-3.07-.74s-2.19-.46-3.3-.66-2.11-.35-3.17-.49-2.14-.28-3.22-.38c-1.61-.16-3.22-.27-4.84-.33-.53,0-1.07,0-1.61,0q-1.62,0-3.24,0c-.54,0-1.08,0-1.61,0-1.62.06-3.23.17-4.84.33-1.08.1-2.15.22-3.22.38s-2.12.3-3.17.49-2.21.42-3.3.66-2.05.47-3.07.74l-.4.1,1.75-8.15a90.56,90.56,0,0,1,39,0Z" fill="#764637"/><path d="M264.5,117.5h-29a2.77,2.77,0,0,1-3-3l4.33-25.24c.66-3.87,4.44-6.73,8.89-6.73h8.5c4.45,0,8.23,2.86,8.89,6.73l4.33,25.24A2.77,2.77,0,0,1,264.5,117.5Z" fill="#999"/><path d="M264.5,117.5h-29a2.77,2.77,0,0,1-3-3l.49-2.83H267l.51,2.83A2.77,2.77,0,0,1,264.5,117.5Z" fill="gray"/><path d="M264.5,117.5h-29a2.77,2.77,0,0,1-3-3h34.94A2.77,2.77,0,0,1,264.5,117.5Z" fill="#666"/></svg>