<svg xmlns="http://www.w3.org/2000/svg" width="499" height="370" viewBox="0 0 499 370"><title>october2018</title><rect x="39.5" y="138.36" width="60" height="200" fill="#ebeaf0" opacity="0.5"/><rect x="399.5" y="88.36" width="60" height="200" fill="#ebeaf0" opacity="0.5"/><g opacity="0.5"><line x1="159.5" y1="93.96" x2="159.5" y2="130.96" fill="none" stroke="#3c2c6a" stroke-linecap="round" stroke-linejoin="round" opacity="0.75"/><line x1="99.5" y1="93.96" x2="99.5" y2="130.96" fill="none" stroke="#3c2c6a" stroke-linecap="round" stroke-linejoin="round" opacity="0.75"/><line x1="219.5" y1="93.96" x2="219.5" y2="130.96" fill="none" stroke="#3c2c6a" stroke-linecap="round" stroke-linejoin="round" opacity="0.75"/><line x1="279.5" y1="93.96" x2="279.5" y2="130.96" fill="none" stroke="#3c2c6a" stroke-linecap="round" stroke-linejoin="round" opacity="0.75"/><line x1="339.5" y1="93.96" x2="339.5" y2="130.96" fill="none" stroke="#3c2c6a" stroke-linecap="round" stroke-linejoin="round" opacity="0.75"/><line x1="159.5" y1="143.96" x2="159.5" y2="180.96" fill="none" stroke="#3c2c6a" stroke-linecap="round" stroke-linejoin="round" opacity="0.75"/><line x1="219.5" y1="143.96" x2="219.5" y2="180.96" fill="none" stroke="#3c2c6a" stroke-linecap="round" stroke-linejoin="round" opacity="0.75"/><line x1="279.5" y1="143.96" x2="279.5" y2="180.96" fill="none" stroke="#3c2c6a" stroke-linecap="round" stroke-linejoin="round" opacity="0.75"/><line x1="339.5" y1="143.96" x2="339.5" y2="180.96" fill="none" stroke="#3c2c6a" stroke-linecap="round" stroke-linejoin="round" opacity="0.75"/><line x1="159.5" y1="193.96" x2="159.5" y2="230.96" fill="none" stroke="#3c2c6a" stroke-linecap="round" stroke-linejoin="round" opacity="0.75"/><line x1="219.5" y1="193.96" x2="219.5" y2="230.96" fill="none" stroke="#3c2c6a" stroke-linecap="round" stroke-linejoin="round" opacity="0.75"/><line x1="279.5" y1="193.96" x2="279.5" y2="230.96" fill="none" stroke="#3c2c6a" stroke-linecap="round" stroke-linejoin="round" opacity="0.75"/><line x1="339.5" y1="193.96" x2="339.5" y2="230.96" fill="none" stroke="#3c2c6a" stroke-linecap="round" stroke-linejoin="round" opacity="0.75"/><line x1="159.5" y1="243.96" x2="159.5" y2="280.96" fill="none" stroke="#3c2c6a" stroke-linecap="round" stroke-linejoin="round" opacity="0.75"/><line x1="219.5" y1="243.96" x2="219.5" y2="280.96" fill="none" stroke="#3c2c6a" stroke-linecap="round" stroke-linejoin="round" opacity="0.75"/><line x1="279.5" y1="243.96" x2="279.5" y2="280.96" fill="none" stroke="#3c2c6a" stroke-linecap="round" stroke-linejoin="round" opacity="0.75"/><line x1="339.5" y1="243.96" x2="339.5" y2="280.96" fill="none" stroke="#3c2c6a" stroke-linecap="round" stroke-linejoin="round" opacity="0.75"/><line x1="159.5" y1="293.96" x2="159.5" y2="330.96" fill="none" stroke="#3c2c6a" stroke-linecap="round" stroke-linejoin="round" opacity="0.75"/><line x1="219.5" y1="293.96" x2="219.5" y2="330.96" fill="none" stroke="#3c2c6a" stroke-linecap="round" stroke-linejoin="round" opacity="0.75"/><line x1="279.5" y1="293.96" x2="279.5" y2="330.96" fill="none" stroke="#3c2c6a" stroke-linecap="round" stroke-linejoin="round" opacity="0.75"/><line x1="339.5" y1="293.96" x2="339.5" y2="330.96" fill="none" stroke="#3c2c6a" stroke-linecap="round" stroke-linejoin="round" opacity="0.75"/><line x1="399.5" y1="293.96" x2="399.5" y2="330.96" fill="none" stroke="#3c2c6a" stroke-linecap="round" stroke-linejoin="round" opacity="0.75"/></g><line x1="39.5" y1="88.36" x2="459.5" y2="88.36" fill="#d74d1f" stroke="#e17a57" stroke-linejoin="round" stroke-width="3"/><line x1="39.5" y1="138.36" x2="459.5" y2="138.36" fill="none" stroke="#3c2c6a" stroke-linejoin="round" stroke-width="3" opacity="0.5"/><line x1="39.5" y1="188.36" x2="459.5" y2="188.36" fill="none" stroke="#3c2c6a" stroke-linejoin="round" stroke-width="3" opacity="0.5"/><line x1="39.5" y1="238.36" x2="459.5" y2="238.36" fill="none" stroke="#3c2c6a" stroke-linejoin="round" stroke-width="3" opacity="0.5"/><line x1="39.5" y1="288.36" x2="459.5" y2="288.36" fill="none" stroke="#3c2c6a" stroke-linejoin="round" stroke-width="3" opacity="0.5"/><line x1="39.5" y1="338.36" x2="459.5" y2="338.36" fill="none" stroke="#3c2c6a" stroke-linejoin="round" stroke-width="3" opacity="0.5"/><path d="M177.44,39.48c0-9.6,7.84-16.2,16.76-16.2,7.8,0,11.88,4.24,11.88,10.72,0,8.32-6.52,15.84-17,15.84C183.44,49.84,177.44,47.28,177.44,39.48Zm19-6.76c0-2.36-.8-3.36-2.56-3.36-3.92,0-6.72,6.84-6.72,11.2,0,2.28,1,3.28,2.56,3.28C193.88,43.84,196.48,36.48,196.48,32.72Z" fill="#e17a57"/><path d="M207.31,42c0-6.5,6.58-11,12.43-11,3.73,0,5.91,1.49,5.91,4,0,2.07-1.51,3.64-4.11,3.64a6.44,6.44,0,0,1-2-.28,22.62,22.62,0,0,0,.16-2.3c0-.5-.16-.61-.53-.61-2.32,0-5.15,2.69-5.15,5.43,0,1.54,1.2,3.3,4.76,3.3a12.4,12.4,0,0,0,4.26-.75l.86-1.21a3.27,3.27,0,0,1,1,2.47c0,2.29-1.82,5-7.95,5C212.13,49.61,207.31,47.43,207.31,42Z" fill="#e17a57"/><path d="M230.33,46.87c0-2.27,1.73-6.58,2.43-10.42h-3.13c-2.55,0-3.11-1.31-3.11-2.49a7.76,7.76,0,0,1,.7-2.8c.84.06,1.71.09,2.55.09,3,0,7.56-.37,11.25-.37,2.92,0,4,1.09,4,2.83a5.89,5.89,0,0,1-1.2,3.16,9.07,9.07,0,0,0-3.36-.44h-2.92c.73.33,1.26.67,1.26,1,0,.84-1.65,7-2.18,9.19l1.6.86a6.78,6.78,0,0,1-4.71,2.1C231.42,49.61,230.33,48.44,230.33,46.87Z" fill="#e17a57"/><path d="M244.24,42.33C244.24,35.61,249.73,31,256,31c5.46,0,8.31,3,8.31,7.51,0,5.82-4.56,11.09-11.87,11.09C248.44,49.59,244.24,47.79,244.24,42.33Zm13.33-4.73c0-1.65-.56-2.35-1.79-2.35-2.74,0-4.7,4.79-4.7,7.84,0,1.6.67,2.3,1.79,2.3C255.75,45.39,257.57,40.23,257.57,37.6Z" fill="#e17a57"/><path d="M272,49.45c-2.77-.37-5-1-5-1.6a5.55,5.55,0,0,1,.14-1,98.4,98.4,0,0,0,1.71-10.64l-1.71.19-.87,1.07a5,5,0,0,1-1.06-2.8c0-3,3-3.89,7.5-3.89,8.29,0,12.21,2.6,12.21,5.32,0,1.62-1.48,2.94-3.42,3.89,2,.75,3.31,2,3.31,3.81,0,3.22-2.94,5.74-10.56,5.74A17.5,17.5,0,0,1,272,49.45Zm2.16-7.56c-.23,1.17-.51,2.38-.79,3.5.31,0,.59,0,.84,0,2.16,0,3.67-.56,3.67-1.9C277.87,42.56,276.42,42.08,274.15,41.89Zm1-5.69c-.06.59-.23,1.63-.45,2.89a30.1,30.1,0,0,1,3.39.16,3.57,3.57,0,0,0,.39-1.51C278.49,37,277.65,36.43,275.16,36.2Z" fill="#e17a57"/><path d="M296.66,36c-.59,0-1.34.06-2.16.06-.11.67-.22,1.37-.36,2.07a17,17,0,0,1,3.19-.31c1.23,0,2.21.39,2.21,1.74a5.18,5.18,0,0,1-.67,2.32,13.58,13.58,0,0,0-2.52-.22c-.64,0-1.93,0-3.05.08-.22.78-.42,1.51-.64,2.21,2-.17,3.92-.28,5.12-.28,2.52,0,3.42,1.15,3.42,2.58A5.79,5.79,0,0,1,300,49.36c-2.94-.7-9-.42-11.51-.42a2.23,2.23,0,0,1-2.38-2.49,7.28,7.28,0,0,1,.42-1.93,79.69,79.69,0,0,0,1.85-8.46,2.1,2.1,0,0,1-1.85-2.21,6,6,0,0,1,.59-2.35c3.56,0,9.21-.62,12-.62s3.61,1,3.61,2.35a6.48,6.48,0,0,1-1,3.2A19.41,19.41,0,0,0,296.66,36Z" fill="#e17a57"/><path d="M313.18,43.68a1.7,1.7,0,0,0-1.07-1,35.07,35.07,0,0,1-1.12,4l1.43.73a5.9,5.9,0,0,1-4.67,2.26c-2,0-3.06-1.14-3.06-2.74,0-2,1.88-6,2.55-10.36a16.92,16.92,0,0,0-2,.34l-.7,1.42a4.51,4.51,0,0,1-1.37-3.05c0-3,2.46-4.28,8-4.28,6.58,0,11.12,2.69,11.12,6,0,2.63-2.58,4.06-5.91,4.68,2,.58,3.33,1.93,5.21,4.08l1.79-.5c-.42,3.86-2.91,4.59-4.09,4.59C316.4,49.78,315.25,48.16,313.18,43.68ZM312.65,40c1.68-.28,3.27-1.07,3.27-2,0-.39-.84-1-2.71-1.37C313.09,37.69,312.87,38.86,312.65,40Z" fill="#e17a57"/><g opacity="0.75"><path d="M235.69,80.41a.71.71,0,0,1-.25-.45c-.15-2.58-.37-5.59-.6-7.32l-.84-.46a3.43,3.43,0,0,1,2.64-1.47c1.71,0,2.17,1.44,2.17,3.33a26.86,26.86,0,0,1-.35,4.59,10.24,10.24,0,0,0,2.5-3.84,19.51,19.51,0,0,0-.61-3.19,2.72,2.72,0,0,1,2-.89c1.24,0,2.07.8,2.07,3a31.07,31.07,0,0,1-.4,4.77,8.51,8.51,0,0,0,2.61-6.1l-1-.63A3.31,3.31,0,0,1,248,70.71,2.11,2.11,0,0,1,250.26,73c0,3-2.55,6.75-5.62,8.16a2.13,2.13,0,0,1-.67.16,3.35,3.35,0,0,1-2.42-1c-.1-.1-.13-.14-.14-.38l0-.4A6.88,6.88,0,0,1,239,81.22a1.9,1.9,0,0,1-.67.13A5.6,5.6,0,0,1,235.69,80.41Z" fill="#3c2c6a"/><path d="M254.7,75.78l-.87,0c0,.27-.09.55-.14.83a6.75,6.75,0,0,1,1.27-.12c.5,0,.89.15.89.69a2,2,0,0,1-.27.93,5.74,5.74,0,0,0-1-.09c-.25,0-.77,0-1.22,0-.09.31-.17.6-.26.88.81-.07,1.57-.11,2-.11,1,0,1.37.46,1.37,1a2.26,2.26,0,0,1-.47,1.26,25.78,25.78,0,0,0-4.6-.16.9.9,0,0,1-1-1,2.74,2.74,0,0,1,.17-.77,30.67,30.67,0,0,0,.74-3.39.84.84,0,0,1-.74-.88,2.37,2.37,0,0,1,.24-.94c1.42,0,3.68-.25,4.8-.25s1.45.42,1.45.94a2.53,2.53,0,0,1-.42,1.28A7.71,7.71,0,0,0,254.7,75.78Z" fill="#3c2c6a"/><path d="M258,80.64a3.07,3.07,0,0,1,.07-.45c.25-1.38.47-2.8.63-4.14a7.24,7.24,0,0,0-.73.09l-.36.41a2.11,2.11,0,0,1-.29-1c0-1.19,1-1.76,3-1.76,2.7,0,5.37,1.41,5.37,3.83,0,1.86-2.16,3.67-5.39,3.67C259.63,81.25,258,80.93,258,80.64Zm2.59-4.56c.24.17.51.37.51.58a16.9,16.9,0,0,1-.41,2.64c1.24,0,2.45-.79,2.45-1.64C263.13,77,262.37,76.29,260.58,76.08Z" fill="#3c2c6a"/><path d="M294.43,79.78c0-1.29,1-3.76,1.39-6H294c-1.46,0-1.78-.75-1.78-1.43a4.46,4.46,0,0,1,.4-1.6c.48,0,1,0,1.46,0,1.7,0,4.32-.21,6.43-.21,1.67,0,2.28.63,2.28,1.62a3.41,3.41,0,0,1-.69,1.81,5.19,5.19,0,0,0-1.92-.26h-1.67c.42.19.72.39.72.59,0,.48-.94,4-1.24,5.25l.91.5a3.91,3.91,0,0,1-2.69,1.2C295.05,81.35,294.43,80.68,294.43,79.78Z" fill="#3c2c6a"/><path d="M302.4,80.8c-.1,0-.16-.08-.16-.18a.91.91,0,0,1,.05-.26,34.64,34.64,0,0,0,1.1-5.44l-.54-.31a3,3,0,0,1,1.92-.81c.9,0,1.3.41,1.3,1.22a9.08,9.08,0,0,1-.23,1.72,4.66,4.66,0,0,1,1.41-.2c.2,0,.32.25.39.54a31,31,0,0,1,1-3.08c.06-.14.09-.2.21-.2s1.81.33,1.87.34.16.08.16.17a1.67,1.67,0,0,1,0,.29,44.35,44.35,0,0,0-1.07,5.51l.55.31a3,3,0,0,1-1.92.83c-.9,0-1.33-.41-1.33-1.27a7.68,7.68,0,0,1,.19-1.46c-.43,0-.83,0-1.24,0l-.66,0c-.31,1.06-.65,2.05-.85,2.55-.06.14-.09.19-.22.21S302.47,80.82,302.4,80.8Z" fill="#3c2c6a"/><path d="M311.25,79c0-1.16.76-2.79.7-3.94l-.55-.37a2.62,2.62,0,0,1,1.91-.86A1.17,1.17,0,0,1,314.58,75a26.87,26.87,0,0,1-.72,3.6c0,.65.72.83,1.56.73a8.86,8.86,0,0,0,1.19-4.27l-.64-.33a2.33,2.33,0,0,1,1.77-1,1.41,1.41,0,0,1,1.49,1.54c0,2.48-1.63,5.91-4.87,5.91C312.34,81.25,311.25,80.36,311.25,79Z" fill="#3c2c6a"/><path d="M323.61,78.87a.66.66,0,0,0-.42-.41,16.44,16.44,0,0,1-.45,1.59l.57.29a2.38,2.38,0,0,1-1.87.91,1.08,1.08,0,0,1-1.22-1.1c0-.81.75-2.39,1-4.15-.28,0-.55.08-.79.14l-.28.57a1.86,1.86,0,0,1-.55-1.22c0-1.21,1-1.72,3.2-1.72,2.63,0,4.44,1.08,4.44,2.4,0,1-1,1.63-2.36,1.87A4.61,4.61,0,0,1,327,79.68l.72-.2c-.17,1.54-1.17,1.83-1.64,1.83C324.9,81.31,324.44,80.66,323.61,78.87Zm-.21-1.46c.67-.11,1.31-.42,1.31-.81,0-.16-.34-.41-1.09-.55C323.58,76.47,323.49,76.94,323.4,77.41Z" fill="#3c2c6a"/><path d="M359.32,79.89c0-1.34.93-3.26,1.36-6.13a1.28,1.28,0,0,1-1.17-1.42,3.52,3.52,0,0,1,.3-1.3c1.84,0,4.84-.41,6.81-.41,1.66,0,2.13.73,2.13,1.55a2.93,2.93,0,0,1-.68,1.74,8.74,8.74,0,0,0-2.65-.25l-1.19,0c-.08.56-.18,1.12-.29,1.66a9.6,9.6,0,0,1,1.59-.14c.72,0,1.21.26,1.21,1a3.3,3.3,0,0,1-.33,1.35,8.89,8.89,0,0,0-1.81-.16l-1.12,0-.55,2.19,1,.47a3.47,3.47,0,0,1-2.66,1.23C359.91,81.35,359.32,80.66,359.32,79.89Z" fill="#3c2c6a"/><path d="M372.29,78.87a.66.66,0,0,0-.42-.41,16.44,16.44,0,0,1-.45,1.59l.57.29a2.38,2.38,0,0,1-1.87.91,1.08,1.08,0,0,1-1.22-1.1c0-.81.75-2.39,1-4.15-.28,0-.55.08-.79.14l-.28.57a1.82,1.82,0,0,1-.55-1.22c0-1.21,1-1.72,3.2-1.72,2.63,0,4.44,1.08,4.44,2.4,0,1-1,1.63-2.36,1.87a4.61,4.61,0,0,1,2.08,1.64l.72-.2c-.17,1.54-1.17,1.83-1.64,1.83C373.58,81.31,373.12,80.66,372.29,78.87Zm-.21-1.46c.67-.11,1.31-.42,1.31-.81,0-.16-.34-.41-1.09-.55C372.26,76.47,372.17,76.94,372.08,77.41Z" fill="#3c2c6a"/><path d="M376.73,80.11c0-.9.91-3.24,1-5.19l-.55-.31a2.82,2.82,0,0,1,1.88-.81A1.14,1.14,0,0,1,380.4,75a26.94,26.94,0,0,1-1.1,5l.64.36a2.62,2.62,0,0,1-1.94.83A1.11,1.11,0,0,1,376.73,80.11Z" fill="#3c2c6a"/><path d="M417.19,79.06a1.54,1.54,0,0,1,1.94-1.39,2.91,2.91,0,0,0,2.1,1.57.49.49,0,0,0,.56-.53c0-1.28-3-2.53-3-4.79s2.08-3.21,4.13-3.21,3.81.72,3.81,2c0,.8-.8,1.38-1.87,1.33a2.15,2.15,0,0,0-1.78-1.33c-.35,0-.51.19-.51.43,0,1,3.17,2.5,3.17,4.8,0,1.7-1.36,3.38-4.5,3.38C419.48,81.35,417.19,80.63,417.19,79.06Z" fill="#3c2c6a"/><path d="M426,79.68c2.76-2,4.57-5.88,6.94-5.88,1.08,0,1.52.37,1.52,1.11a2.21,2.21,0,0,1-.13.67l-.6.1a13.17,13.17,0,0,0,.94,4.24l.47.1a1.91,1.91,0,0,1-1.76,1.23A1.4,1.4,0,0,1,432,80.13c-.51,0-1.13-.06-1.59-.06l-1.13,0a2.59,2.59,0,0,1-1.73,1.16C426.84,81.25,426.26,80.83,426,79.68Zm5.58-2.85a19.77,19.77,0,0,0-1.18,1.61,5.79,5.79,0,0,1,.79-.06c.21,0,.37.2.51.43C431.67,78.19,431.63,77.47,431.62,76.83Z" fill="#3c2c6a"/><path d="M436.34,80.15c0-.91.7-2.63,1-4.17h-1.26c-1,0-1.24-.53-1.24-1a3.11,3.11,0,0,1,.28-1.12c.33,0,.68,0,1,0,1.18,0,3-.15,4.5-.15,1.16,0,1.59.44,1.59,1.13a2.4,2.4,0,0,1-.48,1.27,3.59,3.59,0,0,0-1.35-.18h-1.16c.29.13.5.27.5.41,0,.34-.66,2.79-.87,3.68l.64.34a2.73,2.73,0,0,1-1.88.85A1.11,1.11,0,0,1,436.34,80.15Z" fill="#3c2c6a"/><path d="M179.65,79.78c0-1.29,1-3.76,1.39-6h-1.79c-1.46,0-1.78-.75-1.78-1.43a4.46,4.46,0,0,1,.4-1.6c.48,0,1,0,1.46,0,1.7,0,4.32-.21,6.43-.21,1.67,0,2.28.63,2.28,1.62a3.41,3.41,0,0,1-.69,1.81,5.19,5.19,0,0,0-1.92-.26h-1.67c.42.19.72.39.72.59,0,.48-.94,4-1.25,5.25l.92.5a3.91,3.91,0,0,1-2.69,1.2C180.27,81.35,179.65,80.68,179.65,79.78Z" fill="#3c2c6a"/><path d="M187.83,79c0-1.16.76-2.79.71-3.94l-.55-.37a2.61,2.61,0,0,1,1.9-.86A1.17,1.17,0,0,1,191.17,75c0,1.4-.73,3-.73,3.6s.73.83,1.57.73a8.84,8.84,0,0,0,1.18-4.27l-.63-.33a2.31,2.31,0,0,1,1.77-1,1.42,1.42,0,0,1,1.49,1.54c0,2.48-1.64,5.91-4.88,5.91C188.93,81.25,187.83,80.36,187.83,79Z" fill="#3c2c6a"/><path d="M200.37,75.78l-.86,0c0,.27-.09.55-.14.83a6.75,6.75,0,0,1,1.27-.12c.5,0,.89.15.89.69a2,2,0,0,1-.27.93,5.74,5.74,0,0,0-1-.09c-.26,0-.77,0-1.22,0-.09.31-.17.6-.26.88.81-.07,1.57-.11,2-.11,1,0,1.37.46,1.37,1a2.34,2.34,0,0,1-.47,1.26,25.89,25.89,0,0,0-4.61-.16.89.89,0,0,1-1-1,2.74,2.74,0,0,1,.17-.77,33.14,33.14,0,0,0,.74-3.39.84.84,0,0,1-.74-.88,2.37,2.37,0,0,1,.24-.94c1.42,0,3.68-.25,4.8-.25s1.45.42,1.45.94A2.53,2.53,0,0,1,202.4,76,7.74,7.74,0,0,0,200.37,75.78Z" fill="#3c2c6a"/><path d="M113.76,79.62c0-1.79,1.36-4.58,2.33-6.1l-1.34,0a2.42,2.42,0,0,1-.24-1.06c0-1.37,1.33-1.84,2.58-1.84a14.74,14.74,0,0,1,2.16.11c1.25.16,1.84,2.53,2,5.45,1.63-3.73,3.1-5.41,4.89-5.41a4.3,4.3,0,0,1,2.07.46,64.73,64.73,0,0,0-.59,8.21l.86.34a3.61,3.61,0,0,1-2.75,1.55c-1.36,0-1.92-.88-1.92-2.14a21.9,21.9,0,0,1,.52-4.15,40.26,40.26,0,0,0-2.83,5.73,2.79,2.79,0,0,1-.89.16c-.71,0-1.08-.4-1.24-1.22-.3-1.55-.51-3.25-.7-4.56a31.64,31.64,0,0,0-1.23,4.52l.8.48a4,4,0,0,1-2.64,1.18C114.41,81.35,113.76,80.76,113.76,79.62Z" fill="#3c2c6a"/><path d="M128.82,78.33a4.55,4.55,0,0,1,4.69-4.53c2.18,0,3.32,1.18,3.32,3a4.48,4.48,0,0,1-4.74,4.43C130.5,81.23,128.82,80.52,128.82,78.33Zm5.33-1.89c0-.66-.23-.94-.72-.94-1.1,0-1.88,1.91-1.88,3.14,0,.63.27.91.71.91C133.42,79.55,134.15,77.49,134.15,76.44Z" fill="#3c2c6a"/><path d="M137.1,80a10.15,10.15,0,0,1,1.52-4.2h-1a1.48,1.48,0,0,1-.23-.81c0-1.06,1.1-1.23,1.94-1.23a7.91,7.91,0,0,1,1.25.09c.84.11,1.5,2.29,1.94,4.28a17,17,0,0,0,.69-3.16l-.56-.33a2.63,2.63,0,0,1,1.84-.83c.88,0,1.33.42,1.33,1.21a16,16,0,0,1-1.82,5.52,1.32,1.32,0,0,1-1.4.73c-.66,0-.9-.12-1.09-.73-.31-1-.75-2.48-1.11-3.56a20.81,20.81,0,0,0-.76,3.11l.56.34a2.81,2.81,0,0,1-1.83.83A1.16,1.16,0,0,1,137.1,80Z" fill="#3c2c6a"/><path d="M56.25,79.06a1.53,1.53,0,0,1,1.93-1.39,2.92,2.92,0,0,0,2.1,1.57.49.49,0,0,0,.56-.53c0-1.28-3-2.53-3-4.79s2.08-3.21,4.13-3.21,3.81.72,3.81,2c0,.8-.8,1.38-1.88,1.33-.53-.93-1.15-1.33-1.77-1.33-.36,0-.52.19-.52.43,0,1,3.17,2.5,3.17,4.8,0,1.7-1.36,3.38-4.49,3.38C58.54,81.35,56.25,80.63,56.25,79.06Z" fill="#3c2c6a"/><path d="M65.85,79c0-1.16.76-2.79.71-3.94L66,74.66a2.61,2.61,0,0,1,1.9-.86A1.17,1.17,0,0,1,69.19,75c0,1.4-.73,3-.73,3.6s.73.83,1.57.73a9,9,0,0,0,1.19-4.27l-.64-.33a2.33,2.33,0,0,1,1.77-1,1.41,1.41,0,0,1,1.49,1.54c0,2.48-1.64,5.91-4.87,5.91C67,81.25,65.85,80.36,65.85,79Z" fill="#3c2c6a"/><path d="M74.15,80a10.28,10.28,0,0,1,1.51-4.2h-.94a1.48,1.48,0,0,1-.23-.81c0-1.06,1.09-1.23,1.94-1.23a7.91,7.91,0,0,1,1.25.09c.84.11,1.5,2.29,1.94,4.28A17.83,17.83,0,0,0,80.31,75l-.56-.33a2.63,2.63,0,0,1,1.84-.83c.88,0,1.33.42,1.33,1.21a16,16,0,0,1-1.82,5.52,1.32,1.32,0,0,1-1.4.73c-.66,0-.9-.12-1.09-.73-.31-1-.75-2.48-1.11-3.56a20.81,20.81,0,0,0-.76,3.11l.56.34a2.81,2.81,0,0,1-1.83.83A1.16,1.16,0,0,1,74.15,80Z" fill="#3c2c6a"/></g><line x1="39.5" y1="63.36" x2="459.5" y2="63.36" fill="#d74d1f" stroke="#e17a57" stroke-linejoin="round" stroke-width="3"/><g opacity="0.75"><path d="M237,168.51c-.3-.18-.39-.3-.39-.51a2.86,2.86,0,0,1,.21-.75c1-2.88,2.13-6.18,2.88-9.06a41.91,41.91,0,0,0-4.62,1.2,3.47,3.47,0,0,1-1.47-2.76c0-2.31,3.15-3.54,7.67-3.54a20.54,20.54,0,0,1,3.19.24,3.65,3.65,0,0,1,2.15,2.73c0,3-2.3,9.84-3.78,13-.21.42-.29.6-.54.6A18.69,18.69,0,0,1,237,168.51Z" fill="#3c2c6a"/><path d="M248.1,163.2c0-5.31,4.51-9.72,10.41-9.72,4.35,0,7.62,2.25,7.62,6.42,0,5.13-3.72,9.81-10.67,9.81C252.79,169.71,248.1,168.39,248.1,163.2Zm11.7-4a1.47,1.47,0,0,0-1.59-1.68c-2.19,0-3.72,4.44-3.72,6.36,0,1.5.9,1.83,1.74,1.83C258.79,165.69,259.8,160.65,259.8,159.18Z" fill="#3c2c6a"/><path d="M179.09,171.57a4.21,4.21,0,0,1,1-2.61c.42,0,1,.06,1.56.06,4.74,0,7.74-1.89,9.24-4.74a7.83,7.83,0,0,1-3.63.9c-3.84,0-5.28-2.13-5.28-4.71,0-3.36,2.94-7,8.34-7,3.3,0,7.62,1.23,7.62,7,0,7.59-6.33,13.92-14.67,13.92C180.71,174.33,179.09,173.46,179.09,171.57Zm12.81-10.65a13.22,13.22,0,0,0,.09-1.56c0-.84-.18-1.83-1.41-1.83a2.21,2.21,0,0,0-2,2.37c0,.63.3,1.26,1.41,1.26A7.19,7.19,0,0,0,191.9,160.92Z" fill="#3c2c6a"/><path d="M120.94,164.67c0-2.55,2.12-4.11,4.77-4.89-1.63-1.05-2.44-2.31-2.44-3.72,0-3.15,3.09-5.34,8.19-5.34,3.81,0,7.47,1.29,7.47,4.35,0,2.1-1.74,3.6-4,4.26,1.71,1,2.91,2.16,2.91,4.11,0,3.24-3.06,6.27-9.63,6.27C125,169.71,120.94,168.54,120.94,164.67Zm8-3.27a4.32,4.32,0,0,0-1.41,3.15,1.18,1.18,0,0,0,1.29,1.26,2.1,2.1,0,0,0,2-2.16C130.8,162.54,130,161.94,129,161.4Zm2.73-3.63a3,3,0,0,0,1.11-2.19c0-.6-.36-1.14-1.29-1.14a1.46,1.46,0,0,0-1.59,1.41C129.93,156.69,130.5,157.2,131.7,157.77Z" fill="#3c2c6a"/><path d="M61.75,156.42c0-2.91,2.48-3.33,5-3.33a55.3,55.3,0,0,1,9.68.81c.84.24,1.83,2.46,1.83,3.3,0,3.6-7.86,13.53-11,16.74-.33.33-.51.48-.75.48-.75,0-3.12-1.53-3.83-2.1-.31-.24-.48-.3-.48-.6a1.32,1.32,0,0,1,.29-.66A103.05,103.05,0,0,0,71,158.79c-2.33.06-4.83.15-6.75.27l-.63,1.29A5.46,5.46,0,0,1,61.75,156.42Z" fill="#d74d1f"/><path d="M421.7,112.66c0-6.09,5.73-11.94,13.41-11.94,2.64,0,4.17.93,4.17,2.67a4.1,4.1,0,0,1-.84,2.4c-.42,0-.9-.06-1.8-.06-3.72,0-6.57,1.29-7.95,3.93a7.38,7.38,0,0,1,4.17-1.23c3.27,0,4.86,1.89,4.86,4.47,0,3.33-2.85,6.81-8.58,6.81C425.75,119.71,421.7,118.27,421.7,112.66Zm6.12,0a7.65,7.65,0,0,0-.06,1.17c0,1,.33,1.92,1.32,1.92a2.17,2.17,0,0,0,2-2.25,1.08,1.08,0,0,0-1.2-1.17A6.75,6.75,0,0,0,427.82,112.69Z" fill="#3c2c6a"/><path d="M360.39,121.42a4.48,4.48,0,0,1,1.78-3.24,8.56,8.56,0,0,0,3.87.9c1.83,0,3.44-.78,3.44-2.22s-2-2.13-5.81-2.13c-.54,0-.67-.27-.67-.54,0-.57,1.17-5.79,2.25-10,.09-.42.21-.66,1-.66s7.07-.06,9.71-.15l.78-1a4,4,0,0,1,1.11,2.79c0,2.43-1.77,3.9-4.47,3.9a38,38,0,0,1-3.9-.24l-.62,2.37c5.69.3,7.4,2.61,7.4,5.46,0,5-4.95,7.65-10.29,7.65C362.88,124.33,360.39,123.64,360.39,121.42Z" fill="#3c2c6a"/><path d="M126.59,118.51c-.3-.18-.39-.3-.39-.51a2.86,2.86,0,0,1,.21-.75c1-2.88,2.13-6.18,2.88-9.06a41.91,41.91,0,0,0-4.62,1.2,3.47,3.47,0,0,1-1.47-2.76c0-2.31,3.15-3.54,7.68-3.54a20.42,20.42,0,0,1,3.18.24,3.66,3.66,0,0,1,2.16,2.73c0,3-2.31,9.84-3.78,13-.21.42-.3.6-.54.6A18.68,18.68,0,0,1,126.59,118.51Z" fill="#3c2c6a"/><path d="M237.88,218.51c-.3-.18-.4-.3-.4-.51a2.86,2.86,0,0,1,.21-.75c1-2.88,2.13-6.18,2.88-9.06a41.09,41.09,0,0,0-4.61,1.2,3.45,3.45,0,0,1-1.48-2.76c0-2.31,3.15-3.54,7.68-3.54a20.42,20.42,0,0,1,3.18.24,3.66,3.66,0,0,1,2.16,2.73c0,3-2.31,9.84-3.78,13-.21.42-.3.6-.54.6A18.54,18.54,0,0,1,237.88,218.51Z" fill="#3c2c6a"/><path d="M249,206.42c0-2.91,2.49-3.33,5-3.33a55.34,55.34,0,0,1,9.69.81c.84.24,1.83,2.46,1.83,3.3,0,3.6-7.86,13.53-10.95,16.74-.33.33-.51.48-.75.48-.75,0-3.12-1.53-3.84-2.1-.3-.24-.48-.3-.48-.6a1.26,1.26,0,0,1,.3-.66,103.05,103.05,0,0,0,8.4-12.27c-2.34.06-4.83.15-6.75.27l-.63,1.29A5.44,5.44,0,0,1,249,206.42Z" fill="#3c2c6a"/><path d="M239.63,269c-2.43,0-5.31.09-7.35.09-.81,0-1.05-.24-1.05-.93,0-2.91.24-4.53,5.28-8,2.85-2,3.9-2.46,3.9-3.3,0-.54-.72-.87-1.95-.87a8.28,8.28,0,0,0-4,1,3.54,3.54,0,0,1-1-2.43c0-2.64,2.79-3.81,6.75-3.81,4.47,0,7.5,1.59,7.5,4.53,0,4.47-7,6.6-9.75,8.82a26.46,26.46,0,0,1,5.16-.63c2.43,0,3.51.78,3.51,2.43a6.51,6.51,0,0,1-1.35,3.54A30,30,0,0,0,239.63,269Z" fill="#3c2c6a"/><path d="M262.91,268.24c-.57,2-1.14,3.78-1.56,5-.21.54-.42.84-.69.84a10.33,10.33,0,0,1-1.35-.18c-1.44-.3-2.85-.66-3.42-.84-.39-.12-.51-.33-.51-.54a4.7,4.7,0,0,1,.21-1c.24-.9.6-2,1-3.24-1,0-2,0-3.75,0-2.43,0-3.33-.3-4.08-2a9.44,9.44,0,0,1-1-3c0-1.44,10.14-10.29,13.14-10.29a7.79,7.79,0,0,1,2.67.78c1,.45,2.13,1.2,2.13,2.31a43.24,43.24,0,0,1-1.44,7.26c1.59,0,3.51.24,3.51,2.19a7.88,7.88,0,0,1-.63,2.85C266.3,268.36,264.29,268.27,262.91,268.24Zm-3.81-9.18-5.55,4.68h4.32C258.32,262.12,258.74,260.53,259.1,259.06Z" fill="#3c2c6a"/><path d="M177.81,218.51c-.3-.18-.39-.3-.39-.51a2.86,2.86,0,0,1,.21-.75c1-2.88,2.13-6.18,2.88-9.06a41.09,41.09,0,0,0-4.61,1.2,3.45,3.45,0,0,1-1.48-2.76c0-2.31,3.15-3.54,7.68-3.54a20.42,20.42,0,0,1,3.18.24,3.66,3.66,0,0,1,2.16,2.73c0,3-2.31,9.84-3.78,13-.21.42-.3.6-.54.6A18.68,18.68,0,0,1,177.81,218.51Z" fill="#3c2c6a"/><path d="M188.89,212.66c0-6.09,5.72-11.94,13.4-11.94,2.64,0,4.17.93,4.17,2.67a4.1,4.1,0,0,1-.84,2.4c-.42,0-.9-.06-1.8-.06-3.72,0-6.57,1.29-7.94,3.93a7.32,7.32,0,0,1,4.16-1.23c3.27,0,4.86,1.89,4.86,4.47,0,3.33-2.85,6.81-8.58,6.81C192.94,219.71,188.89,218.27,188.89,212.66Zm6.11,0a7.65,7.65,0,0,0-.06,1.17c0,1,.33,1.92,1.32,1.92a2.17,2.17,0,0,0,2-2.25,1.08,1.08,0,0,0-1.2-1.17A6.8,6.8,0,0,0,195,212.69Z" fill="#3c2c6a"/><path d="M182,269c-2.43,0-5.31.09-7.35.09-.8,0-1-.24-1-.93,0-2.91.25-4.53,5.28-8,2.85-2,3.9-2.46,3.9-3.3,0-.54-.72-.87-1.95-.87a8.28,8.28,0,0,0-4,1,3.54,3.54,0,0,1-1-2.43c0-2.64,2.79-3.81,6.75-3.81,4.47,0,7.5,1.59,7.5,4.53,0,4.47-7,6.6-9.75,8.82a26.46,26.46,0,0,1,5.16-.63c2.43,0,3.51.78,3.51,2.43a6.51,6.51,0,0,1-1.35,3.54A30,30,0,0,0,182,269Z" fill="#3c2c6a"/><path d="M188.62,271.15a4.08,4.08,0,0,1,1.73-3.15,9.51,9.51,0,0,0,4.26,1.08c1.68,0,2.88-.81,2.88-2.07,0-.9-.75-1.62-3.72-1.92-1.56-.18-1.73-.9-1.73-1.5a2.69,2.69,0,0,1,.9-1.92c.27,0,2.48-.06,3.65-.06,1.53-1,1.86-1.74,1.86-2.16,0-.81-.72-1.14-1.92-1.14a10,10,0,0,0-3.8.84,3.32,3.32,0,0,1-1-2.34c0-2.82,3.08-3.72,6.32-3.72,4.41,0,7.32,1.38,7.32,4.47,0,1.41-1.14,3.63-4.14,5a5.09,5.09,0,0,1,3,4.56c0,4.62-4.35,7.2-9.27,7.2C191.34,274.33,188.62,273.31,188.62,271.15Z" fill="#3c2c6a"/><path d="M170.83,321.15a4.08,4.08,0,0,1,1.73-3.15,9.51,9.51,0,0,0,4.26,1.08c1.68,0,2.88-.81,2.88-2.07,0-.9-.75-1.62-3.72-1.92-1.56-.18-1.73-.9-1.73-1.5a2.69,2.69,0,0,1,.9-1.92c.27,0,2.48-.06,3.65-.06,1.53-1,1.86-1.74,1.86-2.16,0-.81-.72-1.14-1.92-1.14a10,10,0,0,0-3.8.84,3.32,3.32,0,0,1-1-2.34c0-2.82,3.08-3.72,6.32-3.72,4.41,0,7.32,1.38,7.32,4.47,0,1.41-1.14,3.63-4.14,5a5.09,5.09,0,0,1,3,4.56c0,4.62-4.35,7.2-9.27,7.2C173.55,324.33,170.83,323.31,170.83,321.15Z" fill="#3c2c6a"/><path d="M188.58,313.2c0-5.31,4.5-9.72,10.41-9.72,4.35,0,7.62,2.25,7.62,6.42,0,5.13-3.72,9.81-10.68,9.81C193.26,319.71,188.58,318.39,188.58,313.2Zm11.7-4a1.47,1.47,0,0,0-1.59-1.68c-2.19,0-3.72,4.44-3.72,6.36,0,1.5.9,1.83,1.74,1.83C199.26,315.69,200.28,310.65,200.28,309.18Z" fill="#3c2c6a"/><path d="M233,321.15a4.09,4.09,0,0,1,1.74-3.15,9.51,9.51,0,0,0,4.26,1.08c1.68,0,2.88-.81,2.88-2.07,0-.9-.75-1.62-3.72-1.92-1.56-.18-1.74-.9-1.74-1.5a2.73,2.73,0,0,1,.9-1.92c.27,0,2.49-.06,3.66-.06,1.53-1,1.86-1.74,1.86-2.16,0-.81-.72-1.14-1.92-1.14a10.11,10.11,0,0,0-3.81.84,3.37,3.37,0,0,1-1-2.34c0-2.82,3.09-3.72,6.33-3.72,4.41,0,7.32,1.38,7.32,4.47,0,1.41-1.14,3.63-4.14,5a5.09,5.09,0,0,1,3,4.56c0,4.62-4.35,7.2-9.27,7.2C235.76,324.33,233,323.31,233,321.15Z" fill="#3c2c6a"/><path d="M254.51,318.51c-.3-.18-.39-.3-.39-.51a2.86,2.86,0,0,1,.21-.75c1-2.88,2.13-6.18,2.88-9.06a41.91,41.91,0,0,0-4.62,1.2,3.47,3.47,0,0,1-1.47-2.76c0-2.31,3.15-3.54,7.68-3.54a20.42,20.42,0,0,1,3.18.24,3.66,3.66,0,0,1,2.16,2.73c0,3-2.31,9.84-3.78,13-.21.42-.3.6-.54.6A18.68,18.68,0,0,1,254.51,318.51Z" fill="#3c2c6a"/><path d="M56.33,218.51c-.3-.18-.39-.3-.39-.51a2.86,2.86,0,0,1,.21-.75c1-2.88,2.13-6.18,2.88-9.06a41.91,41.91,0,0,0-4.62,1.2,3.47,3.47,0,0,1-1.47-2.76c0-2.31,3.15-3.54,7.68-3.54a20.42,20.42,0,0,1,3.18.24A3.66,3.66,0,0,1,66,206.06c0,3-2.31,9.84-3.78,13-.21.42-.3.6-.54.6A18.68,18.68,0,0,1,56.33,218.51Z" fill="#d74d1f"/><path d="M82,218.24c-.57,2-1.14,3.78-1.56,5-.21.54-.42.84-.69.84a10.33,10.33,0,0,1-1.35-.18c-1.44-.3-2.85-.66-3.42-.84-.39-.12-.51-.33-.51-.54a4.7,4.7,0,0,1,.21-1c.24-.9.6-2,1-3.24-1,0-2,0-3.75,0-2.43,0-3.33-.3-4.08-2a9.44,9.44,0,0,1-1-3c0-1.44,10.14-10.29,13.14-10.29a7.79,7.79,0,0,1,2.67.78c1,.45,2.13,1.2,2.13,2.31a43.24,43.24,0,0,1-1.44,7.26c1.59,0,3.51.24,3.51,2.19a7.88,7.88,0,0,1-.63,2.85C85.43,218.36,83.42,218.27,82,218.24Zm-3.81-9.18-5.55,4.68H77C77.45,212.12,77.87,210.53,78.23,209.06Z" fill="#d74d1f"/><path d="M62.46,269c-2.43,0-5.31.09-7.34.09-.81,0-1.06-.24-1.06-.93,0-2.91.25-4.53,5.28-8,2.85-2,3.9-2.46,3.9-3.3,0-.54-.72-.87-2-.87a8.28,8.28,0,0,0-4,1,3.54,3.54,0,0,1-1-2.43c0-2.64,2.79-3.81,6.75-3.81,4.47,0,7.5,1.59,7.5,4.53,0,4.47-7,6.6-9.75,8.82a26.46,26.46,0,0,1,5.16-.63c2.43,0,3.51.78,3.51,2.43a6.51,6.51,0,0,1-1.35,3.54A30,30,0,0,0,62.46,269Z" fill="#d74d1f"/><path d="M74.88,268.51c-.3-.18-.39-.3-.39-.51a2.86,2.86,0,0,1,.21-.75c1-2.88,2.13-6.18,2.88-9.06a41.91,41.91,0,0,0-4.62,1.2,3.47,3.47,0,0,1-1.47-2.76c0-2.31,3.15-3.54,7.68-3.54a20.42,20.42,0,0,1,3.18.24,3.66,3.66,0,0,1,2.16,2.73c0,3-2.31,9.84-3.78,13-.21.42-.3.6-.54.6A18.68,18.68,0,0,1,74.88,268.51Z" fill="#d74d1f"/><path d="M60.71,319c-2.43,0-5.31.09-7.35.09-.81,0-1-.24-1-.93,0-2.91.24-4.53,5.28-8,2.85-2,3.9-2.46,3.9-3.3,0-.54-.72-.87-2-.87a8.28,8.28,0,0,0-4,1,3.54,3.54,0,0,1-1-2.43c0-2.64,2.79-3.81,6.75-3.81,4.47,0,7.5,1.59,7.5,4.53,0,4.47-7,6.6-9.75,8.82a26.46,26.46,0,0,1,5.16-.63c2.43,0,3.51.78,3.51,2.43a6.51,6.51,0,0,1-1.35,3.54A30,30,0,0,0,60.71,319Z" fill="#d74d1f"/><path d="M69.08,314.67c0-2.55,2.13-4.11,4.77-4.89a4.49,4.49,0,0,1-2.43-3.72c0-3.15,3.09-5.34,8.19-5.34,3.81,0,7.47,1.29,7.47,4.35,0,2.1-1.74,3.6-4,4.26,1.71,1,2.91,2.16,2.91,4.11,0,3.24-3.06,6.27-9.63,6.27C73.19,319.71,69.08,318.54,69.08,314.67Zm8-3.27a4.32,4.32,0,0,0-1.41,3.15A1.17,1.17,0,0,0,77,315.81a2.1,2.1,0,0,0,2-2.16C79,312.54,78.17,311.94,77.12,311.4Zm2.73-3.63A3,3,0,0,0,81,305.58c0-.6-.36-1.14-1.29-1.14a1.46,1.46,0,0,0-1.59,1.41C78.08,306.69,78.65,307.2,79.85,307.77Z" fill="#d74d1f"/><path d="M118.83,218.51c-.29-.18-.39-.3-.39-.51a2.86,2.86,0,0,1,.21-.75c1-2.88,2.13-6.18,2.88-9.06a41.09,41.09,0,0,0-4.61,1.2,3.45,3.45,0,0,1-1.48-2.76c0-2.31,3.15-3.54,7.68-3.54a20.42,20.42,0,0,1,3.18.24,3.66,3.66,0,0,1,2.16,2.73c0,3-2.31,9.84-3.78,13-.21.42-.3.6-.54.6A18.68,18.68,0,0,1,118.83,218.51Z" fill="#3c2c6a"/><path d="M127.68,221.42a4.47,4.47,0,0,1,1.77-3.24,8.59,8.59,0,0,0,3.87.9c1.83,0,3.45-.78,3.45-2.22s-2-2.13-5.82-2.13c-.54,0-.66-.27-.66-.54,0-.57,1.17-5.79,2.25-10,.09-.42.21-.66,1-.66.93,0,7.08-.06,9.72-.15l.78-1a4,4,0,0,1,1.11,2.79c0,2.43-1.77,3.9-4.47,3.9a37.78,37.78,0,0,1-3.9-.24l-.63,2.37c5.7.3,7.41,2.61,7.41,5.46,0,5-5,7.65-10.29,7.65C130.17,224.33,127.68,223.64,127.68,221.42Z" fill="#3c2c6a"/><path d="M121.69,269c-2.44,0-5.31.09-7.36.09-.8,0-1-.24-1-.93,0-2.91.24-4.53,5.27-8,2.86-2,3.9-2.46,3.9-3.3,0-.54-.71-.87-1.94-.87a8.25,8.25,0,0,0-4,1,3.55,3.55,0,0,1-1-2.43c0-2.64,2.79-3.81,6.75-3.81,4.47,0,7.5,1.59,7.5,4.53,0,4.47-7,6.6-9.75,8.82a26.55,26.55,0,0,1,5.16-.63c2.43,0,3.51.78,3.51,2.43a6.51,6.51,0,0,1-1.35,3.54A30,30,0,0,0,121.69,269Z" fill="#3c2c6a"/><path d="M138.13,269c-2.44,0-5.32.09-7.35.09-.81,0-1.05-.24-1.05-.93,0-2.91.24-4.53,5.27-8,2.85-2,3.9-2.46,3.9-3.3,0-.54-.71-.87-1.94-.87a8.25,8.25,0,0,0-4,1,3.55,3.55,0,0,1-1-2.43c0-2.64,2.79-3.81,6.75-3.81,4.47,0,7.5,1.59,7.5,4.53,0,4.47-7,6.6-9.75,8.82a26.46,26.46,0,0,1,5.16-.63c2.43,0,3.51.78,3.51,2.43a6.51,6.51,0,0,1-1.35,3.54A30,30,0,0,0,138.13,269Z" fill="#3c2c6a"/><path d="M121,319c-2.43,0-5.31.09-7.34.09-.81,0-1.06-.24-1.06-.93,0-2.91.25-4.53,5.28-8,2.85-2,3.9-2.46,3.9-3.3,0-.54-.72-.87-1.95-.87a8.28,8.28,0,0,0-4,1,3.54,3.54,0,0,1-1-2.43c0-2.64,2.79-3.81,6.75-3.81,4.47,0,7.5,1.59,7.5,4.53,0,4.47-7,6.6-9.75,8.82a26.46,26.46,0,0,1,5.16-.63c2.43,0,3.51.78,3.51,2.43a6.51,6.51,0,0,1-1.35,3.54A30,30,0,0,0,121,319Z" fill="#3c2c6a"/><path d="M127.24,321.57a4.21,4.21,0,0,1,1-2.61c.42,0,1,.06,1.55.06,4.74,0,7.74-1.89,9.24-4.74a7.83,7.83,0,0,1-3.63.9c-3.84,0-5.28-2.13-5.28-4.71,0-3.36,2.94-7,8.34-7,3.3,0,7.62,1.23,7.62,7,0,7.59-6.33,13.92-14.66,13.92C128.85,324.33,127.24,323.46,127.24,321.57ZM140,310.92a13.22,13.22,0,0,0,.09-1.56c0-.84-.18-1.83-1.41-1.83a2.21,2.21,0,0,0-1.95,2.37c0,.63.3,1.26,1.41,1.26A7.19,7.19,0,0,0,140,310.92Z" fill="#3c2c6a"/><path d="M418.75,168.51c-.3-.18-.39-.3-.39-.51a2.81,2.81,0,0,1,.2-.75c1-2.88,2.14-6.18,2.89-9.06a41.33,41.33,0,0,0-4.62,1.2,3.47,3.47,0,0,1-1.47-2.76c0-2.31,3.14-3.54,7.68-3.54a20.3,20.3,0,0,1,3.17.24,3.68,3.68,0,0,1,2.17,2.73c0,3-2.32,9.84-3.79,13-.21.42-.3.6-.54.6A18.69,18.69,0,0,1,418.75,168.51Z" fill="#3c2c6a"/><path d="M427.69,171.15a4.08,4.08,0,0,1,1.73-3.15,9.55,9.55,0,0,0,4.26,1.08c1.69,0,2.88-.81,2.88-2.07,0-.9-.75-1.62-3.72-1.92-1.55-.18-1.74-.9-1.74-1.5a2.73,2.73,0,0,1,.9-1.92c.28,0,2.49-.06,3.66-.06,1.53-1,1.86-1.74,1.86-2.16,0-.81-.72-1.14-1.92-1.14a10.11,10.11,0,0,0-3.81.84,3.41,3.41,0,0,1-1-2.34c0-2.82,3.09-3.72,6.33-3.72,4.41,0,7.32,1.38,7.32,4.47,0,1.41-1.14,3.63-4.14,5a5.09,5.09,0,0,1,3,4.56c0,4.62-4.35,7.2-9.27,7.2C430.41,174.33,427.69,173.31,427.69,171.15Z" fill="#3c2c6a"/><path d="M420.37,219c-2.44,0-5.32.09-7.36.09-.8,0-1.05-.24-1.05-.93,0-2.91.25-4.53,5.28-8,2.85-2,3.9-2.46,3.9-3.3,0-.54-.72-.87-1.94-.87a8.29,8.29,0,0,0-4,1.05,3.59,3.59,0,0,1-1-2.43c0-2.64,2.8-3.81,6.75-3.81,4.47,0,7.5,1.59,7.5,4.53,0,4.47-7,6.6-9.75,8.82a26.46,26.46,0,0,1,5.16-.63c2.43,0,3.51.78,3.51,2.43a6.51,6.51,0,0,1-1.35,3.54A30,30,0,0,0,420.37,219Z" fill="#3c2c6a"/><path d="M428.86,213.2c0-5.31,4.5-9.72,10.41-9.72,4.35,0,7.61,2.25,7.61,6.42,0,5.13-3.71,9.81-10.67,9.81C433.54,219.71,428.86,218.39,428.86,213.2Zm11.69-4A1.47,1.47,0,0,0,439,207.5c-2.18,0-3.71,4.44-3.71,6.36,0,1.5.89,1.83,1.74,1.83C439.54,215.69,440.55,210.65,440.55,209.18Z" fill="#3c2c6a"/><path d="M421,269c-2.44,0-5.32.09-7.36.09-.8,0-1-.24-1-.93,0-2.91.24-4.53,5.27-8,2.85-2,3.9-2.46,3.9-3.3,0-.54-.72-.87-1.94-.87a8.29,8.29,0,0,0-4,1,3.59,3.59,0,0,1-1-2.43c0-2.64,2.8-3.81,6.75-3.81,4.48,0,7.5,1.59,7.5,4.53,0,4.47-7,6.6-9.75,8.82a26.46,26.46,0,0,1,5.16-.63c2.43,0,3.51.78,3.51,2.43a6.51,6.51,0,0,1-1.35,3.54A30,30,0,0,0,421,269Z" fill="#3c2c6a"/><path d="M430.05,256.42c0-2.91,2.49-3.33,5-3.33a55.34,55.34,0,0,1,9.69.81c.84.24,1.83,2.46,1.83,3.3,0,3.6-7.86,13.53-10.95,16.74-.33.33-.51.48-.75.48-.75,0-3.12-1.53-3.84-2.1-.3-.24-.48-.3-.48-.6a1.26,1.26,0,0,1,.3-.66,101.88,101.88,0,0,0,8.4-12.27c-2.33.06-4.83.15-6.75.27l-.63,1.29A5.44,5.44,0,0,1,430.05,256.42Z" fill="#3c2c6a"/><path d="M358.45,168.51c-.31-.18-.4-.3-.4-.51a2.86,2.86,0,0,1,.21-.75c1-2.88,2.13-6.18,2.88-9.06a41.09,41.09,0,0,0-4.61,1.2,3.45,3.45,0,0,1-1.48-2.76c0-2.31,3.16-3.54,7.68-3.54a20.42,20.42,0,0,1,3.18.24,3.66,3.66,0,0,1,2.16,2.73c0,3-2.31,9.84-3.78,13-.21.42-.3.6-.54.6A18.54,18.54,0,0,1,358.45,168.51Z" fill="#3c2c6a"/><path d="M377.19,169c-2.43,0-5.31.09-7.35.09-.8,0-1-.24-1-.93,0-2.91.25-4.53,5.28-8,2.85-2,3.9-2.46,3.9-3.3,0-.54-.72-.87-2-.87a8.28,8.28,0,0,0-4,1.05,3.54,3.54,0,0,1-1-2.43c0-2.64,2.79-3.81,6.75-3.81,4.47,0,7.5,1.59,7.5,4.53,0,4.47-7,6.6-9.75,8.82a26.46,26.46,0,0,1,5.16-.63c2.43,0,3.51.78,3.51,2.43a6.51,6.51,0,0,1-1.35,3.54A30,30,0,0,0,377.19,169Z" fill="#3c2c6a"/><path d="M357.7,218.51c-.31-.18-.4-.3-.4-.51a2.86,2.86,0,0,1,.21-.75c1-2.88,2.13-6.18,2.88-9.06a41.09,41.09,0,0,0-4.61,1.2,3.45,3.45,0,0,1-1.48-2.76c0-2.31,3.16-3.54,7.68-3.54a20.42,20.42,0,0,1,3.18.24,3.66,3.66,0,0,1,2.16,2.73c0,3-2.31,9.84-3.78,13-.21.42-.3.6-.54.6A18.54,18.54,0,0,1,357.7,218.51Z" fill="#3c2c6a"/><path d="M366.33,221.57a4.21,4.21,0,0,1,1-2.61c.42,0,1,.06,1.56.06,4.74,0,7.74-1.89,9.24-4.74a7.83,7.83,0,0,1-3.63.9c-3.83,0-5.28-2.13-5.28-4.71,0-3.36,2.95-7,8.34-7,3.3,0,7.62,1.23,7.62,7,0,7.59-6.33,13.92-14.67,13.92C368,224.33,366.33,223.46,366.33,221.57Zm12.81-10.65a13.22,13.22,0,0,0,.09-1.56c0-.84-.18-1.83-1.41-1.83a2.2,2.2,0,0,0-1.94,2.37c0,.63.29,1.26,1.4,1.26A7.19,7.19,0,0,0,379.14,210.92Z" fill="#3c2c6a"/><path d="M361.13,269c-2.43,0-5.31.09-7.35.09-.81,0-1-.24-1-.93,0-2.91.24-4.53,5.28-8,2.85-2,3.9-2.46,3.9-3.3,0-.54-.72-.87-2-.87a8.28,8.28,0,0,0-4,1,3.54,3.54,0,0,1-1-2.43c0-2.64,2.79-3.81,6.75-3.81,4.47,0,7.5,1.59,7.5,4.53,0,4.47-7,6.6-9.75,8.82a26.46,26.46,0,0,1,5.16-.63c2.43,0,3.51.78,3.51,2.43a6.51,6.51,0,0,1-1.35,3.54A30,30,0,0,0,361.13,269Z" fill="#3c2c6a"/><path d="M369.74,262.66c0-6.09,5.73-11.94,13.41-11.94,2.64,0,4.17.93,4.17,2.67a4.1,4.1,0,0,1-.84,2.4c-.42,0-.9-.06-1.8-.06-3.72,0-6.57,1.29-7.95,3.93a7.38,7.38,0,0,1,4.17-1.23c3.27,0,4.86,1.89,4.86,4.47,0,3.33-2.85,6.81-8.58,6.81C373.79,269.71,369.74,268.27,369.74,262.66Zm6.12,0a7.65,7.65,0,0,0-.06,1.17c0,1,.33,1.92,1.32,1.92a2.17,2.17,0,0,0,2-2.25,1.08,1.08,0,0,0-1.2-1.17A6.75,6.75,0,0,0,375.86,262.69Z" fill="#3c2c6a"/><path d="M302,269c-2.42,0-5.31.09-7.34.09-.82,0-1.06-.24-1.06-.93,0-2.91.24-4.53,5.28-8,2.86-2,3.9-2.46,3.9-3.3,0-.54-.71-.87-1.94-.87a8.22,8.22,0,0,0-4,1,3.55,3.55,0,0,1-1-2.43c0-2.64,2.79-3.81,6.75-3.81,4.47,0,7.5,1.59,7.5,4.53,0,4.47-7,6.6-9.75,8.82a26.46,26.46,0,0,1,5.16-.63c2.43,0,3.51.78,3.51,2.43a6.51,6.51,0,0,1-1.35,3.54A30,30,0,0,0,302,269Z" fill="#3c2c6a"/><path d="M308.64,271.42a4.47,4.47,0,0,1,1.77-3.24,8.61,8.61,0,0,0,3.88.9c1.82,0,3.44-.78,3.44-2.22s-2-2.13-5.82-2.13c-.53,0-.66-.27-.66-.54,0-.57,1.17-5.79,2.25-10,.09-.42.21-.66,1-.66s7.08-.06,9.72-.15l.78-1a4,4,0,0,1,1.11,2.79c0,2.43-1.77,3.9-4.47,3.9a37.78,37.78,0,0,1-3.9-.24l-.63,2.37c5.7.3,7.41,2.61,7.41,5.46,0,5-4.95,7.65-10.29,7.65C311.13,274.33,308.64,273.64,308.64,271.42Z" fill="#3c2c6a"/><path d="M297.62,218.51c-.3-.18-.39-.3-.39-.51a2.86,2.86,0,0,1,.21-.75c1-2.88,2.13-6.18,2.88-9.06a41.91,41.91,0,0,0-4.62,1.2,3.47,3.47,0,0,1-1.47-2.76c0-2.31,3.15-3.54,7.68-3.54a20.42,20.42,0,0,1,3.18.24,3.66,3.66,0,0,1,2.16,2.73c0,3-2.31,9.84-3.78,13-.21.42-.3.6-.54.6A18.68,18.68,0,0,1,297.62,218.51Z" fill="#3c2c6a"/><path d="M308,214.67c0-2.55,2.13-4.11,4.77-4.89a4.49,4.49,0,0,1-2.43-3.72c0-3.15,3.09-5.34,8.19-5.34,3.81,0,7.47,1.29,7.47,4.35,0,2.1-1.74,3.6-4,4.26,1.71,1,2.91,2.16,2.91,4.11,0,3.24-3.06,6.27-9.63,6.27C312.11,219.71,308,218.54,308,214.67Zm8-3.27a4.32,4.32,0,0,0-1.41,3.15,1.17,1.17,0,0,0,1.29,1.26,2.1,2.1,0,0,0,1.95-2.16C317.87,212.54,317.09,211.94,316,211.4Zm2.73-3.63a3,3,0,0,0,1.11-2.19c0-.6-.36-1.14-1.29-1.14a1.46,1.46,0,0,0-1.59,1.41C317,206.69,317.57,207.2,318.77,207.77Z" fill="#3c2c6a"/><path d="M299.3,168.51c-.3-.18-.39-.3-.39-.51a2.86,2.86,0,0,1,.21-.75c1-2.88,2.13-6.18,2.88-9.06a41.91,41.91,0,0,0-4.62,1.2,3.47,3.47,0,0,1-1.47-2.76c0-2.31,3.15-3.54,7.68-3.54a20.42,20.42,0,0,1,3.18.24,3.66,3.66,0,0,1,2.16,2.73c0,3-2.31,9.84-3.78,13-.21.42-.3.6-.54.6A18.68,18.68,0,0,1,299.3,168.51Z" fill="#3c2c6a"/><path d="M313.88,168.51c-.3-.18-.39-.3-.39-.51a2.86,2.86,0,0,1,.21-.75c1-2.88,2.13-6.18,2.88-9.06a41.91,41.91,0,0,0-4.62,1.2,3.47,3.47,0,0,1-1.47-2.76c0-2.31,3.15-3.54,7.68-3.54a20.42,20.42,0,0,1,3.18.24,3.66,3.66,0,0,1,2.16,2.73c0,3-2.31,9.84-3.78,13-.21.42-.3.6-.54.6A18.68,18.68,0,0,1,313.88,168.51Z" fill="#3c2c6a"/><path d="M189.9,119c-2.43,0-5.31.09-7.35.09-.8,0-1.05-.24-1.05-.93,0-2.91.25-4.53,5.28-8,2.85-2,3.9-2.46,3.9-3.3,0-.54-.72-.87-2-.87a8.28,8.28,0,0,0-4,1,3.54,3.54,0,0,1-1-2.43c0-2.64,2.79-3.81,6.75-3.81,4.47,0,7.5,1.59,7.5,4.53,0,4.47-7,6.6-9.75,8.82a26.46,26.46,0,0,1,5.16-.63c2.43,0,3.51.78,3.51,2.43a6.51,6.51,0,0,1-1.35,3.54A30,30,0,0,0,189.9,119Z" fill="#3c2c6a"/><path d="M240.4,121.15a4.09,4.09,0,0,1,1.74-3.15,9.51,9.51,0,0,0,4.26,1.08c1.68,0,2.87-.81,2.87-2.07,0-.9-.75-1.62-3.71-1.92-1.56-.18-1.74-.9-1.74-1.5a2.73,2.73,0,0,1,.9-1.92c.27,0,2.49-.06,3.66-.06,1.52-1,1.85-1.74,1.85-2.16,0-.81-.71-1.14-1.92-1.14a10.06,10.06,0,0,0-3.8.84,3.37,3.37,0,0,1-1-2.34c0-2.82,3.09-3.72,6.33-3.72,4.41,0,7.32,1.38,7.32,4.47,0,1.41-1.15,3.63-4.15,5a5.09,5.09,0,0,1,3,4.56c0,4.62-4.35,7.2-9.27,7.2C243.13,124.33,240.4,123.31,240.4,121.15Z" fill="#3c2c6a"/><path d="M314.87,118.24c-.57,2-1.14,3.78-1.56,5-.21.54-.42.84-.69.84a10.33,10.33,0,0,1-1.35-.18c-1.44-.3-2.85-.66-3.42-.84-.39-.12-.51-.33-.51-.54a4.7,4.7,0,0,1,.21-1c.24-.9.6-2,1-3.24-1,0-2,0-3.75,0-2.43,0-3.33-.3-4.08-2a9.44,9.44,0,0,1-1-3c0-1.44,10.14-10.29,13.14-10.29a7.79,7.79,0,0,1,2.67.78c1.05.45,2.13,1.2,2.13,2.31a43.24,43.24,0,0,1-1.44,7.26c1.59,0,3.51.24,3.51,2.19a7.88,7.88,0,0,1-.63,2.85C318.26,118.36,316.25,118.27,314.87,118.24Zm-3.81-9.18-5.55,4.68h4.32C310.28,112.12,310.7,110.53,311.06,109.06Z" fill="#3c2c6a"/></g></svg>