<svg xmlns="http://www.w3.org/2000/svg" width="500" height="392" viewBox="0 0 500 392"><title>opensign</title><rect x="12.58" y="38.25" width="479.62" height="327.23" rx="12.12" ry="12.12" transform="translate(-3.48 4.44) rotate(-1)" fill="#ede8fa"/><rect x="9.58" y="32.25" width="479.62" height="327.23" rx="12.12" ry="12.12" transform="translate(-3.38 4.38) rotate(-1)" fill="#3c2c6a"/><path d="M392.18,335.4l-308.79-20c-27.51-1.77-49.07-26.57-49.34-56.75L32.73,114.53c-.3-32.17,23.59-58.32,53-58l326.88,3.76c31.09.36,55.07,30.12,51.54,64L447.35,284.62C444.18,314.9,420,337.19,392.18,335.4Z" fill="#ede8fa"/><path d="M395.31,339.42c-1.11,0-2.24,0-3.36-.11L83.16,319.36c-29.36-1.9-52.58-28.53-52.88-60.64L29,114.56A63.66,63.66,0,0,1,46,70C56.51,58.79,70.4,52.62,85.09,52.62h.64L412.6,56.39c15.81.19,30.36,7.31,41,20.07a65.15,65.15,0,0,1,14.26,48.24L451.09,285.05c-3.19,30.5-26.78,53.87-54.87,54.36Zm-311-279a46.32,46.32,0,0,0-33,15,55.71,55.71,0,0,0-14.85,39l1.32,144.16c.25,28,20.37,51.23,45.81,52.87l308.79,20c.95.06,1.92.09,2.87.09,24.73,0,45.5-20.37,48.33-47.39l16.76-160.35A57,57,0,0,0,447.91,81.6c-9.2-11-21.76-17.21-35.38-17.37L85.13,60.47Z" fill="#3c2c6a"/><path d="M85.09,53.87h.62l326.88,3.76c15.43.18,29.65,7.15,40,19.62a63.85,63.85,0,0,1,14,47.31L449.84,284.92c-3.15,30.16-26.32,52.76-53.64,53.24h-.89c-1.08,0-2.18,0-3.27-.11L83.24,318.11c-28.71-1.86-51.42-27.95-51.71-59.4L30.22,114.55a62.37,62.37,0,0,1,16.66-43.7c10.31-10.95,23.84-17,38.21-17m310.19,279c25.17,0,46.67-20.73,49.57-48.51L461.61,124A58.22,58.22,0,0,0,448.87,80.8C439.44,69.47,426.54,63.14,412.54,63L85.67,59.22H84.32A47.43,47.43,0,0,0,50.43,74.63a57,57,0,0,0-15.19,39.88l1.32,144.16c.26,28.66,20.89,52.42,47,54.11l308.8,20c1,.07,2,.1,2.95.1M85.09,51.37h0c-15,0-29.25,6.31-40,17.76a65,65,0,0,0-17.34,45.45L29,258.73c.29,32.76,24,59.94,54,61.87l308.79,20c1.15.07,2.3.11,3.44.11h.93c28.72-.5,52.83-24.35,56.09-55.48l16.76-160.35a66.36,66.36,0,0,0-14.54-49.17c-10.87-13-25.76-20.33-41.93-20.52L85.74,51.38Zm310.19,279c-.93,0-1.87,0-2.79-.09l-308.79-20c-24.78-1.6-44.39-24.28-44.64-51.63L37.74,114.49A54.47,54.47,0,0,1,52.25,76.34,45.06,45.06,0,0,1,84.36,61.72h1.28l326.88,3.76C425.76,65.64,438,71.64,447,82.4a55.7,55.7,0,0,1,12.17,41.31L442.36,284.06c-2.75,26.38-23,46.27-47.08,46.27Z" fill="#ede8fa"/><path d="M59.91,269.78c-.57-32.64,25.69-55.54,56-56.07,26.52-.46,40.64,13.71,41,35.74.5,28.29-21.22,54.24-56.71,54.86C80.92,304.64,60.37,296.3,59.91,269.78Zm64.32-24.11c-.14-8-2.92-11.38-8.9-11.27-13.33.23-22.44,23.65-22.18,38.47.14,7.75,3.46,11.1,8.9,11C116.05,283.63,124.46,258.45,124.23,245.67Z" fill="#3c2c6a"/><path d="M171.25,289.6c-.17-9.25,7-26.37,10.31-48.33a82.54,82.54,0,0,0-10.27,3.85L168,251.3c-3.74-4-7-10.08-7.06-15.25-.3-17.13,19.58-23.46,40.52-23.83,33.45-.58,55.34,14.27,55.7,34.94.34,19.44-16.35,29.8-31.44,30.06-8.7.16-15.13-1.91-19.54-5.37-1.39,6.15-2.79,11.75-4.07,16.4l8.36,3.79c-7.21,7.88-15.45,10.75-22.66,10.88C176.65,303.11,171.38,297.35,171.25,289.6Zm40.2-50.35c-.69,7.5-1.79,14.86-3,21.82,11.95-1,18-6.3,17.88-11.74C226.25,245.79,221.14,241.12,211.45,239.25Z" fill="#3c2c6a"/><path d="M309.43,234.41c-2.85.05-6.52.39-10.46.46-.49,3.27-1,6.68-1.6,10.09a85.27,85.27,0,0,1,15.48-1.77c6-.1,10.78,1.72,10.89,8.25a25.07,25.07,0,0,1-3.07,11.34,64.77,64.77,0,0,0-12.25-.87c-3.13,0-9.39.3-14.82.66-1,3.83-1.91,7.38-2.94,10.8,9.78-1,19-1.69,24.86-1.79,12.24-.22,16.69,5.28,16.81,12.22.1,5.84-2.53,10.92-5.44,15.46-14.34-3.15-43.55-1.28-55.93-1.06-8.43.15-11.66-5.51-11.77-11.9-.06-3.4,1-5.87,1.88-9.42a399,399,0,0,0,8.26-41.22c-6.15-1.26-9.07-5-9.16-10.59a29.1,29.1,0,0,1,2.65-11.47c17.27-.3,44.69-3.77,58.28-4s17.63,4.72,17.75,11.12c.09,5.57-2.13,10.91-4.77,15.58C329.16,234.48,316.77,234.29,309.43,234.41Z" fill="#3c2c6a"/><path d="M341.05,284.87c-.26-15.09,9.94-38.26,17.47-51.31-3.95.07-7.89.27-11.42.33a17.24,17.24,0,0,1-3-9.74c-.22-12.92,13.07-15.19,23.26-15.37a101.12,101.12,0,0,1,15.25.82c10.23,1.19,18.71,27.43,24.44,51.54,3.71-13.26,7.12-28,7.76-38.5l-6.87-4c6.14-6.36,14-10.31,22.12-10.45,10.74-.19,16.27,4.89,16.44,14.41.25,14.27-10.08,46-21,67.42-3,6-6.92,9-16.85,9.14-8,.14-10.9-1.17-13.34-8.61-4-11.9-9.64-29.89-14.22-43-3.59,12.44-7.67,28.16-8.59,38l6.87,4c-6.55,6.37-14.51,10.32-22,10.45C347,300.14,341.23,294.93,341.05,284.87Z" fill="#3c2c6a"/><path d="M54.85,266.87c-.56-32.64,25.7-55.54,56-56.07,26.52-.46,40.64,13.71,41,35.74.5,28.28-21.22,54.24-56.71,54.85C75.87,301.73,55.32,293.38,54.85,266.87Zm64.33-24.11c-.14-8-2.92-11.38-8.9-11.27C97,231.72,87.84,255.14,88.1,270c.13,7.75,3.46,11.09,8.9,11C111,280.71,119.4,255.54,119.18,242.76Z" fill="#ede8fa"/><path d="M166.19,286.69c-.16-9.25,7-26.38,10.31-48.33a82.15,82.15,0,0,0-10.27,3.85l-3.29,6.18c-3.74-4-7-10.08-7.07-15.25-.3-17.13,19.59-23.47,40.53-23.83,33.45-.59,55.34,14.27,55.7,34.94.34,19.44-16.35,29.8-31.44,30.06-8.7.15-15.13-1.91-19.55-5.37-1.39,6.15-2.78,11.75-4.06,16.39l8.36,3.8C198.2,297,190,299.88,182.75,300,171.6,300.2,166.33,294.44,166.19,286.69Zm40.2-50.35c-.68,7.49-1.78,14.86-3,21.82,12-1,18-6.3,17.89-11.74C221.2,242.88,216.08,238.21,206.39,236.34Z" fill="#ede8fa"/><path d="M304.38,231.5c-2.86.05-6.52.39-10.47.46-.48,3.27-1,6.68-1.59,10.09a84.39,84.39,0,0,1,15.48-1.77c6-.1,10.77,1.72,10.89,8.25a25.07,25.07,0,0,1-3.07,11.34,64.82,64.82,0,0,0-12.26-.87c-3.12.05-9.38.29-14.81.66-1,3.83-1.91,7.38-2.94,10.8,9.78-1,19-1.69,24.86-1.8,12.24-.21,16.69,5.29,16.81,12.23.1,5.84-2.53,10.92-5.45,15.46-14.33-3.15-43.54-1.28-55.92-1.06-8.43.14-11.66-5.51-11.77-11.9-.06-3.4,1-5.87,1.88-9.42a399,399,0,0,0,8.26-41.22c-6.15-1.26-9.07-5-9.17-10.59a29.31,29.31,0,0,1,2.66-11.47c17.27-.31,44.69-3.78,58.28-4s17.63,4.72,17.74,11.11c.1,5.58-2.12,10.92-4.76,15.59C324.1,231.56,311.72,231.37,304.38,231.5Z" fill="#ede8fa"/><path d="M336,282c-.26-15.1,9.94-38.26,17.47-51.32-4,.07-7.89.28-11.42.34a17.24,17.24,0,0,1-3-9.74c-.23-12.92,13.06-15.19,23.26-15.37a99.82,99.82,0,0,1,15.25.82c10.22,1.18,18.71,27.42,24.43,51.54,3.72-13.26,7.13-28,7.76-38.5l-6.87-4c6.15-6.36,14-10.31,22.13-10.45,10.74-.19,16.27,4.89,16.44,14.4.25,14.28-10.08,46-21,67.43-3,6-6.91,9-16.84,9.13-8,.14-10.9-1.17-13.34-8.6-4-11.9-9.64-29.9-14.22-43-3.59,12.44-7.67,28.15-8.59,38l6.87,4c-6.55,6.37-14.51,10.32-22,10.45C342,297.22,336.17,292,336,282Z" fill="#ede8fa"/><path d="M49.8,264c-.57-32.64,25.69-55.54,56-56.07,26.51-.46,40.64,13.71,41,35.74.49,28.28-21.22,54.23-56.71,54.85C70.82,298.82,50.27,290.47,49.8,264Zm64.33-24.11c-.14-8-2.92-11.38-8.9-11.27-13.33.23-22.44,23.65-22.18,38.47.13,7.75,3.45,11.09,8.89,11C106,277.8,114.35,252.63,114.13,239.85Z" fill="#d74d1f"/><path d="M161.14,283.78c-.16-9.25,7-26.38,10.31-48.33a81.56,81.56,0,0,0-10.27,3.85l-3.29,6.18c-3.74-4-7-10.08-7.07-15.25-.3-17.14,19.59-23.47,40.53-23.83,33.45-.59,55.34,14.27,55.7,34.93.34,19.45-16.35,29.81-31.44,30.07-8.71.15-15.13-1.91-19.55-5.37-1.39,6.14-2.79,11.74-4.06,16.39l8.36,3.8c-7.21,7.88-15.46,10.74-22.66,10.87C166.55,297.29,161.28,291.53,161.14,283.78Zm40.2-50.35c-.68,7.49-1.78,14.85-3,21.81,12-1,18-6.3,17.89-11.73C216.15,240,211,235.3,201.34,233.43Z" fill="#d74d1f"/><path d="M299.33,228.59c-2.86,0-6.52.38-10.47.45-.48,3.28-1,6.69-1.59,10.1a84.39,84.39,0,0,1,15.48-1.77c6-.1,10.77,1.72,10.89,8.24A25.07,25.07,0,0,1,310.57,257a65.58,65.58,0,0,0-12.26-.88c-3.13.06-9.38.3-14.81.67-1,3.83-1.91,7.38-2.94,10.8,9.77-1,19-1.7,24.86-1.8,12.24-.21,16.69,5.29,16.81,12.22.1,5.85-2.53,10.93-5.45,15.47-14.33-3.15-43.55-1.28-55.92-1.06-8.43.14-11.66-5.51-11.77-11.91-.06-3.4,1-5.86,1.88-9.41a396,396,0,0,0,8.25-41.23c-6.14-1.25-9.06-5-9.16-10.58a29.17,29.17,0,0,1,2.66-11.48c17.27-.3,44.68-3.77,58.28-4s17.63,4.73,17.74,11.12c.1,5.58-2.12,10.92-4.76,15.59C319.05,228.65,306.67,228.46,299.33,228.59Z" fill="#d74d1f"/><path d="M331,279c-.27-15.09,9.94-38.25,17.46-51.31-3.94.07-7.88.28-11.42.34a17.23,17.23,0,0,1-3-9.74c-.23-12.92,13.06-15.19,23.26-15.37a99.82,99.82,0,0,1,15.25.82c10.22,1.18,18.7,27.42,24.43,51.53,3.71-13.26,7.13-28,7.76-38.49l-6.87-4c6.15-6.36,14-10.31,22.13-10.45,10.74-.19,16.27,4.88,16.44,14.4.25,14.28-10.08,46-21,67.43-3,6-6.91,9-16.84,9.13-8,.14-10.9-1.17-13.35-8.61-4-11.9-9.63-29.89-14.21-43-3.59,12.44-7.67,28.15-8.59,38l6.87,4c-6.55,6.37-14.51,10.32-22,10.45C336.93,294.31,331.12,289.11,331,279Z" fill="#d74d1f"/><path d="M135.35,98.31c4.16,1.43,5.87,5.2,6.45,9.91,1.06,8.64-1.93,20.39-1.33,26.24.23,2.82-2.41,4.51-5.21,4.85s-5.65-.56-5.92-2.8c-1-8.41,7-23.3,5.95-32.16a8.56,8.56,0,0,0-1.25-3.71c-11.75,1.67-21.42,35.08-18.93,55.38,1.17,9.53,5.07,16.23,12.8,15.28,9.09-1.12,14.07-10.61,17.62-18.79.54-1.2,1.12-2.07,1.9-2.17.34,0,.59.16.67.83a5.55,5.55,0,0,1-.21,2c-2,8.34-8.73,24.41-22.64,26.12-12.23,1.5-18.62-8.87-20.33-22.78-2.89-23.55,7.65-57.3,24.92-59.42C132.09,96.78,134.31,97.3,135.35,98.31Z" fill="#624ca1"/><path d="M175.85,159.26c-3.43,8.28-8.7,14.5-15.09,15.29-9,1.1-13.71-6.86-15-17.18a54.76,54.76,0,0,1,2.27-23.16c.65-2.13,2.23-5.06,5.09-5,1.26-7.33,5.2-13.28,12.27-14.15,9-1.1,13.61,6.08,14.79,15.72a58,58,0,0,1-3,25,12.6,12.6,0,0,0,10.13-8.42c.53-1.2,1-2.06,1.78-2.15.34,0,.7.14.77.7a5.8,5.8,0,0,1-.2,2.07C188.77,152.32,183.47,158.33,175.85,159.26Zm-7.66-.2c-6.19-1.29-10.12-5.47-12.57-10.64a50.81,50.81,0,0,0,.06,10.7c.73,5.94,2.74,10.25,6.44,9.8a2.93,2.93,0,0,0,1-.24C165.2,168.08,166.91,164.34,168.19,159.06Zm-8.43-19.57c.81,6.62,3.64,13,9.3,15.48,1.49-8.26,2-18.58,1.15-25.87-.72-5.83-2.25-10-4.94-9.64C161.45,119.93,158.56,129.73,159.76,139.49Z" fill="#624ca1"/><path d="M191.91,170.5a4.4,4.4,0,0,1-5.14-3.81c-.46-3.82.77-30.84,3.73-48.51a4.1,4.1,0,0,1,3.79-3.42,5.32,5.32,0,0,1,6.13,4.48c.07.56.14,1.12-.57,5.54,2.76-8.08,6.6-13.91,11.87-14.55,9.76-1.2,10.09,8,9.37,15.13,2.69-9.67,6.67-17.1,11.94-17.75,6.62-.81,8.95,4.25,9.46,8.4,1.53,12.45-5.53,33.81-4.62,41.22.22,1.79.8,2.74,2.25,2.57,4.83-.6,9.56-17.69,10.5-20.19.41-1.31,1.12-2.08,1.68-2.15s.84.36.93,1.14a4.36,4.36,0,0,1-.23,1.85c-1.08,4.12-4.73,23.58-14.49,24.78-4.48.55-9.13-2.07-10-8.8-1.2-9.75,5.12-31.59,4.21-39-.21-1.68-.78-2.63-1.9-2.49-2.92.35-8.72,12.45-11.31,31.21-.48,5.41-1.11,11.41-1.65,18.08-.2,2.08-2.09,3.45-4.22,3.71a5.1,5.1,0,0,1-5.92-4.63c-.59-4.82,3.93-32,2.74-41.66-.3-2.47-1.05-4-2.29-3.82-5.15.63-11.39,24.06-12.21,48.86C195.92,168.87,194,170.24,191.91,170.5Z" fill="#624ca1"/><path d="M282.36,113.39c1.32,10.77-4.9,26.91-16.79,28.37a14.88,14.88,0,0,1-4.34-.15c.6,4.93,2.1,13.4,9,12.55,10.66-1.31,14.89-14.13,17.24-19.08.54-1.21,1-1.73,1.6-1.8s.84.36.93,1a4.46,4.46,0,0,1-.15,1.61c-3.5,13.18-10.14,24-23,25.6-9.65,1.19-14.65-7.08-16-17.74-2.05-16.71,4.94-39.54,16.72-41a10.91,10.91,0,0,1,6.63,1.13C279,103.9,281.68,107.9,282.36,113.39ZM262,138.55c6.62-.81,14-19.7,12.9-28.45-.22-1.8-.68-3.68-2.36-3.47-6.39.79-11.76,18.3-11.45,31.92A2.53,2.53,0,0,0,262,138.55Z" fill="#624ca1"/><path d="M320.44,143.56c.29,2.35,1,3.63,2.47,3.45,4.15-.51,8.65-14.84,9.58-17.46.53-1.31,1.12-2.07,1.68-2.14s.84.36.92,1a4.63,4.63,0,0,1-.21,2c-1.09,4.12-5.34,23.31-14.76,24.47-4.38.54-8.46-2.15-9.5-10.56-.82-6.73.89-28,3.35-45,.33-2,2-3.2,4.13-3.46a5.65,5.65,0,0,1,6.54,5C325.37,106.75,319.38,134.92,320.44,143.56Zm-6.88-57.91c-.6-4.82,2.56-11.58,8.73-12.34,4.6-.56,6.95,1.88,7.33,5,.58,4.71-3.29,11.22-10.36,12.09C315.79,90.84,313.91,88.57,313.56,85.65Z" fill="#624ca1"/><path d="M337.32,153.1a4.9,4.9,0,0,1-5.56-4.44c0-.34,0-.69,0-1-.05-17.07,1.14-28.71,4.21-47.31a4.09,4.09,0,0,1,3.79-3.42,5.32,5.32,0,0,1,6.13,4.48c.36,2.92-1,7.75-1.3,10.75,3.31-11.11,8-20,13.85-20.72,6.62-.81,9.05,5,9.56,9.19,1.55,12.68-6.94,33.42-6.1,40.26.18,1.46.85,2.29,2.08,2.13,4.94-.6,10.86-16.36,11.93-18.77.53-1.2,1.33-2.1,1.9-2.16.33,0,.58.15.65.71a5.86,5.86,0,0,1-.2,2.08c-.85,4.2-6.72,24.05-16.48,25.25-4.49.55-9.13-2.07-10-8.8-1.24-10.09,7-31.72,6.11-39.23-.18-1.46-.89-2.63-2.12-2.47-4.15.5-11.89,19.1-13.77,39.94l-.24.83c-.18,3.21-.29,5.95-.33,8.46A4.48,4.48,0,0,1,337.32,153.1Z" fill="#624ca1"/><path d="M286,130.32c-.56.06-1.07.58-1.6,1.79-2.35,4.95-6.59,17.77-17.24,19.08-7,.85-8.45-7.62-9.06-12.55a15,15,0,0,0,4.35.15c11.89-1.46,18.11-17.6,16.78-28.36-.67-5.5-3.33-9.5-8.11-9.48a10.88,10.88,0,0,0-6.62-1.13c-10.85,1.34-17.62,20.79-17,36.91-1,2.78-5.7,19.51-10.47,20.1-1.46.18-2-.78-2.25-2.57-.91-7.41,6.15-28.77,4.62-41.22-.51-4.15-2.84-9.21-9.46-8.4-5.27.65-9.25,8.08-11.94,17.75.72-7.15.39-16.33-9.37-15.13-5.27.64-9.11,6.47-11.88,14.55.71-4.42.64-5,.58-5.54a5.32,5.32,0,0,0-6.13-4.48,4.12,4.12,0,0,0-3.8,3.42c-1.46,8.76-2.5,19.8-3.12,29.19h0a12.62,12.62,0,0,1-10.13,8.42,58,58,0,0,0,3-25c-1.18-9.64-5.82-16.82-14.8-15.72-7.06.87-11,6.82-12.26,14.15-2.86-.1-4.44,2.82-5.09,5a54.93,54.93,0,0,0-2.61,18.48c-3.54,8.14-8.52,17.5-17.54,18.61-7.74.95-11.63-5.75-12.8-15.28-2.5-20.3,7.18-53.71,18.93-55.38a8.56,8.56,0,0,1,1.25,3.71c1.09,8.87-7,23.75-6,32.16.28,2.24,3.12,3.15,5.93,2.8s5.44-2,5.21-4.85c-.61-5.85,2.39-17.6,1.33-26.24-.58-4.71-2.29-8.48-6.45-9.91-1-1-3.27-1.53-5.51-1.26C109.48,96.2,98.93,130,101.83,153.5c1.7,13.91,8.1,24.28,20.33,22.78,11.07-1.36,17.55-11.81,20.77-20.23,1.56,9.5,6.25,16.57,14.74,15.53,6.39-.78,11.66-7,15.08-15.29a17.46,17.46,0,0,0,11.19-6.18,128.87,128.87,0,0,0-.26,13.61,4.39,4.39,0,0,0,5.14,3.81c2.13-.26,4-1.63,4.08-3.81.83-24.8,7.06-48.23,12.22-48.86,1.24-.15,2,1.35,2.29,3.82,1.19,9.64-3.33,36.84-2.74,41.66a5.09,5.09,0,0,0,5.92,4.63c2.13-.26,4-1.63,4.21-3.71.55-6.67,1.18-12.67,1.66-18.07,2.59-18.77,8.39-30.87,11.31-31.22,1.12-.14,1.69.81,1.9,2.5.9,7.4-5.41,29.24-4.21,39,.83,6.73,5.47,9.34,10,8.79,7-.86,10.87-11.16,12.89-18.42,1.84,9.14,6.75,15.78,15.46,14.71,12.9-1.58,19.54-12.41,23-25.6a4.22,4.22,0,0,0,.14-1.61C286.87,130.67,286.48,130.26,286,130.32ZM160,165.71a2.93,2.93,0,0,1-1,.24c-3.71.45-5.71-3.85-6.44-9.8a51.38,51.38,0,0,1-.07-10.69c2.46,5.16,6.39,9.34,12.58,10.63C163.82,161.38,162.11,165.11,160,165.71ZM166,152c-5.66-2.49-8.49-8.86-9.31-15.48-1.19-9.76,1.7-19.56,5.52-20,2.69-.33,4.22,3.81,4.94,9.64C168,133.42,167.46,143.74,166,152Zm103.47-48.34c1.68-.21,2.14,1.67,2.36,3.47,1.07,8.75-6.29,27.64-12.9,28.45a2.53,2.53,0,0,1-.91,0C257.68,122,263,104.45,269.44,103.66Z" fill="#2c1f4d" stroke="#fff" stroke-miterlimit="10" stroke-width="0.5"/><path d="M316.17,87.45c7.07-.87,10.94-7.38,10.36-12.09-.39-3.14-2.74-5.58-7.34-5-6.16.76-9.32,7.52-8.73,12.34C310.82,85.6,312.69,87.88,316.17,87.45Z" fill="#2c1f4d" stroke="#fff" stroke-miterlimit="10" stroke-width="0.5"/><path d="M375.36,119.8c-.07-.56-.32-.76-.66-.71-.56.07-1.36,1-1.89,2.17-1.07,2.4-7,18.16-11.93,18.77-1.23.15-1.91-.68-2.08-2.14-.84-6.84,7.65-27.58,6.1-40.26-.51-4.15-2.94-10-9.56-9.18-5.83.71-10.55,9.6-13.85,20.71.32-3,1.66-7.83,1.3-10.75a5.32,5.32,0,0,0-6.13-4.48,4.11,4.11,0,0,0-3.79,3.42,296.87,296.87,0,0,0-3.72,30c-1.32,3.87-5.48,16.25-9.33,16.72-1.46.18-2.19-1.1-2.48-3.45-1.06-8.64,4.94-36.81,4.21-42.76a5.66,5.66,0,0,0-6.54-5c-2.13.26-3.8,1.49-4.13,3.47-2.46,17-4.18,38.31-3.35,45,1,8.41,5.12,11.1,9.5,10.56,5.56-.68,9.32-7.65,11.69-14.09-.05,2.2-.07,4.47-.06,6.85,0,.34,0,.69,0,1a4.89,4.89,0,0,0,5.55,4.44,4.49,4.49,0,0,0,4.15-4.27c0-2.51.15-5.25.33-8.46l.23-.83c1.89-20.84,9.62-39.44,13.77-39.94,1.24-.16,1.95,1,2.13,2.47.92,7.51-7.35,29.14-6.11,39.23.82,6.73,5.47,9.35,10,8.8,9.75-1.2,15.63-21,16.48-25.25A5.86,5.86,0,0,0,375.36,119.8Z" fill="#2c1f4d" stroke="#fff" stroke-miterlimit="10" stroke-width="0.5"/><path d="M225.9,186.89l-3.22-9.5,3.55-.34,1.78,5.63,2-5.58,2.78.23L229.55,186l2.09,5.56,4.79-14.31,2.85-.3-6.71,19.84-2.69.24-2.55-6.51-2.85,6.38-2.69.33-7-19.6,3.66-.51,5.16,15Z" fill="#2c1f4d"/><path d="M250.08,179.55a18.4,18.4,0,0,0-4.93-.22l.1,6c1.93,0,4.17-.19,6.08-.17a5.6,5.6,0,0,1-1.08,2.57c-1.71,0-3.22,0-5,.06l.11,6.41c1.06,0,2.24,0,3.3,0s2.1-.26,3-.19a10.79,10.79,0,0,1-.85,2.59l-9.41.16L241,177.16l7.17-.13a14.79,14.79,0,0,1,3,.12A8.43,8.43,0,0,1,250.08,179.55Z" fill="#2c1f4d"/><path d="M253.17,178.57a7.21,7.21,0,0,1,1.67-1.93,11.73,11.73,0,0,1,1.23,1.18c.06.08,1.27,1.94-1.13,4.08,0,0-1,.61-1,.47s1-2,.49-2.5A5.64,5.64,0,0,1,253.17,178.57Z" fill="#2c1f4d"/><path d="M258.49,176.85c2.57,0,5.56-.35,7.59.46a5.42,5.42,0,0,1,3.59,4.59c.27,3.07-2.36,4.46-4.14,5.39l5.45,7.63-3,2-5.6-7.72.13,7.14-3.67.29Zm3.68,2.57.13,7.06,2.27-1.08.35.5c1.74-1.15,1.43-4.65-.1-5.91A3.32,3.32,0,0,0,262.17,179.42Z" fill="#2c1f4d"/><path d="M281.46,179a18.4,18.4,0,0,0-4.93-.22l.1,6c1.93,0,4.17-.19,6.08-.16a5.56,5.56,0,0,1-1.08,2.56c-1.71,0-3.22,0-5,.06l.11,6.41c1.07,0,2.24,0,3.31,0s2.09-.26,3-.19a10.23,10.23,0,0,1-.85,2.59l-9.41.17-.37-19.6,7.17-.12a14.79,14.79,0,0,1,3,.11A8.17,8.17,0,0,1,281.46,179Z" fill="#2c1f4d"/><circle cx="19.98" cy="49.23" r="3" fill="#fff"/><circle cx="473.53" cy="41.31" r="3" fill="#fff"/><circle cx="478.79" cy="342.5" r="3" fill="#fff"/><circle cx="25.24" cy="350.41" r="3" fill="#fff"/></svg>