<svg xmlns="http://www.w3.org/2000/svg" width="250" height="250" viewBox="0 0 250 250"><title>typewriter</title><path d="M208.73,100H39.28l3-65.68A9.32,9.32,0,0,1,51.6,25l64-4.45a114.56,114.56,0,0,1,15.83,0l65,4.46a9.32,9.32,0,0,1,9.32,9.32Z" fill="#118669"/><path d="M29.37,108V79.57a1.93,1.93,0,0,0-.09-.6,1.54,1.54,0,0,0-1.41-1.18h-9A1.54,1.54,0,0,0,17.46,79a1.93,1.93,0,0,0-.09.6V108a1.83,1.83,0,0,0,.09.59,1.54,1.54,0,0,0,1.41,1.19h9a1.56,1.56,0,0,0,1.41-1.19A1.83,1.83,0,0,0,29.37,108Z" fill="#118669" stroke="#118669" stroke-miterlimit="10" stroke-width="3"/><path d="M195.32,230.36H52.69a10,10,0,0,1-10-9.68l-1.69-83H207l-1.68,83A10,10,0,0,1,195.32,230.36Z" fill="#3c2c6a"/><path d="M3.62,85.29H15.77a0,0,0,0,1,0,0v17a0,0,0,0,1,0,0H3.62A3.64,3.64,0,0,1,0,98.65V88.93A3.64,3.64,0,0,1,3.62,85.29Z" fill="#d74d1f"/><path d="M230.63,108V79.57a1.93,1.93,0,0,0-.09-.6,1.54,1.54,0,0,0-1.41-1.18h-9A1.54,1.54,0,0,0,218.72,79a1.93,1.93,0,0,0-.09.6V108a1.83,1.83,0,0,0,.09.59,1.54,1.54,0,0,0,1.41,1.19h9a1.56,1.56,0,0,0,1.41-1.19A1.83,1.83,0,0,0,230.63,108Z" fill="#118669" stroke="#118669" stroke-miterlimit="10" stroke-width="3"/><path d="M132.29,102.1H115.71a5.66,5.66,0,0,0,.79-2.5,7.5,7.5,0,0,1,15,0A5.66,5.66,0,0,0,132.29,102.1Z" fill="#fff" stroke="#000" stroke-miterlimit="10" stroke-width="3"/><path d="M215.33,102.61H32.67c-.42,0-1.79.69-1.79,1.54V83.43c0,.85,1.37,1.53,1.79,1.53H215.33c.43,0,1.8-.68,1.8-1.53v20.72C217.13,103.3,215.76,102.61,215.33,102.61Z" fill="#3c2c6a"/><rect x="168.5" y="182.91" width="27" height="18" rx="7.15" ry="7.15" fill="#118669"/><rect x="51.5" y="182.91" width="27" height="18" rx="7.15" ry="7.15" fill="#118669"/><rect x="87.5" y="182.91" width="18" height="18" rx="7.12" ry="7.12" transform="translate(193.01 383.81) rotate(-180)" fill="#118669"/><rect x="114.5" y="182.91" width="18" height="18" rx="7.12" ry="7.12" transform="translate(247.01 383.81) rotate(-180)" fill="#118669"/><rect x="141.5" y="182.91" width="18" height="18" rx="7.12" ry="7.12" transform="translate(301.01 383.81) rotate(-180)" fill="#118669"/><rect x="51.5" y="155.91" width="18" height="18" rx="7.12" ry="7.12" transform="translate(121.01 329.81) rotate(-180)" fill="#118669"/><rect x="78.5" y="155.91" width="18" height="18" rx="7.12" ry="7.12" transform="translate(175.01 329.81) rotate(-180)" fill="#118669"/><rect x="105.5" y="155.91" width="18" height="18" rx="7.12" ry="7.12" transform="translate(229.01 329.81) rotate(-180)" fill="#118669"/><rect x="132.5" y="155.91" width="18" height="18" rx="7.12" ry="7.12" transform="translate(283.01 329.81) rotate(-180)" fill="#118669"/><rect x="159.5" y="155.91" width="36" height="18" rx="7.15" ry="7.15" transform="translate(355.01 329.81) rotate(-180)" fill="#118669"/><path d="M95.72,209.91h55.57a8.22,8.22,0,0,1,8.22,8.22v7.78a2,2,0,0,1-2,2h-68a2,2,0,0,1-2-2v-7.78a8.22,8.22,0,0,1,8.22-8.22Z" transform="translate(247.01 437.81) rotate(-180)" fill="#d74d1f"/><path d="M193.79,41.32v85.34H54.21V41.32a4.66,4.66,0,0,1,4.66-4.66H189.14A4.66,4.66,0,0,1,193.79,41.32Z" fill="#fff"/><rect x="94.74" y="72.1" width="13.98" height="13.98" rx="5.55" ry="5.55" fill="#3c2c6a"/><rect x="139.29" y="72.1" width="13.98" height="13.98" rx="5.55" ry="5.55" fill="#3c2c6a"/><path d="M208,134.23a2.68,2.68,0,0,1-2.88,2.4H42.88a2.68,2.68,0,0,1-2.88-2.4l1-30.36H207Z" fill="#3c2c6a" stroke="#3c2c6a" stroke-miterlimit="10" stroke-width="3"/><path d="M135.52,94.3c-4,0-2.78,8.8-.7,11.1,4.1,4.55,12.76,5.33,35.2,5.46h.68a6.28,6.28,0,0,1,3.33,1h0c3.09,1.9,4.72,6.14,3.92,10.28s-3.79,7-7.25,7H77.3c-3.47,0-6.47-2.93-7.25-7s.83-8.38,3.91-10.28h0a6.34,6.34,0,0,1,3.34-1H78c22.44-.13,31.09-.91,35.2-5.46,2.08-2.3,3.3-11.1-.7-11.1H39.2a1.59,1.59,0,0,0-1.5,1.62l-1,44.61c0,2,1.34,3.66,3,3.66H208.28c1.64,0,3-1.64,3-3.66l-1-44.61a1.59,1.59,0,0,0-1.5-1.62Z" fill="#118669" stroke="#118669" stroke-miterlimit="10" stroke-width="3"/><path d="M79,112.43h89a9.49,9.49,0,0,1,9.49,9.49v4.51a2,2,0,0,1-2,2H71.5a2,2,0,0,1-2-2v-4.51A9.49,9.49,0,0,1,79,112.43Z" transform="translate(247.01 240.87) rotate(-180)" fill="#3c2c6a"/><rect x="132" y="51.91" width="42.5" height="15" rx="5.02" ry="5.02" fill="#3c2c6a"/><rect x="79.5" y="51.91" width="42.5" height="15" rx="5.02" ry="5.02" fill="#3c2c6a"/><rect x="15.87" y="77.29" width="15" height="1" fill="#3c2c6a"/><rect x="15.87" y="79.29" width="15" height="1" fill="#3c2c6a"/><rect x="15.87" y="87.29" width="15" height="1" fill="#3c2c6a"/><rect x="15.87" y="89.29" width="15" height="1" fill="#3c2c6a"/><rect x="15.87" y="88.29" width="15" height="1" fill="#3c2c6a"/><rect x="15.87" y="80.29" width="15" height="1" fill="#3c2c6a"/><rect x="15.87" y="90.29" width="15" height="1" fill="#3c2c6a"/><rect x="15.87" y="86.29" width="15" height="1" fill="#3c2c6a"/><rect x="15.87" y="98.29" width="15" height="1" fill="#3c2c6a"/><rect x="15.87" y="97.29" width="15" height="1" fill="#3c2c6a"/><rect x="15.87" y="100.29" width="15" height="1" fill="#3c2c6a"/><rect x="15.87" y="96.29" width="15" height="1" fill="#3c2c6a"/><rect x="15.87" y="99.29" width="15" height="1" fill="#3c2c6a"/><rect x="15.87" y="106.29" width="15" height="1" fill="#3c2c6a"/><rect x="15.87" y="107.29" width="15" height="1" fill="#3c2c6a"/><rect x="15.87" y="108.29" width="15" height="1" fill="#3c2c6a"/><rect x="15.87" y="78.29" width="15" height="1" fill="#3c2c6a"/><rect x="15.87" y="109.29" width="15" height="1" fill="#3c2c6a"/><path d="M30.76,77.29a1.89,1.89,0,0,0-1.76-1H17.75a1.89,1.89,0,0,0-1.76,1Z" fill="#3c2c6a"/><path d="M30.87,110.29a1.91,1.91,0,0,1-1.78,1H17.66a1.94,1.94,0,0,1-1.79-1Z" fill="#3c2c6a"/><rect x="217.13" y="77.29" width="15" height="1" fill="#3c2c6a"/><rect x="217.13" y="79.29" width="15" height="1" fill="#3c2c6a"/><rect x="217.13" y="87.29" width="15" height="1" fill="#3c2c6a"/><rect x="217.13" y="89.29" width="15" height="1" fill="#3c2c6a"/><rect x="217.13" y="88.29" width="15" height="1" fill="#3c2c6a"/><rect x="217.13" y="80.29" width="15" height="1" fill="#3c2c6a"/><rect x="217.13" y="90.29" width="15" height="1" fill="#3c2c6a"/><rect x="217.13" y="86.29" width="15" height="1" fill="#3c2c6a"/><rect x="217.13" y="98.29" width="15" height="1" fill="#3c2c6a"/><rect x="217.13" y="97.29" width="15" height="1" fill="#3c2c6a"/><rect x="217.13" y="100.29" width="15" height="1" fill="#3c2c6a"/><rect x="217.13" y="96.29" width="15" height="1" fill="#3c2c6a"/><rect x="217.13" y="99.29" width="15" height="1" fill="#3c2c6a"/><rect x="217.13" y="106.29" width="15" height="1" fill="#3c2c6a"/><rect x="217.13" y="107.29" width="15" height="1" fill="#3c2c6a"/><rect x="217.13" y="108.29" width="15" height="1" fill="#3c2c6a"/><rect x="217.13" y="78.29" width="15" height="1" fill="#3c2c6a"/><rect x="217.13" y="109.29" width="15" height="1" fill="#3c2c6a"/><path d="M232,77.29a1.89,1.89,0,0,0-1.76-1H219a1.89,1.89,0,0,0-1.76,1Z" fill="#3c2c6a"/><path d="M232.13,110.29a1.94,1.94,0,0,1-1.79,1H218.91a1.91,1.91,0,0,1-1.78-1Z" fill="#3c2c6a"/></svg>